<?xml version="1.0" encoding="utf-8"?>
<!-- Generator: Adobe Illustrator 27.3.1, SVG Export Plug-In . SVG Version: 6.00 Build 0)  -->
<svg version="1.1" id="레이어_1" xmlns="http://www.w3.org/2000/svg" xmlns:xlink="http://www.w3.org/1999/xlink" x="0px"
	 y="0px" viewBox="0 0 504.3 141.7" style="enable-background:new 0 0 504.3 141.7;" xml:space="preserve">
<style type="text/css">
	.st0{fill:#28201B;}
	.st1{fill:#6658F0;}
	.st2{fill:#DAD8FA;}
	.st3{fill:#D5D5D5;}
</style>
<g>
	<g>
		<path class="st0" d="M202.5,79.3l-9.7,11.1v15.9H177V35.5h15.8v33.4l28.4-33.4h19.4l-27.8,32.1l29.3,38.8h-19.8L202.5,79.3z"/>
		<path class="st0" d="M248.9,35.5h12.6l24.5,39.7l24.4-39.7H323v70.9h-15.8V67.5l-16.4,27.2h-9.6l-16.4-27.2v38.9h-15.8V35.5z"/>
		<path class="st0" d="M335.5,35.5h30.8c15.7,0,24.6,8.2,24.6,21.1c0,5-3.4,10.8-8.3,12.6c6.8,2.2,11.6,8.8,11.6,15.7
			c0,13.1-9.4,21.5-25.3,21.5h-33.4V35.5z M365.6,64.2c6,0,9.5-2.6,9.5-7.6c0-5-3.5-7.7-9.5-7.7h-14.3v15.2H365.6z M368.2,92.9
			c6.3,0,10.2-2.8,10.2-8s-3.9-8-10.2-8h-16.9v16H368.2z"/>
		<path class="st0" d="M419.4,35.5v70.9h-15.8V35.5H419.4z"/>
		<path class="st0" d="M502.8,57.4h-17.4c-3-5.2-9.7-9.2-18.3-9.2c-12.9,0-22.4,9.5-22.4,22.7c0,13.3,9.6,23,22.4,23
			c11,0,18.7-6.8,20.4-13.7h-21.7V66.7h38.5v4.2c0,21.5-16.1,37.2-37.6,37.2c-21.8,0-37.9-15.7-37.9-37.2
			c0-21.5,16.1-37.2,37.9-37.2C485.3,33.6,498.7,44.1,502.8,57.4z"/>
	</g>
	<g>
		<path class="st1" d="M141.6,28.6c0,7.3-2.8,14.6-8.4,20.2l-82.9,82.9l-1.6,1.6c-11.2,11.2-29.3,11.2-40.4,0
			c-1.5-1.5-2.8-3.2-3.9-4.9c-0.2-0.3-0.3-0.5-0.5-0.8c-0.1-0.2-0.2-0.4-0.3-0.6c-0.1-0.1-0.1-0.2-0.2-0.4c-0.1-0.2-0.2-0.3-0.3-0.5
			c-0.1-0.2-0.2-0.5-0.4-0.7C1,121.7,0,117.6,0,113.2V76c0.4,5.6,5,10,10.7,10c3,0,5.7-1.2,7.6-3.2L92.8,8.4
			c11.2-11.2,29.3-11.2,40.4,0C138.8,14,141.6,21.3,141.6,28.6z"/>
		<path class="st1" d="M113,141.7L113,141.7c-15.8,0-28.6-12.8-28.6-28.6v0c0-15.8,12.8-28.6,28.6-28.6h0
			c15.8,0,28.6,12.8,28.6,28.6v0C141.6,128.9,128.8,141.7,113,141.7z"/>
		<path class="st2" d="M57.2,28.6V44L18.4,82.8c-1.9,1.9-4.6,3.2-7.6,3.2C5.1,86,0.4,81.6,0,76V28.6C0,12.8,12.8,0,28.6,0
			c7.9,0,15,3.2,20.2,8.4C54,13.6,57.2,20.7,57.2,28.6z"/>
		<path class="st3" d="M0,74.5V76c0-0.2,0-0.5,0-0.8C0,75,0,74.7,0,74.5z"/>
	</g>
</g>
</svg>
