<svg xmlns="http://www.w3.org/2000/svg" xmlns:xlink="http://www.w3.org/1999/xlink" width="230.967" height="30" viewBox="0 0 230.967 30">
  <defs>
    <clipPath id="clip-path">
      <rect id="사각형_125" data-name="사각형 125" width="230.967" height="30" fill="none"/>
    </clipPath>
  </defs>
  <g id="그룹_302" data-name="그룹 302" clip-path="url(#clip-path)">
    <path id="패스_108" data-name="패스 108" d="M24.639,1.414H20.419V20.8h4.219V10.732h3.424V7.972H24.639Zm-7.924,8.5a6.856,6.856,0,0,0-1.874-4.727h2.42V2.435H10.807V0H6.584V2.435H0V5.188H2.757A6.856,6.856,0,0,0,.883,9.916c0,4.007,3.347,7.195,7.914,7.195s7.918-3.187,7.918-7.195m-11.661,0c0-2.646,1.6-4.727,3.743-4.727s3.746,2.081,3.746,4.727-1.6,4.723-3.746,4.723S5.054,12.566,5.054,9.916m77.787-8.5H78.619V20.8h4.222V10.732h3.422V7.972H82.841Zm-7.925,8.5a6.854,6.854,0,0,0-1.874-4.727h2.423V2.435H69.005V0H64.782V2.435H58.2V5.188h2.756a6.855,6.855,0,0,0-1.875,4.727c0,4.007,3.35,7.195,7.915,7.195s7.919-3.187,7.919-7.195m-11.662,0c0-2.646,1.6-4.727,3.743-4.727s3.744,2.081,3.744,4.727S69.147,14.638,67,14.638s-3.743-2.073-3.743-4.723m45.837,10.943H88.542v2.753h20.55V30h4.152V1.156h-4.152ZM97.544,16.41c4.59,0,8.524-3.057,8.524-7.607s-3.935-7.612-8.524-7.612-8.53,3.052-8.53,7.612,3.934,7.607,8.53,7.607m0-12.7c2.462,0,4.249,2.106,4.249,5.092S100,13.889,97.541,13.889s-4.25-2.1-4.25-5.086,1.786-5.092,4.25-5.092m44.27-2.6h-4.223V17.432h4.223V9.657h3.16V6.9h-3.16ZM133.822,9.5a6.3,6.3,0,0,0-1.687-4.315h2.3V2.435h-6.453V0H123.75V2.435h-6.582V5.188H119.8A6.3,6.3,0,0,0,118.115,9.5c0,3.835,3.283,6.785,7.851,6.785s7.856-2.949,7.856-6.785m-11.533,0c0-2.3,1.53-4.315,3.677-4.315s3.681,2.02,3.681,4.315-1.531,4.313-3.681,4.313S122.289,11.8,122.289,9.5m46.191-4.28h-5.336a8.5,8.5,0,0,0-7.37-3.779c-4.78,0-8.532,3.23-8.532,7.613s3.752,7.608,8.532,7.608a8.664,8.664,0,0,0,6.934-3.154h5.773v7.563h4.153V1.414h-4.153Zm-12.714,8.918c-2.635,0-4.245-2.275-4.245-5.083s1.611-5.1,4.245-5.1,4.248,2.281,4.248,5.1-1.613,5.083-4.248,5.083m12.714-3.3H164a7.392,7.392,0,0,0,.223-1.786,7.5,7.5,0,0,0-.1-1.17h4.352Zm43.5,10.1h4.151V16.935h8.331V14.268H205.75v2.667h6.229ZM226.814,1.414v17.22h-6V21.3h6v2.124h4.153V1.414Zm-12.49,11.528c4.747,0,7.8-2.608,7.8-5.977S219.07.992,214.323.992s-7.8,2.608-7.8,5.973,3.055,5.977,7.8,5.977m0-9.483a3.51,3.51,0,1,1-3.581,3.506,3.48,3.48,0,0,1,3.581-3.506M8.629,26.317v-6.27H4.408v6.606A3.184,3.184,0,0,0,7.751,30H24.6V27.245H9.561a.867.867,0,0,1-.932-.928M53.036,5.3a3.183,3.183,0,0,0-3.344-3.346H31.879V4.713h16a.868.868,0,0,1,.931.93v6.565H29.059v2.754H40.115v4.861H31.879v2.749h16a.871.871,0,0,1,.931.933V30h4.222V23.166a3.18,3.18,0,0,0-3.344-3.343H44.34V14.962H55.754V12.208H53.036Zm85.475,13.657H121.228v2.752H136.7a.87.87,0,0,1,.932.934V30h4.221V22.306a3.184,3.184,0,0,0-3.343-3.346M66.833,26.317v-6.27H62.61v6.606A3.183,3.183,0,0,0,65.95,30H82.809V27.245H67.761a.866.866,0,0,1-.928-.928m89.7,0V19.853H152.3v6.8A3.185,3.185,0,0,0,155.65,30H172.5V27.245H157.458a.867.867,0,0,1-.929-.928m58.335,0V23h-4.219v3.65A3.181,3.181,0,0,0,213.984,30H230.84V27.245H215.795a.868.868,0,0,1-.931-.928M199.979,5.145A3.185,3.185,0,0,0,196.635,1.8H179.352V4.553h15.47a.87.87,0,0,1,.932.932v9.782H176.533v2.749h11.032V30h4.223V18.015h10.9V15.266h-2.714Z" transform="translate(0 0)" fill="#1a1311"/>
  </g>
</svg>
