<svg xmlns="http://www.w3.org/2000/svg" width="809" height="451.5" viewBox="0 0 809 451.5">
  <g id="그룹_799" data-name="그룹 799" transform="translate(-107 -1470)">
    <line id="수평선1" x2="759.546" transform="translate(155.453 1893.5)" fill="none" stroke="#646673" stroke-width="1" stroke-dasharray="4 2"/>
    <line id="수평선1-2" data-name="수평선1" x2="416.5" transform="translate(155.5 1477) rotate(90)" fill="none" stroke="#ccc" stroke-width="1" stroke-dasharray="4 2"/>
    <line id="수평선2" x2="416.5" transform="translate(915.5 1477) rotate(90)" fill="none" stroke="#ccc" stroke-width="1" stroke-dasharray="4 2"/>
    <line id="수평선2-2" data-name="수평선2" x2="759.546" transform="translate(155.453 1834.5)" fill="none" stroke="#646673" stroke-width="1" stroke-dasharray="4 2"/>
    <line id="수평선2-3" data-name="수평선2" x2="759.546" transform="translate(155.453 1845.5)" fill="none" stroke="#ccc" stroke-width="1" stroke-dasharray="4 2"/>
    <line id="수평선2-4" data-name="수평선2" x2="759.546" transform="translate(155.453 1786.5)" fill="none" stroke="#ccc" stroke-width="1" stroke-dasharray="4 2"/>
    <line id="수평선2-5" data-name="수평선2" x2="759.546" transform="translate(155.453 1727.5)" fill="none" stroke="#ccc" stroke-width="1" stroke-dasharray="4 2"/>
    <line id="수평선2-6" data-name="수평선2" x2="759.546" transform="translate(155.453 1667.5)" fill="none" stroke="#ccc" stroke-width="1" stroke-dasharray="4 2"/>
    <line id="수평선2-7" data-name="수평선2" x2="759.546" transform="translate(155.453 1608.5)" fill="none" stroke="#ccc" stroke-width="1" stroke-dasharray="4 2"/>
    <line id="수평선2-8" data-name="수평선2" x2="759.546" transform="translate(155.453 1548.5)" fill="none" stroke="#ccc" stroke-width="1" stroke-dasharray="4 2"/>
    <line id="수평선2-9" data-name="수평선2" x2="759.546" transform="translate(155.453 1489.5)" fill="none" stroke="#ccc" stroke-width="1" stroke-dasharray="4 2"/>
    <line id="수평선2-10" data-name="수평선2" x2="759.546" transform="translate(155.453 1857.5)" fill="none" stroke="#ccc" stroke-width="1" stroke-dasharray="4 2"/>
    <line id="수평선2-11" data-name="수평선2" x2="759.546" transform="translate(155.453 1798.5)" fill="none" stroke="#ccc" stroke-width="1" stroke-dasharray="4 2"/>
    <line id="수평선2-12" data-name="수평선2" x2="759.546" transform="translate(155.453 1738.5)" fill="none" stroke="#ccc" stroke-width="1" stroke-dasharray="4 2"/>
    <line id="수평선2-13" data-name="수평선2" x2="759.546" transform="translate(155.453 1679.5)" fill="none" stroke="#ccc" stroke-width="1" stroke-dasharray="4 2"/>
    <line id="수평선2-14" data-name="수평선2" x2="759.546" transform="translate(155.453 1620.5)" fill="none" stroke="#ccc" stroke-width="1" stroke-dasharray="4 2"/>
    <line id="수평선2-15" data-name="수평선2" x2="759.546" transform="translate(155.453 1560.5)" fill="none" stroke="#ccc" stroke-width="1" stroke-dasharray="4 2"/>
    <line id="수평선2-16" data-name="수평선2" x2="759.546" transform="translate(155.453 1501.5)" fill="none" stroke="#ccc" stroke-width="1" stroke-dasharray="4 2"/>
    <line id="수평선2-17" data-name="수평선2" x2="759.546" transform="translate(155.453 1869.5)" fill="none" stroke="#ccc" stroke-width="1" stroke-dasharray="4 2"/>
    <line id="수평선2-18" data-name="수평선2" x2="759.546" transform="translate(155.453 1810.5)" fill="none" stroke="#ccc" stroke-width="1" stroke-dasharray="4 2"/>
    <line id="수평선2-19" data-name="수평선2" x2="759.546" transform="translate(155.453 1750.5)" fill="none" stroke="#ccc" stroke-width="1" stroke-dasharray="4 2"/>
    <line id="수평선2-20" data-name="수평선2" x2="759.546" transform="translate(155.453 1691.5)" fill="none" stroke="#ccc" stroke-width="1" stroke-dasharray="4 2"/>
    <line id="수평선2-21" data-name="수평선2" x2="759.546" transform="translate(155.453 1632.5)" fill="none" stroke="#ccc" stroke-width="1" stroke-dasharray="4 2"/>
    <line id="수평선2-22" data-name="수평선2" x2="759.546" transform="translate(155.453 1572.5)" fill="none" stroke="#ccc" stroke-width="1" stroke-dasharray="4 2"/>
    <line id="수평선2-23" data-name="수평선2" x2="759.546" transform="translate(155.453 1513.5)" fill="none" stroke="#ccc" stroke-width="1" stroke-dasharray="4 2"/>
    <line id="수평선2-24" data-name="수평선2" x2="759.546" transform="translate(155.453 1881.5)" fill="none" stroke="#ccc" stroke-width="1" stroke-dasharray="4 2"/>
    <line id="수평선2-25" data-name="수평선2" x2="759.546" transform="translate(155.453 1822.5)" fill="none" stroke="#ccc" stroke-width="1" stroke-dasharray="4 2"/>
    <line id="수평선2-26" data-name="수평선2" x2="759.546" transform="translate(155.453 1762.5)" fill="none" stroke="#ccc" stroke-width="1" stroke-dasharray="4 2"/>
    <line id="수평선2-27" data-name="수평선2" x2="759.546" transform="translate(155.453 1703.5)" fill="none" stroke="#ccc" stroke-width="1" stroke-dasharray="4 2"/>
    <line id="수평선2-28" data-name="수평선2" x2="759.546" transform="translate(155.453 1643.5)" fill="none" stroke="#ccc" stroke-width="1" stroke-dasharray="4 2"/>
    <line id="수평선2-29" data-name="수평선2" x2="759.546" transform="translate(155.453 1584.5)" fill="none" stroke="#ccc" stroke-width="1" stroke-dasharray="4 2"/>
    <line id="수평선2-30" data-name="수평선2" x2="759.546" transform="translate(155.453 1525.5)" fill="none" stroke="#ccc" stroke-width="1" stroke-dasharray="4 2"/>
    <line id="수평선2-31" data-name="수평선2" x2="759.546" transform="translate(155.453 1715.5)" fill="none" stroke="#646673" stroke-width="1" stroke-dasharray="4 2"/>
    <line id="수평선2-32" data-name="수평선2" x2="759.546" transform="translate(155.453 1596.5)" fill="none" stroke="#646673" stroke-width="1" stroke-dasharray="4 2"/>
    <line id="수평선2-33" data-name="수평선2" x2="759.546" transform="translate(155.5 1774.5)" fill="none" stroke="#646673" stroke-width="1" stroke-dasharray="4 2"/>
    <line id="수평선2-34" data-name="수평선2" x2="759.546" transform="translate(155.5 1655.5)" fill="none" stroke="#646673" stroke-width="1" stroke-dasharray="4 2"/>
    <line id="수평선2-35" data-name="수평선2" x2="759.546" transform="translate(155.5 1536.5)" fill="none" stroke="#646673" stroke-width="1" stroke-dasharray="4 2"/>
    <line id="수평선2-36" data-name="수평선2" x2="759.546" transform="translate(155.5 1477.5)" fill="none" stroke="#646673" stroke-width="1" stroke-dasharray="4 2"/>
    <line id="수평선2-37" data-name="수평선2" x2="416.5" transform="translate(408.5 1477) rotate(90)" fill="none" stroke="#ccc" stroke-width="1" stroke-dasharray="4 2"/>
    <line id="수평선3" x2="416.436" transform="translate(662.5 1477) rotate(90)" fill="none" stroke="#ccc" stroke-width="1" stroke-dasharray="4 2"/>
    <text id="_1회차" data-name="1회차" transform="translate(282 1917.5)" font-size="14" font-family="SUIT-Regular, SUIT"><tspan x="-14" y="0">1회차</tspan></text>
    <text id="_36_" data-name="36℃" transform="translate(150 1780)" font-size="14" font-family="SUIT-Regular, SUIT"><tspan x="-31" y="0">36℃</tspan></text>
    <text id="_35.5_" data-name="35.5℃" transform="translate(150 1839)" font-size="14" font-family="SUIT-Regular, SUIT"><tspan x="-42" y="0">35.5℃</tspan></text>
    <text id="_35_" data-name="35℃" transform="translate(150 1898)" font-size="14" font-family="SUIT-Regular, SUIT"><tspan x="-31" y="0">35℃</tspan></text>
    <text id="_37_" data-name="37℃" transform="translate(150 1661)" font-size="14" font-family="SUIT-Regular, SUIT"><tspan x="-30" y="0">37℃</tspan></text>
    <text id="_38_" data-name="38℃" transform="translate(150 1543)" font-size="14" font-family="SUIT-Regular, SUIT"><tspan x="-31" y="0">38℃</tspan></text>
    <text id="_36.5_" data-name="36.5℃" transform="translate(150 1721)" font-size="14" font-family="SUIT-Regular, SUIT"><tspan x="-42" y="0">36.5℃</tspan></text>
    <text id="_37.5_" data-name="37.5℃" transform="translate(150 1602)" font-size="14" font-family="SUIT-Regular, SUIT"><tspan x="-42" y="0">37.5℃</tspan></text>
    <text id="_38.5_" data-name="38.5℃" transform="translate(150 1484)" font-size="14" font-family="SUIT-Regular, SUIT"><tspan x="-42" y="0">38.5℃</tspan></text>
    <text id="_2회차" data-name="2회차" transform="translate(535 1917.5)" font-size="14" font-family="SUIT-Regular, SUIT"><tspan x="-16" y="0">2회차</tspan></text>
    <text id="_3회차" data-name="3회차" transform="translate(789 1917.5)" font-size="14" font-family="SUIT-Regular, SUIT"><tspan x="-16" y="0">3회차</tspan></text>
    <path id="사각형_536" data-name="사각형 536" d="M7,0H107a7,7,0,0,1,7,7V250a0,0,0,0,1,0,0H0a0,0,0,0,1,0,0V7A7,7,0,0,1,7,0Z" transform="translate(225 1643)" fill="#4f40f1"/>
    <path id="사각형_537" data-name="사각형 537" d="M7,0H107a7,7,0,0,1,7,7V226a0,0,0,0,1,0,0H0a0,0,0,0,1,0,0V7A7,7,0,0,1,7,0Z" transform="translate(478 1667)" fill="#9187f6"/>
    <path id="사각형_538" data-name="사각형 538" d="M7,0H107a7,7,0,0,1,7,7V177a0,0,0,0,1,0,0H0a0,0,0,0,1,0,0V7A7,7,0,0,1,7,0Z" transform="translate(732 1716)" fill="#d2cffb"/>
  </g>
</svg>
