<svg xmlns="http://www.w3.org/2000/svg" xmlns:xlink="http://www.w3.org/1999/xlink" width="390" height="462" viewBox="0 0 390 462">
  <defs>
    <filter id="타원_315" x="17" y="71" width="245" height="246" filterUnits="userSpaceOnUse">
      <feOffset dy="3" input="SourceAlpha"/>
      <feGaussianBlur stdDeviation="3" result="blur"/>
      <feFlood flood-opacity="0.161"/>
      <feComposite operator="in" in2="blur"/>
    </filter>
    <filter id="타원_315-2" x="17" y="71" width="245" height="246" filterUnits="userSpaceOnUse">
      <feOffset dy="3" input="SourceAlpha"/>
      <feGaussianBlur stdDeviation="3" result="blur-2"/>
      <feFlood flood-opacity="0.081" result="color"/>
      <feComposite operator="out" in="SourceGraphic" in2="blur-2"/>
      <feComposite operator="in" in="color"/>
      <feComposite operator="in" in2="SourceGraphic"/>
    </filter>
    <filter id="타원_316" x="179" y="131" width="197" height="197" filterUnits="userSpaceOnUse">
      <feOffset dy="3" input="SourceAlpha"/>
      <feGaussianBlur stdDeviation="3" result="blur-3"/>
      <feFlood flood-opacity="0.161"/>
      <feComposite operator="in" in2="blur-3"/>
      <feComposite in="SourceGraphic"/>
    </filter>
    <filter id="타원_317" x="139" y="232" width="139" height="139" filterUnits="userSpaceOnUse">
      <feOffset dy="3" input="SourceAlpha"/>
      <feGaussianBlur stdDeviation="3" result="blur-4"/>
      <feFlood flood-opacity="0.161"/>
      <feComposite operator="in" in2="blur-4"/>
      <feComposite in="SourceGraphic"/>
    </filter>
    <filter id="교차_3" x="139" y="232" width="108.855" height="84.661" filterUnits="userSpaceOnUse">
      <feOffset dy="3" input="SourceAlpha"/>
      <feGaussianBlur stdDeviation="3" result="blur-5"/>
      <feFlood flood-color="#313241" flood-opacity="0.502"/>
      <feComposite operator="in" in2="blur-5"/>
    </filter>
    <filter id="교차_3-2" x="139" y="232" width="108.855" height="84.661" filterUnits="userSpaceOnUse">
      <feOffset dy="3" input="SourceAlpha"/>
      <feGaussianBlur stdDeviation="3" result="blur-6"/>
      <feFlood flood-opacity="0.145" result="color-2"/>
      <feComposite operator="out" in="SourceGraphic" in2="blur-6"/>
      <feComposite operator="in" in="color-2"/>
      <feComposite operator="in" in2="SourceGraphic"/>
    </filter>
    <filter id="교차_4" x="179" y="137.932" width="83" height="156.349" filterUnits="userSpaceOnUse">
      <feOffset dy="3" input="SourceAlpha"/>
      <feGaussianBlur stdDeviation="3" result="blur-7"/>
      <feFlood flood-opacity="0.161"/>
      <feComposite operator="in" in2="blur-7"/>
    </filter>
    <filter id="교차_4-2" x="179" y="137.932" width="83" height="156.349" filterUnits="userSpaceOnUse">
      <feOffset dy="3" input="SourceAlpha"/>
      <feGaussianBlur stdDeviation="3" result="blur-8"/>
      <feFlood flood-opacity="0.145" result="color-3"/>
      <feComposite operator="out" in="SourceGraphic" in2="blur-8"/>
      <feComposite operator="in" in="color-3"/>
      <feComposite operator="in" in2="SourceGraphic"/>
    </filter>
    <filter id="교차_5" x="180.192" y="232" width="97.807" height="95.346" filterUnits="userSpaceOnUse">
      <feOffset dy="3" input="SourceAlpha"/>
      <feGaussianBlur stdDeviation="3" result="blur-9"/>
      <feFlood flood-color="#7c71f7" flood-opacity="0.302"/>
      <feComposite operator="in" in2="blur-9"/>
      <feComposite in="SourceGraphic"/>
    </filter>
    <filter id="교차_2" x="180.193" y="232" width="67.663" height="62.28" filterUnits="userSpaceOnUse">
      <feOffset dy="3" input="SourceAlpha"/>
      <feGaussianBlur stdDeviation="3" result="blur-10"/>
      <feFlood flood-color="#7eb18e" flood-opacity="0.161"/>
      <feComposite operator="in" in2="blur-10"/>
    </filter>
    <filter id="교차_2-2" x="180.193" y="232" width="67.663" height="62.28" filterUnits="userSpaceOnUse">
      <feOffset dy="3" input="SourceAlpha"/>
      <feGaussianBlur stdDeviation="3" result="blur-11"/>
      <feFlood flood-color="#7eb18e" flood-opacity="0.453" result="color-4"/>
      <feComposite operator="out" in="SourceGraphic" in2="blur-11"/>
      <feComposite operator="in" in="color-4"/>
      <feComposite operator="in" in2="SourceGraphic"/>
    </filter>
  </defs>
  <g id="그룹_793" data-name="그룹 793" transform="translate(-90 -1303)">
    <rect id="사각형_225" data-name="사각형 225" width="390" height="462" transform="translate(90 1303)" fill="#fff"/>
    <g data-type="innerShadowGroup">
      <g transform="matrix(1, 0, 0, 1, 90, 1303)" filter="url(#타원_315)">
        <g id="타원_315-3" data-name="타원 315" transform="translate(26 77)" fill="rgba(79,64,241,0.5)" stroke="#4f40f1" stroke-width="2">
          <ellipse cx="113.5" cy="114" rx="113.5" ry="114" stroke="none"/>
          <ellipse cx="113.5" cy="114" rx="112.5" ry="113" fill="none"/>
        </g>
      </g>
      <ellipse id="타원_315-4" data-name="타원 315" cx="113.5" cy="114" rx="113.5" ry="114" transform="translate(116 1380)" fill="rgba(79,64,241,0.5)"/>
      <g transform="matrix(1, 0, 0, 1, 90, 1303)" filter="url(#타원_315-2)">
        <ellipse id="타원_315-5" data-name="타원 315" cx="113.5" cy="114" rx="113.5" ry="114" transform="translate(26 77)" fill="#fff"/>
      </g>
      <g id="타원_315-6" data-name="타원 315" transform="translate(116 1380)" fill="none" stroke="#4f40f1" stroke-width="2">
        <ellipse cx="113.5" cy="114" rx="113.5" ry="114" stroke="none"/>
        <ellipse cx="113.5" cy="114" rx="112.5" ry="113" fill="none"/>
      </g>
    </g>
    <g transform="matrix(1, 0, 0, 1, 90, 1303)" filter="url(#타원_316)">
      <g id="타원_316-2" data-name="타원 316" transform="translate(188 137)" fill="rgba(242,116,141,0.5)" stroke="#f2748d" stroke-width="2">
        <circle cx="89.5" cy="89.5" r="89.5" stroke="none"/>
        <circle cx="89.5" cy="89.5" r="88.5" fill="none"/>
      </g>
    </g>
    <g transform="matrix(1, 0, 0, 1, 90, 1303)" filter="url(#타원_317)">
      <g id="타원_317-2" data-name="타원 317" transform="translate(148 238)" fill="rgba(210,207,251,0.5)" stroke="#d2cffb" stroke-width="2">
        <circle cx="60.5" cy="60.5" r="60.5" stroke="none"/>
        <circle cx="60.5" cy="60.5" r="59.5" fill="none"/>
      </g>
    </g>
    <text id="설진" transform="translate(368 1536)" fill="#fff" font-size="18" font-family="SUIT-Medium, SUIT" font-weight="500"><tspan x="-15" y="0">설진</tspan></text>
    <text id="타액_분비량" data-name="타액 분비량" transform="translate(230 1502)" fill="#fff" font-size="20" font-family="SUIT-Medium, SUIT" font-weight="500"><tspan x="-46" y="0">타액 분비량</tspan></text>
    <g id="그룹_430" data-name="그룹 430" transform="translate(0 -610)">
      <text id="타액_분비량-2" data-name="타액 분비량" transform="translate(118 2361)" fill="#5b5d6b" font-size="14" font-family="SUIT-Regular, SUIT"><tspan x="0" y="0">타액 분비량</tspan></text>
      <circle id="타원_318" data-name="타원 318" cx="6" cy="6" r="6" transform="translate(99 2350)" fill="#4f40f1"/>
    </g>
    <g id="그룹_431" data-name="그룹 431" transform="translate(103 -610)">
      <text id="설진-2" data-name="설진" transform="translate(118 2361)" fill="#5b5d6b" font-size="14" font-family="SUIT-Regular, SUIT"><tspan x="0" y="0">설진</tspan></text>
      <circle id="타원_318-2" data-name="타원 318" cx="6" cy="6" r="6" transform="translate(99 2350)" fill="#f2748d"/>
    </g>
    <g id="그룹_432" data-name="그룹 432" transform="translate(166 -610)">
      <text id="구취" transform="translate(118 2361)" fill="#5b5d6b" font-size="14" font-family="SUIT-Regular, SUIT"><tspan x="0" y="0">구취</tspan></text>
      <circle id="타원_318-3" data-name="타원 318" cx="6" cy="6" r="6" transform="translate(99 2350)" fill="#dfdef7"/>
    </g>
    <line id="선_156" data-name="선 156" y1="134" transform="translate(230 1335.5)" fill="none" stroke="#a9a9c9" stroke-width="1"/>
    <line id="선_157" data-name="선 157" y1="105" transform="translate(367 1404.832)" fill="none" stroke="#a9a9c9" stroke-width="1"/>
    <g id="타원_335" data-name="타원 335" transform="translate(227 1332)" fill="#fff" stroke="#a9a9c9" stroke-width="1">
      <circle cx="3" cy="3" r="3" stroke="none"/>
      <circle cx="3" cy="3" r="2.5" fill="none"/>
    </g>
    <g id="타원_336" data-name="타원 336" transform="translate(364 1401.332)" fill="#fff" stroke="#a9a9c9" stroke-width="1">
      <circle cx="3" cy="3" r="3" stroke="none"/>
      <circle cx="3" cy="3" r="2.5" fill="none"/>
    </g>
    <text id="_80_" data-name="80%" transform="translate(238 1341)" font-size="16" font-family="SUIT-Regular, SUIT"><tspan x="0" y="0">80%</tspan></text>
    <text id="_60_" data-name="60%" transform="translate(375 1409.832)" font-size="16" font-family="SUIT-Regular, SUIT"><tspan x="0" y="0">60%</tspan></text>
    <text id="_30_" data-name="30%" transform="translate(306 1694)" font-size="16" font-family="SUIT-Regular, SUIT"><tspan x="0" y="0">30%</tspan></text>
    <text id="_30_2" data-name="30%" transform="translate(184 1673)" font-size="16" font-family="SUIT-Regular, SUIT"><tspan x="0" y="0">30%</tspan></text>
    <text id="_80_2" data-name="80%" transform="translate(404 1330)" font-size="16" font-family="SUIT-Regular, SUIT"><tspan x="0" y="0">80%</tspan></text>
    <text id="_80_3" data-name="80%" transform="translate(383 1380)" font-size="16" font-family="SUIT-Regular, SUIT"><tspan x="0" y="0">80%</tspan></text>
    <g data-type="innerShadowGroup">
      <g transform="matrix(1, 0, 0, 1, 90, 1303)" filter="url(#교차_3)">
        <g id="교차_3-3" data-name="교차 3" transform="translate(26 77)" fill="rgba(79,64,241,0.9)">
          <path d="M 123.2146530151367 226.5842437744141 C 123.0723876953125 224.8996734619141 123.0004043579102 223.1937866210938 123.0004043579102 221.4999084472656 C 123.0004043579102 213.4669799804688 124.5734176635742 205.6748809814453 127.6757431030273 198.340087890625 C 129.1668548583984 194.8146820068359 131.0124816894531 191.4143676757812 133.161376953125 188.2335815429688 C 135.2900238037109 185.0827484130859 137.7346649169922 182.1198120117188 140.4273834228516 179.4270935058594 C 143.1201171875 176.7343597412109 146.0830383300781 174.2897186279297 149.2338714599609 172.1610717773438 C 152.4146575927734 170.0121917724609 155.8149871826172 168.1665496826172 159.3403778076172 166.6754455566406 C 166.6751708984375 163.5731201171875 174.4672546386719 162.0001068115234 182.5001983642578 162.0001068115234 C 187.8341369628906 162.0001068115234 193.1221008300781 162.7057952880859 198.2171936035156 164.0975189208984 C 202.8426513671875 165.3609771728516 207.3065948486328 167.1881103515625 211.5000152587891 169.5331878662109 C 207.1545104980469 177.2534942626953 201.8982238769531 184.4618682861328 195.8662414550781 190.9713439941406 C 189.6249389648438 197.7067260742188 182.5772399902344 203.6681213378906 174.9189605712891 208.6899566650391 C 167.1617279052734 213.7766571044922 158.8001556396484 217.8836975097656 150.0665130615234 220.8969879150391 C 141.4071960449219 223.8846435546875 132.3788909912109 225.7965240478516 123.2146530151367 226.5842437744141 Z" stroke="none"/>
          <path d="M 124.1349868774414 225.496826171875 C 132.8716125488281 224.6657562255859 141.4761047363281 222.8030242919922 149.7403564453125 219.9516754150391 C 158.3957672119141 216.9653625488281 166.6825714111328 212.8950347900391 174.37060546875 207.8537139892578 C 181.9611206054688 202.8763122558594 188.9465179443359 196.9675903320312 195.1327514648438 190.2916412353516 C 200.8818054199219 184.0874938964844 205.9203033447266 177.2422180175781 210.1284332275391 169.9218902587891 C 206.2642364501953 167.8477020263672 202.177734375 166.2159881591797 197.9536895751953 165.0621795654297 C 192.9444427490234 163.6938934326172 187.7451324462891 163.0001220703125 182.5001983642578 163.0001220703125 C 174.6018218994141 163.0001220703125 166.9407958984375 164.5465545654297 159.7299346923828 167.5964660644531 C 156.2639923095703 169.0624084472656 152.9209594726562 170.876953125 149.7936859130859 172.9897003173828 C 146.6955871582031 175.0827178955078 143.7822113037109 177.4864807128906 141.1344909667969 180.1342010498047 C 138.4867706298828 182.7819213867188 136.0830078125 185.6952819824219 133.989990234375 188.7933807373047 C 131.8772583007812 191.920654296875 130.0626983642578 195.2637023925781 128.5967407226562 198.7296295166016 C 125.5468368530273 205.9405059814453 124.0003967285156 213.6015319824219 124.0003967285156 221.4999084472656 C 124.0003967285156 222.8302154541016 124.0455474853516 224.1681823730469 124.1349868774414 225.496826171875 M 122.310302734375 227.6612854003906 C 122.1053619384766 225.6351623535156 122.0003967285156 223.580078125 122.0003967285156 221.4999084472656 C 122.0003967285156 188.0865020751953 149.0868072509766 161.0001220703125 182.5001983642578 161.0001220703125 C 193.5639038085938 161.0001220703125 203.9327239990234 163.9691619873047 212.8554534912109 169.1549224853516 C 194.84765625 201.8134460449219 161.3432464599609 224.6510009765625 122.310302734375 227.6612854003906 Z" stroke="none" fill="#4f40f1"/>
        </g>
      </g>
      <g id="교차_3-4" data-name="교차 3" transform="translate(116 1380)" fill="rgba(79,64,241,0.9)">
        <path d="M 123.2146530151367 226.5842437744141 C 123.0723876953125 224.8996734619141 123.0004043579102 223.1937866210938 123.0004043579102 221.4999084472656 C 123.0004043579102 213.4669799804688 124.5734176635742 205.6748809814453 127.6757431030273 198.340087890625 C 129.1668548583984 194.8146820068359 131.0124816894531 191.4143676757812 133.161376953125 188.2335815429688 C 135.2900238037109 185.0827484130859 137.7346649169922 182.1198120117188 140.4273834228516 179.4270935058594 C 143.1201171875 176.7343597412109 146.0830383300781 174.2897186279297 149.2338714599609 172.1610717773438 C 152.4146575927734 170.0121917724609 155.8149871826172 168.1665496826172 159.3403778076172 166.6754455566406 C 166.6751708984375 163.5731201171875 174.4672546386719 162.0001068115234 182.5001983642578 162.0001068115234 C 187.8341369628906 162.0001068115234 193.1221008300781 162.7057952880859 198.2171936035156 164.0975189208984 C 202.8426513671875 165.3609771728516 207.3065948486328 167.1881103515625 211.5000152587891 169.5331878662109 C 207.1545104980469 177.2534942626953 201.8982238769531 184.4618682861328 195.8662414550781 190.9713439941406 C 189.6249389648438 197.7067260742188 182.5772399902344 203.6681213378906 174.9189605712891 208.6899566650391 C 167.1617279052734 213.7766571044922 158.8001556396484 217.8836975097656 150.0665130615234 220.8969879150391 C 141.4071960449219 223.8846435546875 132.3788909912109 225.7965240478516 123.2146530151367 226.5842437744141 Z" stroke="none"/>
        <path d="M 124.1349868774414 225.496826171875 C 132.8716125488281 224.6657562255859 141.4761047363281 222.8030242919922 149.7403564453125 219.9516754150391 C 158.3957672119141 216.9653625488281 166.6825714111328 212.8950347900391 174.37060546875 207.8537139892578 C 181.9611206054688 202.8763122558594 188.9465179443359 196.9675903320312 195.1327514648438 190.2916412353516 C 200.8818054199219 184.0874938964844 205.9203033447266 177.2422180175781 210.1284332275391 169.9218902587891 C 206.2642364501953 167.8477020263672 202.177734375 166.2159881591797 197.9536895751953 165.0621795654297 C 192.9444427490234 163.6938934326172 187.7451324462891 163.0001220703125 182.5001983642578 163.0001220703125 C 174.6018218994141 163.0001220703125 166.9407958984375 164.5465545654297 159.7299346923828 167.5964660644531 C 156.2639923095703 169.0624084472656 152.9209594726562 170.876953125 149.7936859130859 172.9897003173828 C 146.6955871582031 175.0827178955078 143.7822113037109 177.4864807128906 141.1344909667969 180.1342010498047 C 138.4867706298828 182.7819213867188 136.0830078125 185.6952819824219 133.989990234375 188.7933807373047 C 131.8772583007812 191.920654296875 130.0626983642578 195.2637023925781 128.5967407226562 198.7296295166016 C 125.5468368530273 205.9405059814453 124.0003967285156 213.6015319824219 124.0003967285156 221.4999084472656 C 124.0003967285156 222.8302154541016 124.0455474853516 224.1681823730469 124.1349868774414 225.496826171875 M 122.310302734375 227.6612854003906 C 122.1053619384766 225.6351623535156 122.0003967285156 223.580078125 122.0003967285156 221.4999084472656 C 122.0003967285156 188.0865020751953 149.0868072509766 161.0001220703125 182.5001983642578 161.0001220703125 C 193.5639038085938 161.0001220703125 203.9327239990234 163.9691619873047 212.8554534912109 169.1549224853516 C 194.84765625 201.8134460449219 161.3432464599609 224.6510009765625 122.310302734375 227.6612854003906 Z" stroke="none"/>
      </g>
      <g transform="matrix(1, 0, 0, 1, 90, 1303)" filter="url(#교차_3-2)">
        <g id="교차_3-5" data-name="교차 3" transform="translate(26 77)" fill="#fff">
          <path d="M 123.2146530151367 226.5842437744141 C 123.0723876953125 224.8996734619141 123.0004043579102 223.1937866210938 123.0004043579102 221.4999084472656 C 123.0004043579102 213.4669799804688 124.5734176635742 205.6748809814453 127.6757431030273 198.340087890625 C 129.1668548583984 194.8146820068359 131.0124816894531 191.4143676757812 133.161376953125 188.2335815429688 C 135.2900238037109 185.0827484130859 137.7346649169922 182.1198120117188 140.4273834228516 179.4270935058594 C 143.1201171875 176.7343597412109 146.0830383300781 174.2897186279297 149.2338714599609 172.1610717773438 C 152.4146575927734 170.0121917724609 155.8149871826172 168.1665496826172 159.3403778076172 166.6754455566406 C 166.6751708984375 163.5731201171875 174.4672546386719 162.0001068115234 182.5001983642578 162.0001068115234 C 187.8341369628906 162.0001068115234 193.1221008300781 162.7057952880859 198.2171936035156 164.0975189208984 C 202.8426513671875 165.3609771728516 207.3065948486328 167.1881103515625 211.5000152587891 169.5331878662109 C 207.1545104980469 177.2534942626953 201.8982238769531 184.4618682861328 195.8662414550781 190.9713439941406 C 189.6249389648438 197.7067260742188 182.5772399902344 203.6681213378906 174.9189605712891 208.6899566650391 C 167.1617279052734 213.7766571044922 158.8001556396484 217.8836975097656 150.0665130615234 220.8969879150391 C 141.4071960449219 223.8846435546875 132.3788909912109 225.7965240478516 123.2146530151367 226.5842437744141 Z" stroke="none"/>
          <path d="M 124.1349868774414 225.496826171875 C 132.8716125488281 224.6657562255859 141.4761047363281 222.8030242919922 149.7403564453125 219.9516754150391 C 158.3957672119141 216.9653625488281 166.6825714111328 212.8950347900391 174.37060546875 207.8537139892578 C 181.9611206054688 202.8763122558594 188.9465179443359 196.9675903320312 195.1327514648438 190.2916412353516 C 200.8818054199219 184.0874938964844 205.9203033447266 177.2422180175781 210.1284332275391 169.9218902587891 C 206.2642364501953 167.8477020263672 202.177734375 166.2159881591797 197.9536895751953 165.0621795654297 C 192.9444427490234 163.6938934326172 187.7451324462891 163.0001220703125 182.5001983642578 163.0001220703125 C 174.6018218994141 163.0001220703125 166.9407958984375 164.5465545654297 159.7299346923828 167.5964660644531 C 156.2639923095703 169.0624084472656 152.9209594726562 170.876953125 149.7936859130859 172.9897003173828 C 146.6955871582031 175.0827178955078 143.7822113037109 177.4864807128906 141.1344909667969 180.1342010498047 C 138.4867706298828 182.7819213867188 136.0830078125 185.6952819824219 133.989990234375 188.7933807373047 C 131.8772583007812 191.920654296875 130.0626983642578 195.2637023925781 128.5967407226562 198.7296295166016 C 125.5468368530273 205.9405059814453 124.0003967285156 213.6015319824219 124.0003967285156 221.4999084472656 C 124.0003967285156 222.8302154541016 124.0455474853516 224.1681823730469 124.1349868774414 225.496826171875 M 122.310302734375 227.6612854003906 C 122.1053619384766 225.6351623535156 122.0003967285156 223.580078125 122.0003967285156 221.4999084472656 C 122.0003967285156 188.0865020751953 149.0868072509766 161.0001220703125 182.5001983642578 161.0001220703125 C 193.5639038085938 161.0001220703125 203.9327239990234 163.9691619873047 212.8554534912109 169.1549224853516 C 194.84765625 201.8134460449219 161.3432464599609 224.6510009765625 122.310302734375 227.6612854003906 Z" stroke="none"/>
        </g>
      </g>
      <g id="교차_3-6" data-name="교차 3" transform="translate(116 1380)" fill="none">
        <path d="M 123.2146530151367 226.5842437744141 C 123.0723876953125 224.8996734619141 123.0004043579102 223.1937866210938 123.0004043579102 221.4999084472656 C 123.0004043579102 213.4669799804688 124.5734176635742 205.6748809814453 127.6757431030273 198.340087890625 C 129.1668548583984 194.8146820068359 131.0124816894531 191.4143676757812 133.161376953125 188.2335815429688 C 135.2900238037109 185.0827484130859 137.7346649169922 182.1198120117188 140.4273834228516 179.4270935058594 C 143.1201171875 176.7343597412109 146.0830383300781 174.2897186279297 149.2338714599609 172.1610717773438 C 152.4146575927734 170.0121917724609 155.8149871826172 168.1665496826172 159.3403778076172 166.6754455566406 C 166.6751708984375 163.5731201171875 174.4672546386719 162.0001068115234 182.5001983642578 162.0001068115234 C 187.8341369628906 162.0001068115234 193.1221008300781 162.7057952880859 198.2171936035156 164.0975189208984 C 202.8426513671875 165.3609771728516 207.3065948486328 167.1881103515625 211.5000152587891 169.5331878662109 C 207.1545104980469 177.2534942626953 201.8982238769531 184.4618682861328 195.8662414550781 190.9713439941406 C 189.6249389648438 197.7067260742188 182.5772399902344 203.6681213378906 174.9189605712891 208.6899566650391 C 167.1617279052734 213.7766571044922 158.8001556396484 217.8836975097656 150.0665130615234 220.8969879150391 C 141.4071960449219 223.8846435546875 132.3788909912109 225.7965240478516 123.2146530151367 226.5842437744141 Z" stroke="none"/>
        <path d="M 124.1349868774414 225.496826171875 C 132.8716125488281 224.6657562255859 141.4761047363281 222.8030242919922 149.7403564453125 219.9516754150391 C 158.3957672119141 216.9653625488281 166.6825714111328 212.8950347900391 174.37060546875 207.8537139892578 C 181.9611206054688 202.8763122558594 188.9465179443359 196.9675903320312 195.1327514648438 190.2916412353516 C 200.8818054199219 184.0874938964844 205.9203033447266 177.2422180175781 210.1284332275391 169.9218902587891 C 206.2642364501953 167.8477020263672 202.177734375 166.2159881591797 197.9536895751953 165.0621795654297 C 192.9444427490234 163.6938934326172 187.7451324462891 163.0001220703125 182.5001983642578 163.0001220703125 C 174.6018218994141 163.0001220703125 166.9407958984375 164.5465545654297 159.7299346923828 167.5964660644531 C 156.2639923095703 169.0624084472656 152.9209594726562 170.876953125 149.7936859130859 172.9897003173828 C 146.6955871582031 175.0827178955078 143.7822113037109 177.4864807128906 141.1344909667969 180.1342010498047 C 138.4867706298828 182.7819213867188 136.0830078125 185.6952819824219 133.989990234375 188.7933807373047 C 131.8772583007812 191.920654296875 130.0626983642578 195.2637023925781 128.5967407226562 198.7296295166016 C 125.5468368530273 205.9405059814453 124.0003967285156 213.6015319824219 124.0003967285156 221.4999084472656 C 124.0003967285156 222.8302154541016 124.0455474853516 224.1681823730469 124.1349868774414 225.496826171875 M 122.310302734375 227.6612854003906 C 122.1053619384766 225.6351623535156 122.0003967285156 223.580078125 122.0003967285156 221.4999084472656 C 122.0003967285156 188.0865020751953 149.0868072509766 161.0001220703125 182.5001983642578 161.0001220703125 C 193.5639038085938 161.0001220703125 203.9327239990234 163.9691619873047 212.8554534912109 169.1549224853516 C 194.84765625 201.8134460449219 161.3432464599609 224.6510009765625 122.310302734375 227.6612854003906 Z" stroke="none" fill="#4f40f1"/>
      </g>
    </g>
    <g data-type="innerShadowGroup">
      <g transform="matrix(1, 0, 0, 1, 90, 1303)" filter="url(#교차_4)">
        <g id="교차_4-3" data-name="교차 4" transform="translate(26 77)" fill="rgba(242,116,141,0.9)">
          <path d="M 181.680908203125 203.8902282714844 C 175.8497161865234 196.4174194335938 171.2877502441406 188.1245880126953 168.1157836914062 179.227783203125 C 164.7212066650391 169.7066497802734 163 159.7047424316406 163 149.4999084472656 C 163 131.7189178466797 168.2510375976562 114.5719833374023 178.1854400634766 99.912841796875 C 182.9746704101562 92.84589385986328 188.7510223388672 86.51181793212891 195.3540191650391 81.08656311035156 C 201.7517700195312 75.82996368408203 208.8256683349609 71.50985717773438 216.3921508789062 68.23682403564453 C 219.4429931640625 75.14743041992188 221.8015747070312 82.38494110107422 223.4070281982422 89.76512908935547 C 225.1274719238281 97.67387390136719 225.9998016357422 105.827766418457 225.9998016357422 114.0003128051758 C 225.9998016357422 123.0812377929688 224.9245147705078 132.1167602539062 222.8038177490234 140.8558959960938 C 220.7435302734375 149.3460693359375 217.6871490478516 157.6010589599609 213.7195587158203 165.3915863037109 C 209.8221130371094 173.0444030761719 205.0382385253906 180.2650909423828 199.5008239746094 186.8531188964844 C 194.2008972167969 193.1585845947266 188.2095336914062 198.8863677978516 181.680908203125 203.8902282714844 Z" stroke="none"/>
          <path d="M 181.8611450195312 202.4865570068359 C 188.0262298583984 197.6732788085938 193.6964721679688 192.2045745849609 198.7353210449219 186.2096862792969 C 204.2238616943359 179.6798095703125 208.9654846191406 172.5229034423828 212.8284759521484 164.9377593994141 C 216.7608337402344 157.2164459228516 219.7900543212891 149.0347900390625 221.83203125 140.6200866699219 C 223.9340057373047 131.9580688476562 224.9998016357422 123.0018615722656 224.9998016357422 114.0003051757812 C 224.9998016357422 105.8991012573242 224.1351623535156 97.81671905517578 222.4298858642578 89.97768402099609 C 220.9094085693359 82.98817443847656 218.7073364257812 76.12766265869141 215.8763732910156 69.55569458007812 C 208.7386932373047 72.74057006835938 202.0567626953125 76.87362670898438 195.9888610839844 81.85922241210938 C 189.4600524902344 87.22350311279297 183.7486267089844 93.48638153076172 179.0132751464844 100.4738464355469 C 169.1915130615234 114.9667434692383 164.0000152587891 131.919677734375 164.0000152587891 149.4999084472656 C 164.0000152587891 159.5899963378906 165.7016754150391 169.4789276123047 169.0577087402344 178.8919677734375 C 172.0826416015625 187.3762969970703 176.3859100341797 195.3047790527344 181.8611450195312 202.4865570068359 M 181.5040740966797 205.2803497314453 C 169.2955932617188 189.9817657470703 162.0000152587891 170.5944671630859 162.0000152587891 149.4999084472656 C 162.0000152587891 112.3340225219727 184.6522216796875 80.46034240722656 216.9043731689453 66.93168640136719 C 223.3899536132812 81.28120422363281 226.9998016357422 97.2149658203125 226.9998016357422 114.0003051757812 C 226.9998016357422 151.3407897949219 209.1273345947266 184.4867401123047 181.5040740966797 205.2803497314453 Z" stroke="none" fill="#f2748d"/>
        </g>
      </g>
      <g id="교차_4-4" data-name="교차 4" transform="translate(116 1380)" fill="rgba(242,116,141,0.9)">
        <path d="M 181.680908203125 203.8902282714844 C 175.8497161865234 196.4174194335938 171.2877502441406 188.1245880126953 168.1157836914062 179.227783203125 C 164.7212066650391 169.7066497802734 163 159.7047424316406 163 149.4999084472656 C 163 131.7189178466797 168.2510375976562 114.5719833374023 178.1854400634766 99.912841796875 C 182.9746704101562 92.84589385986328 188.7510223388672 86.51181793212891 195.3540191650391 81.08656311035156 C 201.7517700195312 75.82996368408203 208.8256683349609 71.50985717773438 216.3921508789062 68.23682403564453 C 219.4429931640625 75.14743041992188 221.8015747070312 82.38494110107422 223.4070281982422 89.76512908935547 C 225.1274719238281 97.67387390136719 225.9998016357422 105.827766418457 225.9998016357422 114.0003128051758 C 225.9998016357422 123.0812377929688 224.9245147705078 132.1167602539062 222.8038177490234 140.8558959960938 C 220.7435302734375 149.3460693359375 217.6871490478516 157.6010589599609 213.7195587158203 165.3915863037109 C 209.8221130371094 173.0444030761719 205.0382385253906 180.2650909423828 199.5008239746094 186.8531188964844 C 194.2008972167969 193.1585845947266 188.2095336914062 198.8863677978516 181.680908203125 203.8902282714844 Z" stroke="none"/>
        <path d="M 181.8611450195312 202.4865570068359 C 188.0262298583984 197.6732788085938 193.6964721679688 192.2045745849609 198.7353210449219 186.2096862792969 C 204.2238616943359 179.6798095703125 208.9654846191406 172.5229034423828 212.8284759521484 164.9377593994141 C 216.7608337402344 157.2164459228516 219.7900543212891 149.0347900390625 221.83203125 140.6200866699219 C 223.9340057373047 131.9580688476562 224.9998016357422 123.0018615722656 224.9998016357422 114.0003051757812 C 224.9998016357422 105.8991012573242 224.1351623535156 97.81671905517578 222.4298858642578 89.97768402099609 C 220.9094085693359 82.98817443847656 218.7073364257812 76.12766265869141 215.8763732910156 69.55569458007812 C 208.7386932373047 72.74057006835938 202.0567626953125 76.87362670898438 195.9888610839844 81.85922241210938 C 189.4600524902344 87.22350311279297 183.7486267089844 93.48638153076172 179.0132751464844 100.4738464355469 C 169.1915130615234 114.9667434692383 164.0000152587891 131.919677734375 164.0000152587891 149.4999084472656 C 164.0000152587891 159.5899963378906 165.7016754150391 169.4789276123047 169.0577087402344 178.8919677734375 C 172.0826416015625 187.3762969970703 176.3859100341797 195.3047790527344 181.8611450195312 202.4865570068359 M 181.5040740966797 205.2803497314453 C 169.2955932617188 189.9817657470703 162.0000152587891 170.5944671630859 162.0000152587891 149.4999084472656 C 162.0000152587891 112.3340225219727 184.6522216796875 80.46034240722656 216.9043731689453 66.93168640136719 C 223.3899536132812 81.28120422363281 226.9998016357422 97.2149658203125 226.9998016357422 114.0003051757812 C 226.9998016357422 151.3407897949219 209.1273345947266 184.4867401123047 181.5040740966797 205.2803497314453 Z" stroke="none"/>
      </g>
      <g transform="matrix(1, 0, 0, 1, 90, 1303)" filter="url(#교차_4-2)">
        <g id="교차_4-5" data-name="교차 4" transform="translate(26 77)" fill="#fff">
          <path d="M 181.680908203125 203.8902282714844 C 175.8497161865234 196.4174194335938 171.2877502441406 188.1245880126953 168.1157836914062 179.227783203125 C 164.7212066650391 169.7066497802734 163 159.7047424316406 163 149.4999084472656 C 163 131.7189178466797 168.2510375976562 114.5719833374023 178.1854400634766 99.912841796875 C 182.9746704101562 92.84589385986328 188.7510223388672 86.51181793212891 195.3540191650391 81.08656311035156 C 201.7517700195312 75.82996368408203 208.8256683349609 71.50985717773438 216.3921508789062 68.23682403564453 C 219.4429931640625 75.14743041992188 221.8015747070312 82.38494110107422 223.4070281982422 89.76512908935547 C 225.1274719238281 97.67387390136719 225.9998016357422 105.827766418457 225.9998016357422 114.0003128051758 C 225.9998016357422 123.0812377929688 224.9245147705078 132.1167602539062 222.8038177490234 140.8558959960938 C 220.7435302734375 149.3460693359375 217.6871490478516 157.6010589599609 213.7195587158203 165.3915863037109 C 209.8221130371094 173.0444030761719 205.0382385253906 180.2650909423828 199.5008239746094 186.8531188964844 C 194.2008972167969 193.1585845947266 188.2095336914062 198.8863677978516 181.680908203125 203.8902282714844 Z" stroke="none"/>
          <path d="M 181.8611450195312 202.4865570068359 C 188.0262298583984 197.6732788085938 193.6964721679688 192.2045745849609 198.7353210449219 186.2096862792969 C 204.2238616943359 179.6798095703125 208.9654846191406 172.5229034423828 212.8284759521484 164.9377593994141 C 216.7608337402344 157.2164459228516 219.7900543212891 149.0347900390625 221.83203125 140.6200866699219 C 223.9340057373047 131.9580688476562 224.9998016357422 123.0018615722656 224.9998016357422 114.0003051757812 C 224.9998016357422 105.8991012573242 224.1351623535156 97.81671905517578 222.4298858642578 89.97768402099609 C 220.9094085693359 82.98817443847656 218.7073364257812 76.12766265869141 215.8763732910156 69.55569458007812 C 208.7386932373047 72.74057006835938 202.0567626953125 76.87362670898438 195.9888610839844 81.85922241210938 C 189.4600524902344 87.22350311279297 183.7486267089844 93.48638153076172 179.0132751464844 100.4738464355469 C 169.1915130615234 114.9667434692383 164.0000152587891 131.919677734375 164.0000152587891 149.4999084472656 C 164.0000152587891 159.5899963378906 165.7016754150391 169.4789276123047 169.0577087402344 178.8919677734375 C 172.0826416015625 187.3762969970703 176.3859100341797 195.3047790527344 181.8611450195312 202.4865570068359 M 181.5040740966797 205.2803497314453 C 169.2955932617188 189.9817657470703 162.0000152587891 170.5944671630859 162.0000152587891 149.4999084472656 C 162.0000152587891 112.3340225219727 184.6522216796875 80.46034240722656 216.9043731689453 66.93168640136719 C 223.3899536132812 81.28120422363281 226.9998016357422 97.2149658203125 226.9998016357422 114.0003051757812 C 226.9998016357422 151.3407897949219 209.1273345947266 184.4867401123047 181.5040740966797 205.2803497314453 Z" stroke="none"/>
        </g>
      </g>
      <g id="교차_4-6" data-name="교차 4" transform="translate(116 1380)" fill="none">
        <path d="M 181.680908203125 203.8902282714844 C 175.8497161865234 196.4174194335938 171.2877502441406 188.1245880126953 168.1157836914062 179.227783203125 C 164.7212066650391 169.7066497802734 163 159.7047424316406 163 149.4999084472656 C 163 131.7189178466797 168.2510375976562 114.5719833374023 178.1854400634766 99.912841796875 C 182.9746704101562 92.84589385986328 188.7510223388672 86.51181793212891 195.3540191650391 81.08656311035156 C 201.7517700195312 75.82996368408203 208.8256683349609 71.50985717773438 216.3921508789062 68.23682403564453 C 219.4429931640625 75.14743041992188 221.8015747070312 82.38494110107422 223.4070281982422 89.76512908935547 C 225.1274719238281 97.67387390136719 225.9998016357422 105.827766418457 225.9998016357422 114.0003128051758 C 225.9998016357422 123.0812377929688 224.9245147705078 132.1167602539062 222.8038177490234 140.8558959960938 C 220.7435302734375 149.3460693359375 217.6871490478516 157.6010589599609 213.7195587158203 165.3915863037109 C 209.8221130371094 173.0444030761719 205.0382385253906 180.2650909423828 199.5008239746094 186.8531188964844 C 194.2008972167969 193.1585845947266 188.2095336914062 198.8863677978516 181.680908203125 203.8902282714844 Z" stroke="none"/>
        <path d="M 181.8611450195312 202.4865570068359 C 188.0262298583984 197.6732788085938 193.6964721679688 192.2045745849609 198.7353210449219 186.2096862792969 C 204.2238616943359 179.6798095703125 208.9654846191406 172.5229034423828 212.8284759521484 164.9377593994141 C 216.7608337402344 157.2164459228516 219.7900543212891 149.0347900390625 221.83203125 140.6200866699219 C 223.9340057373047 131.9580688476562 224.9998016357422 123.0018615722656 224.9998016357422 114.0003051757812 C 224.9998016357422 105.8991012573242 224.1351623535156 97.81671905517578 222.4298858642578 89.97768402099609 C 220.9094085693359 82.98817443847656 218.7073364257812 76.12766265869141 215.8763732910156 69.55569458007812 C 208.7386932373047 72.74057006835938 202.0567626953125 76.87362670898438 195.9888610839844 81.85922241210938 C 189.4600524902344 87.22350311279297 183.7486267089844 93.48638153076172 179.0132751464844 100.4738464355469 C 169.1915130615234 114.9667434692383 164.0000152587891 131.919677734375 164.0000152587891 149.4999084472656 C 164.0000152587891 159.5899963378906 165.7016754150391 169.4789276123047 169.0577087402344 178.8919677734375 C 172.0826416015625 187.3762969970703 176.3859100341797 195.3047790527344 181.8611450195312 202.4865570068359 M 181.5040740966797 205.2803497314453 C 169.2955932617188 189.9817657470703 162.0000152587891 170.5944671630859 162.0000152587891 149.4999084472656 C 162.0000152587891 112.3340225219727 184.6522216796875 80.46034240722656 216.9043731689453 66.93168640136719 C 223.3899536132812 81.28120422363281 226.9998016357422 97.2149658203125 226.9998016357422 114.0003051757812 C 226.9998016357422 151.3407897949219 209.1273345947266 184.4867401123047 181.5040740966797 205.2803497314453 Z" stroke="none" fill="#f2748d"/>
      </g>
    </g>
    <g transform="matrix(1, 0, 0, 1, 90, 1303)" filter="url(#교차_5)">
      <g id="교차_5-2" data-name="교차 5" transform="translate(148 137)" fill="rgba(210,207,251,0.9)">
        <path d="M 117.8939437866211 177.2460327148438 C 108.612060546875 176.0309143066406 99.63742065429688 173.3628845214844 91.20681762695312 169.3108825683594 C 82.74141693115234 165.2421417236328 75.00148010253906 159.8677825927734 68.20201873779297 153.3370971679688 C 61.41354751586914 146.8170013427734 55.7359504699707 139.3112640380859 51.326904296875 131.0284118652344 C 46.94942855834961 122.8048477172852 43.92179870605469 113.9945297241211 42.32197952270508 104.8275756835938 C 48.17816543579102 102.9507446289062 54.28889465332031 101.9998016357422 60.49980545043945 101.9998016357422 C 68.53271484375 101.9998016357422 76.32480621337891 103.5728530883789 83.65961456298828 106.6752624511719 C 87.18501281738281 108.1663970947266 90.58533477783203 110.0120620727539 93.76612854003906 112.1609954833984 C 96.91696166992188 114.2896728515625 99.8798828125 116.7343521118164 102.5726165771484 119.4271087646484 C 105.2653503417969 122.1198654174805 107.7099838256836 125.0828247070312 109.8386383056641 128.2336730957031 C 111.9875259399414 131.4144592285156 113.8331604003906 134.8147735595703 115.3242568969727 138.3401489257812 C 118.4265975952148 145.6749114990234 119.9996032714844 153.4668579101562 119.9996032714844 161.4996032714844 C 119.9996032714844 166.8467712402344 119.2914581298828 172.1398315429688 117.8939437866211 177.2460327148438 Z" stroke="none"/>
        <path d="M 60.49980163574219 102.9998016357422 C 54.68752288818359 102.9998016357422 48.96443939208984 103.8467559814453 43.46226501464844 105.5191497802734 C 45.08048248291016 114.2714538574219 48.01966857910156 122.6872253417969 52.20963287353516 130.5585327148438 C 56.56893157958984 138.7479400634766 62.18260955810547 146.1690979003906 68.89471435546875 152.6158752441406 C 75.61764526367188 159.0730590820312 83.27027130126953 164.3868103027344 91.6400146484375 168.4095764160156 C 99.7115478515625 172.2890167236328 108.2861785888672 174.8850708007812 117.154052734375 176.1362152099609 C 118.3792953491211 171.3782501220703 118.9996032714844 166.4629669189453 118.9996032714844 161.4996032714844 C 118.9996032714844 153.6014099121094 117.4531631469727 145.9405212402344 114.4032592773438 138.7297058105469 C 112.9373016357422 135.2637786865234 111.1227569580078 131.9207458496094 109.010009765625 128.79345703125 C 106.9169921875 125.6953430175781 104.5132217407227 122.7819671630859 101.8655090332031 120.1342163085938 C 99.2177734375 117.4864501953125 96.30439758300781 115.0826721191406 93.20631408691406 112.9896087646484 C 90.07902526855469 110.8768310546875 86.73598480224609 109.0622406005859 83.27005767822266 107.5962677001953 C 76.05916595458984 104.5462646484375 68.39815521240234 102.9998016357422 60.49980163574219 102.9998016357422 M 60.49980163574219 100.9998016357422 C 93.91320037841797 100.9998016357422 120.9996032714844 128.0870971679688 120.9996032714844 161.4996032714844 C 120.9996032714844 167.3465423583984 120.1707534790039 172.9975280761719 118.623176574707 178.3458251953125 C 79.15091705322266 173.5651245117188 47.60210418701172 143.0930786132812 41.19218444824219 104.1461334228516 C 47.25492858886719 102.106201171875 53.74941253662109 100.9998016357422 60.49980163574219 100.9998016357422 Z" stroke="none" fill="#d2cffb"/>
      </g>
    </g>
    <g data-type="innerShadowGroup">
      <g transform="matrix(1, 0, 0, 1, 90, 1303)" filter="url(#교차_2)">
        <g id="교차_2-3" data-name="교차 2" transform="translate(26 77)" fill="rgba(124,237,161,0.9)">
          <path d="M 181.6809692382812 203.8901977539062 C 177.3042449951172 198.2802581787109 173.6175384521484 192.1637420654297 170.7146911621094 185.6946258544922 C 167.727294921875 179.037109375 165.5783843994141 172.0211944580078 164.3224029541016 164.8277893066406 C 170.1785736083984 162.9510040283203 176.2892456054688 162.0001068115234 182.5001983642578 162.0001068115234 C 187.8341369628906 162.0001068115234 193.1221008300781 162.7057800292969 198.2171936035156 164.0975036621094 C 202.8426513671875 165.3609619140625 207.3065795898438 167.1880950927734 211.5 169.5331726074219 C 207.7544708251953 176.1871337890625 203.3187713623047 182.4806365966797 198.3054656982422 188.2525177001953 C 193.310302734375 194.0034942626953 187.7207794189453 199.2608032226562 181.6809692382812 203.8901977539062 Z" stroke="none"/>
          <path d="M 182.5001983642578 163.0001068115234 C 176.6879119873047 163.0001068115234 170.9649505615234 163.8470001220703 165.4627685546875 165.5193481445312 C 166.7227172851562 172.3288269042969 168.7933349609375 178.9702301025391 171.6270446777344 185.2852172851562 C 174.3614807128906 191.3789978027344 177.7998962402344 197.1569671630859 181.8612823486328 202.4864044189453 C 187.5462341308594 198.0478515625 192.8174438476562 193.0459594726562 197.5504913330078 187.5967712402344 C 202.2981262207031 182.1307525634766 206.5233612060547 176.1923980712891 210.1283874511719 169.9218597412109 C 206.2641906738281 167.8476715087891 202.177734375 166.2159729003906 197.9537048339844 165.0621643066406 C 192.9444427490234 163.6938934326172 187.7451324462891 163.0001068115234 182.5001983642578 163.0001068115234 M 182.5001983642578 161.0001068115234 C 193.5639038085938 161.0001068115234 203.9327239990234 163.9691619873047 212.8554534912109 169.1549224853516 C 205.0468292236328 183.3164672851562 194.3278350830078 195.6271667480469 181.5040588378906 205.2803344726562 C 172.1818237304688 193.5985412597656 165.7255096435547 179.5366058349609 163.1925659179688 164.1463470458984 C 169.2553100585938 162.1064758300781 175.7498168945312 161.0001068115234 182.5001983642578 161.0001068115234 Z" stroke="none" fill="#7ceda1"/>
        </g>
      </g>
      <g id="교차_2-4" data-name="교차 2" transform="translate(116 1380)" fill="rgba(124,237,161,0.9)">
        <path d="M 181.6809692382812 203.8901977539062 C 177.3042449951172 198.2802581787109 173.6175384521484 192.1637420654297 170.7146911621094 185.6946258544922 C 167.727294921875 179.037109375 165.5783843994141 172.0211944580078 164.3224029541016 164.8277893066406 C 170.1785736083984 162.9510040283203 176.2892456054688 162.0001068115234 182.5001983642578 162.0001068115234 C 187.8341369628906 162.0001068115234 193.1221008300781 162.7057800292969 198.2171936035156 164.0975036621094 C 202.8426513671875 165.3609619140625 207.3065795898438 167.1880950927734 211.5 169.5331726074219 C 207.7544708251953 176.1871337890625 203.3187713623047 182.4806365966797 198.3054656982422 188.2525177001953 C 193.310302734375 194.0034942626953 187.7207794189453 199.2608032226562 181.6809692382812 203.8901977539062 Z" stroke="none"/>
        <path d="M 182.5001983642578 163.0001068115234 C 176.6879119873047 163.0001068115234 170.9649505615234 163.8470001220703 165.4627685546875 165.5193481445312 C 166.7227172851562 172.3288269042969 168.7933349609375 178.9702301025391 171.6270446777344 185.2852172851562 C 174.3614807128906 191.3789978027344 177.7998962402344 197.1569671630859 181.8612823486328 202.4864044189453 C 187.5462341308594 198.0478515625 192.8174438476562 193.0459594726562 197.5504913330078 187.5967712402344 C 202.2981262207031 182.1307525634766 206.5233612060547 176.1923980712891 210.1283874511719 169.9218597412109 C 206.2641906738281 167.8476715087891 202.177734375 166.2159729003906 197.9537048339844 165.0621643066406 C 192.9444427490234 163.6938934326172 187.7451324462891 163.0001068115234 182.5001983642578 163.0001068115234 M 182.5001983642578 161.0001068115234 C 193.5639038085938 161.0001068115234 203.9327239990234 163.9691619873047 212.8554534912109 169.1549224853516 C 205.0468292236328 183.3164672851562 194.3278350830078 195.6271667480469 181.5040588378906 205.2803344726562 C 172.1818237304688 193.5985412597656 165.7255096435547 179.5366058349609 163.1925659179688 164.1463470458984 C 169.2553100585938 162.1064758300781 175.7498168945312 161.0001068115234 182.5001983642578 161.0001068115234 Z" stroke="none"/>
      </g>
      <g transform="matrix(1, 0, 0, 1, 90, 1303)" filter="url(#교차_2-2)">
        <g id="교차_2-5" data-name="교차 2" transform="translate(26 77)" fill="#fff">
          <path d="M 181.6809692382812 203.8901977539062 C 177.3042449951172 198.2802581787109 173.6175384521484 192.1637420654297 170.7146911621094 185.6946258544922 C 167.727294921875 179.037109375 165.5783843994141 172.0211944580078 164.3224029541016 164.8277893066406 C 170.1785736083984 162.9510040283203 176.2892456054688 162.0001068115234 182.5001983642578 162.0001068115234 C 187.8341369628906 162.0001068115234 193.1221008300781 162.7057800292969 198.2171936035156 164.0975036621094 C 202.8426513671875 165.3609619140625 207.3065795898438 167.1880950927734 211.5 169.5331726074219 C 207.7544708251953 176.1871337890625 203.3187713623047 182.4806365966797 198.3054656982422 188.2525177001953 C 193.310302734375 194.0034942626953 187.7207794189453 199.2608032226562 181.6809692382812 203.8901977539062 Z" stroke="none"/>
          <path d="M 182.5001983642578 163.0001068115234 C 176.6879119873047 163.0001068115234 170.9649505615234 163.8470001220703 165.4627685546875 165.5193481445312 C 166.7227172851562 172.3288269042969 168.7933349609375 178.9702301025391 171.6270446777344 185.2852172851562 C 174.3614807128906 191.3789978027344 177.7998962402344 197.1569671630859 181.8612823486328 202.4864044189453 C 187.5462341308594 198.0478515625 192.8174438476562 193.0459594726562 197.5504913330078 187.5967712402344 C 202.2981262207031 182.1307525634766 206.5233612060547 176.1923980712891 210.1283874511719 169.9218597412109 C 206.2641906738281 167.8476715087891 202.177734375 166.2159729003906 197.9537048339844 165.0621643066406 C 192.9444427490234 163.6938934326172 187.7451324462891 163.0001068115234 182.5001983642578 163.0001068115234 M 182.5001983642578 161.0001068115234 C 193.5639038085938 161.0001068115234 203.9327239990234 163.9691619873047 212.8554534912109 169.1549224853516 C 205.0468292236328 183.3164672851562 194.3278350830078 195.6271667480469 181.5040588378906 205.2803344726562 C 172.1818237304688 193.5985412597656 165.7255096435547 179.5366058349609 163.1925659179688 164.1463470458984 C 169.2553100585938 162.1064758300781 175.7498168945312 161.0001068115234 182.5001983642578 161.0001068115234 Z" stroke="none"/>
        </g>
      </g>
      <g id="교차_2-6" data-name="교차 2" transform="translate(116 1380)" fill="none">
        <path d="M 181.6809692382812 203.8901977539062 C 177.3042449951172 198.2802581787109 173.6175384521484 192.1637420654297 170.7146911621094 185.6946258544922 C 167.727294921875 179.037109375 165.5783843994141 172.0211944580078 164.3224029541016 164.8277893066406 C 170.1785736083984 162.9510040283203 176.2892456054688 162.0001068115234 182.5001983642578 162.0001068115234 C 187.8341369628906 162.0001068115234 193.1221008300781 162.7057800292969 198.2171936035156 164.0975036621094 C 202.8426513671875 165.3609619140625 207.3065795898438 167.1880950927734 211.5 169.5331726074219 C 207.7544708251953 176.1871337890625 203.3187713623047 182.4806365966797 198.3054656982422 188.2525177001953 C 193.310302734375 194.0034942626953 187.7207794189453 199.2608032226562 181.6809692382812 203.8901977539062 Z" stroke="none"/>
        <path d="M 182.5001983642578 163.0001068115234 C 176.6879119873047 163.0001068115234 170.9649505615234 163.8470001220703 165.4627685546875 165.5193481445312 C 166.7227172851562 172.3288269042969 168.7933349609375 178.9702301025391 171.6270446777344 185.2852172851562 C 174.3614807128906 191.3789978027344 177.7998962402344 197.1569671630859 181.8612823486328 202.4864044189453 C 187.5462341308594 198.0478515625 192.8174438476562 193.0459594726562 197.5504913330078 187.5967712402344 C 202.2981262207031 182.1307525634766 206.5233612060547 176.1923980712891 210.1283874511719 169.9218597412109 C 206.2641906738281 167.8476715087891 202.177734375 166.2159729003906 197.9537048339844 165.0621643066406 C 192.9444427490234 163.6938934326172 187.7451324462891 163.0001068115234 182.5001983642578 163.0001068115234 M 182.5001983642578 161.0001068115234 C 193.5639038085938 161.0001068115234 203.9327239990234 163.9691619873047 212.8554534912109 169.1549224853516 C 205.0468292236328 183.3164672851562 194.3278350830078 195.6271667480469 181.5040588378906 205.2803344726562 C 172.1818237304688 193.5985412597656 165.7255096435547 179.5366058349609 163.1925659179688 164.1463470458984 C 169.2553100585938 162.1064758300781 175.7498168945312 161.0001068115234 182.5001983642578 161.0001068115234 Z" stroke="none" fill="#7ceda1"/>
      </g>
    </g>
    <path id="패스_231" data-name="패스 231" d="M9709.56,10871.783v-235.475h95.151" transform="translate(-9408 -9312)" fill="none" stroke="#a9a9c9" stroke-width="1"/>
    <path id="패스_232" data-name="패스 232" d="M9721.383,10805.146v-139.363h57.763" transform="translate(-9404.145 -9291.814)" fill="none" stroke="#a9a9c9" stroke-width="1"/>
    <g id="타원_339" data-name="타원 339" transform="translate(393 1321)" fill="#fff" stroke="#a9a9c9" stroke-width="1">
      <circle cx="3" cy="3" r="3" stroke="none"/>
      <circle cx="3" cy="3" r="2.5" fill="none"/>
    </g>
    <g id="타원_340" data-name="타원 340" transform="translate(372 1371)" fill="#fff" stroke="#a9a9c9" stroke-width="1">
      <circle cx="3" cy="3" r="3" stroke="none"/>
      <circle cx="3" cy="3" r="2.5" fill="none"/>
    </g>
    <line id="선_159" data-name="선 159" y1="53" transform="translate(298 1635)" fill="none" stroke="#a9a9c9" stroke-width="1"/>
    <g id="타원_338" data-name="타원 338" transform="translate(295 1685)" fill="#fff" stroke="#a9a9c9" stroke-width="1">
      <circle cx="3" cy="3" r="3" stroke="none"/>
      <circle cx="3" cy="3" r="2.5" fill="none"/>
    </g>
    <circle id="타원_350" data-name="타원 350" cx="3" cy="3" r="3" transform="translate(263.5 1578.672)" fill="#a9a9c9"/>
    <circle id="타원_356" data-name="타원 356" cx="3" cy="3" r="3" transform="translate(295 1632)" fill="#a9a9c9"/>
    <circle id="타원_352" data-name="타원 352" cx="3" cy="3" r="3" transform="translate(298.559 1556.672)" fill="#a9a9c9"/>
    <circle id="타원_353" data-name="타원 353" cx="3" cy="3" r="3" transform="translate(314.238 1510.332)" fill="#a9a9c9"/>
    <circle id="타원_354" data-name="타원 354" cx="3" cy="3" r="3" transform="translate(364 1507.332)" fill="#a9a9c9"/>
    <circle id="타원_355" data-name="타원 355" cx="3" cy="3" r="3" transform="translate(227 1466)" fill="#a9a9c9"/>
    <text id="_30_3" data-name="30%" transform="translate(389.355 1668)" font-size="16" font-family="SUIT-Regular, SUIT"><tspan x="0" y="0">30%</tspan></text>
    <path id="패스_230" data-name="패스 230" d="M9707,10926v74.827h49.528" transform="translate(-9375.145 -9338.827)" fill="none" stroke="#a9a9c9" stroke-width="1"/>
    <g id="타원_337" data-name="타원 337" transform="translate(378.383 1659)" fill="#fff" stroke="#a9a9c9" stroke-width="1">
      <circle cx="3" cy="3" r="3" stroke="none"/>
      <circle cx="3" cy="3" r="2.5" fill="none"/>
    </g>
    <circle id="타원_351" data-name="타원 351" cx="3" cy="3" r="3" transform="translate(328.855 1584.672)" fill="#a9a9c9"/>
    <text id="구취-2" data-name="구취" transform="translate(298 1618)" fill="#333" font-size="14" font-family="SUIT-Medium, SUIT" font-weight="500"><tspan x="-12" y="0">구취</tspan></text>
    <path id="패스_233" data-name="패스 233" d="M12345,10983.673v85.461h-32.9" transform="translate(-12078.5 -9402)" fill="none" stroke="#a9a9c9" stroke-width="1"/>
    <g id="타원_357" data-name="타원 357" transform="translate(230 1664)" fill="#fff" stroke="#a9a9c9" stroke-width="1">
      <circle cx="3" cy="3" r="3" stroke="none"/>
      <circle cx="3" cy="3" r="2.5" fill="none"/>
    </g>
  </g>
</svg>
