<svg id="소음인" xmlns="http://www.w3.org/2000/svg" width="64" height="83" viewBox="0 0 64 83">
  <rect id="사각형_365" data-name="사각형 365" width="64" height="64" rx="5" transform="translate(0 9)" fill="#d2cffb" opacity="0.351"/>
  <g id="그룹_554" data-name="그룹 554" transform="translate(18.33 0.424)">
    <g id="그룹_537" data-name="그룹 537" transform="translate(0 0)">
      <circle id="타원_330" data-name="타원 330" cx="7.5" cy="7.5" r="7.5" transform="translate(7.67 -0.424)"/>
      <g id="그룹_532" data-name="그룹 532" transform="translate(0 20.644)">
        <rect id="사각형_339" data-name="사각형 339" width="10" height="56" transform="translate(9.67 5.932)"/>
        <path id="사각형_340" data-name="사각형 340" d="M7,0H22a7,7,0,0,1,7,7V33a0,0,0,0,1,0,0H0a0,0,0,0,1,0,0V7A7,7,0,0,1,7,0Z" transform="translate(-0.33 -0.068)"/>
      </g>
    </g>
    <g id="패스_220" data-name="패스 220" transform="translate(4.67 17.576)" fill="rgba(242,116,141,0.4)">
      <path d="M 17 45 L 3 45 C 1.897199988365173 45 1 44.10279846191406 1 43 L 1 3 C 1 1.897199988365173 1.897199988365173 1 3 1 L 17 1 C 18.1028003692627 1 19 1.897199988365173 19 3 L 19 43 C 19 44.10279846191406 18.1028003692627 45 17 45 Z" stroke="none"/>
      <path d="M 3 2 C 2.448600769042969 2 2 2.448600769042969 2 3 L 2 43 C 2 43.55139923095703 2.448600769042969 44 3 44 L 17 44 C 17.55139923095703 44 18 43.55139923095703 18 43 L 18 3 C 18 2.448600769042969 17.55139923095703 2 17 2 L 3 2 M 3 0 L 17 0 C 18.65685081481934 0 20 1.343151092529297 20 3 L 20 43 C 20 44.6568489074707 18.65685081481934 46 17 46 L 3 46 C 1.343149185180664 46 0 44.6568489074707 0 43 L 0 3 C 0 1.343151092529297 1.343149185180664 0 3 0 Z" stroke="none" fill="#f2748d"/>
    </g>
  </g>
</svg>
