<svg id="Bladder_Meridian_BL-3" data-name="Bladder Meridian, BL-3" xmlns="http://www.w3.org/2000/svg" xmlns:xlink="http://www.w3.org/1999/xlink" width="242.406" height="200.551" viewBox="0 0 242.406 200.551">
  <defs>
    <clipPath id="clip-path">
      <rect id="사각형_2248" data-name="사각형 2248" width="242.406" height="200.551" fill="none"/>
    </clipPath>
  </defs>
  <g id="그룹_839" data-name="그룹 839" clip-path="url(#clip-path)">
    <path id="패스_973" data-name="패스 973" d="M18.64,192.45c19.029,7.825,44.652.661,63.716-4.367,24.125,9.942,49.083,11.66,75.76,10.99q25.8-.571,51.636-1.241c12.3-.3,24.125-.5,30.209-12.957,2.581-5.335.29-11.2-3.664-15.01-15.324-14.6-39.693-14.6-57.913-24.6C159.841,135.1,142.05,123.3,124.221,111.791,99.292,95.7,85.392,56.017,81.524,25.4c-.461-3.5-.769-6.877-.966-10.1Q80.17,8.365,79.91,1.351L12.668,8.869c.742,7.674,1.3,15.369,1.642,23.041A412.929,412.929,0,0,1,4.515,142.4C.228,161.1-3.159,183.463,18.64,192.45" fill="#fff"/>
    <path id="패스_974" data-name="패스 974" d="M18.64,192.45c19.029,7.825,44.652.661,63.716-4.367,24.125,9.942,49.083,11.66,75.76,10.99q25.8-.571,51.636-1.241c12.3-.3,24.125-.5,30.209-12.957,2.581-5.335.29-11.2-3.664-15.01-15.324-14.6-39.693-14.6-57.913-24.6C159.841,135.1,142.05,123.3,124.221,111.791,99.292,95.7,85.392,56.017,81.524,25.4c-.461-3.5-.769-6.877-.966-10.1Q80.17,8.365,79.91,1.351L12.668,8.869c.742,7.674,1.3,15.369,1.642,23.041A412.929,412.929,0,0,1,4.515,142.4C.228,161.1-3.159,183.463,18.64,192.45Z" fill="none" stroke="#535353" stroke-linecap="round" stroke-linejoin="round" stroke-width="2.7"/>
    <path id="패스_975" data-name="패스 975" d="M23.327,105.917v77.815l29.929-49.216,42.565,43.23,26.6,1.995,43.231,8.646,23.277-1.995,43.231,4.656" fill="none" stroke="#dd3a3a" stroke-linecap="round" stroke-linejoin="round" stroke-width="1.5"/>
    <path id="패스_976" data-name="패스 976" d="M24.938,105.917a1.5,1.5,0,1,1-1.5-1.5,1.5,1.5,0,0,1,1.5,1.5" fill="#dd3a3a"/>
    <path id="패스_977" data-name="패스 977" d="M24.938,183.4a1.5,1.5,0,1,1-1.5-1.5,1.5,1.5,0,0,1,1.5,1.5" fill="#dd3a3a"/>
    <path id="패스_978" data-name="패스 978" d="M54.867,134.626a1.5,1.5,0,1,1-1.5-1.5,1.5,1.5,0,0,1,1.5,1.5" fill="#dd3a3a"/>
    <path id="패스_979" data-name="패스 979" d="M97.321,177.746a1.5,1.5,0,1,1-1.5-1.5,1.5,1.5,0,0,1,1.5,1.5" fill="#dd3a3a"/>
    <path id="패스_980" data-name="패스 980" d="M109.875,178.854a1.5,1.5,0,1,1-1.5-1.5,1.5,1.5,0,0,1,1.5,1.5" fill="#dd3a3a"/>
    <path id="패스_981" data-name="패스 981" d="M167.21,188.557a1.5,1.5,0,1,1-1.5-1.5,1.5,1.5,0,0,1,1.5,1.5" fill="#dd3a3a"/>
    <path id="패스_982" data-name="패스 982" d="M190.377,186.4a1.5,1.5,0,1,1-1.5-1.5,1.5,1.5,0,0,1,1.5,1.5" fill="#dd3a3a"/>
    <path id="패스_983" data-name="패스 983" d="M233.691,191.134a1.5,1.5,0,1,1-1.5-1.5,1.5,1.5,0,0,1,1.5,1.5" fill="#dd3a3a"/>
  </g>
</svg>
