<svg id="Bladder_Meridian_BL-1" data-name="Bladder Meridian, BL-1" xmlns="http://www.w3.org/2000/svg" xmlns:xlink="http://www.w3.org/1999/xlink" width="271.736" height="510.278" viewBox="0 0 271.736 510.278">
  <defs>
    <clipPath id="clip-path">
      <rect id="사각형_2246" data-name="사각형 2246" width="271.736" height="510.278" fill="none"/>
    </clipPath>
  </defs>
  <g id="그룹_835" data-name="그룹 835" clip-path="url(#clip-path)">
    <path id="패스_885" data-name="패스 885" d="M170.277,47.588l-66.149-.044a8.116,8.116,0,0,0-8.05,6.487,8.011,8.011,0,0,0,7.845,9.491l66.149.044a8.114,8.114,0,0,0,8.049-6.487,8.009,8.009,0,0,0-7.844-9.491" fill="#fff"/>
    <path id="패스_886" data-name="패스 886" d="M170.277,47.588l-66.149-.044a8.116,8.116,0,0,0-8.05,6.487,8.011,8.011,0,0,0,7.845,9.491l66.149.044a8.114,8.114,0,0,0,8.049-6.487A8.009,8.009,0,0,0,170.277,47.588Z" fill="none" stroke="#535353" stroke-linecap="round" stroke-linejoin="round" stroke-width="2.556"/>
    <path id="패스_887" data-name="패스 887" d="M170.093,34.527l-.014,21.406a32.438,32.438,0,0,1-.907,7.63,33.14,33.14,0,0,1-12.9,19.133,32.783,32.783,0,0,1-38.382-.025,33.3,33.3,0,0,1-10.628-12.748v-.009a32.255,32.255,0,0,1-2.251-6.394A31.764,31.764,0,0,1,104.4,60.2a33.1,33.1,0,0,1-.28-4.315l.014-21.406a33.076,33.076,0,0,1,33-32.957,32,32,0,0,1,4.81.365l.389.054c.212.026.415.062.619.106.132.018.265.045.4.071.654.124,1.3.275,1.936.435a33.109,33.109,0,0,1,15.14,8.674,31.993,31.993,0,0,1,2.792,3.185c.008.009.008.009.008.018a32.713,32.713,0,0,1,6.866,20.093" fill="#fff"/>
    <path id="패스_888" data-name="패스 888" d="M170.093,34.527l-.014,21.406a32.438,32.438,0,0,1-.907,7.63,33.14,33.14,0,0,1-12.9,19.133,32.783,32.783,0,0,1-38.382-.025,33.3,33.3,0,0,1-10.628-12.748v-.009a32.255,32.255,0,0,1-2.251-6.394A31.764,31.764,0,0,1,104.4,60.2a33.1,33.1,0,0,1-.28-4.315l.014-21.406a33.076,33.076,0,0,1,33-32.957,32,32,0,0,1,4.81.365l.389.054c.212.026.415.062.619.106.132.018.265.045.4.071.654.124,1.3.275,1.936.435a33.109,33.109,0,0,1,15.14,8.674,31.993,31.993,0,0,1,2.792,3.185c.008.009.008.009.008.018A32.713,32.713,0,0,1,170.093,34.527Z" fill="none" stroke="#535353" stroke-linecap="round" stroke-linejoin="round" stroke-width="2.556"/>
    <path id="패스_889" data-name="패스 889" d="M269.991,260.515c-1.495.759-3.439-1.311-5.621-3.125s-3.093-2.92-5.417-4.663c-2.581-1.929-7.8-5.39-8.865-4.489-.345.292,2.951,3.2,4.038,4.132,1.917,1.637,5.072,4.6,8.73,7.521s5.7,5.062,4.222,6.184-4.941-1.339-7.911-3.472-13.087-11.273-14.98-9.8,4.123,9.136,6.562,11.87,3.454,4.131,2.092,5.129-5.957-3.585-7.415-5.2c-4.824-5.326-9.718-12-15.294-16.562,0,0-.693,4.889-1.278,7.064s-2.5,5.613-4.318,4.365c-1.643-1.133-.881-3.723-.659-5.341a24.934,24.934,0,0,0-.745-9.39,40.231,40.231,0,0,1-1.508-7.057c-.28-4.067,1.092-6.586-.108-10.592-.044-.124-.132-.354-.264-.673-.018-.035-.036-.07-.053-.106l-3.533-6.377-33.445-58.713a12.166,12.166,0,0,1-1-2.3c-.159-.345-.318-.716-.495-1.114-2.207-5.209-5.472-15.061-8.228-19.086l-.105-.159a4.173,4.173,0,0,1,.282.743c1.23,8.047.347,14.515-.192,22.141L172.4,196.584c2.057,4.652,2.74,13.188,6.535,24.163.829,2.423,1.6,4.952,2.258,7.6.115.4.239.814.344,1.256,3.775,14.123,6.335,46.954,4.123,63.548l-4.817,51.111s5.376,39.773-4.894,85.77c-.833,3.74-1.569,7.1-2.208,10.122-1.916,8.982-3.016,14.959-3.611,18.893,1.864,15.8,14.024,38.559,14.024,38.559-.585,15.331-20.486,12.444-29.014,7.169s-2.259-20.125-2.259-20.125c-7.389-4.32-5.678-11.507-1.691-23.962,1.524-4.747,2.051-12.616,2.127-20.547.123-12.891-.956-25.934-.956-25.934l.283-.132-3.649-69.834-6.536-50.668-5.916-39.128L131,293.562l-6.6,50.658-3.742,69.83.292.133s-1.1,13.041-1,25.932c.066,7.931.591,15.8,2.1,20.549,3.97,12.461,5.672,19.65-1.723,23.96,0,0,6.25,14.858-2.285,20.122s-28.441,8.125-29-7.207c0,0,12.19-22.742,14.084-38.541-.59-3.935-1.691-9.912-3.6-18.9-.635-3.024-1.358-6.384-2.195-10.125-10.2-46.01-4.78-85.777-4.78-85.777l-5.121-50.666c-2.3-16.447.325-49.743,4.154-63.994.106-.442.23-.857.345-1.255.665-2.643,1.436-5.171,2.269-7.593,3.8-10.971,4.5-19.5,6.567-24.149L98.722,161.4c-.339-8.062.445-14.334-.251-21.9-2.85,4.251-6.048,14.037-7.669,17.961a11.77,11.77,0,0,1-.691,2.139L63.59,206.727c-6.887,12.842-12.959,22.918-13.331,24.156-1.2,4,.163,6.525-.122,10.592a40.312,40.312,0,0,1-1.517,7.054,24.925,24.925,0,0,0-.758,9.39c.22,1.618.979,4.209-.666,5.331-1.814,1.245-3.721-2.186-4.312-4.362s-1.269-7.065-1.269-7.065c-5.582,4.541-10.476,11.222-15.316,16.541-1.46,1.609-6.06,6.186-7.421,5.186s-.335-2.406,2.107-5.136,8.469-10.366,6.578-11.852-12.03,7.657-15,9.777S6.13,270.924,4.654,269.8s.568-3.271,4.23-6.177,6.821-5.885,8.732-7.51c1.1-.928,4.388-3.835,4.043-4.135-1.06-.894-6.288,2.551-8.871,4.485C10.471,258.2,9.55,259.3,7.365,261.11S3.233,265,1.749,264.237s.842-3.421,3.213-6.125a33.717,33.717,0,0,1,8-7.183c1.22-.813,5.59-3.507,5.21-4.391s-2.13-.276-2.652-.073a38.766,38.766,0,0,0-8.031,4.522c-2.167,1.457-3.441,1.421-3.732.157s2.93-4.057,6.362-6.239,5.811-3.585,8.872-5.794c3.981-2.871,10.757-8.083,14.2-11.591a50.511,50.511,0,0,0,3.179-6.205h-.009L36.941,220l30.515-70.1a11.251,11.251,0,0,1,1.107-2.006c.922-3.554,2.8-6.816,4.2-10.281q2.9-7.212,5.809-14.425c2.02-5.021,3.942-10.926,8.577-14.195,4.547-3.206,11.223-4.263,17.112-4.886h.027q3.687-.807,7.773-1.472,4.377-.712,9.2-1.2a5.813,5.813,0,0,0,5.247-5.77l.005-8.5a32.757,32.757,0,0,0,20.938-.375l-.006,8.956a5.809,5.809,0,0,0,5.222,5.777c2.979.312,5.835.7,8.566,1.147,2.626.426,5.128.9,7.506,1.419,6.021.623,12.987,1.653,17.68,4.972,4.64,3.275,6.546,9.182,8.567,14.206q3.271,8.145,6.532,16.282c1.086,2.732,2.614,5.722,3.646,8.782a.009.009,0,0,0,.009.009,12.71,12.71,0,0,1,.857,1.654l18.831,42.947,10.338,23.57c.079.186.159.372.238.549q.437,1.008.821,1.884a33.668,33.668,0,0,0,2.34,4.829c3.437,3.512,10.206,8.724,14.183,11.6,3.067,2.212,5.435,3.637,8.865,5.814s6.636,4.965,6.353,6.238-1.566,1.3-3.731-.162a39.828,39.828,0,0,0-8.017-4.532c-.521-.2-2.289-.815-2.661.069s3.985,3.584,5.213,4.407a33.489,33.489,0,0,1,7.989,7.185c2.359,2.707,4.691,5.361,3.2,6.129" fill="#fff"/>
    <path id="패스_890" data-name="패스 890" d="M269.991,260.515c-1.495.759-3.439-1.311-5.621-3.125s-3.093-2.92-5.417-4.663c-2.581-1.929-7.8-5.39-8.865-4.489-.345.292,2.951,3.2,4.038,4.132,1.917,1.637,5.072,4.6,8.73,7.521s5.7,5.062,4.222,6.184-4.941-1.339-7.911-3.472-13.087-11.273-14.98-9.8,4.123,9.136,6.562,11.87,3.454,4.131,2.092,5.129-5.957-3.585-7.415-5.2c-4.824-5.326-9.718-12-15.294-16.562,0,0-.693,4.889-1.278,7.064s-2.5,5.613-4.318,4.365c-1.643-1.133-.881-3.723-.659-5.341a24.934,24.934,0,0,0-.745-9.39,40.231,40.231,0,0,1-1.508-7.057c-.28-4.067,1.092-6.586-.108-10.592-.044-.124-.132-.354-.264-.673-.018-.035-.036-.07-.053-.106l-3.533-6.377-33.445-58.713a12.166,12.166,0,0,1-1-2.3c-.159-.345-.318-.716-.495-1.114-2.207-5.209-5.472-15.061-8.228-19.086l-.105-.159a4.173,4.173,0,0,1,.282.743c1.23,8.047.347,14.515-.192,22.141L172.4,196.584c2.057,4.652,2.74,13.188,6.535,24.163.829,2.423,1.6,4.952,2.258,7.6.115.4.239.814.344,1.256,3.775,14.123,6.335,46.954,4.123,63.548l-4.817,51.111s5.376,39.773-4.894,85.77c-.833,3.74-1.569,7.1-2.208,10.122-1.916,8.982-3.016,14.959-3.611,18.893,1.864,15.8,14.024,38.559,14.024,38.559-.585,15.331-20.486,12.444-29.014,7.169s-2.259-20.125-2.259-20.125c-7.389-4.32-5.678-11.507-1.691-23.962,1.524-4.747,2.051-12.616,2.127-20.547.123-12.891-.956-25.934-.956-25.934l.283-.132-3.649-69.834-6.536-50.668-5.916-39.128L131,293.562l-6.6,50.658-3.742,69.83.292.133s-1.1,13.041-1,25.932c.066,7.931.591,15.8,2.1,20.549,3.97,12.461,5.672,19.65-1.723,23.96,0,0,6.25,14.858-2.285,20.122s-28.441,8.125-29-7.207c0,0,12.19-22.742,14.084-38.541-.59-3.935-1.691-9.912-3.6-18.9-.635-3.024-1.358-6.384-2.195-10.125-10.2-46.01-4.78-85.777-4.78-85.777l-5.121-50.666c-2.3-16.447.325-49.743,4.154-63.994.106-.442.23-.857.345-1.255.665-2.643,1.436-5.171,2.269-7.593,3.8-10.971,4.5-19.5,6.567-24.149L98.722,161.4c-.339-8.062.445-14.334-.251-21.9-2.85,4.251-6.048,14.037-7.669,17.961a11.77,11.77,0,0,1-.691,2.139L63.59,206.727c-6.887,12.842-12.959,22.918-13.331,24.156-1.2,4,.163,6.525-.122,10.592a40.312,40.312,0,0,1-1.517,7.054,24.925,24.925,0,0,0-.758,9.39c.22,1.618.979,4.209-.666,5.331-1.814,1.245-3.721-2.186-4.312-4.362s-1.269-7.065-1.269-7.065c-5.582,4.541-10.476,11.222-15.316,16.541-1.46,1.609-6.06,6.186-7.421,5.186s-.335-2.406,2.107-5.136,8.469-10.366,6.578-11.852-12.03,7.657-15,9.777S6.13,270.924,4.654,269.8s.568-3.271,4.23-6.177,6.821-5.885,8.732-7.51c1.1-.928,4.388-3.835,4.043-4.135-1.06-.894-6.288,2.551-8.871,4.485C10.471,258.2,9.55,259.3,7.365,261.11S3.233,265,1.749,264.237s.842-3.421,3.213-6.125a33.717,33.717,0,0,1,8-7.183c1.22-.813,5.59-3.507,5.21-4.391s-2.13-.276-2.652-.073a38.766,38.766,0,0,0-8.031,4.522c-2.167,1.457-3.441,1.421-3.732.157s2.93-4.057,6.362-6.239,5.811-3.585,8.872-5.794c3.981-2.871,10.757-8.083,14.2-11.591a50.511,50.511,0,0,0,3.179-6.205h-.009L36.941,220l30.515-70.1a11.251,11.251,0,0,1,1.107-2.006c.922-3.554,2.8-6.816,4.2-10.281q2.9-7.212,5.809-14.425c2.02-5.021,3.942-10.926,8.577-14.195,4.547-3.206,11.223-4.263,17.112-4.886h.027q3.687-.807,7.773-1.472,4.377-.712,9.2-1.2a5.813,5.813,0,0,0,5.247-5.77l.005-8.5a32.757,32.757,0,0,0,20.938-.375l-.006,8.956a5.809,5.809,0,0,0,5.222,5.777c2.979.312,5.835.7,8.566,1.147,2.626.426,5.128.9,7.506,1.419,6.021.623,12.987,1.653,17.68,4.972,4.64,3.275,6.546,9.182,8.567,14.206q3.271,8.145,6.532,16.282c1.086,2.732,2.614,5.722,3.646,8.782a.009.009,0,0,0,.009.009,12.71,12.71,0,0,1,.857,1.654l18.831,42.947,10.338,23.57c.079.186.159.372.238.549q.437,1.008.821,1.884a33.668,33.668,0,0,0,2.34,4.829c3.437,3.512,10.206,8.724,14.183,11.6,3.067,2.212,5.435,3.637,8.865,5.814s6.636,4.965,6.353,6.238-1.566,1.3-3.731-.162a39.828,39.828,0,0,0-8.017-4.532c-.521-.2-2.289-.815-2.661.069s3.985,3.584,5.213,4.407a33.489,33.489,0,0,1,7.989,7.185C269.145,257.093,271.477,259.747,269.991,260.515Z" fill="none" stroke="#535353" stroke-linecap="round" stroke-linejoin="round" stroke-width="2.556"/>
    <path id="패스_891" data-name="패스 891" d="M169.95,104.384h0l.023,0-.023,0" fill="#ffe4dd"/>
    <path id="패스_892" data-name="패스 892" d="M169.95,104.384h0l.023,0Z" fill="none" stroke="#535353" stroke-linecap="round" stroke-linejoin="round" stroke-width="2.556"/>
    <path id="패스_893" data-name="패스 893" d="M136.538,254.441s-22.474,5.039-37.175-8.094" fill="#fff"/>
    <path id="패스_894" data-name="패스 894" d="M136.538,254.441s-22.474,5.039-37.175-8.094" fill="none" stroke="#535353" stroke-linecap="round" stroke-linejoin="round" stroke-width="2.556"/>
    <path id="패스_895" data-name="패스 895" d="M136.456,246.123l.15,8.318s22.474,5.039,37.175-8.094" fill="#fff"/>
    <path id="패스_896" data-name="패스 896" d="M136.456,246.123l.15,8.318s22.474,5.039,37.175-8.094" fill="none" stroke="#535353" stroke-linecap="round" stroke-linejoin="round" stroke-width="2.556"/>
    <path id="패스_897" data-name="패스 897" d="M164.512,342.235l11.964,5.037-5.667-8.815c-5.038-5.667-16.372-83.749-16.372-83.749L138.7,246.523l3.148-32.744,7.557,22.669-.63-149.866L138.065,70.21V2.834" fill="none" stroke="#dd3a3a" stroke-linecap="round" stroke-linejoin="round" stroke-width="1.42"/>
    <path id="패스_898" data-name="패스 898" d="M159.475,131.29l-.63,102.639s18.891,24.558,4.408,120.9l1.889,50.375,5.667,15.742-7.556,25.188,1.889,18.89" fill="none" stroke="#dd3a3a" stroke-linecap="round" stroke-linejoin="round" stroke-width="1.42"/>
    <path id="패스_899" data-name="패스 899" d="M139.7,1.42A1.42,1.42,0,1,1,138.275,0a1.42,1.42,0,0,1,1.42,1.42" fill="#dd3a3a"/>
    <path id="패스_900" data-name="패스 900" d="M139.7,6.016a1.42,1.42,0,1,1-1.42-1.42,1.42,1.42,0,0,1,1.42,1.42" fill="#dd3a3a"/>
    <path id="패스_901" data-name="패스 901" d="M139.7,70.525a1.42,1.42,0,1,1-1.42-1.42,1.42,1.42,0,0,1,1.42,1.42" fill="#dd3a3a"/>
    <path id="패스_902" data-name="패스 902" d="M150.19,87.057a1.42,1.42,0,1,1-1.42-1.42,1.42,1.42,0,0,1,1.42,1.42" fill="#dd3a3a"/>
    <path id="패스_903" data-name="패스 903" d="M150.669,125.265a1.42,1.42,0,1,1-1.42-1.42,1.42,1.42,0,0,1,1.42,1.42" fill="#dd3a3a"/>
    <path id="패스_904" data-name="패스 904" d="M150.669,131.431a1.42,1.42,0,1,1-1.42-1.42,1.42,1.42,0,0,1,1.42,1.42" fill="#dd3a3a"/>
    <path id="패스_905" data-name="패스 905" d="M150.669,137.6a1.42,1.42,0,1,1-1.42-1.42,1.42,1.42,0,0,1,1.42,1.42" fill="#dd3a3a"/>
    <path id="패스_906" data-name="패스 906" d="M150.669,143.764a1.42,1.42,0,1,1-1.42-1.42,1.42,1.42,0,0,1,1.42,1.42" fill="#dd3a3a"/>
    <path id="패스_907" data-name="패스 907" d="M150.669,149.93a1.42,1.42,0,1,1-1.42-1.42,1.42,1.42,0,0,1,1.42,1.42" fill="#dd3a3a"/>
    <path id="패스_908" data-name="패스 908" d="M150.669,156.1a1.42,1.42,0,1,1-1.42-1.42,1.42,1.42,0,0,1,1.42,1.42" fill="#dd3a3a"/>
    <path id="패스_909" data-name="패스 909" d="M150.669,162.262a1.42,1.42,0,1,1-1.42-1.42,1.42,1.42,0,0,1,1.42,1.42" fill="#dd3a3a"/>
    <path id="패스_910" data-name="패스 910" d="M150.669,170.8a1.42,1.42,0,1,1-1.42-1.42,1.42,1.42,0,0,1,1.42,1.42" fill="#dd3a3a"/>
    <path id="패스_911" data-name="패스 911" d="M150.669,176.969a1.42,1.42,0,1,1-1.42-1.42,1.42,1.42,0,0,1,1.42,1.42" fill="#dd3a3a"/>
    <path id="패스_912" data-name="패스 912" d="M150.669,183.135a1.42,1.42,0,1,1-1.42-1.42,1.42,1.42,0,0,1,1.42,1.42" fill="#dd3a3a"/>
    <path id="패스_913" data-name="패스 913" d="M150.669,189.3a1.42,1.42,0,1,1-1.42-1.42,1.42,1.42,0,0,1,1.42,1.42" fill="#dd3a3a"/>
    <path id="패스_914" data-name="패스 914" d="M150.669,195.468a1.42,1.42,0,1,1-1.42-1.42,1.42,1.42,0,0,1,1.42,1.42" fill="#dd3a3a"/>
    <path id="패스_915" data-name="패스 915" d="M150.669,201.634a1.42,1.42,0,1,1-1.42-1.42,1.42,1.42,0,0,1,1.42,1.42" fill="#dd3a3a"/>
    <path id="패스_916" data-name="패스 916" d="M160.58,170.8a1.42,1.42,0,1,1-1.42-1.42,1.42,1.42,0,0,1,1.42,1.42" fill="#dd3a3a"/>
    <path id="패스_917" data-name="패스 917" d="M160.58,176.969a1.42,1.42,0,1,1-1.42-1.42,1.42,1.42,0,0,1,1.42,1.42" fill="#dd3a3a"/>
    <path id="패스_918" data-name="패스 918" d="M160.58,183.135a1.42,1.42,0,1,1-1.42-1.42,1.42,1.42,0,0,1,1.42,1.42" fill="#dd3a3a"/>
    <path id="패스_919" data-name="패스 919" d="M160.58,189.3a1.42,1.42,0,1,1-1.42-1.42,1.42,1.42,0,0,1,1.42,1.42" fill="#dd3a3a"/>
    <path id="패스_920" data-name="패스 920" d="M160.58,195.468a1.42,1.42,0,1,1-1.42-1.42,1.42,1.42,0,0,1,1.42,1.42" fill="#dd3a3a"/>
    <path id="패스_921" data-name="패스 921" d="M160.58,201.634a1.42,1.42,0,1,1-1.42-1.42,1.42,1.42,0,0,1,1.42,1.42" fill="#dd3a3a"/>
    <path id="패스_922" data-name="패스 922" d="M150.669,207.8a1.42,1.42,0,1,1-1.42-1.42,1.42,1.42,0,0,1,1.42,1.42" fill="#dd3a3a"/>
    <path id="패스_923" data-name="패스 923" d="M150.669,214.49a1.42,1.42,0,1,1-1.42-1.42,1.42,1.42,0,0,1,1.42,1.42" fill="#dd3a3a"/>
    <path id="패스_924" data-name="패스 924" d="M150.669,236.342a1.42,1.42,0,1,1-1.42-1.42,1.42,1.42,0,0,1,1.42,1.42" fill="#dd3a3a"/>
    <path id="패스_925" data-name="패스 925" d="M160.264,233.881a1.42,1.42,0,1,1-1.42-1.42,1.42,1.42,0,0,1,1.42,1.42" fill="#dd3a3a"/>
    <path id="패스_926" data-name="패스 926" d="M160.264,228.883a1.42,1.42,0,1,1-1.42-1.42,1.42,1.42,0,0,1,1.42,1.42" fill="#dd3a3a"/>
    <path id="패스_927" data-name="패스 927" d="M150.669,232.223a1.42,1.42,0,1,1-1.42-1.42,1.42,1.42,0,0,1,1.42,1.42" fill="#dd3a3a"/>
    <path id="패스_928" data-name="패스 928" d="M143.375,213.6a1.42,1.42,0,1,1-1.42-1.42,1.42,1.42,0,0,1,1.42,1.42" fill="#dd3a3a"/>
    <path id="패스_929" data-name="패스 929" d="M142.9,218.1a1.42,1.42,0,1,1-1.42-1.42,1.42,1.42,0,0,1,1.42,1.42" fill="#dd3a3a"/>
    <path id="패스_930" data-name="패스 930" d="M142.372,222.122a1.42,1.42,0,1,1-1.42-1.42,1.42,1.42,0,0,1,1.42,1.42" fill="#dd3a3a"/>
    <path id="패스_931" data-name="패스 931" d="M142,226.53a1.42,1.42,0,1,1-1.42-1.42,1.42,1.42,0,0,1,1.42,1.42" fill="#dd3a3a"/>
    <path id="패스_932" data-name="패스 932" d="M140.273,246.522a1.42,1.42,0,1,1-1.42-1.42,1.42,1.42,0,0,1,1.42,1.42" fill="#dd3a3a"/>
    <path id="패스_933" data-name="패스 933" d="M155.857,254.6a1.42,1.42,0,1,1-1.42-1.42,1.42,1.42,0,0,1,1.42,1.42" fill="#dd3a3a"/>
    <path id="패스_934" data-name="패스 934" d="M161.1,288.4a1.42,1.42,0,1,1-1.42-1.42,1.42,1.42,0,0,1,1.42,1.42" fill="#dd3a3a"/>
    <path id="패스_935" data-name="패스 935" d="M166.352,342.13a1.42,1.42,0,1,1-1.42-1.42,1.42,1.42,0,0,1,1.42,1.42" fill="#dd3a3a"/>
    <path id="패스_936" data-name="패스 936" d="M164.673,354.671a1.42,1.42,0,1,1-1.42-1.42,1.42,1.42,0,0,1,1.42,1.42" fill="#dd3a3a"/>
    <path id="패스_937" data-name="패스 937" d="M165.618,377.812a1.42,1.42,0,1,1-1.42-1.42,1.42,1.42,0,0,1,1.42,1.42" fill="#dd3a3a"/>
    <path id="패스_938" data-name="패스 938" d="M166.4,404.731a1.42,1.42,0,1,1-1.42-1.42,1.42,1.42,0,0,1,1.42,1.42" fill="#dd3a3a"/>
    <path id="패스_939" data-name="패스 939" d="M172.229,421.024a1.42,1.42,0,1,1-1.42-1.42,1.42,1.42,0,0,1,1.42,1.42" fill="#dd3a3a"/>
    <path id="패스_940" data-name="패스 940" d="M164.752,446.291a1.42,1.42,0,1,1-1.42-1.42,1.42,1.42,0,0,1,1.42,1.42" fill="#dd3a3a"/>
    <path id="패스_941" data-name="패스 941" d="M166.562,464.788a1.42,1.42,0,1,1-1.42-1.42,1.42,1.42,0,0,1,1.42,1.42" fill="#dd3a3a"/>
    <path id="패스_942" data-name="패스 942" d="M177.865,347.062a1.42,1.42,0,1,1-1.42-1.42,1.42,1.42,0,0,1,1.42,1.42" fill="#dd3a3a"/>
    <path id="패스_943" data-name="패스 943" d="M170.813,335.781a1.421,1.421,0,1,1-1.421-1.42,1.421,1.421,0,0,1,1.421,1.42" fill="#dd3a3a"/>
    <path id="패스_944" data-name="패스 944" d="M150.669,228.524a1.42,1.42,0,1,1-1.42-1.42,1.42,1.42,0,0,1,1.42,1.42" fill="#dd3a3a"/>
    <path id="패스_945" data-name="패스 945" d="M150.669,225.034a1.42,1.42,0,1,1-1.42-1.42,1.42,1.42,0,0,1,1.42,1.42" fill="#dd3a3a"/>
    <path id="패스_946" data-name="패스 946" d="M150.669,220.758a1.42,1.42,0,1,1-1.42-1.42,1.42,1.42,0,0,1,1.42,1.42" fill="#dd3a3a"/>
    <path id="패스_947" data-name="패스 947" d="M160.8,131.313a1.42,1.42,0,1,1-1.42-1.42,1.42,1.42,0,0,1,1.42,1.42" fill="#dd3a3a"/>
    <path id="패스_948" data-name="패스 948" d="M160.8,137.479a1.42,1.42,0,1,1-1.42-1.42,1.42,1.42,0,0,1,1.42,1.42" fill="#dd3a3a"/>
    <path id="패스_949" data-name="패스 949" d="M160.8,143.646a1.42,1.42,0,1,1-1.42-1.42,1.42,1.42,0,0,1,1.42,1.42" fill="#dd3a3a"/>
    <path id="패스_950" data-name="패스 950" d="M160.8,149.812a1.42,1.42,0,1,1-1.42-1.42,1.42,1.42,0,0,1,1.42,1.42" fill="#dd3a3a"/>
    <path id="패스_951" data-name="패스 951" d="M160.8,155.978a1.42,1.42,0,1,1-1.42-1.42,1.42,1.42,0,0,1,1.42,1.42" fill="#dd3a3a"/>
    <path id="패스_952" data-name="패스 952" d="M160.8,162.144a1.42,1.42,0,1,1-1.42-1.42,1.42,1.42,0,0,1,1.42,1.42" fill="#dd3a3a"/>
  </g>
</svg>
