<svg id="Bladder_Meridian_BL-2" data-name="Bladder Meridian, BL-2" xmlns="http://www.w3.org/2000/svg" xmlns:xlink="http://www.w3.org/1999/xlink" width="231.367" height="282.368" viewBox="0 0 231.367 282.368">
  <defs>
    <clipPath id="clip-path">
      <rect id="사각형_2247" data-name="사각형 2247" width="231.367" height="282.368" fill="none"/>
    </clipPath>
  </defs>
  <g id="그룹_837" data-name="그룹 837" clip-path="url(#clip-path)">
    <path id="패스_953" data-name="패스 953" d="M230.017,246.9v34.12H1.35V246.9a26.235,26.235,0,0,1,15.931-24.035l-.011-.11a306.661,306.661,0,0,1,32.215-8.868c5.16-1.118,10.606-2.17,16.33-3.1q8.917-1.461,18.7-2.458a11.828,11.828,0,0,0,10.672-11.746V78.522q-4.683-.564-9.256-1.361c13.64-8.968,27.1-18.1,39.988-28.6,6.942,9.51,14.3,18.51,19.75,28.762q-3.935.664-7.937,1.162V196.725a11.819,11.819,0,0,0,10.628,11.735c6.056.631,11.868,1.417,17.414,2.325,5.735.93,11.17,1.982,16.329,3.1v.044a307.584,307.584,0,0,1,32.006,8.824l-.022.11A26.217,26.217,0,0,1,230.017,246.9" fill="#fff"/>
    <path id="패스_954" data-name="패스 954" d="M230.017,246.9v34.12H1.35V246.9a26.235,26.235,0,0,1,15.931-24.035l-.011-.11a306.661,306.661,0,0,1,32.215-8.868c5.16-1.118,10.606-2.17,16.33-3.1q8.917-1.461,18.7-2.458a11.828,11.828,0,0,0,10.672-11.746V78.522q-4.683-.564-9.256-1.361c13.64-8.968,27.1-18.1,39.988-28.6,6.942,9.51,14.3,18.51,19.75,28.762q-3.935.664-7.937,1.162V196.725a11.819,11.819,0,0,0,10.628,11.735c6.056.631,11.868,1.417,17.414,2.325,5.735.93,11.17,1.982,16.329,3.1v.044a307.584,307.584,0,0,1,32.006,8.824l-.022.11A26.217,26.217,0,0,1,230.017,246.9Z" fill="none" stroke="#535353" stroke-linecap="round" stroke-linejoin="round" stroke-width="2.7"/>
    <path id="패스_955" data-name="패스 955" d="M183.227,94.949H48.758a16.5,16.5,0,0,0-16.355,13.2,16.283,16.283,0,0,0,15.959,19.283H182.831a16.5,16.5,0,0,0,16.355-13.2,16.282,16.282,0,0,0-15.959-19.283" fill="#fff"/>
    <path id="패스_956" data-name="패스 956" d="M183.227,94.949H48.758a16.5,16.5,0,0,0-16.355,13.2,16.283,16.283,0,0,0,15.959,19.283H182.831a16.5,16.5,0,0,0,16.355-13.2A16.282,16.282,0,0,0,183.227,94.949Z" fill="none" stroke="#535353" stroke-linecap="round" stroke-linejoin="round" stroke-width="2.7"/>
    <path id="패스_957" data-name="패스 957" d="M115.795,178.949h0a67.238,67.238,0,0,1-67.041-67.041V68.39a67.041,67.041,0,0,1,134.082,0v43.518a67.238,67.238,0,0,1-67.041,67.041" fill="#fff"/>
    <path id="패스_958" data-name="패스 958" d="M115.795,178.949h0a67.238,67.238,0,0,1-67.041-67.041V68.39a67.041,67.041,0,0,1,134.082,0v43.518A67.238,67.238,0,0,1,115.795,178.949Z" fill="none" stroke="#535353" stroke-linecap="round" stroke-linejoin="round" stroke-width="2.7"/>
    <path id="패스_959" data-name="패스 959" d="M191.422,280.347c1.79-7.138,6.638-13.054,11.359-18.7" fill="none" stroke="#535353" stroke-linecap="round" stroke-linejoin="round" stroke-width="2.7"/>
    <path id="패스_960" data-name="패스 960" d="M40.041,280.347c-1.79-7.138-6.638-13.054-11.359-18.7" fill="none" stroke="#535353" stroke-linecap="round" stroke-linejoin="round" stroke-width="2.7"/>
    <line id="선_157" data-name="선 157" y2="3.36" transform="translate(116.999 124.037)" fill="none" stroke="#535353" stroke-linecap="round" stroke-linejoin="round" stroke-width="2.7"/>
    <path id="패스_961" data-name="패스 961" d="M81.048,84A22.113,22.113,0,0,1,91.6,81.449a19.69,19.69,0,0,1,8.458,2.142" fill="none" stroke="#535353" stroke-linecap="round" stroke-linejoin="round" stroke-width="2.7"/>
    <path id="패스_962" data-name="패스 962" d="M133.995,83.53A19.733,19.733,0,0,1,144.258,81.5a23.132,23.132,0,0,1,8.841,2.552" fill="none" stroke="#535353" stroke-linecap="round" stroke-linejoin="round" stroke-width="2.7"/>
    <path id="패스_963" data-name="패스 963" d="M100.946,139.955a26.57,26.57,0,0,0,32.1,0" fill="none" stroke="#535353" stroke-linecap="round" stroke-linejoin="round" stroke-width="2.7"/>
    <path id="패스_964" data-name="패스 964" d="M153.1,108.373a22.113,22.113,0,0,1-10.549,2.547,19.69,19.69,0,0,1-8.458-2.142" fill="none" stroke="#535353" stroke-linecap="round" stroke-linejoin="round" stroke-width="2.7"/>
    <path id="패스_965" data-name="패스 965" d="M100.152,108.839a19.733,19.733,0,0,1-10.263,2.031,23.132,23.132,0,0,1-8.841-2.552" fill="none" stroke="#535353" stroke-linecap="round" stroke-linejoin="round" stroke-width="2.7"/>
    <path id="패스_966" data-name="패스 966" d="M89.192,13V48.914h15.3v60.523" fill="none" stroke="#dd3a3a" stroke-linecap="round" stroke-linejoin="round" stroke-width="1.5"/>
    <path id="패스_967" data-name="패스 967" d="M90.695,13a1.5,1.5,0,1,1-1.5-1.5,1.5,1.5,0,0,1,1.5,1.5" fill="#dd3a3a"/>
    <path id="패스_968" data-name="패스 968" d="M90.695,49.08a1.5,1.5,0,1,1-1.5-1.5,1.5,1.5,0,0,1,1.5,1.5" fill="#dd3a3a"/>
    <path id="패스_969" data-name="패스 969" d="M90.695,31.04a1.5,1.5,0,1,1-1.5-1.5,1.5,1.5,0,0,1,1.5,1.5" fill="#dd3a3a"/>
    <path id="패스_970" data-name="패스 970" d="M105.909,49.08a1.5,1.5,0,1,1-1.5-1.5,1.5,1.5,0,0,1,1.5,1.5" fill="#dd3a3a"/>
    <path id="패스_971" data-name="패스 971" d="M105.909,84.164a1.5,1.5,0,1,1-1.5-1.5,1.5,1.5,0,0,1,1.5,1.5" fill="#dd3a3a"/>
    <path id="패스_972" data-name="패스 972" d="M105.909,108.993a1.5,1.5,0,1,1-1.5-1.5,1.5,1.5,0,0,1,1.5,1.5" fill="#dd3a3a"/>
  </g>
</svg>
