<svg id="Conception_Vessel_CV" data-name="Conception Vessel, CV" xmlns="http://www.w3.org/2000/svg" xmlns:xlink="http://www.w3.org/1999/xlink" width="239.288" height="511.564" viewBox="0 0 239.288 511.564">
  <defs>
    <clipPath id="clip-path">
      <rect id="사각형_2260" data-name="사각형 2260" width="239.288" height="511.564" fill="none"/>
    </clipPath>
  </defs>
  <g id="그룹_861" data-name="그룹 861" clip-path="url(#clip-path)">
    <path id="패스_1396" data-name="패스 1396" d="M187.578,249.167c-.065-.1-.129-.194-.194-.29a7.383,7.383,0,0,1,.517,1.339c2.227,14.528.629,26.215-.355,40l-3.778,63.471c3.729,8.394,4.956,23.826,11.816,43.649,1.5,4.374,2.89,8.942,4.084,13.72.194.727.42,1.469.614,2.276,5.65,21.114,9.782,65.327,8.781,96.95H126.3l-7.312-52.075-7.361,52.075H28.869c-.969-31.623,3.244-75.933,8.91-97.063.194-.79.42-1.549.63-2.26,1.194-4.778,2.582-9.346,4.1-13.72,6.86-19.823,8.119-35.223,11.864-43.633l-3.7-63.486c-.614-14.56.807-25.892-.452-39.565C45.075,258.239,39.3,275.915,36.359,283a20.433,20.433,0,0,1-1.243,3.874L1.282,346.988V252.8c.871-1.873,1.711-3.745,2.486-5.666Q9,234.105,14.26,221.08c3.648-9.072,7.135-19.742,15.5-25.65,8.217-5.795,20.275-7.7,30.929-8.83h.048q6.658-1.452,14.028-2.664,7.917-1.283,16.626-2.179a10.488,10.488,0,0,0,9.475-10.411l.017-15.351c.661.209,1.323.419,2,.6l.533.145a59.115,59.115,0,0,0,35.287-1.421v.775l-.017,15.4a10.5,10.5,0,0,0,9.444,10.444c5.375.565,10.54,1.259,15.464,2.066q7.119,1.162,13.575,2.567c10.864,1.13,23.455,2.986,31.929,8.975,8.394,5.924,11.833,16.594,15.481,25.666q5.907,14.721,11.8,29.427c.5,1.259,1.049,2.55,1.63,3.858v93.011l-32.865-57.692a22.8,22.8,0,0,1-1.808-4.165c-.275-.613-.565-1.291-.888-2-3.987-9.41-9.879-27.215-14.867-34.479" fill="#fff"/>
    <path id="패스_1397" data-name="패스 1397" d="M187.578,249.167c-.065-.1-.129-.194-.194-.29a7.383,7.383,0,0,1,.517,1.339c2.227,14.528.629,26.215-.355,40l-3.778,63.471c3.729,8.394,4.956,23.826,11.816,43.649,1.5,4.374,2.89,8.942,4.084,13.72.194.727.42,1.469.614,2.276,5.65,21.114,9.782,65.327,8.781,96.95H126.3l-7.312-52.075-7.361,52.075H28.869c-.969-31.623,3.244-75.933,8.91-97.063.194-.79.42-1.549.63-2.26,1.194-4.778,2.582-9.346,4.1-13.72,6.86-19.823,8.119-35.223,11.864-43.633l-3.7-63.486c-.614-14.56.807-25.892-.452-39.565C45.075,258.239,39.3,275.915,36.359,283a20.433,20.433,0,0,1-1.243,3.874L1.282,346.988V252.8c.871-1.873,1.711-3.745,2.486-5.666Q9,234.105,14.26,221.08c3.648-9.072,7.135-19.742,15.5-25.65,8.217-5.795,20.275-7.7,30.929-8.83h.048q6.658-1.452,14.028-2.664,7.917-1.283,16.626-2.179a10.488,10.488,0,0,0,9.475-10.411l.017-15.351c.661.209,1.323.419,2,.6l.533.145a59.115,59.115,0,0,0,35.287-1.421v.775l-.017,15.4a10.5,10.5,0,0,0,9.444,10.444c5.375.565,10.54,1.259,15.464,2.066q7.119,1.162,13.575,2.567c10.864,1.13,23.455,2.986,31.929,8.975,8.394,5.924,11.833,16.594,15.481,25.666q5.907,14.721,11.8,29.427c.5,1.259,1.049,2.55,1.63,3.858v93.011l-32.865-57.692a22.8,22.8,0,0,1-1.808-4.165c-.275-.613-.565-1.291-.888-2C198.458,274.236,192.566,256.431,187.578,249.167Z" fill="none" stroke="#535353" stroke-linecap="round" stroke-linejoin="round" stroke-width="2.564"/>
    <path id="패스_1398" data-name="패스 1398" d="M147.042,65.738c-2.316.4-4.681.732-7.045,1.018l-.059,88.91a59.171,59.171,0,0,1-37.826.678l.059-89.581c-2.763-.338-5.511-.739-8.21-1.22A428.544,428.544,0,0,0,129.52,40.168c6.16,8.455,12.688,16.462,17.522,25.57" fill="#fff"/>
    <path id="패스_1399" data-name="패스 1399" d="M147.042,65.738c-2.316.4-4.681.732-7.045,1.018l-.059,88.91a59.171,59.171,0,0,1-37.826.678l.059-89.581c-2.763-.338-5.511-.739-8.21-1.22A428.544,428.544,0,0,0,129.52,40.168C135.68,48.623,142.208,56.63,147.042,65.738Z" fill="none" stroke="#535353" stroke-linecap="round" stroke-linejoin="round" stroke-width="2.564"/>
    <path id="패스_1400" data-name="패스 1400" d="M179.358,187.111h0l.042.01-.042-.01" fill="#ffe4dd"/>
    <path id="패스_1401" data-name="패스 1401" d="M179.358,187.111h0l.042.01Z" fill="none" stroke="#535353" stroke-linecap="round" stroke-linejoin="round" stroke-width="2.564"/>
    <path id="패스_1402" data-name="패스 1402" d="M179.949,84.5,60.442,84.421A14.66,14.66,0,0,0,45.9,96.14a14.472,14.472,0,0,0,14.173,17.147l119.507.079a14.661,14.661,0,0,0,14.543-11.719A14.471,14.471,0,0,0,179.949,84.5" fill="#fff"/>
    <path id="패스_1403" data-name="패스 1403" d="M179.949,84.5,60.442,84.421A14.66,14.66,0,0,0,45.9,96.14a14.472,14.472,0,0,0,14.173,17.147l119.507.079a14.661,14.661,0,0,0,14.543-11.719A14.471,14.471,0,0,0,179.949,84.5Z" fill="none" stroke="#535353" stroke-linecap="round" stroke-linejoin="round" stroke-width="2.564"/>
    <path id="패스_1404" data-name="패스 1404" d="M179.616,60.9l-.026,38.673a58.573,58.573,0,0,1-1.638,13.784,59.863,59.863,0,0,1-23.3,34.568,59.226,59.226,0,0,1-69.342-.046,60.145,60.145,0,0,1-19.2-23.031v-.016a58.263,58.263,0,0,1-4.066-11.552,57.292,57.292,0,0,1-1.114-5.991,59.812,59.812,0,0,1-.506-7.795l.025-38.673A59.759,59.759,0,0,1,120.073,1.282a57.675,57.675,0,0,1,8.689.661l.7.1c.383.048.751.112,1.118.193.24.032.479.08.719.128,1.182.224,2.348.5,3.5.785a59.8,59.8,0,0,1,27.352,15.672,57.662,57.662,0,0,1,5.044,5.754c.016.016.016.016.016.032a59.1,59.1,0,0,1,12.4,36.3" fill="#fff"/>
    <path id="패스_1405" data-name="패스 1405" d="M179.616,60.9l-.026,38.673a58.573,58.573,0,0,1-1.638,13.784,59.863,59.863,0,0,1-23.3,34.568,59.226,59.226,0,0,1-69.342-.046,60.145,60.145,0,0,1-19.2-23.031v-.016a58.263,58.263,0,0,1-4.066-11.552,57.292,57.292,0,0,1-1.114-5.991,59.812,59.812,0,0,1-.506-7.795l.025-38.673A59.759,59.759,0,0,1,120.073,1.282a57.675,57.675,0,0,1,8.689.661l.7.1c.383.048.751.112,1.118.193.24.032.479.08.719.128,1.182.224,2.348.5,3.5.785a59.8,59.8,0,0,1,27.352,15.672,57.662,57.662,0,0,1,5.044,5.754c.016.016.016.016.016.032A59.1,59.1,0,0,1,179.616,60.9Z" fill="none" stroke="#535353" stroke-linecap="round" stroke-linejoin="round" stroke-width="2.564"/>
    <line id="선_162" data-name="선 162" x1="0.002" y2="2.986" transform="translate(119.998 113.265)" fill="none" stroke="#535353" stroke-linecap="round" stroke-linejoin="round" stroke-width="2.564"/>
    <path id="패스_1406" data-name="패스 1406" d="M88.063,77.566a19.639,19.639,0,0,1,9.4-2.156,17.476,17.476,0,0,1,7.494,1.989" fill="none" stroke="#535353" stroke-linecap="round" stroke-linejoin="round" stroke-width="2.564"/>
    <path id="패스_1407" data-name="패스 1407" d="M135.159,77.621A17.527,17.527,0,0,1,144.2,75.45a20.554,20.554,0,0,1,7.942,1.948" fill="none" stroke="#535353" stroke-linecap="round" stroke-linejoin="round" stroke-width="2.564"/>
    <path id="패스_1408" data-name="패스 1408" d="M152.13,95.379a19.647,19.647,0,0,1-9.4,2.156,17.476,17.476,0,0,1-7.494-1.989" fill="none" stroke="#535353" stroke-linecap="round" stroke-linejoin="round" stroke-width="2.564"/>
    <path id="패스_1409" data-name="패스 1409" d="M105.034,95.324A17.527,17.527,0,0,1,95.993,97.5a20.554,20.554,0,0,1-7.942-1.948" fill="none" stroke="#535353" stroke-linecap="round" stroke-linejoin="round" stroke-width="2.564"/>
    <path id="패스_1410" data-name="패스 1410" d="M105.724,127.4a23.614,23.614,0,0,0,28.533.019" fill="none" stroke="#535353" stroke-linecap="round" stroke-linejoin="round" stroke-width="2.564"/>
    <path id="패스_1411" data-name="패스 1411" d="M50.139,249.854c-1.587-6.345-5.892-11.606-10.084-16.626,4.192,5.02,8.5,10.281,10.084,16.626" fill="#ffe4dd"/>
    <path id="패스_1412" data-name="패스 1412" d="M50.139,249.854c-1.587-6.345-5.892-11.606-10.084-16.626C44.247,238.248,48.552,243.509,50.139,249.854Z" fill="none" stroke="#535353" stroke-linecap="round" stroke-linejoin="round" stroke-width="2.564"/>
    <path id="패스_1413" data-name="패스 1413" d="M187.3,248.351c1.6-6.343,5.907-11.6,10.106-16.613-4.2,5.015-8.511,10.27-10.106,16.613" fill="#ffe4dd"/>
    <path id="패스_1414" data-name="패스 1414" d="M187.3,248.351c1.6-6.343,5.907-11.6,10.106-16.613C193.212,236.753,188.9,242.008,187.3,248.351Z" fill="none" stroke="#535353" stroke-linecap="round" stroke-linejoin="round" stroke-width="2.564"/>
    <path id="패스_1415" data-name="패스 1415" d="M59.978,419.33S103.644,452.472,119,458.211" fill="#ffe4dd"/>
    <path id="패스_1416" data-name="패스 1416" d="M59.978,419.33S103.644,452.472,119,458.211" fill="none" stroke="#535353" stroke-linecap="round" stroke-linejoin="round" stroke-width="2.564"/>
    <path id="패스_1417" data-name="패스 1417" d="M177.973,419.346s-43.666,33.142-59.017,38.881" fill="#ffe4dd"/>
    <path id="패스_1418" data-name="패스 1418" d="M177.973,419.346s-43.666,33.142-59.017,38.881" fill="none" stroke="#535353" stroke-linecap="round" stroke-linejoin="round" stroke-width="2.564"/>
    <path id="패스_1419" data-name="패스 1419" d="M158.6,254.421a4.712,4.712,0,1,0,4.712-4.712,4.712,4.712,0,0,0-4.712,4.712" fill="#fff"/>
    <circle id="타원_329" data-name="타원 329" cx="4.712" cy="4.712" r="4.712" transform="translate(156.829 255.952) rotate(-58.283)" fill="none" stroke="#bfbfbf" stroke-linecap="round" stroke-linejoin="round" stroke-width="1.25"/>
    <path id="패스_1420" data-name="패스 1420" d="M160.824,254.421a2.49,2.49,0,1,0,2.49-2.49,2.49,2.49,0,0,0-2.49,2.49" fill="#fff"/>
    <path id="패스_1421" data-name="패스 1421" d="M160.824,254.421a2.49,2.49,0,1,0,2.49-2.49A2.49,2.49,0,0,0,160.824,254.421Z" fill="none" stroke="#bfbfbf" stroke-linecap="round" stroke-linejoin="round" stroke-width="1.25"/>
    <path id="패스_1422" data-name="패스 1422" d="M187.3,248.351s-8.13,24.835-16.341,28.625" fill="#fff"/>
    <path id="패스_1423" data-name="패스 1423" d="M187.3,248.351s-8.13,24.835-16.341,28.625" fill="none" stroke="#535353" stroke-linecap="round" stroke-linejoin="round" stroke-width="2.564"/>
    <path id="패스_1424" data-name="패스 1424" d="M78.463,254.421a4.712,4.712,0,1,1-4.712-4.712,4.712,4.712,0,0,1,4.712,4.712" fill="#fff"/>
    <circle id="타원_330" data-name="타원 330" cx="4.712" cy="4.712" r="4.712" transform="matrix(0.788, -0.615, 0.615, 0.788, 67.137, 253.607)" fill="none" stroke="#bfbfbf" stroke-linecap="round" stroke-linejoin="round" stroke-width="1.25"/>
    <path id="패스_1425" data-name="패스 1425" d="M76.241,254.421a2.49,2.49,0,1,1-2.49-2.49,2.49,2.49,0,0,1,2.49,2.49" fill="#fff"/>
    <path id="패스_1426" data-name="패스 1426" d="M76.241,254.421a2.49,2.49,0,1,1-2.49-2.49A2.49,2.49,0,0,1,76.241,254.421Z" fill="none" stroke="#bfbfbf" stroke-linecap="round" stroke-linejoin="round" stroke-width="1.25"/>
    <path id="패스_1427" data-name="패스 1427" d="M49.76,248.351s8.13,24.835,16.341,28.625" fill="#fff"/>
    <path id="패스_1428" data-name="패스 1428" d="M49.76,248.351s8.13,24.835,16.341,28.625" fill="none" stroke="#535353" stroke-linecap="round" stroke-linejoin="round" stroke-width="2.564"/>
    <path id="패스_1429" data-name="패스 1429" d="M119.122,352.818s-3.789,8.842-.842,14.316c0,0,2.789,2.474-.369-8.684" fill="#fff"/>
    <path id="패스_1430" data-name="패스 1430" d="M119.122,352.818s-3.789,8.842-.842,14.316c0,0,2.789,2.474-.369-8.684" fill="none" stroke="#535353" stroke-linecap="round" stroke-linejoin="round" stroke-width="2.564"/>
    <line id="선_163" data-name="선 163" y2="306.316" transform="translate(119.175 142.449)" fill="none" stroke="#dd3a3a" stroke-linecap="round" stroke-linejoin="round" stroke-width="1.424"/>
    <path id="패스_1431" data-name="패스 1431" d="M120.6,142.976a1.424,1.424,0,1,1-1.424-1.424,1.424,1.424,0,0,1,1.424,1.424" fill="#dd3a3a"/>
    <path id="패스_1432" data-name="패스 1432" d="M120.6,164.765a1.424,1.424,0,1,1-1.424-1.424,1.424,1.424,0,0,1,1.424,1.424" fill="#dd3a3a"/>
    <path id="패스_1433" data-name="패스 1433" d="M120.6,197.867a1.424,1.424,0,1,1-1.424-1.424,1.424,1.424,0,0,1,1.424,1.424" fill="#dd3a3a"/>
    <path id="패스_1434" data-name="패스 1434" d="M120.6,227.4a1.424,1.424,0,1,1-1.424-1.424A1.424,1.424,0,0,1,120.6,227.4" fill="#dd3a3a"/>
    <path id="패스_1435" data-name="패스 1435" d="M120.6,258.344a1.424,1.424,0,1,1-1.424-1.424,1.424,1.424,0,0,1,1.424,1.424" fill="#dd3a3a"/>
    <path id="패스_1436" data-name="패스 1436" d="M120.6,284.716a1.424,1.424,0,1,1-1.424-1.424,1.424,1.424,0,0,1,1.424,1.424" fill="#dd3a3a"/>
    <path id="패스_1437" data-name="패스 1437" d="M120.6,294.111a1.424,1.424,0,1,1-1.424-1.424,1.424,1.424,0,0,1,1.424,1.424" fill="#dd3a3a"/>
    <path id="패스_1438" data-name="패스 1438" d="M120.6,303.505a1.424,1.424,0,1,1-1.424-1.424,1.425,1.425,0,0,1,1.424,1.424" fill="#dd3a3a"/>
    <path id="패스_1439" data-name="패스 1439" d="M120.6,312.9a1.424,1.424,0,1,1-1.424-1.424A1.424,1.424,0,0,1,120.6,312.9" fill="#dd3a3a"/>
    <path id="패스_1440" data-name="패스 1440" d="M120.6,322.3a1.424,1.424,0,1,1-1.424-1.424A1.424,1.424,0,0,1,120.6,322.3" fill="#dd3a3a"/>
    <path id="패스_1441" data-name="패스 1441" d="M120.6,331.69a1.424,1.424,0,1,1-1.424-1.424,1.424,1.424,0,0,1,1.424,1.424" fill="#dd3a3a"/>
    <path id="패스_1442" data-name="패스 1442" d="M120.6,341.085a1.424,1.424,0,1,1-1.424-1.424,1.424,1.424,0,0,1,1.424,1.424" fill="#dd3a3a"/>
    <path id="패스_1443" data-name="패스 1443" d="M120.6,350.479a1.424,1.424,0,1,1-1.424-1.424,1.424,1.424,0,0,1,1.424,1.424" fill="#dd3a3a"/>
    <path id="패스_1444" data-name="패스 1444" d="M120.6,359.874a1.424,1.424,0,1,1-1.424-1.424,1.424,1.424,0,0,1,1.424,1.424" fill="#dd3a3a"/>
    <path id="패스_1445" data-name="패스 1445" d="M120.6,381.029a1.424,1.424,0,1,1-1.424-1.424,1.424,1.424,0,0,1,1.424,1.424" fill="#dd3a3a"/>
    <path id="패스_1446" data-name="패스 1446" d="M120.6,390.423A1.424,1.424,0,1,1,119.175,389a1.424,1.424,0,0,1,1.424,1.424" fill="#dd3a3a"/>
    <path id="패스_1447" data-name="패스 1447" d="M120.6,399.818a1.424,1.424,0,1,1-1.424-1.424,1.424,1.424,0,0,1,1.424,1.424" fill="#dd3a3a"/>
    <path id="패스_1448" data-name="패스 1448" d="M120.6,417.344a1.424,1.424,0,1,1-1.424-1.424,1.424,1.424,0,0,1,1.424,1.424" fill="#dd3a3a"/>
    <path id="패스_1449" data-name="패스 1449" d="M120.6,432.7a1.424,1.424,0,1,1-1.424-1.424A1.424,1.424,0,0,1,120.6,432.7" fill="#dd3a3a"/>
    <path id="패스_1450" data-name="패스 1450" d="M120.6,448.055a1.424,1.424,0,1,1-1.424-1.424,1.424,1.424,0,0,1,1.424,1.424" fill="#dd3a3a"/>
    <path id="패스_1451" data-name="패스 1451" d="M120.6,459.029a1.424,1.424,0,1,1-1.424-1.424,1.424,1.424,0,0,1,1.424,1.424" fill="#dd3a3a"/>
    <path id="패스_1452" data-name="패스 1452" d="M120.6,243.5a1.424,1.424,0,1,1-1.424-1.424A1.424,1.424,0,0,1,120.6,243.5" fill="#dd3a3a"/>
    <path id="패스_1453" data-name="패스 1453" d="M120.6,216.66a1.424,1.424,0,1,1-1.424-1.424,1.424,1.424,0,0,1,1.424,1.424" fill="#dd3a3a"/>
    <path id="패스_1454" data-name="패스 1454" d="M120.6,209.081a1.424,1.424,0,1,1-1.424-1.424,1.424,1.424,0,0,1,1.424,1.424" fill="#dd3a3a"/>
  </g>
</svg>
