<svg id="Gallbladder_Meridian_GB-2" data-name="Gallbladder Meridian, GB-2" xmlns="http://www.w3.org/2000/svg" xmlns:xlink="http://www.w3.org/1999/xlink" width="165.578" height="264.7" viewBox="0 0 165.578 264.7">
  <defs>
    <clipPath id="clip-path">
      <rect id="사각형_2255" data-name="사각형 2255" width="165.578" height="264.7" fill="none"/>
    </clipPath>
  </defs>
  <g id="그룹_851" data-name="그룹 851" clip-path="url(#clip-path)">
    <path id="패스_1199" data-name="패스 1199" d="M2.83,94.162c4.36,26.412,22.052,54.564,42.6,71.69a23.88,23.88,0,0,1,8.649,20.738L47.4,252.052l44.143,4.5c.006,0,1.914-18.762,2.028-19.884q1.467-14.375,2.933-28.749.648-6.348,1.295-12.695c.477-4.679.88-8.449,1.81-13.706,8.827,1.679,17.922,2.7,26.785,1.22s17.542-5.7,22.926-12.893c5.829-7.789,7.171-17.948,8.252-27.617.282-2.523.022-6.385,1.115-8.71,1.212-2.58,5.163-2.762,5.512-6.123a4.737,4.737,0,0,0-1.189-3.592c-3.9-4.414-5.033-10.014-5.532-15.584-2.014-22.515,4.579-45.5-3.939-67.333C141.887,11.01,106.534.018,76.952,1.477a109.439,109.439,0,0,0-24.58,3.99C36.18,10.08,20.588,19.033,11.641,33.719,5.684,43.5,2.616,55.486,1.673,67.577A111.888,111.888,0,0,0,2.83,94.162" fill="#fff"/>
    <path id="패스_1200" data-name="패스 1200" d="M2.83,94.162c4.36,26.412,22.052,54.564,42.6,71.69a23.88,23.88,0,0,1,8.649,20.738L47.4,252.052l44.143,4.5c.006,0,1.914-18.762,2.028-19.884q1.467-14.375,2.933-28.749.648-6.348,1.295-12.695c.477-4.679.88-8.449,1.81-13.706,8.827,1.679,17.922,2.7,26.785,1.22s17.542-5.7,22.926-12.893c5.829-7.789,7.171-17.948,8.252-27.617.282-2.523.022-6.385,1.115-8.71,1.212-2.58,5.163-2.762,5.512-6.123a4.737,4.737,0,0,0-1.189-3.592c-3.9-4.414-5.033-10.014-5.532-15.584-2.014-22.515,4.579-45.5-3.939-67.333C141.887,11.01,106.534.018,76.952,1.477a109.439,109.439,0,0,0-24.58,3.99C36.18,10.08,20.588,19.033,11.641,33.719,5.684,43.5,2.616,55.486,1.673,67.577A111.888,111.888,0,0,0,2.83,94.162Z" fill="none" stroke="#535353" stroke-linecap="round" stroke-linejoin="round" stroke-width="2.7"/>
    <path id="패스_1201" data-name="패스 1201" d="M146.408,82.094a25.7,25.7,0,0,0-16.522,2.746" fill="#fff"/>
    <path id="패스_1202" data-name="패스 1202" d="M146.408,82.094a25.7,25.7,0,0,0-16.522,2.746" fill="none" stroke="#535353" stroke-linecap="round" stroke-linejoin="round" stroke-width="2.7"/>
    <path id="패스_1203" data-name="패스 1203" d="M129.886,104.608a25.7,25.7,0,0,0,16.522-2.746" fill="#fff"/>
    <path id="패스_1204" data-name="패스 1204" d="M129.886,104.608a25.7,25.7,0,0,0,16.522-2.746" fill="none" stroke="#535353" stroke-linecap="round" stroke-linejoin="round" stroke-width="2.7"/>
    <path id="패스_1205" data-name="패스 1205" d="M156.215,147.414a15.655,15.655,0,0,1-8.3-.5,46.694,46.694,0,0,1-7.668-3.437" fill="#fff"/>
    <path id="패스_1206" data-name="패스 1206" d="M156.215,147.414a15.655,15.655,0,0,1-8.3-.5,46.694,46.694,0,0,1-7.668-3.437" fill="none" stroke="#535353" stroke-linecap="round" stroke-linejoin="round" stroke-width="2.7"/>
    <path id="패스_1207" data-name="패스 1207" d="M89.656,131.868c4.742,6.683-7.756,14.115-12.494,7.437-7.074-9.97-10.768-22.343-6.112-33.726,2.926-7.155,17.141-14.743,21.67,3.109" fill="#fff"/>
    <path id="패스_1208" data-name="패스 1208" d="M89.656,131.868c4.742,6.683-7.756,14.115-12.494,7.437-7.074-9.97-10.768-22.343-6.112-33.726,2.926-7.155,17.141-14.743,21.67,3.109" fill="none" stroke="#535353" stroke-linecap="round" stroke-linejoin="round" stroke-width="2.7"/>
    <path id="패스_1209" data-name="패스 1209" d="M13.892,263.35h132.94c-2.209-2.789-4.418-5.616-6.533-8.574-12.825-17.823-27.521-35.159-47.216-45.755-12.749-6.871-27.782-8.406-41.355-3.389-24.544,9.061-36.619,32.594-37.836,57.718" fill="#fff"/>
    <path id="패스_1210" data-name="패스 1210" d="M13.892,263.35h132.94c-2.209-2.789-4.418-5.616-6.533-8.574-12.825-17.823-27.521-35.159-47.216-45.755-12.749-6.871-27.782-8.406-41.355-3.389C27.184,214.693,15.109,238.226,13.892,263.35Z" fill="none" stroke="#535353" stroke-linecap="round" stroke-linejoin="round" stroke-width="2.7"/>
    <path id="패스_1211" data-name="패스 1211" d="M89.765,113.517s-5.1-18.943-13.866-7.64c0,0-7.317,12.758.22,24.386a9.837,9.837,0,0,0,5.664,4.27c2.745.72,4.328.955,4.821-5.45,0,0-5.029-6.945-5.029-9.675,0,0-1.006-6.322,4.885-4.167,0,0,3.592,2.012,4.167,5.6" fill="#fff"/>
    <path id="패스_1212" data-name="패스 1212" d="M89.765,113.517s-5.1-18.943-13.866-7.64c0,0-7.317,12.758.22,24.386a9.837,9.837,0,0,0,5.664,4.27c2.745.72,4.328.955,4.821-5.45,0,0-5.029-6.945-5.029-9.675,0,0-1.006-6.322,4.885-4.167,0,0,3.592,2.012,4.167,5.6" fill="none" stroke="#535353" stroke-linecap="round" stroke-linejoin="round" stroke-width="2.7"/>
    <path id="패스_1213" data-name="패스 1213" d="M127.7,104.633s-3.288,24.329-36.165,20.384l13.151-17.754S118.5,73.728,94.168,52.029L92.853,68.468,90.88,78.988l-3.945,7.891-4.6,3.288s4.6-18.412-11.178-24.33H60.633S48.8,72.413,49.454,88.852c0,0,3.288,29.59,5.918,37.48,0,0,1.973,17.754,19.727,23.015,0,0-36.166,7.233-38.138-72.989,0,0,6.575-61.152,86.139-34.85l24.33,26.96-17.1-41.426L100.086,15.863l-40.768-.657L27.1,35.59S-1.835,66.5,19.207,105.948c0,0,15.124,42.741,35.508,54.577,0,0,40.137,8.2-33.465,102.2" fill="none" stroke="#dd3a3a" stroke-linecap="round" stroke-linejoin="round" stroke-width="1.5"/>
    <path id="패스_1214" data-name="패스 1214" d="M129.167,104.408a1.5,1.5,0,1,1-1.5-1.5,1.5,1.5,0,0,1,1.5,1.5" fill="#dd3a3a"/>
    <path id="패스_1215" data-name="패스 1215" d="M93.336,124.943a1.5,1.5,0,1,1-1.5-1.5,1.5,1.5,0,0,1,1.5,1.5" fill="#dd3a3a"/>
    <path id="패스_1216" data-name="패스 1216" d="M106.249,107.152a1.5,1.5,0,1,1-1.5-1.5,1.5,1.5,0,0,1,1.5,1.5" fill="#dd3a3a"/>
    <path id="패스_1217" data-name="패스 1217" d="M95.758,51.713a1.5,1.5,0,1,1-1.5-1.5,1.5,1.5,0,0,1,1.5,1.5" fill="#dd3a3a"/>
    <path id="패스_1218" data-name="패스 1218" d="M124.757,41.724a1.5,1.5,0,1,1-1.5-1.5,1.5,1.5,0,0,1,1.5,1.5" fill="#dd3a3a"/>
    <path id="패스_1219" data-name="패스 1219" d="M131.824,26.843a1.5,1.5,0,1,1-1.5-1.5,1.5,1.5,0,0,1,1.5,1.5" fill="#dd3a3a"/>
    <path id="패스_1220" data-name="패스 1220" d="M101.618,15.648a1.5,1.5,0,1,1-1.5-1.5,1.5,1.5,0,0,1,1.5,1.5" fill="#dd3a3a"/>
    <path id="패스_1221" data-name="패스 1221" d="M61.069,15.19a1.5,1.5,0,1,1-1.5-1.5,1.5,1.5,0,0,1,1.5,1.5" fill="#dd3a3a"/>
    <path id="패스_1222" data-name="패스 1222" d="M28.7,35.531a1.5,1.5,0,1,1-1.5-1.5,1.5,1.5,0,0,1,1.5,1.5" fill="#dd3a3a"/>
    <path id="패스_1223" data-name="패스 1223" d="M20.388,105.738a1.5,1.5,0,1,1-1.5-1.5,1.5,1.5,0,0,1,1.5,1.5" fill="#dd3a3a"/>
    <path id="패스_1224" data-name="패스 1224" d="M56.254,160.608a1.5,1.5,0,1,1-1.5-1.5,1.5,1.5,0,0,1,1.5,1.5" fill="#dd3a3a"/>
    <path id="패스_1225" data-name="패스 1225" d="M149.033,68.494a1.5,1.5,0,1,1-1.5-1.5,1.5,1.5,0,0,1,1.5,1.5" fill="#dd3a3a"/>
    <path id="패스_1226" data-name="패스 1226" d="M94.484,68.229a1.5,1.5,0,1,1-1.5-1.5,1.5,1.5,0,0,1,1.5,1.5" fill="#dd3a3a"/>
    <path id="패스_1227" data-name="패스 1227" d="M92.322,78.72a1.5,1.5,0,1,1-1.5-1.5,1.5,1.5,0,0,1,1.5,1.5" fill="#dd3a3a"/>
    <path id="패스_1228" data-name="패스 1228" d="M88.5,86.645a1.5,1.5,0,1,1-1.5-1.5,1.5,1.5,0,0,1,1.5,1.5" fill="#dd3a3a"/>
    <path id="패스_1229" data-name="패스 1229" d="M83.752,90.1a1.5,1.5,0,1,1-1.5-1.5,1.5,1.5,0,0,1,1.5,1.5" fill="#dd3a3a"/>
    <path id="패스_1230" data-name="패스 1230" d="M72.391,65.826a1.5,1.5,0,1,1-1.5-1.5,1.5,1.5,0,0,1,1.5,1.5" fill="#dd3a3a"/>
    <path id="패스_1231" data-name="패스 1231" d="M61.971,65.826a1.5,1.5,0,1,1-1.5-1.5,1.5,1.5,0,0,1,1.5,1.5" fill="#dd3a3a"/>
    <path id="패스_1232" data-name="패스 1232" d="M51,88.883a1.5,1.5,0,1,1-1.5-1.5,1.5,1.5,0,0,1,1.5,1.5" fill="#dd3a3a"/>
    <path id="패스_1233" data-name="패스 1233" d="M56.872,126.349a1.5,1.5,0,1,1-1.5-1.5,1.5,1.5,0,0,1,1.5,1.5" fill="#dd3a3a"/>
    <path id="패스_1234" data-name="패스 1234" d="M76.27,149.35a1.5,1.5,0,1,1-1.5-1.5,1.5,1.5,0,0,1,1.5,1.5" fill="#dd3a3a"/>
  </g>
</svg>
