<svg id="Gallbladder_Meridian_GB-1" data-name="Gallbladder Meridian, GB-1" xmlns="http://www.w3.org/2000/svg" xmlns:xlink="http://www.w3.org/1999/xlink" width="126.8" height="511.56" viewBox="0 0 126.8 511.56">
  <defs>
    <clipPath id="clip-path">
      <rect id="사각형_2254" data-name="사각형 2254" width="126.8" height="511.56" fill="none"/>
    </clipPath>
  </defs>
  <g id="그룹_849" data-name="그룹 849" clip-path="url(#clip-path)">
    <path id="패스_1133" data-name="패스 1133" d="M2,46.34C4.115,59.163,12.7,72.831,22.682,81.145a11.594,11.594,0,0,1,4.2,10.068l-3.242,31.781L45.07,125.18s.929-9.108.985-9.653q.711-6.979,1.423-13.957.315-3.083.629-6.164c.232-2.272.428-4.1.879-6.654a37.176,37.176,0,0,0,13,.593,17.357,17.357,0,0,0,11.13-6.26c2.83-3.782,3.482-8.714,4.006-13.408.137-1.225.011-3.1.542-4.229.588-1.252,2.506-1.34,2.676-2.972a2.3,2.3,0,0,0-.577-1.744c-1.892-2.143-2.444-4.862-2.686-7.566C76.1,42.235,79.3,31.077,75.168,20.476,69.509,5.97,52.345.634,37.984,1.342A53.191,53.191,0,0,0,26.05,3.279C18.189,5.519,10.62,9.866,6.276,17a37.389,37.389,0,0,0-4.84,16.437A54.313,54.313,0,0,0,2,46.34" fill="#fff"/>
    <path id="패스_1134" data-name="패스 1134" d="M2,46.34C4.115,59.163,12.7,72.831,22.682,81.145a11.594,11.594,0,0,1,4.2,10.068l-3.242,31.781L45.07,125.18s.929-9.108.985-9.653q.711-6.979,1.423-13.957.315-3.083.629-6.164c.232-2.272.428-4.1.879-6.654a37.176,37.176,0,0,0,13,.593,17.357,17.357,0,0,0,11.13-6.26c2.83-3.782,3.482-8.714,4.006-13.408.137-1.225.011-3.1.542-4.229.588-1.252,2.506-1.34,2.676-2.972a2.3,2.3,0,0,0-.577-1.744c-1.892-2.143-2.444-4.862-2.686-7.566C76.1,42.235,79.3,31.077,75.168,20.476,69.509,5.97,52.345.634,37.984,1.342A53.191,53.191,0,0,0,26.05,3.279C18.189,5.519,10.62,9.866,6.276,17a37.389,37.389,0,0,0-4.84,16.437A54.313,54.313,0,0,0,2,46.34Z" fill="none" stroke="#535353" stroke-linecap="round" stroke-linejoin="round" stroke-width="2.56"/>
    <path id="패스_1135" data-name="패스 1135" d="M71.7,40.481a12.478,12.478,0,0,0-8.021,1.333" fill="#fff"/>
    <path id="패스_1136" data-name="패스 1136" d="M71.7,40.481a12.478,12.478,0,0,0-8.021,1.333" fill="none" stroke="#535353" stroke-linecap="round" stroke-linejoin="round" stroke-width="2.56"/>
    <path id="패스_1137" data-name="패스 1137" d="M63.683,51.411A12.478,12.478,0,0,0,71.7,50.078" fill="#fff"/>
    <path id="패스_1138" data-name="패스 1138" d="M63.683,51.411A12.478,12.478,0,0,0,71.7,50.078" fill="none" stroke="#535353" stroke-linecap="round" stroke-linejoin="round" stroke-width="2.56"/>
    <path id="패스_1139" data-name="패스 1139" d="M76.465,72.193a7.592,7.592,0,0,1-4.028-.245,22.719,22.719,0,0,1-3.723-1.668" fill="#fff"/>
    <path id="패스_1140" data-name="패스 1140" d="M76.465,72.193a7.592,7.592,0,0,1-4.028-.245,22.719,22.719,0,0,1-3.723-1.668" fill="none" stroke="#535353" stroke-linecap="round" stroke-linejoin="round" stroke-width="2.56"/>
    <path id="패스_1141" data-name="패스 1141" d="M44.152,64.646c2.3,3.245-3.765,6.853-6.066,3.61-3.434-4.84-5.227-10.847-2.967-16.373,1.421-3.474,8.322-7.158,10.521,1.509" fill="#fff"/>
    <path id="패스_1142" data-name="패스 1142" d="M44.152,64.646c2.3,3.245-3.765,6.853-6.066,3.61-3.434-4.84-5.227-10.847-2.967-16.373,1.421-3.474,8.322-7.158,10.521,1.509" fill="none" stroke="#535353" stroke-linecap="round" stroke-linejoin="round" stroke-width="2.56"/>
    <path id="패스_1143" data-name="패스 1143" d="M43.434,56.219s-1.991-7.393-5.411-2.981c0,0-2.856,4.978.086,9.516a3.838,3.838,0,0,0,2.21,1.667c1.071.281,1.689.372,1.881-2.127,0,0-1.962-2.71-1.962-3.776,0,0-.393-2.467,1.906-1.626a3.473,3.473,0,0,1,1.626,2.187" fill="#fff"/>
    <path id="패스_1144" data-name="패스 1144" d="M43.434,56.219s-1.991-7.393-5.411-2.981c0,0-2.856,4.978.086,9.516a3.838,3.838,0,0,0,2.21,1.667c1.071.281,1.689.372,1.881-2.127,0,0-1.962-2.71-1.962-3.776,0,0-.393-2.467,1.906-1.626a3.473,3.473,0,0,1,1.626,2.187" fill="none" stroke="#535353" stroke-linecap="round" stroke-linejoin="round" stroke-width="1.896"/>
    <path id="패스_1145" data-name="패스 1145" d="M121.535,101.847c.368,1.107,1.475,19.556,1.475,19.556s2.952,15.128-20.663,15.5-54.241-.369-54.241-.369l9.6-22.508Z" fill="#fff"/>
    <path id="패스_1146" data-name="패스 1146" d="M121.535,101.847c.368,1.107,1.475,19.556,1.475,19.556s2.952,15.128-20.663,15.5-54.241-.369-54.241-.369l9.6-22.508Z" fill="none" stroke="#535353" stroke-linecap="round" stroke-linejoin="round" stroke-width="2.56"/>
    <path id="패스_1147" data-name="패스 1147" d="M9.42,285.428c4.646,17.864,10.289,31.828,12.194,50.176a14.619,14.619,0,0,0-.234,3.766c.261,4.052-1.465,8.239-2.453,12.1a114.934,114.934,0,0,0-3.63,22.914c-1.007,18.906,1.752,42.664,3.855,61.579a4.246,4.246,0,0,0-.081.971c.152,4.547.063,9.084-.234,13.6a132.062,132.062,0,0,1-7.027,34.685C9.788,491,7.919,497.977,14.515,501.6c5.76,3.154,14.134,1.789,20.362.872,7.3,4.008,15.15,5.436,23.632,6.173q8.2.727,16.417,1.438c3.909.341,7.665.692,10.037-3.037a4.193,4.193,0,0,0-.629-4.889c-4.34-5.175-12.068-6.038-17.5-9.857-5.517-3.882-10.738-8.249-15.986-12.535-7.332-5.985-10.333-19.059-10.477-28.907-.018-1.123,0-2.211.054-3.235.818-15.1,3.289-31.046,5.248-46.214,1.734-13.362,4.744-26.5,6.236-39.762,1.725-15.374,5.625-30.713,7.835-46.061q3.235-22.5,5.347-45.117c1.033-11.116,1.545-22.33,2.965-33.355l-.144-.009c1.168-4.646,2.678-9.193,4.215-13.74,1.419-4.178,2.857-8.356,4.07-12.589,1.238-4.315,1.439-8.7,2.007-13.156.529-4.154.825-8.149,1.066-12.274.51-8.7,1.723-17.13,1.9-25.864.2-9.961-1.775-17.93-6.375-24.7-4.491-6.612-7.567-10.227-12.584-16.44a56.209,56.209,0,0,0-16.68-14.4,24.191,24.191,0,0,0-19.85-1.627c-12.175,4.493-17.953,16.408-18.2,28.907-.234,11.969,3.531,23.31,7.818,34.317,4.133,10.639,8.293,20.577,8.185,32.421A38.369,38.369,0,0,1,21.964,208a39.084,39.084,0,0,1-3.262,7.736c-.108,0-6.1,11.08-6.811,11.925A42.958,42.958,0,0,0,9.007,231.5a43.482,43.482,0,0,0-6.254,14.414c-3.244,14.053,3.216,26.256,6.667,39.51" fill="#fff"/>
    <path id="패스_1148" data-name="패스 1148" d="M9.42,285.428c4.646,17.864,10.289,31.828,12.194,50.176a14.619,14.619,0,0,0-.234,3.766c.261,4.052-1.465,8.239-2.453,12.1a114.934,114.934,0,0,0-3.63,22.914c-1.007,18.906,1.752,42.664,3.855,61.579a4.246,4.246,0,0,0-.081.971c.152,4.547.063,9.084-.234,13.6a132.062,132.062,0,0,1-7.027,34.685C9.788,491,7.919,497.977,14.515,501.6c5.76,3.154,14.134,1.789,20.362.872,7.3,4.008,15.15,5.436,23.632,6.173q8.2.727,16.417,1.438c3.909.341,7.665.692,10.037-3.037a4.193,4.193,0,0,0-.629-4.889c-4.34-5.175-12.068-6.038-17.5-9.857-5.517-3.882-10.738-8.249-15.986-12.535-7.332-5.985-10.333-19.059-10.477-28.907-.018-1.123,0-2.211.054-3.235.818-15.1,3.289-31.046,5.248-46.214,1.734-13.362,4.744-26.5,6.236-39.762,1.725-15.374,5.625-30.713,7.835-46.061q3.235-22.5,5.347-45.117c1.033-11.116,1.545-22.33,2.965-33.355l-.144-.009c1.168-4.646,2.678-9.193,4.215-13.74,1.419-4.178,2.857-8.356,4.07-12.589,1.238-4.315,1.439-8.7,2.007-13.156.529-4.154.825-8.149,1.066-12.274.51-8.7,1.723-17.13,1.9-25.864.2-9.961-1.775-17.93-6.375-24.7-4.491-6.612-7.567-10.227-12.584-16.44a56.209,56.209,0,0,0-16.68-14.4,24.191,24.191,0,0,0-19.85-1.627c-12.175,4.493-17.953,16.408-18.2,28.907-.234,11.969,3.531,23.31,7.818,34.317,4.133,10.639,8.293,20.577,8.185,32.421A38.369,38.369,0,0,1,21.964,208a39.084,39.084,0,0,1-3.262,7.736c-.108,0-6.1,11.08-6.811,11.925A42.958,42.958,0,0,0,9.007,231.5a43.482,43.482,0,0,0-6.254,14.414C-.491,259.971,5.969,272.174,9.42,285.428Z" fill="none" stroke="#535353" stroke-linecap="round" stroke-linejoin="round" stroke-width="2.56"/>
    <path id="패스_1149" data-name="패스 1149" d="M32.87,101.058l79.565-.546a13.053,13.053,0,0,1,.065,26.106l-62.456,4.009v0c-3.732.015-8.219.231-10.793,3.319,2.574-3.088,7.061-3.3,10.793-3.319" fill="#fff"/>
    <path id="패스_1150" data-name="패스 1150" d="M32.87,101.058l79.565-.546a13.053,13.053,0,0,1,.065,26.106l-62.456,4.009v0c-3.732.015-8.219.231-10.793,3.319,2.574-3.088,7.061-3.3,10.793-3.319" fill="none" stroke="#535353" stroke-linecap="round" stroke-linejoin="round" stroke-width="2.56"/>
    <path id="패스_1151" data-name="패스 1151" d="M91.121,98.813c1.368-2.992,4.355-4.539,8.133-4.761a46.52,46.52,0,0,1,13.967,1.308c3.918.977,8.252,2.175,10.592,5.758,1.646,2.518,1.884,6.7-1.928,6.9a7.15,7.15,0,0,1-4.472-1.5c-.532.813-1.118,1.6-1.755,2.391-1.256,1.56-.5,4.306-2.275,5.529a2.959,2.959,0,0,1-3.846-.7c-.061-.067-.111-.138-.166-.21-.065.171-.135.337-.208.5a24.034,24.034,0,0,1,3.7-14.392,24.034,24.034,0,0,0-3.7,14.392c-.632,1.4-1.61,2.415-3.252,2.013a2.8,2.8,0,0,1-1.673-1.219c-.25-5.96.1-11.845,3.09-17.4-2.991,5.554-3.34,11.439-3.09,17.4a3.9,3.9,0,0,1-.219-.364c-.831,1.279-2.231,1.893-3.891.454a4.506,4.506,0,0,1-.88-1.046c-.055.039-.116.071-.174.106a29.922,29.922,0,0,1,3.273-17.656,29.922,29.922,0,0,0-3.273,17.656,4.429,4.429,0,0,1-2.965.442c-1.4-.254-1.981-1.356-2.341-2.574-.08-.18-.144-.363-.215-.545a32,32,0,0,1,2.706-14.979,35.331,35.331,0,0,0-2.065,6.389c-.211.965-.154,4.853-1.019,5.238a1.285,1.285,0,0,1-1.326-.287,3.175,3.175,0,0,1-.753-1.206,9.688,9.688,0,0,1-.781-3.956,9.538,9.538,0,0,1,.806-3.678" fill="#fff"/>
    <path id="패스_1152" data-name="패스 1152" d="M91.121,98.813c1.368-2.992,4.355-4.539,8.133-4.761a46.52,46.52,0,0,1,13.967,1.308c3.918.977,8.252,2.175,10.592,5.758,1.646,2.518,1.884,6.7-1.928,6.9a7.15,7.15,0,0,1-4.472-1.5c-.532.813-1.118,1.6-1.755,2.391-1.256,1.56-.5,4.306-2.275,5.529a2.959,2.959,0,0,1-3.846-.7c-.061-.067-.111-.138-.166-.21-.065.171-.135.337-.208.5a24.034,24.034,0,0,1,3.7-14.392,24.034,24.034,0,0,0-3.7,14.392c-.632,1.4-1.61,2.415-3.252,2.013a2.8,2.8,0,0,1-1.673-1.219c-.25-5.96.1-11.845,3.09-17.4-2.991,5.554-3.34,11.439-3.09,17.4a3.9,3.9,0,0,1-.219-.364c-.831,1.279-2.231,1.893-3.891.454a4.506,4.506,0,0,1-.88-1.046c-.055.039-.116.071-.174.106a29.922,29.922,0,0,1,3.273-17.656,29.922,29.922,0,0,0-3.273,17.656,4.429,4.429,0,0,1-2.965.442c-1.4-.254-1.981-1.356-2.341-2.574-.08-.18-.144-.363-.215-.545a32,32,0,0,1,2.706-14.979,35.331,35.331,0,0,0-2.065,6.389c-.211.965-.154,4.853-1.019,5.238a1.285,1.285,0,0,1-1.326-.287,3.175,3.175,0,0,1-.753-1.206,9.688,9.688,0,0,1-.781-3.956A9.538,9.538,0,0,1,91.121,98.813Z" fill="none" stroke="#535353" stroke-linecap="round" stroke-linejoin="round" stroke-width="2.56"/>
    <path id="패스_1153" data-name="패스 1153" d="M49.467,143.191S54.2,163.366,72.48,168.726" fill="#fff"/>
    <path id="패스_1154" data-name="패스 1154" d="M49.467,143.191S54.2,163.366,72.48,168.726" fill="none" stroke="#535353" stroke-linecap="round" stroke-linejoin="round" stroke-width="2.56"/>
    <path id="패스_1155" data-name="패스 1155" d="M62.392,51.14S60.816,62.8,45.054,60.912L51.359,52.4s6.62-16.077-5.044-26.48L45.684,33.8l-.946,5.044-1.891,3.782L40.64,44.205s2.207-8.827-5.359-11.664H30.237s-5.674,3.152-5.359,11.033c0,0,1.576,14.186,2.837,17.969,0,0,.946,8.512,9.458,11.033,0,0-17.339,3.468-18.284-34.991,0,0,3.152-29.318,41.3-16.708L71.849,33.8l-8.2-19.861-14.5-5.359L29.607,8.267,14.16,18.04S.289,32.856,10.377,51.77c0,0,7.251,20.491,17.023,26.166,0,0,11.034,17.653-.63,23.643,0,0,25.85.945,18.284,37.513l4.1,5.044,14.816,39.721-33.1,34.676s10.718,2.522,10.718,5.36c0,0,17.654,7.25,18.915,19.544v8.2l-15.132,7.881-28.687,6.3,14.5,40.981,3.783,12.3-1.261,14.5-8.2,33.415-1.892,43.5h8.2l-.946,15.762-.631,7.25v7.881l1.577,36.884,11.033,11.664L52.935,495l17.023,7.251,11.349,4.729" fill="none" stroke="#dd3a3a" stroke-linecap="round" stroke-linejoin="round" stroke-width="1.422"/>
    <path id="패스_1156" data-name="패스 1156" d="M63.869,51.088a1.422,1.422,0,1,1-1.422-1.422,1.422,1.422,0,0,1,1.422,1.422" fill="#dd3a3a"/>
    <path id="패스_1157" data-name="패스 1157" d="M46.738,60.7a1.422,1.422,0,1,1-1.422-1.422A1.423,1.423,0,0,1,46.738,60.7" fill="#dd3a3a"/>
    <path id="패스_1158" data-name="패스 1158" d="M52.7,52.322A1.422,1.422,0,1,1,51.279,50.9,1.422,1.422,0,0,1,52.7,52.322" fill="#dd3a3a"/>
    <path id="패스_1159" data-name="패스 1159" d="M47.736,25.606a1.422,1.422,0,1,1-1.422-1.422,1.422,1.422,0,0,1,1.422,1.422" fill="#dd3a3a"/>
    <path id="패스_1160" data-name="패스 1160" d="M61.712,20.982A1.422,1.422,0,1,1,60.29,19.56a1.422,1.422,0,0,1,1.422,1.422" fill="#dd3a3a"/>
    <path id="패스_1161" data-name="패스 1161" d="M73.061,33.382a1.422,1.422,0,1,1-1.422-1.422,1.422,1.422,0,0,1,1.422,1.422" fill="#dd3a3a"/>
    <path id="패스_1162" data-name="패스 1162" d="M64.864,13.837a1.422,1.422,0,1,1-1.422-1.422,1.422,1.422,0,0,1,1.422,1.422" fill="#dd3a3a"/>
    <path id="패스_1163" data-name="패스 1163" d="M50.468,8.582A1.422,1.422,0,1,1,49.046,7.16a1.423,1.423,0,0,1,1.422,1.422" fill="#dd3a3a"/>
    <path id="패스_1164" data-name="패스 1164" d="M30.923,8.267A1.422,1.422,0,1,1,29.5,6.845a1.422,1.422,0,0,1,1.422,1.422" fill="#dd3a3a"/>
    <path id="패스_1165" data-name="패스 1165" d="M15.266,18.25a1.422,1.422,0,1,1-1.422-1.422,1.422,1.422,0,0,1,1.422,1.422" fill="#dd3a3a"/>
    <path id="패스_1166" data-name="패스 1166" d="M11.877,51.823A1.422,1.422,0,1,1,10.455,50.4a1.422,1.422,0,0,1,1.422,1.422" fill="#dd3a3a"/>
    <path id="패스_1167" data-name="패스 1167" d="M28.664,77.857a1.422,1.422,0,1,1-1.422-1.422,1.422,1.422,0,0,1,1.422,1.422" fill="#dd3a3a"/>
    <path id="패스_1168" data-name="패스 1168" d="M28.086,101.474a1.422,1.422,0,1,1-1.422-1.422,1.422,1.422,0,0,1,1.422,1.422" fill="#dd3a3a"/>
    <path id="패스_1169" data-name="패스 1169" d="M46.265,139.3a1.422,1.422,0,1,1-1.422-1.422,1.422,1.422,0,0,1,1.422,1.422" fill="#dd3a3a"/>
    <path id="패스_1170" data-name="패스 1170" d="M50.731,144.137a1.422,1.422,0,1,1-1.422-1.422,1.422,1.422,0,0,1,1.422,1.422" fill="#dd3a3a"/>
    <path id="패스_1171" data-name="패스 1171" d="M65.39,184.018a1.422,1.422,0,1,1-1.422-1.422,1.422,1.422,0,0,1,1.422,1.422" fill="#dd3a3a"/>
    <path id="패스_1172" data-name="패스 1172" d="M32.6,218.218a1.422,1.422,0,1,1-1.422-1.422,1.422,1.422,0,0,1,1.422,1.422" fill="#dd3a3a"/>
    <path id="패스_1173" data-name="패스 1173" d="M42.8,223.682a1.423,1.423,0,1,1-1.423-1.422,1.424,1.424,0,0,1,1.423,1.422" fill="#dd3a3a"/>
    <path id="패스_1174" data-name="패스 1174" d="M61.922,251.529a1.422,1.422,0,1,1-1.422-1.422,1.422,1.422,0,0,1,1.422,1.422" fill="#dd3a3a"/>
    <path id="패스_1175" data-name="패스 1175" d="M46.9,259.725a1.422,1.422,0,1,1-1.422-1.422,1.422,1.422,0,0,1,1.422,1.422" fill="#dd3a3a"/>
    <path id="패스_1176" data-name="패스 1176" d="M43.218,266.24a1.422,1.422,0,1,1-1.422-1.422,1.422,1.422,0,0,1,1.422,1.422" fill="#fff"/>
    <circle id="타원_325" data-name="타원 325" cx="1.422" cy="1.422" r="1.422" transform="matrix(0.23, -0.973, 0.973, 0.23, 40.085, 267.297)" fill="none" stroke="#dd3a3a" stroke-width="0.948"/>
    <path id="패스_1177" data-name="패스 1177" d="M18.314,265.715a1.422,1.422,0,1,1-1.422-1.422,1.422,1.422,0,0,1,1.422,1.422" fill="#dd3a3a"/>
    <path id="패스_1178" data-name="패스 1178" d="M36.177,318.78a1.422,1.422,0,1,1-1.422-1.422,1.422,1.422,0,0,1,1.422,1.422" fill="#dd3a3a"/>
    <path id="패스_1179" data-name="패스 1179" d="M31.133,303.229a1.422,1.422,0,1,1-1.422-1.422,1.422,1.422,0,0,1,1.422,1.422" fill="#dd3a3a"/>
    <path id="패스_1180" data-name="패스 1180" d="M34.811,334.542a1.422,1.422,0,1,1-1.422-1.422,1.423,1.423,0,0,1,1.422,1.422" fill="#dd3a3a"/>
    <path id="패스_1181" data-name="패스 1181" d="M27.091,366.382a1.422,1.422,0,1,1-1.422-1.422,1.422,1.422,0,0,1,1.422,1.422" fill="#dd3a3a"/>
    <path id="패스_1182" data-name="패스 1182" d="M25.239,410.437a1.422,1.422,0,1,1-1.422-1.422,1.422,1.422,0,0,1,1.422,1.422" fill="#dd3a3a"/>
    <path id="패스_1183" data-name="패스 1183" d="M33.117,410.437a1.422,1.422,0,1,1-1.422-1.422,1.422,1.422,0,0,1,1.422,1.422" fill="#dd3a3a"/>
    <path id="패스_1184" data-name="패스 1184" d="M31.7,433.739a1.422,1.422,0,1,1-1.422-1.422,1.422,1.422,0,0,1,1.422,1.422" fill="#dd3a3a"/>
    <path id="패스_1185" data-name="패스 1185" d="M31.7,439.413a1.422,1.422,0,1,1-1.422-1.422,1.422,1.422,0,0,1,1.422,1.422" fill="#dd3a3a"/>
    <path id="패스_1186" data-name="패스 1186" d="M31.909,445.3a1.423,1.423,0,1,1-1.423-1.422,1.423,1.423,0,0,1,1.423,1.422" fill="#dd3a3a"/>
    <path id="패스_1187" data-name="패스 1187" d="M33.275,478.03a1.422,1.422,0,1,1-1.422-1.422,1.422,1.422,0,0,1,1.422,1.422" fill="#dd3a3a"/>
    <path id="패스_1188" data-name="패스 1188" d="M44.2,489.852a1.422,1.422,0,1,1-1.422-1.422,1.422,1.422,0,0,1,1.422,1.422" fill="#dd3a3a"/>
    <path id="패스_1189" data-name="패스 1189" d="M82.623,507.085a1.422,1.422,0,1,1-1.422-1.422,1.422,1.422,0,0,1,1.422,1.422" fill="#dd3a3a"/>
    <path id="패스_1190" data-name="패스 1190" d="M63.5,499.1a1.422,1.422,0,1,1-1.422-1.422A1.422,1.422,0,0,1,63.5,499.1" fill="#dd3a3a"/>
    <path id="패스_1191" data-name="패스 1191" d="M72.01,502.461a1.422,1.422,0,1,1-1.422-1.422,1.422,1.422,0,0,1,1.422,1.422" fill="#dd3a3a"/>
    <path id="패스_1192" data-name="패스 1192" d="M61.922,245.539a1.422,1.422,0,1,1-1.422-1.422,1.422,1.422,0,0,1,1.422,1.422" fill="#dd3a3a"/>
    <path id="패스_1193" data-name="패스 1193" d="M46.948,33.49a1.422,1.422,0,1,1-1.422-1.422,1.422,1.422,0,0,1,1.422,1.422" fill="#dd3a3a"/>
    <path id="패스_1194" data-name="패스 1194" d="M46.081,39.086a1.422,1.422,0,1,1-1.422-1.422,1.422,1.422,0,0,1,1.422,1.422" fill="#dd3a3a"/>
    <path id="패스_1195" data-name="패스 1195" d="M36.808,32.515a1.422,1.422,0,1,1-1.422-1.422,1.422,1.422,0,0,1,1.422,1.422" fill="#dd3a3a"/>
    <path id="패스_1196" data-name="패스 1196" d="M31.633,32.515a1.422,1.422,0,1,1-1.422-1.422,1.422,1.422,0,0,1,1.422,1.422" fill="#dd3a3a"/>
    <path id="패스_1197" data-name="패스 1197" d="M26.379,43.023A1.422,1.422,0,1,1,24.957,41.6a1.422,1.422,0,0,1,1.422,1.422" fill="#dd3a3a"/>
    <path id="패스_1198" data-name="패스 1198" d="M38.647,72.655a1.422,1.422,0,1,1-1.422-1.422,1.422,1.422,0,0,1,1.422,1.422" fill="#dd3a3a"/>
  </g>
</svg>
