<svg id="Governor_Vessel_GV-3" data-name="Governor Vessel, GV-3" xmlns="http://www.w3.org/2000/svg" xmlns:xlink="http://www.w3.org/1999/xlink" width="218.904" height="202.92" viewBox="0 0 218.904 202.92">
  <defs>
    <clipPath id="clip-path">
      <rect id="사각형_2259" data-name="사각형 2259" width="218.904" height="202.92" fill="none"/>
    </clipPath>
  </defs>
  <g id="그룹_859" data-name="그룹 859" clip-path="url(#clip-path)">
    <path id="패스_1339" data-name="패스 1339" d="M198.861,59.86c-9.112-10.074-39.978-33.629-89.4-33.629-50.117,0-80.9,23.03-89.4,33.629C4.565,79.2,14.155,96.4,14.155,96.4l95.307-7.743L204.769,96.4s9.258-19.772-5.908-36.538" fill="#fff"/>
    <path id="패스_1340" data-name="패스 1340" d="M198.861,59.86c-9.112-10.074-39.978-33.629-89.4-33.629-50.117,0-80.9,23.03-89.4,33.629C4.565,79.2,14.155,96.4,14.155,96.4l95.307-7.743L204.769,96.4S214.027,76.626,198.861,59.86Z" fill="none" stroke="#535353" stroke-linecap="round" stroke-linejoin="round" stroke-width="2.7"/>
    <path id="패스_1341" data-name="패스 1341" d="M198.861,154.1c-11.9,18.2-39.978,28.9-89.4,28.9-50.117,0-79.132-10.323-89.4-28.9-11.987-21.689-5.908-31.808-5.908-31.808l95.307,7.742,95.307-7.742s7.069,11.956-5.908,31.808" fill="#fff"/>
    <path id="패스_1342" data-name="패스 1342" d="M198.861,154.1c-11.9,18.2-39.978,28.9-89.4,28.9-50.117,0-79.132-10.323-89.4-28.9-11.987-21.689-5.908-31.808-5.908-31.808l95.307,7.742,95.307-7.742S211.838,134.25,198.861,154.1Z" fill="none" stroke="#535353" stroke-linecap="round" stroke-linejoin="round" stroke-width="2.7"/>
    <path id="패스_1343" data-name="패스 1343" d="M23.09,122.014c-.56,2.5-6.342,7.563-8.232,6.748-1.93-.7-2.513-8.286-1.181-10.477.874-1.443,1.718-2.844,2.47-4.1a5.59,5.59,0,0,1,5.824-2.655,4.075,4.075,0,0,1,.713.2,2.937,2.937,0,0,1,2.129,2.722c-.435,1.921-1.06,4.667-1.723,7.559" fill="#fff"/>
    <path id="패스_1344" data-name="패스 1344" d="M23.09,122.014c-.56,2.5-6.342,7.563-8.232,6.748-1.93-.7-2.513-8.286-1.181-10.477.874-1.443,1.718-2.844,2.47-4.1a5.59,5.59,0,0,1,5.824-2.655,4.075,4.075,0,0,1,.713.2,2.937,2.937,0,0,1,2.129,2.722C24.378,116.376,23.753,119.122,23.09,122.014Z" fill="none" stroke="#535353" stroke-linecap="round" stroke-linejoin="round" stroke-width="2.7"/>
    <path id="패스_1345" data-name="패스 1345" d="M196.212,122.04c.557,2.5,6.556,7.937,8.23,6.75,4.832-3.447,1.241-10.587-1.179-14.551a5.712,5.712,0,0,0-5.928-2.681,4.138,4.138,0,0,0-.713.2,2.939,2.939,0,0,0-2.131,2.722c.435,1.922,1.059,4.667,1.721,7.559" fill="#fff"/>
    <path id="패스_1346" data-name="패스 1346" d="M196.212,122.04c.557,2.5,6.556,7.937,8.23,6.75,4.832-3.447,1.241-10.587-1.179-14.551a5.712,5.712,0,0,0-5.928-2.681,4.138,4.138,0,0,0-.713.2,2.939,2.939,0,0,0-2.131,2.722C194.926,116.4,195.55,119.148,196.212,122.04Z" fill="none" stroke="#535353" stroke-linecap="round" stroke-linejoin="round" stroke-width="2.7"/>
    <path id="패스_1347" data-name="패스 1347" d="M36.073,129.438c-.46,3.3-1.635,3.681-2.758,5.228-1.418,1.96-4.351,4.758-6.84,4.139s-4.437-4.631-4.733-7.016c-.236-1.885-.351-2.582.829-5.7,1.451-3.836,2.9-7.715,3.96-10.58a7.191,7.191,0,0,1,2.626-3.48c1.029-.665,4.467.485,6,.809s2.727,3.538,2.471,5.421c-.417,3.025-.985,7.123-1.55,11.179" fill="#fff"/>
    <path id="패스_1348" data-name="패스 1348" d="M36.073,129.438c-.46,3.3-1.635,3.681-2.758,5.228-1.418,1.96-4.351,4.758-6.84,4.139s-4.437-4.631-4.733-7.016c-.236-1.885-.351-2.582.829-5.7,1.451-3.836,2.9-7.715,3.96-10.58a7.191,7.191,0,0,1,2.626-3.48c1.029-.665,4.467.485,6,.809s2.727,3.538,2.471,5.421C37.206,121.284,36.638,125.382,36.073,129.438Z" fill="none" stroke="#535353" stroke-linecap="round" stroke-linejoin="round" stroke-width="2.7"/>
    <path id="패스_1349" data-name="패스 1349" d="M183.227,129.46c.457,3.3,1.634,3.681,2.755,5.229,1.418,1.959,4.349,4.757,6.839,4.14s4.44-4.629,4.735-7.013c.237-1.884.352-2.583-.827-5.7-1.449-3.836-2.9-7.715-3.957-10.581a7.193,7.193,0,0,0-2.625-3.481c-1.029-.665-4.466.483-5.994.807s-2.729,3.537-2.473,5.421c.416,3.025.982,7.123,1.547,11.179" fill="#fff"/>
    <path id="패스_1350" data-name="패스 1350" d="M183.227,129.46c.457,3.3,1.634,3.681,2.755,5.229,1.418,1.959,4.349,4.757,6.839,4.14s4.44-4.629,4.735-7.013c.237-1.884.352-2.583-.827-5.7-1.449-3.836-2.9-7.715-3.957-10.581a7.193,7.193,0,0,0-2.625-3.481c-1.029-.665-4.466.483-5.994.807s-2.729,3.537-2.473,5.421C182.1,121.306,182.662,125.4,183.227,129.46Z" fill="none" stroke="#535353" stroke-linecap="round" stroke-linejoin="round" stroke-width="2.7"/>
    <path id="패스_1351" data-name="패스 1351" d="M51.811,134.3c-.373,3.826-1.714,4.67-2.971,6.487-1.584,2.3-4.983,5.258-7.992,4.636s-5.515-4.8-6.014-7.528c-.4-2.16-.642-3.324.581-6.974,1.509-4.51,3.021-9.092,4.132-12.492a8.3,8.3,0,0,1,2.968-4.2c1.206-.828,2.832-3.449,4.694-3.122s4.042,3.846,4.82,5.081a8.231,8.231,0,0,1,1.05,5.028c-.343,3.558-.808,8.355-1.268,13.083" fill="#fff"/>
    <path id="패스_1352" data-name="패스 1352" d="M51.811,134.3c-.373,3.826-1.714,4.67-2.971,6.487-1.584,2.3-4.983,5.258-7.992,4.636s-5.515-4.8-6.014-7.528c-.4-2.16-.642-3.324.581-6.974,1.509-4.51,3.021-9.092,4.132-12.492a8.3,8.3,0,0,1,2.968-4.2c1.206-.828,2.832-3.449,4.694-3.122s4.042,3.846,4.82,5.081a8.231,8.231,0,0,1,1.05,5.028C52.736,124.774,52.271,129.571,51.811,134.3Z" fill="none" stroke="#535353" stroke-linecap="round" stroke-linejoin="round" stroke-width="2.7"/>
    <path id="패스_1353" data-name="패스 1353" d="M167.488,134.316c.371,3.828,1.711,4.671,2.969,6.49,1.584,2.294,4.981,5.257,7.989,4.638s5.518-4.8,6.017-7.527c.4-2.16.644-3.325-.578-6.974-1.508-4.51-3.018-9.094-4.128-12.493a8.3,8.3,0,0,0-2.968-4.2c-1.206-.829-2.831-3.451-4.694-3.124s-4.042,3.844-4.821,5.079a8.243,8.243,0,0,0-1.051,5.027c.342,3.56.806,8.358,1.265,13.084" fill="#fff"/>
    <path id="패스_1354" data-name="패스 1354" d="M167.488,134.316c.371,3.828,1.711,4.671,2.969,6.49,1.584,2.294,4.981,5.257,7.989,4.638s5.518-4.8,6.017-7.527c.4-2.16.644-3.325-.578-6.974-1.508-4.51-3.018-9.094-4.128-12.493a8.3,8.3,0,0,0-2.968-4.2c-1.206-.829-2.831-3.451-4.694-3.124s-4.042,3.844-4.821,5.079a8.243,8.243,0,0,0-1.051,5.027C166.565,124.792,167.029,129.59,167.488,134.316Z" fill="none" stroke="#535353" stroke-linecap="round" stroke-linejoin="round" stroke-width="2.7"/>
    <path id="패스_1355" data-name="패스 1355" d="M71.672,137.1c-.047,4.139-1.436,5.275-2.775,7.267-1.669,2.492-5.634,5.691-9.358,5.243s-7.1-4.53-8.107-7.344c-.807-2.247-1.546-3.639-.582-7.665,1.212-5.065,2.449-10.312,3.372-14.273a9.041,9.041,0,0,1,3.216-5.1c1.44-1.069,3.856-.659,6.306-.434s5.054.558,6.2,1.935a8.986,8.986,0,0,1,1.906,5.718c-.051,4.065-.117,9.453-.178,14.657" fill="#fff"/>
    <path id="패스_1356" data-name="패스 1356" d="M71.672,137.1c-.047,4.139-1.436,5.275-2.775,7.267-1.669,2.492-5.634,5.691-9.358,5.243s-7.1-4.53-8.107-7.344c-.807-2.247-1.546-3.639-.582-7.665,1.212-5.065,2.449-10.312,3.372-14.273a9.041,9.041,0,0,1,3.216-5.1c1.44-1.069,3.856-.659,6.306-.434s5.054.558,6.2,1.935a8.986,8.986,0,0,1,1.906,5.718C71.8,126.506,71.733,131.894,71.672,137.1Z" fill="none" stroke="#535353" stroke-linecap="round" stroke-linejoin="round" stroke-width="2.7"/>
    <path id="패스_1357" data-name="패스 1357" d="M91.012,139.1c.02,4.387-1.367,5.776-2.677,7.923-1.633,2.688-5.545,6.048-9.286,5.68s-7.208-4.454-8.255-7.406a12.063,12.063,0,0,1-.68-8.248c1.139-5.4,2.3-11,3.163-15.222a9.84,9.84,0,0,1,3.14-5.5c1.426-1.175,3.822-.913,6.277-.743s5.09.544,6.259,1.972a9.782,9.782,0,0,1,2,6.006c.014,4.311.036,10.024.059,15.54" fill="#fff"/>
    <path id="패스_1358" data-name="패스 1358" d="M91.012,139.1c.02,4.387-1.367,5.776-2.677,7.923-1.633,2.688-5.545,6.048-9.286,5.68s-7.208-4.454-8.255-7.406a12.063,12.063,0,0,1-.68-8.248c1.139-5.4,2.3-11,3.163-15.222a9.84,9.84,0,0,1,3.14-5.5c1.426-1.175,3.822-.913,6.277-.743s5.09.544,6.259,1.972a9.782,9.782,0,0,1,2,6.006C90.967,127.87,90.989,133.583,91.012,139.1Z" fill="none" stroke="#535353" stroke-linecap="round" stroke-linejoin="round" stroke-width="2.7"/>
    <path id="패스_1359" data-name="패스 1359" d="M110.514,139.294A20.263,20.263,0,0,1,108,149.637c-1.579,2.724-5.427,6.168-9.184,5.88s-7.32-4.3-8.434-7.225a20.3,20.3,0,0,1-.808-10.6c1.021-5.425,2.059-11.045,2.832-15.287a9.846,9.846,0,0,1,3.02-5.569c1.4-1.2,3.765-.994,6.222-.878s5.137.433,6.336,1.836a9.793,9.793,0,0,1,2.13,5.962c.107,4.309.252,10.02.395,15.534" fill="#fff"/>
    <path id="패스_1360" data-name="패스 1360" d="M110.514,139.294A20.263,20.263,0,0,1,108,149.637c-1.579,2.724-5.427,6.168-9.184,5.88s-7.32-4.3-8.434-7.225a20.3,20.3,0,0,1-.808-10.6c1.021-5.425,2.059-11.045,2.832-15.287a9.846,9.846,0,0,1,3.02-5.569c1.4-1.2,3.765-.994,6.222-.878s5.137.433,6.336,1.836a9.793,9.793,0,0,1,2.13,5.962C110.226,128.069,110.371,133.78,110.514,139.294Z" fill="none" stroke="#535353" stroke-linecap="round" stroke-linejoin="round" stroke-width="2.7"/>
    <path id="패스_1361" data-name="패스 1361" d="M147.625,137.1c.046,4.137,1.435,5.274,2.772,7.264,1.668,2.493,5.633,5.692,9.357,5.245s7.1-4.527,8.109-7.34c.807-2.248,1.547-3.637.584-7.662-1.21-5.063-2.444-10.309-3.367-14.269a9.033,9.033,0,0,0-3.213-5.1c-1.44-1.069-3.856-.659-6.306-.435s-5.055.554-6.2,1.932a8.992,8.992,0,0,0-1.907,5.715c.05,4.065.114,9.451.173,14.652" fill="#fff"/>
    <path id="패스_1362" data-name="패스 1362" d="M147.625,137.1c.046,4.137,1.435,5.274,2.772,7.264,1.668,2.493,5.633,5.692,9.357,5.245s7.1-4.527,8.109-7.34c.807-2.248,1.547-3.637.584-7.662-1.21-5.063-2.444-10.309-3.367-14.269a9.033,9.033,0,0,0-3.213-5.1c-1.44-1.069-3.856-.659-6.306-.435s-5.055.554-6.2,1.932a8.992,8.992,0,0,0-1.907,5.715C147.5,126.514,147.566,131.9,147.625,137.1Z" fill="none" stroke="#535353" stroke-linecap="round" stroke-linejoin="round" stroke-width="2.7"/>
    <path id="패스_1363" data-name="패스 1363" d="M128.285,139.1c-.021,4.388,1.365,5.775,2.675,7.923,1.632,2.689,5.543,6.051,9.284,5.683s7.209-4.451,8.257-7.4a12.065,12.065,0,0,0,.683-8.248c-1.138-5.4-2.295-11-3.159-15.223a9.835,9.835,0,0,0-3.139-5.5c-1.425-1.175-3.821-.913-6.275-.745s-5.091.542-6.261,1.971a9.786,9.786,0,0,0-2,6.006c-.016,4.31-.039,10.023-.064,15.539" fill="#fff"/>
    <path id="패스_1364" data-name="패스 1364" d="M128.285,139.1c-.021,4.388,1.365,5.775,2.675,7.923,1.632,2.689,5.543,6.051,9.284,5.683s7.209-4.451,8.257-7.4a12.065,12.065,0,0,0,.683-8.248c-1.138-5.4-2.295-11-3.159-15.223a9.835,9.835,0,0,0-3.139-5.5c-1.425-1.175-3.821-.913-6.275-.745s-5.091.542-6.261,1.971a9.786,9.786,0,0,0-2,6.006C128.333,127.875,128.31,133.588,128.285,139.1Z" fill="none" stroke="#535353" stroke-linecap="round" stroke-linejoin="round" stroke-width="2.7"/>
    <path id="패스_1365" data-name="패스 1365" d="M108.783,139.294a20.256,20.256,0,0,0,2.506,10.344c1.578,2.725,5.425,6.169,9.182,5.882s7.321-4.293,8.436-7.222a20.3,20.3,0,0,0,.811-10.6c-1.019-5.425-2.056-11.046-2.827-15.288a9.83,9.83,0,0,0-3.018-5.569c-1.4-1.206-3.764-1-6.221-.881s-5.138.432-6.338,1.834a9.793,9.793,0,0,0-2.131,5.962c-.109,4.308-.255,10.02-.4,15.534" fill="#fff"/>
    <path id="패스_1366" data-name="패스 1366" d="M108.783,139.294a20.256,20.256,0,0,0,2.506,10.344c1.578,2.725,5.425,6.169,9.182,5.882s7.321-4.293,8.436-7.222a20.3,20.3,0,0,0,.811-10.6c-1.019-5.425-2.056-11.046-2.827-15.288a9.83,9.83,0,0,0-3.018-5.569c-1.4-1.206-3.764-1-6.221-.881s-5.138.432-6.338,1.834a9.793,9.793,0,0,0-2.131,5.962C109.074,128.068,108.928,133.78,108.783,139.294Z" fill="none" stroke="#535353" stroke-linecap="round" stroke-linejoin="round" stroke-width="2.7"/>
    <path id="패스_1367" data-name="패스 1367" d="M18.13,90.148c-.986-1.49-2.871-4.244-4.551-3.711-1.709.434.14,13.717.865,15.3.218.474,2.655,2.273,4.234,1.823s2.3-3.151,2.237-3.669c-.217-1.725-2.032-8.6-2.785-9.74" fill="#fff"/>
    <path id="패스_1368" data-name="패스 1368" d="M18.13,90.148c-.986-1.49-2.871-4.244-4.551-3.711-1.709.434.14,13.717.865,15.3.218.474,2.655,2.273,4.234,1.823s2.3-3.151,2.237-3.669C20.7,98.163,18.883,91.286,18.13,90.148Z" fill="none" stroke="#535353" stroke-linecap="round" stroke-linejoin="round" stroke-width="2.7"/>
    <path id="패스_1369" data-name="패스 1369" d="M30.4,87.609c-.16-2.934-1.14-3.079-1.985-4.524-1.071-1.829-3.35-4.79-5.508-4.45s-4.144,3.974-4.6,6.043c-.36,1.635-.52,1.959.23,4.8.922,3.494,3.87,12.366,4.548,12.9a10.241,10.241,0,0,0,5.182,1.221c1.362-.17,2.768-4.375,2.676-6.05-.147-2.691-.346-6.336-.543-9.944" fill="#fff"/>
    <path id="패스_1370" data-name="패스 1370" d="M30.4,87.609c-.16-2.934-1.14-3.079-1.985-4.524-1.071-1.829-3.35-4.79-5.508-4.45s-4.144,3.974-4.6,6.043c-.36,1.635-.52,1.959.23,4.8.922,3.494,3.87,12.366,4.548,12.9a10.241,10.241,0,0,0,5.182,1.221c1.362-.17,2.768-4.375,2.676-6.05C30.8,94.862,30.6,91.217,30.4,87.609Z" fill="none" stroke="#535353" stroke-linecap="round" stroke-linejoin="round" stroke-width="2.7"/>
    <path id="패스_1371" data-name="패스 1371" d="M42.808,84.351c-.107-3.391-1.2-3.933-2.17-5.608-1.219-2.115-3.913-5.208-6.491-4.864S29.161,78,28.54,80.359c-.493,1.869-.788,2.6,0,5.9l2.688,11.284a7.289,7.289,0,0,0,2.3,3.9c1,.81,2.318,2.344,3.975,2.175s3.718-2.259,4.468-3.3a7.288,7.288,0,0,0,1.2-4.367c-.1-3.153-.235-7.4-.367-11.594" fill="#fff"/>
    <path id="패스_1372" data-name="패스 1372" d="M42.808,84.351c-.107-3.391-1.2-3.933-2.17-5.608-1.219-2.115-3.913-5.208-6.491-4.864S29.161,78,28.54,80.359c-.493,1.869-.788,2.6,0,5.9l2.688,11.284a7.289,7.289,0,0,0,2.3,3.9c1,.81,2.318,2.344,3.975,2.175s3.718-2.259,4.468-3.3a7.288,7.288,0,0,0,1.2-4.367C43.075,92.792,42.94,88.54,42.808,84.351Z" fill="none" stroke="#535353" stroke-linecap="round" stroke-linejoin="round" stroke-width="2.7"/>
    <path id="패스_1373" data-name="패스 1373" d="M59.243,81.6c.094-3.87-1.063-4.841-2.131-6.764-1.336-2.4-4.556-5.735-7.714-5.523s-6.218,3.967-7.219,6.53a10.141,10.141,0,0,0-.887,6.968c.77,4.807,1.568,9.784,2.17,13.541a8.634,8.634,0,0,0,2.555,4.961c1.209,1.084,3.275,4.061,5.441,3.979s4.533-3.487,5.586-4.723a8.621,8.621,0,0,0,1.865-5.26c.093-3.8.216-8.841.334-13.709" fill="#fff"/>
    <path id="패스_1374" data-name="패스 1374" d="M59.243,81.6c.094-3.87-1.063-4.841-2.131-6.764-1.336-2.4-4.556-5.735-7.714-5.523s-6.218,3.967-7.219,6.53a10.141,10.141,0,0,0-.887,6.968c.77,4.807,1.568,9.784,2.17,13.541a8.634,8.634,0,0,0,2.555,4.961c1.209,1.084,3.275,4.061,5.441,3.979s4.533-3.487,5.586-4.723a8.621,8.621,0,0,0,1.865-5.26C59,91.5,59.125,86.465,59.243,81.6Z" fill="none" stroke="#535353" stroke-linecap="round" stroke-linejoin="round" stroke-width="2.7"/>
    <path id="패스_1375" data-name="패스 1375" d="M110.36,72.957c.3-4.694-1.453-6.331-3.075-8.608-1.987-2.79-6.975-6.533-11.937-6.454-4.963-.079-9.951,3.664-11.938,6.454-1.622,2.277-3.371,3.914-3.075,8.608.39,6.164.814,12.879,1.149,18.184a11.124,11.124,0,0,0,3.688,7.526c2.036,1.768,6.152,2.932,10.176,2.882,4.023.05,8.14-1.114,10.176-2.882a11.128,11.128,0,0,0,3.687-7.526c.335-5.305.76-12.02,1.149-18.184" fill="#fff"/>
    <path id="패스_1376" data-name="패스 1376" d="M110.36,72.957c.3-4.694-1.453-6.331-3.075-8.608-1.987-2.79-6.975-6.533-11.937-6.454-4.963-.079-9.951,3.664-11.938,6.454-1.622,2.277-3.371,3.914-3.075,8.608.39,6.164.814,12.879,1.149,18.184a11.124,11.124,0,0,0,3.688,7.526c2.036,1.768,6.152,2.932,10.176,2.882,4.023.05,8.14-1.114,10.176-2.882a11.128,11.128,0,0,0,3.687-7.526C109.546,85.836,109.971,79.121,110.36,72.957Z" fill="none" stroke="#535353" stroke-linecap="round" stroke-linejoin="round" stroke-width="2.7"/>
    <path id="패스_1377" data-name="패스 1377" d="M80.969,75.339c-.142-4.433-1.937-5.724-3.5-7.771C75.54,65.033,71.194,61.876,67,62.363s-8.246,4.618-9.546,7.528c-1.05,2.35-1.96,3.955-1.083,8.3,1.125,5.582,2.319,11.5,3.24,16.069a10.018,10.018,0,0,0,3.77,6.023c1.776,1.283,5.036,1.521,8.16,1.241s6.231-1.422,7.666-3.077A10.023,10.023,0,0,0,81.5,91.723c-.149-4.655-.343-10.692-.526-16.384" fill="#fff"/>
    <path id="패스_1378" data-name="패스 1378" d="M80.969,75.339c-.142-4.433-1.937-5.724-3.5-7.771C75.54,65.033,71.194,61.876,67,62.363s-8.246,4.618-9.546,7.528c-1.05,2.35-1.96,3.955-1.083,8.3,1.125,5.582,2.319,11.5,3.24,16.069a10.018,10.018,0,0,0,3.77,6.023c1.776,1.283,5.036,1.521,8.16,1.241s6.231-1.422,7.666-3.077A10.023,10.023,0,0,0,81.5,91.723C81.346,87.068,81.152,81.031,80.969,75.339Z" fill="none" stroke="#535353" stroke-linecap="round" stroke-linejoin="round" stroke-width="2.7"/>
    <path id="패스_1379" data-name="패스 1379" d="M198.728,93.1c.282-2.238,1.176-1.815,1.93-2.953.986-1.491,2.87-4.244,4.551-3.711,1.709.434-.14,13.717-.865,15.3-.218.474-2.655,2.273-4.234,1.822s-2.3-3.15-2.237-3.668c.217-1.725.528-4.19.855-6.787" fill="#fff"/>
    <path id="패스_1380" data-name="패스 1380" d="M198.728,93.1c.282-2.238,1.176-1.815,1.93-2.953.986-1.491,2.87-4.244,4.551-3.711,1.709.434-.14,13.717-.865,15.3-.218.474-2.655,2.273-4.234,1.822s-2.3-3.15-2.237-3.668C198.09,98.163,198.4,95.7,198.728,93.1Z" fill="none" stroke="#535353" stroke-linecap="round" stroke-linejoin="round" stroke-width="2.7"/>
    <path id="패스_1381" data-name="패스 1381" d="M188.386,87.609c.16-2.934,1.14-3.079,1.985-4.524,1.071-1.829,3.35-4.79,5.508-4.45s4.144,3.974,4.6,6.043c.36,1.635.52,1.959-.23,4.8-.922,3.494-1.853,7.024-2.541,9.63a6.307,6.307,0,0,1-2.007,3.274,10.241,10.241,0,0,1-5.182,1.221c-1.362-.17-2.768-4.375-2.676-6.05.147-2.691.346-6.336.543-9.944" fill="#fff"/>
    <path id="패스_1382" data-name="패스 1382" d="M188.386,87.609c.16-2.934,1.14-3.079,1.985-4.524,1.071-1.829,3.35-4.79,5.508-4.45s4.144,3.974,4.6,6.043c.36,1.635.52,1.959-.23,4.8-.922,3.494-1.853,7.024-2.541,9.63a6.307,6.307,0,0,1-2.007,3.274,10.241,10.241,0,0,1-5.182,1.221c-1.362-.17-2.768-4.375-2.676-6.05C187.99,94.862,188.189,91.217,188.386,87.609Z" fill="none" stroke="#535353" stroke-linecap="round" stroke-linejoin="round" stroke-width="2.7"/>
    <path id="패스_1383" data-name="패스 1383" d="M175.98,84.351c.107-3.391,1.2-3.933,2.17-5.608,1.219-2.115,3.913-5.208,6.491-4.864s4.986,4.119,5.607,6.48c.493,1.869.788,2.6,0,5.9l-2.688,11.284a7.3,7.3,0,0,1-2.3,3.9c-1,.81-2.319,2.344-3.976,2.175s-3.718-2.259-4.468-3.3a7.288,7.288,0,0,1-1.2-4.367c.1-3.153.235-7.4.367-11.594" fill="#fff"/>
    <path id="패스_1384" data-name="패스 1384" d="M175.98,84.351c.107-3.391,1.2-3.933,2.17-5.608,1.219-2.115,3.913-5.208,6.491-4.864s4.986,4.119,5.607,6.48c.493,1.869.788,2.6,0,5.9l-2.688,11.284a7.3,7.3,0,0,1-2.3,3.9c-1,.81-2.319,2.344-3.976,2.175s-3.718-2.259-4.468-3.3a7.288,7.288,0,0,1-1.2-4.367C175.713,92.792,175.848,88.54,175.98,84.351Z" fill="none" stroke="#535353" stroke-linecap="round" stroke-linejoin="round" stroke-width="2.7"/>
    <path id="패스_1385" data-name="패스 1385" d="M159.545,81.6c-.094-3.87,1.063-4.841,2.131-6.764,1.336-2.4,4.556-5.735,7.714-5.523s6.218,3.967,7.219,6.53a10.141,10.141,0,0,1,.887,6.968c-.77,4.807-1.568,9.784-2.17,13.541a8.633,8.633,0,0,1-2.555,4.961c-1.209,1.084-3.275,4.061-5.441,3.979s-4.533-3.487-5.586-4.723a8.621,8.621,0,0,1-1.865-5.26c-.093-3.8-.216-8.841-.334-13.709" fill="#fff"/>
    <path id="패스_1386" data-name="패스 1386" d="M159.545,81.6c-.094-3.87,1.063-4.841,2.131-6.764,1.336-2.4,4.556-5.735,7.714-5.523s6.218,3.967,7.219,6.53a10.141,10.141,0,0,1,.887,6.968c-.77,4.807-1.568,9.784-2.17,13.541a8.633,8.633,0,0,1-2.555,4.961c-1.209,1.084-3.275,4.061-5.441,3.979s-4.533-3.487-5.586-4.723a8.621,8.621,0,0,1-1.865-5.26C159.786,91.5,159.663,86.465,159.545,81.6Z" fill="none" stroke="#535353" stroke-linecap="round" stroke-linejoin="round" stroke-width="2.7"/>
    <path id="패스_1387" data-name="패스 1387" d="M108.428,72.957c-.3-4.694,1.453-6.331,3.075-8.608,1.987-2.79,6.975-6.533,11.937-6.454,4.963-.079,9.951,3.664,11.938,6.454,1.622,2.277,3.371,3.914,3.075,8.608-.39,6.164-.814,12.879-1.149,18.184a11.124,11.124,0,0,1-3.688,7.526c-2.036,1.768-6.152,2.932-10.176,2.882-4.023.05-8.14-1.114-10.176-2.882a11.128,11.128,0,0,1-3.687-7.526c-.335-5.305-.76-12.02-1.149-18.184" fill="#fff"/>
    <path id="패스_1388" data-name="패스 1388" d="M108.428,72.957c-.3-4.694,1.453-6.331,3.075-8.608,1.987-2.79,6.975-6.533,11.937-6.454,4.963-.079,9.951,3.664,11.938,6.454,1.622,2.277,3.371,3.914,3.075,8.608-.39,6.164-.814,12.879-1.149,18.184a11.124,11.124,0,0,1-3.688,7.526c-2.036,1.768-6.152,2.932-10.176,2.882-4.023.05-8.14-1.114-10.176-2.882a11.128,11.128,0,0,1-3.687-7.526C109.242,85.836,108.817,79.121,108.428,72.957Z" fill="none" stroke="#535353" stroke-linecap="round" stroke-linejoin="round" stroke-width="2.7"/>
    <path id="패스_1389" data-name="패스 1389" d="M137.819,75.339c.142-4.433,1.937-5.724,3.5-7.771,1.932-2.535,6.278-5.692,10.475-5.205s8.246,4.618,9.546,7.528c1.05,2.35,1.96,3.955,1.083,8.3-1.125,5.582-2.319,11.5-3.24,16.069a10.018,10.018,0,0,1-3.77,6.023c-1.776,1.283-5.036,1.521-8.16,1.241s-6.231-1.422-7.666-3.077a10.023,10.023,0,0,1-2.291-6.727c.149-4.655.343-10.692.526-16.384" fill="#fff"/>
    <path id="패스_1390" data-name="패스 1390" d="M137.819,75.339c.142-4.433,1.937-5.724,3.5-7.771,1.932-2.535,6.278-5.692,10.475-5.205s8.246,4.618,9.546,7.528c1.05,2.35,1.96,3.955,1.083,8.3-1.125,5.582-2.319,11.5-3.24,16.069a10.018,10.018,0,0,1-3.77,6.023c-1.776,1.283-5.036,1.521-8.16,1.241s-6.231-1.422-7.666-3.077a10.023,10.023,0,0,1-2.291-6.727C137.442,87.068,137.636,81.031,137.819,75.339Z" fill="none" stroke="#535353" stroke-linecap="round" stroke-linejoin="round" stroke-width="2.7"/>
    <path id="패스_1391" data-name="패스 1391" d="M1.725,95.873a142.262,142.262,0,0,0,34.847-25.48s39.344-38.219,67.447-37.47c0,0,35.6-2.248,67.072,34.473,0,0,28.477,27.728,46.463,39.343,0,0-25.1-118.406-108.289-103.418,0,0-68.2-23.606-107.54,92.552" fill="#fff"/>
    <path id="패스_1392" data-name="패스 1392" d="M1.725,95.873a142.262,142.262,0,0,0,34.847-25.48s39.344-38.219,67.447-37.47c0,0,35.6-2.248,67.072,34.473,0,0,28.477,27.728,46.463,39.343,0,0-25.1-118.406-108.289-103.418C109.265,3.321,41.069-20.285,1.725,95.873Z" fill="none" stroke="#535353" stroke-linecap="round" stroke-linejoin="round" stroke-width="2.7"/>
    <path id="패스_1393" data-name="패스 1393" d="M1.35,98.5S8.844,201.539,108.89,201.539c0,0,108.664,4.5,108.664-94.8,0,0-36.347,50.585-105.667,50.585,0,0-70.069,2.623-110.537-58.828" fill="#fff"/>
    <path id="패스_1394" data-name="패스 1394" d="M1.35,98.5S8.844,201.539,108.89,201.539c0,0,108.664,4.5,108.664-94.8,0,0-36.347,50.585-105.667,50.585C111.887,157.324,41.818,159.947,1.35,98.5Z" fill="none" stroke="#535353" stroke-linecap="round" stroke-linejoin="round" stroke-width="2.7"/>
    <path id="패스_1395" data-name="패스 1395" d="M110.137,47.768a1.5,1.5,0,1,1-1.5-1.5,1.5,1.5,0,0,1,1.5,1.5" fill="#dd3a3a"/>
  </g>
</svg>
