<svg id="Governor_Vessel_GV-2" data-name="Governor Vessel, GV-2" xmlns="http://www.w3.org/2000/svg" xmlns:xlink="http://www.w3.org/1999/xlink" width="216.921" height="264.76" viewBox="0 0 216.921 264.76">
  <defs>
    <clipPath id="clip-path">
      <rect id="사각형_2258" data-name="사각형 2258" width="216.921" height="264.76" fill="none"/>
    </clipPath>
  </defs>
  <g id="그룹_857" data-name="그룹 857" clip-path="url(#clip-path)">
    <path id="패스_1318" data-name="패스 1318" d="M215.571,231.446V263.41H1.35V231.446A24.575,24.575,0,0,1,16.275,208.93l-.01-.1a287.312,287.312,0,0,1,30.18-8.307c4.833-1.048,9.936-2.033,15.3-2.9,5.569-.912,11.419-1.69,17.517-2.3a11.08,11.08,0,0,0,10-11V73.708q-4.388-.529-8.671-1.276c12.778-8.4,25.39-16.957,37.462-26.789,6.5,8.909,13.4,17.341,18.5,26.945q-3.687.623-7.436,1.089V184.443a11.074,11.074,0,0,0,9.957,10.994c5.673.591,11.118,1.327,16.314,2.177,5.372.872,10.464,1.857,15.3,2.9v.041a288.111,288.111,0,0,1,29.984,8.266l-.021.1a24.559,24.559,0,0,1,14.925,22.516" fill="#fff"/>
    <path id="패스_1319" data-name="패스 1319" d="M215.571,231.446V263.41H1.35V231.446A24.575,24.575,0,0,1,16.275,208.93l-.01-.1a287.312,287.312,0,0,1,30.18-8.307c4.833-1.048,9.936-2.033,15.3-2.9,5.569-.912,11.419-1.69,17.517-2.3a11.08,11.08,0,0,0,10-11V73.708q-4.388-.529-8.671-1.276c12.778-8.4,25.39-16.957,37.462-26.789,6.5,8.909,13.4,17.341,18.5,26.945q-3.687.623-7.436,1.089V184.443a11.074,11.074,0,0,0,9.957,10.994c5.673.591,11.118,1.327,16.314,2.177,5.372.872,10.464,1.857,15.3,2.9v.041a288.111,288.111,0,0,1,29.984,8.266l-.021.1A24.559,24.559,0,0,1,215.571,231.446Z" fill="none" stroke="#535353" stroke-linecap="round" stroke-linejoin="round" stroke-width="2.7"/>
    <path id="패스_1320" data-name="패스 1320" d="M171.737,89.1H45.764A15.453,15.453,0,0,0,30.442,101.46a15.253,15.253,0,0,0,14.951,18.064H171.366a15.453,15.453,0,0,0,15.322-12.364A15.254,15.254,0,0,0,171.737,89.1" fill="#fff"/>
    <path id="패스_1321" data-name="패스 1321" d="M171.737,89.1H45.764A15.453,15.453,0,0,0,30.442,101.46a15.253,15.253,0,0,0,14.951,18.064H171.366a15.453,15.453,0,0,0,15.322-12.364A15.254,15.254,0,0,0,171.737,89.1Z" fill="none" stroke="#535353" stroke-linecap="round" stroke-linejoin="round" stroke-width="2.7"/>
    <path id="패스_1322" data-name="패스 1322" d="M108.565,167.789h0A62.989,62.989,0,0,1,45.76,104.984V64.215a62.8,62.8,0,0,1,125.61,0v40.769a62.989,62.989,0,0,1-62.8,62.805" fill="#fff"/>
    <path id="패스_1323" data-name="패스 1323" d="M108.565,167.789h0A62.989,62.989,0,0,1,45.76,104.984V64.215a62.8,62.8,0,0,1,125.61,0v40.769A62.989,62.989,0,0,1,108.565,167.789Z" fill="none" stroke="#535353" stroke-linecap="round" stroke-linejoin="round" stroke-width="2.7"/>
    <path id="패스_1324" data-name="패스 1324" d="M179.414,262.781c1.677-6.687,6.218-12.23,10.641-17.519" fill="none" stroke="#535353" stroke-linecap="round" stroke-linejoin="round" stroke-width="2.7"/>
    <path id="패스_1325" data-name="패스 1325" d="M37.6,262.781c-1.677-6.687-6.218-12.23-10.641-17.519" fill="none" stroke="#535353" stroke-linecap="round" stroke-linejoin="round" stroke-width="2.7"/>
    <line id="선_160" data-name="선 160" y2="3.148" transform="translate(109.693 116.347)" fill="none" stroke="#535353" stroke-linecap="round" stroke-linejoin="round" stroke-width="2.7"/>
    <path id="패스_1326" data-name="패스 1326" d="M76.013,78.835A20.72,20.72,0,0,1,85.9,76.449a18.426,18.426,0,0,1,7.923,2.007" fill="none" stroke="#535353" stroke-linecap="round" stroke-linejoin="round" stroke-width="2.7"/>
    <path id="패스_1327" data-name="패스 1327" d="M125.615,78.4a18.475,18.475,0,0,1,9.615-1.9,21.649,21.649,0,0,1,8.282,2.39" fill="none" stroke="#535353" stroke-linecap="round" stroke-linejoin="round" stroke-width="2.7"/>
    <path id="패스_1328" data-name="패스 1328" d="M94.654,131.259a24.892,24.892,0,0,0,30.077,0" fill="none" stroke="#535353" stroke-linecap="round" stroke-linejoin="round" stroke-width="2.7"/>
    <path id="패스_1329" data-name="패스 1329" d="M143.512,101.672a20.72,20.72,0,0,1-9.883,2.386,18.426,18.426,0,0,1-7.923-2.007" fill="none" stroke="#535353" stroke-linecap="round" stroke-linejoin="round" stroke-width="2.7"/>
    <path id="패스_1330" data-name="패스 1330" d="M93.91,102.109a18.475,18.475,0,0,1-9.615,1.9,21.649,21.649,0,0,1-8.282-2.39" fill="none" stroke="#535353" stroke-linecap="round" stroke-linejoin="round" stroke-width="2.7"/>
    <line id="선_161" data-name="선 161" y2="127.031" transform="translate(109.73 1.334)" fill="none" stroke="#dd3a3a" stroke-linecap="round" stroke-linejoin="round" stroke-width="1.5"/>
    <path id="패스_1331" data-name="패스 1331" d="M111.227,1.5a1.5,1.5,0,1,1-1.5-1.5,1.5,1.5,0,0,1,1.5,1.5" fill="#dd3a3a"/>
    <path id="패스_1332" data-name="패스 1332" d="M111.227,11.48a1.5,1.5,0,1,1-1.5-1.5,1.5,1.5,0,0,1,1.5,1.5" fill="#dd3a3a"/>
    <path id="패스_1333" data-name="패스 1333" d="M111.227,21.46a1.5,1.5,0,1,1-1.5-1.5,1.5,1.5,0,0,1,1.5,1.5" fill="#dd3a3a"/>
    <path id="패스_1334" data-name="패스 1334" d="M111.227,31.44a1.5,1.5,0,1,1-1.5-1.5,1.5,1.5,0,0,1,1.5,1.5" fill="#dd3a3a"/>
    <path id="패스_1335" data-name="패스 1335" d="M111.227,128.365a1.5,1.5,0,1,1-1.5-1.5,1.5,1.5,0,0,1,1.5,1.5" fill="#dd3a3a"/>
    <path id="패스_1336" data-name="패스 1336" d="M111.227,124.707a1.5,1.5,0,1,1-1.5-1.5,1.5,1.5,0,0,1,1.5,1.5" fill="#dd3a3a"/>
    <path id="패스_1337" data-name="패스 1337" d="M111.227,120.8a1.5,1.5,0,1,1-1.5-1.5,1.5,1.5,0,0,1,1.5,1.5" fill="#fff"/>
    <circle id="타원_328" data-name="타원 328" cx="1.5" cy="1.5" r="1.5" transform="translate(108.227 119.3)" fill="none" stroke="#dd3a3a" stroke-width="1"/>
    <path id="패스_1338" data-name="패스 1338" d="M111.227,112.625a1.5,1.5,0,1,1-1.5-1.5,1.5,1.5,0,0,1,1.5,1.5" fill="#dd3a3a"/>
  </g>
</svg>
