<svg id="Governor_Vessel_GV-1" data-name="Governor Vessel, GV-1" xmlns="http://www.w3.org/2000/svg" xmlns:xlink="http://www.w3.org/1999/xlink" width="250.655" height="510.9" viewBox="0 0 250.655 510.9">
  <defs>
    <clipPath id="clip-path">
      <rect id="사각형_2257" data-name="사각형 2257" width="250.655" height="510.9" fill="none"/>
    </clipPath>
  </defs>
  <g id="그룹_855" data-name="그룹 855" clip-path="url(#clip-path)">
    <path id="패스_1283" data-name="패스 1283" d="M192.753,83.7,74.4,83.618a14.518,14.518,0,0,0-14.4,11.606A14.331,14.331,0,0,0,74.03,112.205l118.355.078a14.517,14.517,0,0,0,14.4-11.606A14.331,14.331,0,0,0,192.753,83.7" fill="#fff"/>
    <path id="패스_1284" data-name="패스 1284" d="M192.753,83.7,74.4,83.618a14.518,14.518,0,0,0-14.4,11.606A14.331,14.331,0,0,0,74.03,112.205l118.355.078a14.517,14.517,0,0,0,14.4-11.606A14.331,14.331,0,0,0,192.753,83.7Z" fill="none" stroke="#535353" stroke-linecap="round" stroke-linejoin="round" stroke-width="2.561"/>
    <path id="패스_1285" data-name="패스 1285" d="M192.423,60.327l-.025,38.3a57.99,57.99,0,0,1-1.623,13.651A59.288,59.288,0,0,1,167.7,146.513a58.653,58.653,0,0,1-68.674-.046,59.565,59.565,0,0,1-19.016-22.808v-.016A57.744,57.744,0,0,1,75.986,112.2a57.014,57.014,0,0,1-1.1-5.933,59.185,59.185,0,0,1-.5-7.72l.025-38.3A59.183,59.183,0,0,1,133.454,1.28a57.107,57.107,0,0,1,8.606.654l.7.1c.379.047.743.111,1.107.19.237.032.475.08.712.127,1.17.223,2.325.492,3.464.778a59.217,59.217,0,0,1,27.089,15.521,56.937,56.937,0,0,1,4.995,5.7c.016.015.016.015.016.031a58.534,58.534,0,0,1,12.284,35.951" fill="#fff"/>
    <path id="패스_1286" data-name="패스 1286" d="M192.423,60.327l-.025,38.3a57.99,57.99,0,0,1-1.623,13.651A59.288,59.288,0,0,1,167.7,146.513a58.653,58.653,0,0,1-68.674-.046,59.565,59.565,0,0,1-19.016-22.808v-.016A57.744,57.744,0,0,1,75.986,112.2a57.014,57.014,0,0,1-1.1-5.933,59.185,59.185,0,0,1-.5-7.72l.025-38.3A59.183,59.183,0,0,1,133.454,1.28a57.107,57.107,0,0,1,8.606.654l.7.1c.379.047.743.111,1.107.19.237.032.475.08.712.127,1.17.223,2.325.492,3.464.778a59.217,59.217,0,0,1,27.089,15.521,56.937,56.937,0,0,1,4.995,5.7c.016.015.016.015.016.031A58.534,58.534,0,0,1,192.423,60.327Z" fill="none" stroke="#535353" stroke-linecap="round" stroke-linejoin="round" stroke-width="2.561"/>
    <path id="패스_1287" data-name="패스 1287" d="M200.312,246.77l-.192-.288a8.4,8.4,0,0,1,.512,1.327c2.19,14.4.623,25.978-.352,39.614l-3.741,62.859c3.677,8.329,4.908,23.6,11.7,43.228,1.47,4.348,2.845,8.872,4.028,13.6.208.7.432,1.455.624,2.238,5.834,21.87,10.055,68.79,8.52,100.267H140.826l-8.44-55.808-7.9,55.808H43.293c-1.5-31.477,2.782-78.493,8.665-100.363.192-.8.415-1.534.624-2.254,1.182-4.732,2.557-9.256,4.044-13.588,6.81-19.632,8.057-34.883,11.766-43.212l-3.661-62.875c-.608-14.419.783-25.642-.448-39.182-5.1,7.609-10.823,25.115-13.732,32.133a20.6,20.6,0,0,1-1.231,3.836L1.872,368.427c-.192.367-.4.735-.592,1.1V283.987l7.5-17.234a21.1,21.1,0,0,1,1.983-3.6c1.646-6.363,5-12.2,7.513-18.384q5.179-12.926,10.391-25.819c3.613-8.984,7.05-19.551,15.347-25.4,8.138-5.739,20.079-7.626,30.614-8.745h.049q6.594-1.438,13.908-2.622,7.84-1.295,16.466-2.158a10.4,10.4,0,0,0,9.384-10.327V154.5c.815.256,1.631.495,2.462.719a58.547,58.547,0,0,0,35.01-1.391v.768l-.016,15.251a10.4,10.4,0,0,0,9.336,10.343c5.34.56,10.455,1.263,15.331,2.046,4.7.768,9.177,1.631,13.429,2.542,10.775,1.119,23.244,2.958,31.637,8.9,8.3,5.851,11.718,16.418,15.331,25.418q5.852,14.556,11.686,29.128c.24.591.48,1.183.736,1.774v92.626l-31.67-55.6a21.433,21.433,0,0,1-1.79-4.109c-.288-.623-.559-1.294-.879-2-3.949-9.32-9.8-26.953-14.724-34.147" fill="#fff"/>
    <path id="패스_1288" data-name="패스 1288" d="M200.312,246.77l-.192-.288a8.4,8.4,0,0,1,.512,1.327c2.19,14.4.623,25.978-.352,39.614l-3.741,62.859c3.677,8.329,4.908,23.6,11.7,43.228,1.47,4.348,2.845,8.872,4.028,13.6.208.7.432,1.455.624,2.238,5.834,21.87,10.055,68.79,8.52,100.267H140.826l-8.44-55.808-7.9,55.808H43.293c-1.5-31.477,2.782-78.493,8.665-100.363.192-.8.415-1.534.624-2.254,1.182-4.732,2.557-9.256,4.044-13.588,6.81-19.632,8.057-34.883,11.766-43.212l-3.661-62.875c-.608-14.419.783-25.642-.448-39.182-5.1,7.609-10.823,25.115-13.732,32.133a20.6,20.6,0,0,1-1.231,3.836L1.872,368.427c-.192.367-.4.735-.592,1.1V283.987l7.5-17.234a21.1,21.1,0,0,1,1.983-3.6c1.646-6.363,5-12.2,7.513-18.384q5.179-12.926,10.391-25.819c3.613-8.984,7.05-19.551,15.347-25.4,8.138-5.739,20.079-7.626,30.614-8.745h.049q6.594-1.438,13.908-2.622,7.84-1.295,16.466-2.158a10.4,10.4,0,0,0,9.384-10.327V154.5c.815.256,1.631.495,2.462.719a58.547,58.547,0,0,0,35.01-1.391v.768l-.016,15.251a10.4,10.4,0,0,0,9.336,10.343c5.34.56,10.455,1.263,15.331,2.046,4.7.768,9.177,1.631,13.429,2.542,10.775,1.119,23.244,2.958,31.637,8.9,8.3,5.851,11.718,16.418,15.331,25.418q5.852,14.556,11.686,29.128c.24.591.48,1.183.736,1.774v92.626l-31.67-55.6a21.433,21.433,0,0,1-1.79-4.109c-.288-.623-.559-1.294-.879-2C211.087,271.6,205.236,253.964,200.312,246.77Z" fill="none" stroke="#535353" stroke-linecap="round" stroke-linejoin="round" stroke-width="2.561"/>
    <path id="패스_1289" data-name="패스 1289" d="M192.168,185.318h0l.042.009-.042-.009" fill="#ffe4dd"/>
    <path id="패스_1290" data-name="패스 1290" d="M192.168,185.318h0l.042.009Z" fill="none" stroke="#535353" stroke-linecap="round" stroke-linejoin="round" stroke-width="2.561"/>
    <path id="패스_1291" data-name="패스 1291" d="M132.178,452.163s-40.21,9.016-66.514-14.482" fill="#fff"/>
    <path id="패스_1292" data-name="패스 1292" d="M132.178,452.163s-40.21,9.016-66.514-14.482" fill="none" stroke="#535353" stroke-linecap="round" stroke-linejoin="round" stroke-width="2.561"/>
    <path id="패스_1293" data-name="패스 1293" d="M132.032,437.28l.269,14.883s40.21,9.016,66.514-14.482" fill="#fff"/>
    <path id="패스_1294" data-name="패스 1294" d="M132.032,437.28l.269,14.883s40.21,9.016,66.514-14.482" fill="none" stroke="#535353" stroke-linecap="round" stroke-linejoin="round" stroke-width="2.561"/>
    <line id="선_159" data-name="선 159" y2="442.793" transform="translate(132.433 1.674)" fill="none" stroke="#dd3a3a" stroke-linecap="round" stroke-linejoin="round" stroke-width="1.423"/>
    <path id="패스_1295" data-name="패스 1295" d="M133.958,2.042A1.422,1.422,0,1,1,132.535.619a1.423,1.423,0,0,1,1.423,1.423" fill="#dd3a3a"/>
    <path id="패스_1296" data-name="패스 1296" d="M133.958,21.7a1.422,1.422,0,1,1-1.423-1.423,1.423,1.423,0,0,1,1.423,1.423" fill="#dd3a3a"/>
    <path id="패스_1297" data-name="패스 1297" d="M133.958,37a1.422,1.422,0,1,1-1.423-1.423A1.423,1.423,0,0,1,133.958,37" fill="#dd3a3a"/>
    <path id="패스_1298" data-name="패스 1298" d="M133.958,78.942a1.422,1.422,0,1,1-1.423-1.423,1.423,1.423,0,0,1,1.423,1.423" fill="#dd3a3a"/>
    <path id="패스_1299" data-name="패스 1299" d="M133.958,127.462a1.422,1.422,0,1,1-1.423-1.423,1.423,1.423,0,0,1,1.423,1.423" fill="#dd3a3a"/>
    <path id="패스_1300" data-name="패스 1300" d="M133.958,140.757a1.422,1.422,0,1,1-1.423-1.423,1.423,1.423,0,0,1,1.423,1.423" fill="#dd3a3a"/>
    <path id="패스_1301" data-name="패스 1301" d="M133.958,192.9a1.422,1.422,0,1,1-1.423-1.423,1.423,1.423,0,0,1,1.423,1.423" fill="#dd3a3a"/>
    <path id="패스_1302" data-name="패스 1302" d="M133.958,202.312a1.422,1.422,0,1,1-1.423-1.423,1.423,1.423,0,0,1,1.423,1.423" fill="#dd3a3a"/>
    <path id="패스_1303" data-name="패스 1303" d="M133.958,217.71a1.422,1.422,0,1,1-1.423-1.423,1.423,1.423,0,0,1,1.423,1.423" fill="#dd3a3a"/>
    <path id="패스_1304" data-name="패스 1304" d="M133.958,332.928a1.422,1.422,0,1,1-1.423-1.423,1.423,1.423,0,0,1,1.423,1.423" fill="#dd3a3a"/>
    <path id="패스_1305" data-name="패스 1305" d="M133.958,342.341a1.422,1.422,0,1,1-1.423-1.423,1.423,1.423,0,0,1,1.423,1.423" fill="#dd3a3a"/>
    <path id="패스_1306" data-name="패스 1306" d="M133.958,357.738a1.422,1.422,0,1,1-1.423-1.423,1.423,1.423,0,0,1,1.423,1.423" fill="#dd3a3a"/>
    <path id="패스_1307" data-name="패스 1307" d="M133.958,444.468a1.422,1.422,0,1,1-1.423-1.423,1.423,1.423,0,0,1,1.423,1.423" fill="#dd3a3a"/>
    <path id="패스_1308" data-name="패스 1308" d="M133.958,431.327a1.422,1.422,0,1,1-1.423-1.423,1.423,1.423,0,0,1,1.423,1.423" fill="#dd3a3a"/>
    <path id="패스_1309" data-name="패스 1309" d="M133.958,233.058a1.422,1.422,0,1,1-1.423-1.423,1.423,1.423,0,0,1,1.423,1.423" fill="#dd3a3a"/>
    <path id="패스_1310" data-name="패스 1310" d="M133.958,241.258a1.422,1.422,0,1,1-1.423-1.423,1.423,1.423,0,0,1,1.423,1.423" fill="#dd3a3a"/>
    <path id="패스_1311" data-name="패스 1311" d="M133.958,249.458a1.422,1.422,0,1,1-1.423-1.423,1.423,1.423,0,0,1,1.423,1.423" fill="#dd3a3a"/>
    <path id="패스_1312" data-name="패스 1312" d="M133.958,265.437a1.422,1.422,0,1,1-1.423-1.423,1.423,1.423,0,0,1,1.423,1.423" fill="#dd3a3a"/>
    <path id="패스_1313" data-name="패스 1313" d="M133.958,273.637a1.422,1.422,0,1,1-1.423-1.423,1.423,1.423,0,0,1,1.423,1.423" fill="#dd3a3a"/>
    <path id="패스_1314" data-name="패스 1314" d="M133.958,281.837a1.422,1.422,0,1,1-1.423-1.423,1.423,1.423,0,0,1,1.423,1.423" fill="#dd3a3a"/>
    <path id="패스_1315" data-name="패스 1315" d="M133.958,300.286a1.422,1.422,0,1,1-1.423-1.422,1.423,1.423,0,0,1,1.423,1.422" fill="#dd3a3a"/>
    <path id="패스_1316" data-name="패스 1316" d="M133.958,308.486a1.422,1.422,0,1,1-1.423-1.423,1.423,1.423,0,0,1,1.423,1.423" fill="#dd3a3a"/>
    <path id="패스_1317" data-name="패스 1317" d="M133.958,316.686a1.422,1.422,0,1,1-1.423-1.423,1.423,1.423,0,0,1,1.423,1.423" fill="#dd3a3a"/>
  </g>
</svg>
