<svg id="Heart_Meridian_HT" data-name="Heart Meridian, HT" xmlns="http://www.w3.org/2000/svg" xmlns:xlink="http://www.w3.org/1999/xlink" width="268.696" height="511.638" viewBox="0 0 268.696 511.638">
  <defs>
    <clipPath id="clip-path">
      <rect id="사각형_2243" data-name="사각형 2243" width="268.696" height="511.638" fill="none"/>
    </clipPath>
  </defs>
  <g id="그룹_831" data-name="그룹 831" clip-path="url(#clip-path)">
    <path id="패스_796" data-name="패스 796" d="M267.376,211.1V510.319H168.72c7.932-18.737,8.432-25.472,7.943-39.149l-4.1-88.526c0-19.542-1.208-34.014.348-52.99l-41.94-3.753c-14.328-1.282-28.736-1.343-43.056-2.722a174.394,174.394,0,0,1-40.181-8.864c-15.98-5.5-12.061-3.061-33.092-14.368C-3.045,289.318,1.677,273.515,2.511,266.856q1.338-10.7,2.677-21.4c1.723-13.763,3.588-27.507,6.161-41.143,1.556-8.25,6.117-18.468,6.117-26.729.108-.751.206-1.491.315-2.209l2.068-13.709,1.044-8.3c.033-.217.066-.424.087-.642.044-.282.076-.565.109-.837.218-1.535.392-2.862.544-3.961.011-.109.033-.218.044-.326.032-.251.065-.479.087-.7.054-.37.1-.707.141-1,.022-.206.044-.392.065-.555s.033-.283.055-.4a2.351,2.351,0,0,1,.043-.316c0-.076.011-.13.011-.185.044-.5.1-1,.142-1.512.511-5.887.87-12.655.37-17.507C21.524,114.9,18.021,99.6,18.423,90.331c.61-13.819.729-22.784.6-28.214-.12-4.7-.077-9.27.152-13.351s.207-3.688,2.339-5.69c2.59-2.448,4.723.915,5.419,3.331.957,3.384.577,3.545,1.208,7.767s2.568,12.611,5.07,9.945c2.187-2.328,2.557-8.715,2.862-11.86.957-10.032,2.013-21.424,3.993-31.315.751-3.786,2.416-11.305,5.919-11.446s3.95,6.952,3.722,9.531c-.566,6.224-1.426,17.5-2.144,26.789-.228,2.883-1.175,11.816,1.11,12.436s5.059-13.209,5.549-15.091c3.014-11.567,4.842-24.591,6.093-30.227C61.555,7.278,63.535.608,67.049,1.38c3.515.751,4.277,6.115,4.309,9.728.12,11.24-2.883,23.372-5.353,34.285-.86,3.787-3.852,15.582-1.654,16.724s4.679-6.79,6.822-12.97C73.339,42.967,76,30.791,78,24.045s4.548-14.558,8.8-12.067,1.186,13.547.294,17.714C84.133,43.5,81.706,59.386,79.965,73.368c-.544,4.243-1.893,10.119-.99,16.158.587-.588,1.077-1.132,1.447-1.578,2.546-3.144,6.42-11.5,9.107-15.7,1.872-2.938,6.224-7.66,10.4-5.059,1.981,1.24.479,5.342-.5,9.074-1.1,4.167-1.872,8.041-2.775,10.5-1.371,3.721-6.615,13.383-10.978,22.175C82,116.39,75.558,126.368,71.761,130.644a35.333,35.333,0,0,0-8.182,17.029c-.675,3.547-2.5,54.251-5.191,105.794l21.2.588c18.334,0,6.862.119,25.686.119,13.089,0,27.4-7.718,47.766-7.718,13.906,0,19.738-.453,34.3-1.944q8.617-1.86,18.149-3.428c6.605-1.066,13.5-2,20.706-2.752a14.05,14.05,0,0,0,12.633-13.96V211.1Z" fill="#fff"/>
    <path id="패스_797" data-name="패스 797" d="M267.376,211.1V510.319H168.72c7.932-18.737,8.432-25.472,7.943-39.149l-4.1-88.526c0-19.542-1.208-34.014.348-52.99l-41.94-3.753c-14.328-1.282-28.736-1.343-43.056-2.722a174.394,174.394,0,0,1-40.181-8.864c-15.98-5.5-12.061-3.061-33.092-14.368C-3.045,289.318,1.677,273.515,2.511,266.856q1.338-10.7,2.677-21.4c1.723-13.763,3.588-27.507,6.161-41.143,1.556-8.25,6.117-18.468,6.117-26.729.108-.751.206-1.491.315-2.209l2.068-13.709,1.044-8.3c.033-.217.066-.424.087-.642.044-.282.076-.565.109-.837.218-1.535.392-2.862.544-3.961.011-.109.033-.218.044-.326.032-.251.065-.479.087-.7.054-.37.1-.707.141-1,.022-.206.044-.392.065-.555s.033-.283.055-.4a2.351,2.351,0,0,1,.043-.316c0-.076.011-.13.011-.185.044-.5.1-1,.142-1.512.511-5.887.87-12.655.37-17.507C21.524,114.9,18.021,99.6,18.423,90.331c.61-13.819.729-22.784.6-28.214-.12-4.7-.077-9.27.152-13.351s.207-3.688,2.339-5.69c2.59-2.448,4.723.915,5.419,3.331.957,3.384.577,3.545,1.208,7.767s2.568,12.611,5.07,9.945c2.187-2.328,2.557-8.715,2.862-11.86.957-10.032,2.013-21.424,3.993-31.315.751-3.786,2.416-11.305,5.919-11.446s3.95,6.952,3.722,9.531c-.566,6.224-1.426,17.5-2.144,26.789-.228,2.883-1.175,11.816,1.11,12.436s5.059-13.209,5.549-15.091c3.014-11.567,4.842-24.591,6.093-30.227C61.555,7.278,63.535.608,67.049,1.38c3.515.751,4.277,6.115,4.309,9.728.12,11.24-2.883,23.372-5.353,34.285-.86,3.787-3.852,15.582-1.654,16.724s4.679-6.79,6.822-12.97C73.339,42.967,76,30.791,78,24.045s4.548-14.558,8.8-12.067,1.186,13.547.294,17.714C84.133,43.5,81.706,59.386,79.965,73.368c-.544,4.243-1.893,10.119-.99,16.158.587-.588,1.077-1.132,1.447-1.578,2.546-3.144,6.42-11.5,9.107-15.7,1.872-2.938,6.224-7.66,10.4-5.059,1.981,1.24.479,5.342-.5,9.074-1.1,4.167-1.872,8.041-2.775,10.5-1.371,3.721-6.615,13.383-10.978,22.175C82,116.39,75.558,126.368,71.761,130.644a35.333,35.333,0,0,0-8.182,17.029c-.675,3.547-2.5,54.251-5.191,105.794l21.2.588c18.334,0,6.862.119,25.686.119,13.089,0,27.4-7.718,47.766-7.718,13.906,0,19.738-.453,34.3-1.944q8.617-1.86,18.149-3.428c6.605-1.066,13.5-2,20.706-2.752a14.05,14.05,0,0,0,12.633-13.96V211.1Z" fill="none" stroke="#535353" stroke-linecap="round" stroke-linejoin="round" stroke-width="2.638"/>
    <path id="패스_798" data-name="패스 798" d="M21.633,147.923c-.152,1.1-.326,2.426-.544,3.961l.1-.751c.163-1.23.316-2.307.446-3.21" fill="#fff"/>
    <path id="패스_799" data-name="패스 799" d="M21.633,147.923c-.152,1.1-.326,2.426-.544,3.961l.1-.751C21.35,149.9,21.5,148.826,21.633,147.923Z" fill="none" stroke="#535353" stroke-linecap="round" stroke-linejoin="round" stroke-width="2.638"/>
    <path id="패스_800" data-name="패스 800" d="M22.21,142.928l-.13,1.513c0,.055-.011.108-.011.185a2.193,2.193,0,0,0-.044.315c-.022.121-.033.25-.054.4s-.044.348-.066.553c-.043.295-.087.633-.141,1-.033.217-.054.446-.087.7-.011.109-.033.217-.044.326-.152,1.1-.326,2.427-.544,3.961l.1-.751Z" fill="#fff"/>
    <path id="패스_801" data-name="패스 801" d="M22.21,142.928l-.13,1.513c0,.055-.011.108-.011.185a2.193,2.193,0,0,0-.044.315c-.022.121-.033.25-.054.4s-.044.348-.066.553c-.043.295-.087.633-.141,1-.033.217-.054.446-.087.7-.011.109-.033.217-.044.326-.152,1.1-.326,2.427-.544,3.961l.1-.751Z" fill="none" stroke="#535353" stroke-linecap="round" stroke-linejoin="round" stroke-width="2.638"/>
    <path id="패스_802" data-name="패스 802" d="M17.782,175.375l2.067-13.71,1.045-8.3c-.74,5.375-1.806,12.9-3.112,22.012" fill="#fff"/>
    <path id="패스_803" data-name="패스 803" d="M17.782,175.375l2.067-13.71,1.045-8.3C20.154,158.738,19.088,166.268,17.782,175.375Z" fill="none" stroke="#535353" stroke-linecap="round" stroke-linejoin="round" stroke-width="2.638"/>
    <path id="패스_804" data-name="패스 804" d="M42.847,75.84c11.144-2.417,27.1,2.231,27.1,2.231" fill="none" stroke="#535353" stroke-linecap="round" stroke-linejoin="round" stroke-width="2.638"/>
    <path id="패스_805" data-name="패스 805" d="M48.6,108.664c2.476-14.749,22.846-18,22.846-18" fill="none" stroke="#535353" stroke-linecap="round" stroke-linejoin="round" stroke-width="2.638"/>
    <path id="패스_806" data-name="패스 806" d="M78.973,89.531c-2.088,2.631-7.469,10.611-7.469,10.611" fill="none" stroke="#535353" stroke-linecap="round" stroke-linejoin="round" stroke-width="2.638"/>
    <path id="패스_807" data-name="패스 807" d="M172.807,329.15c-2.129-8.488-7.377-16.868-12.991-23.582,5.614,6.714,10.862,15.094,12.991,23.582" fill="#fff"/>
    <path id="패스_808" data-name="패스 808" d="M172.807,329.15c-2.129-8.488-7.377-16.868-12.991-23.582C165.43,312.282,170.678,320.662,172.807,329.15Z" fill="none" stroke="#535353" stroke-linecap="round" stroke-linejoin="round" stroke-width="2.638"/>
    <path id="패스_809" data-name="패스 809" d="M38.34,263.7a27.956,27.956,0,0,1,20.049-10.237" fill="#fff"/>
    <path id="패스_810" data-name="패스 810" d="M38.34,263.7a27.956,27.956,0,0,1,20.049-10.237" fill="none" stroke="#535353" stroke-linecap="round" stroke-linejoin="round" stroke-width="2.638"/>
    <path id="패스_811" data-name="패스 811" d="M35.551,133.9A45.407,45.407,0,0,0,66.1,138.45" fill="#fff"/>
    <path id="패스_812" data-name="패스 812" d="M35.551,133.9A45.407,45.407,0,0,0,66.1,138.45" fill="none" stroke="#535353" stroke-linecap="round" stroke-linejoin="round" stroke-width="2.638"/>
    <path id="패스_813" data-name="패스 813" d="M223.646,386.274c-1.733-.433-40.141-3.968-51.05-57.66" fill="#fff"/>
    <path id="패스_814" data-name="패스 814" d="M223.646,386.274c-1.733-.433-40.141-3.968-51.05-57.66" fill="none" stroke="#535353" stroke-linecap="round" stroke-linejoin="round" stroke-width="2.638"/>
    <path id="패스_815" data-name="패스 815" d="M234.044,338.18a7.366,7.366,0,1,1-7.366-7.366,7.366,7.366,0,0,1,7.366,7.366" fill="#fff"/>
    <path id="패스_816" data-name="패스 816" d="M234.044,338.18a7.366,7.366,0,1,1-7.366-7.366A7.366,7.366,0,0,1,234.044,338.18Z" fill="none" stroke="#bfbfbf" stroke-linecap="round" stroke-linejoin="round" stroke-width="1.954"/>
    <path id="패스_817" data-name="패스 817" d="M230.572,338.18a3.893,3.893,0,1,1-3.893-3.892,3.893,3.893,0,0,1,3.893,3.892" fill="#fff"/>
    <circle id="타원_318" data-name="타원 318" cx="3.893" cy="3.893" r="3.893" transform="translate(222.786 334.288)" fill="none" stroke="#bfbfbf" stroke-linecap="round" stroke-linejoin="round" stroke-width="1.954"/>
    <path id="패스_818" data-name="패스 818" d="M20.062,46.406S25.1,59.324,32.329,58.1c0,0,4.387-1.056-4.062-12.835,0,0-2.275-3.25-5.362-3.25,0,0-4.793.488-2.843,4.386" fill="#fff"/>
    <path id="패스_819" data-name="패스 819" d="M20.062,46.406S25.1,59.324,32.329,58.1c0,0,4.387-1.056-4.062-12.835,0,0-2.275-3.25-5.362-3.25C22.905,42.02,18.112,42.508,20.062,46.406Z" fill="none" stroke="#535353" stroke-linecap="round" stroke-linejoin="round" stroke-width="2.638"/>
    <path id="패스_820" data-name="패스 820" d="M163.584,312.627s-55.026,11.482-139.3-31.846c0,0-2.6-111.785,9.749-147.53l-9.1-65.641-1.95-14.136" fill="none" stroke="#dd3a3a" stroke-linecap="round" stroke-linejoin="round" stroke-width="1.466"/>
    <line id="선_156" data-name="선 156" x2="6.716" y2="9.64" transform="translate(21.795 41.722)" fill="none" stroke="#dd3a3a" stroke-linecap="round" stroke-linejoin="round" stroke-width="1.466"/>
    <path id="패스_821" data-name="패스 821" d="M29.763,50.983A1.466,1.466,0,1,1,28.3,49.517a1.466,1.466,0,0,1,1.466,1.466" fill="#dd3a3a"/>
    <path id="패스_822" data-name="패스 822" d="M28.135,75.409a1.466,1.466,0,1,1-1.466-1.466,1.466,1.466,0,0,1,1.466,1.466" fill="#dd3a3a"/>
    <path id="패스_823" data-name="패스 823" d="M35.609,133.468A1.466,1.466,0,1,1,34.143,132a1.466,1.466,0,0,1,1.466,1.466" fill="#dd3a3a"/>
    <path id="패스_824" data-name="패스 824" d="M34.2,137.584a1.466,1.466,0,1,1-1.466-1.466,1.466,1.466,0,0,1,1.466,1.466" fill="#dd3a3a"/>
    <path id="패스_825" data-name="패스 825" d="M33.118,141.917a1.466,1.466,0,1,1-1.466-1.466,1.466,1.466,0,0,1,1.466,1.466" fill="#dd3a3a"/>
    <path id="패스_826" data-name="패스 826" d="M32.035,146.683a1.467,1.467,0,1,1-1.467-1.466,1.466,1.466,0,0,1,1.467,1.466" fill="#dd3a3a"/>
    <path id="패스_827" data-name="패스 827" d="M25.887,280.632a1.466,1.466,0,1,1-1.466-1.466,1.466,1.466,0,0,1,1.466,1.466" fill="#dd3a3a"/>
    <path id="패스_828" data-name="패스 828" d="M63.122,297.679a1.466,1.466,0,1,1-1.466-1.466,1.466,1.466,0,0,1,1.466,1.466" fill="#dd3a3a"/>
    <path id="패스_829" data-name="패스 829" d="M164.833,312.844a1.466,1.466,0,1,1-1.466-1.466,1.466,1.466,0,0,1,1.466,1.466" fill="#dd3a3a"/>
  </g>
</svg>
