<svg id="Kidney_Meridian_KI-2" data-name="Kidney Meridian, KI-2" xmlns="http://www.w3.org/2000/svg" xmlns:xlink="http://www.w3.org/1999/xlink" width="113.245" height="264.7" viewBox="0 0 113.245 264.7">
  <defs>
    <clipPath id="clip-path">
      <rect id="사각형_2250" data-name="사각형 2250" width="113.245" height="264.7" fill="none"/>
    </clipPath>
  </defs>
  <g id="그룹_842" data-name="그룹 842" clip-path="url(#clip-path)">
    <path id="패스_1025" data-name="패스 1025" d="M7.581,98.3a2.342,2.342,0,0,1-.109.813c-1.005,3.658-7.934,15.7-5.67,27.793q.469,2.471,1.047,4.993c2.736,11.886,7.518,24.961,15.09,42.355a110.919,110.919,0,0,1,4.951,13.819c4.078,14.252,4.709,26.763,5.648,35.387a72.128,72.128,0,0,0,2.785,14.3A32.2,32.2,0,0,0,43.08,254.625a46.359,46.359,0,0,0,16.378,7.215c18.775,4.7,26.841-2.211,30-11.818a37.6,37.6,0,0,0,1.627-8.723c1.032-13.412,3.174-32.04,8.608-49.06s2.673-33.963,3.76-51.907S115.3,97.413,110.8,80.1c-.43-1.654-.816-3.263-1.17-4.847-3.338-14.949-3.416-26.942-4-43.506a42.96,42.96,0,0,0-1.08-8.344c-1.7-7.368-5.261-12.959-9.751-16.676A23.268,23.268,0,0,0,82.978,1.489C71.49-.043,65.426,11.39,67.056,20.824s10.058,33.189,8.777,36.4a4.293,4.293,0,0,1-5,2.635,4.869,4.869,0,0,1-2.28-1.157c-1.949-1.777-.671-19.253-2.766-31.03-.227-1.239-.478-2.41-.784-3.493a15.151,15.151,0,0,0-3.359-6.429c-4.136-4.359-10.226-3.155-14.419-.529-4.1,2.573-4.014,8.071-3.672,10.824a14.263,14.263,0,0,0,.272,1.63s-.1.014-.311.052l-.009,0c-.313.061-.825.161-1.489.338-.069.022-.146.042-.223.062-3,.844-8.485,3.067-10.92,8.457a16.475,16.475,0,0,0-1.49,6.326,15.682,15.682,0,0,0,1.494,7.3c0,.018,0,.028.018.041.053.093.079.143.079.143a19.019,19.019,0,0,0-4.926-2.137.008.008,0,0,0-.007-.01A14.638,14.638,0,0,0,23.5,49.8c-3.264-.249-6.827.866-8.965,5.755a24.139,24.139,0,0,0-.88,2.3l0,.008c-1.562,4.785-.972,8.209-.046,10.4a8.679,8.679,0,0,0,1.971,2.954,3.027,3.027,0,0,0-.532-.277c-.016-.012-.024-.014-.04-.026a3.789,3.789,0,0,0-3.861.6c-1.306.967-2.708,2.9-3.967,6.563a25.809,25.809,0,0,0-.8,2.8,27.236,27.236,0,0,0-.492,10.055,38.619,38.619,0,0,0,1.388,6.084A10.942,10.942,0,0,1,7.581,98.3" fill="#fff"/>
    <path id="패스_1026" data-name="패스 1026" d="M7.581,98.3a2.342,2.342,0,0,1-.109.813c-1.005,3.658-7.934,15.7-5.67,27.793q.469,2.471,1.047,4.993c2.736,11.886,7.518,24.961,15.09,42.355a110.919,110.919,0,0,1,4.951,13.819c4.078,14.252,4.709,26.763,5.648,35.387a72.128,72.128,0,0,0,2.785,14.3A32.2,32.2,0,0,0,43.08,254.625a46.359,46.359,0,0,0,16.378,7.215c18.775,4.7,26.841-2.211,30-11.818a37.6,37.6,0,0,0,1.627-8.723c1.032-13.412,3.174-32.04,8.608-49.06s2.673-33.963,3.76-51.907S115.3,97.413,110.8,80.1c-.43-1.654-.816-3.263-1.17-4.847-3.338-14.949-3.416-26.942-4-43.506a42.96,42.96,0,0,0-1.08-8.344c-1.7-7.368-5.261-12.959-9.751-16.676A23.268,23.268,0,0,0,82.978,1.489C71.49-.043,65.426,11.39,67.056,20.824s10.058,33.189,8.777,36.4a4.293,4.293,0,0,1-5,2.635,4.869,4.869,0,0,1-2.28-1.157c-1.949-1.777-.671-19.253-2.766-31.03-.227-1.239-.478-2.41-.784-3.493a15.151,15.151,0,0,0-3.359-6.429c-4.136-4.359-10.226-3.155-14.419-.529-4.1,2.573-4.014,8.071-3.672,10.824a14.263,14.263,0,0,0,.272,1.63s-.1.014-.311.052l-.009,0c-.313.061-.825.161-1.489.338-.069.022-.146.042-.223.062-3,.844-8.485,3.067-10.92,8.457a16.475,16.475,0,0,0-1.49,6.326,15.682,15.682,0,0,0,1.494,7.3c0,.018,0,.028.018.041.053.093.079.143.079.143a19.019,19.019,0,0,0-4.926-2.137.008.008,0,0,0-.007-.01A14.638,14.638,0,0,0,23.5,49.8c-3.264-.249-6.827.866-8.965,5.755a24.139,24.139,0,0,0-.88,2.3l0,.008c-1.562,4.785-.972,8.209-.046,10.4a8.679,8.679,0,0,0,1.971,2.954,3.027,3.027,0,0,0-.532-.277c-.016-.012-.024-.014-.04-.026a3.789,3.789,0,0,0-3.861.6c-1.306.967-2.708,2.9-3.967,6.563a25.809,25.809,0,0,0-.8,2.8,27.236,27.236,0,0,0-.492,10.055,38.619,38.619,0,0,0,1.388,6.084A10.942,10.942,0,0,1,7.581,98.3Z" fill="none" stroke="#535353" stroke-linecap="round" stroke-linejoin="round" stroke-width="2.7"/>
    <path id="패스_1027" data-name="패스 1027" d="M43.858,29.64S55.185,42.611,48.4,59.17" fill="#fff"/>
    <path id="패스_1028" data-name="패스 1028" d="M43.858,29.64S55.185,42.611,48.4,59.17" fill="none" stroke="#535353" stroke-linecap="round" stroke-linejoin="round" stroke-width="2.7"/>
    <path id="패스_1029" data-name="패스 1029" d="M30.97,52.385s7.019,10.215,3.74,15.7" fill="#fff"/>
    <path id="패스_1030" data-name="패스 1030" d="M30.97,52.385s7.019,10.215,3.74,15.7" fill="none" stroke="#535353" stroke-linecap="round" stroke-linejoin="round" stroke-width="2.7"/>
    <path id="패스_1031" data-name="패스 1031" d="M15.582,71.215S24.195,76.42,17.41,85.93a14.517,14.517,0,0,1-4.367,2.925" fill="#fff"/>
    <path id="패스_1032" data-name="패스 1032" d="M15.582,71.215S24.195,76.42,17.41,85.93a14.517,14.517,0,0,1-4.367,2.925" fill="none" stroke="#535353" stroke-linecap="round" stroke-linejoin="round" stroke-width="2.7"/>
    <path id="패스_1033" data-name="패스 1033" d="M90.391,42.481s-7.292-4.438-16.973-.143" fill="#fff"/>
    <path id="패스_1034" data-name="패스 1034" d="M90.391,42.481s-7.292-4.438-16.973-.143" fill="none" stroke="#535353" stroke-linecap="round" stroke-linejoin="round" stroke-width="2.7"/>
    <path id="패스_1035" data-name="패스 1035" d="M76.138,56.972A30.27,30.27,0,0,1,99.13,61.51" fill="#fff"/>
    <path id="패스_1036" data-name="패스 1036" d="M76.138,56.972A30.27,30.27,0,0,1,99.13,61.51" fill="none" stroke="#535353" stroke-linecap="round" stroke-linejoin="round" stroke-width="2.7"/>
    <path id="패스_1037" data-name="패스 1037" d="M58.674,120.873s37.91.665,43.9,37.245" fill="none" stroke="#dd3a3a" stroke-linecap="round" stroke-linejoin="round" stroke-width="1.5"/>
    <path id="패스_1038" data-name="패스 1038" d="M59.841,120.846a1.5,1.5,0,1,1-1.5-1.5,1.5,1.5,0,0,1,1.5,1.5" fill="#dd3a3a"/>
  </g>
</svg>
