<svg id="Kidney_Meridian_KI-1" data-name="Kidney Meridian, KI-1" xmlns="http://www.w3.org/2000/svg" xmlns:xlink="http://www.w3.org/1999/xlink" width="342.013" height="511.564" viewBox="0 0 342.013 511.564">
  <defs>
    <clipPath id="clip-path">
      <rect id="사각형_2249" data-name="사각형 2249" width="342.013" height="511.564" fill="none"/>
    </clipPath>
  </defs>
  <g id="그룹_840" data-name="그룹 840" clip-path="url(#clip-path)">
    <path id="패스_984" data-name="패스 984" d="M268.42,135.858c-.093-.139-.185-.278-.278-.416a10.606,10.606,0,0,1,.741,1.92c3.194,20.833.9,37.591-.509,57.358l-5.417,91.014c5.347,12.036,7.106,34.165,16.944,62.589,2.153,6.273,4.143,12.824,5.856,19.675.278,1.042.6,2.106.88,3.264,8.1,30.276,14.027,93.675,12.591,139.02H180.554L170.069,435.61l-10.555,74.672H40.84C39.451,464.937,45.492,401.4,53.617,371.1c.278-1.133.6-2.222.9-3.24,1.713-6.851,3.7-13.4,5.879-19.675,9.838-28.424,11.643-50.506,17.013-62.566l-5.3-91.036c-.879-20.879,1.158-37.128-.648-56.734-7.384,11.019-15.67,36.365-19.883,46.526a29.2,29.2,0,0,1-1.782,5.555l-48.516,86.2V141.066c1.25-2.685,2.454-5.37,3.565-8.125q7.5-18.679,15.045-37.358C25.123,82.574,30.123,67.274,42.113,58.8,53.9,50.493,71.185,47.761,86.462,46.141h.07q9.548-2.083,20.114-3.82Q118,40.482,130.488,39.2a15.04,15.04,0,0,0,13.587-14.93L144.1,2.254c.949.3,1.9.6,2.87.856l.764.209A84.992,84.992,0,0,0,169.7,6.236a84.571,84.571,0,0,0,28.632-4.954V2.393l-.023,22.082a15.061,15.061,0,0,0,13.541,14.977c7.708.809,15.115,1.8,22.175,2.962q10.207,1.667,19.466,3.68c15.578,1.621,33.633,4.283,45.785,12.87,12.036,8.495,16.967,23.8,22.2,36.8q8.471,21.111,16.92,42.2c.717,1.806,1.505,3.658,2.338,5.533V276.869L293.6,194.142a32.765,32.765,0,0,1-2.593-5.972c-.393-.88-.81-1.852-1.273-2.871-5.717-13.494-14.166-39.025-21.318-49.441" fill="#fff"/>
    <path id="패스_985" data-name="패스 985" d="M268.42,135.858c-.093-.139-.185-.278-.278-.416a10.606,10.606,0,0,1,.741,1.92c3.194,20.833.9,37.591-.509,57.358l-5.417,91.014c5.347,12.036,7.106,34.165,16.944,62.589,2.153,6.273,4.143,12.824,5.856,19.675.278,1.042.6,2.106.88,3.264,8.1,30.276,14.027,93.675,12.591,139.02H180.554L170.069,435.61l-10.555,74.672H40.84C39.451,464.937,45.492,401.4,53.617,371.1c.278-1.133.6-2.222.9-3.24,1.713-6.851,3.7-13.4,5.879-19.675,9.838-28.424,11.643-50.506,17.013-62.566l-5.3-91.036c-.879-20.879,1.158-37.128-.648-56.734-7.384,11.019-15.67,36.365-19.883,46.526a29.2,29.2,0,0,1-1.782,5.555l-48.516,86.2V141.066c1.25-2.685,2.454-5.37,3.565-8.125q7.5-18.679,15.045-37.358C25.123,82.574,30.123,67.274,42.113,58.8,53.9,50.493,71.185,47.761,86.462,46.141h.07q9.548-2.083,20.114-3.82Q118,40.482,130.488,39.2a15.04,15.04,0,0,0,13.587-14.93L144.1,2.254c.949.3,1.9.6,2.87.856l.764.209A84.992,84.992,0,0,0,169.7,6.236a84.571,84.571,0,0,0,28.632-4.954V2.393l-.023,22.082a15.061,15.061,0,0,0,13.541,14.977c7.708.809,15.115,1.8,22.175,2.962q10.207,1.667,19.466,3.68c15.578,1.621,33.633,4.283,45.785,12.87,12.036,8.495,16.967,23.8,22.2,36.8q8.471,21.111,16.92,42.2c.717,1.806,1.505,3.658,2.338,5.533V276.869L293.6,194.142a32.765,32.765,0,0,1-2.593-5.972c-.393-.88-.81-1.852-1.273-2.871C284.021,171.8,275.572,146.274,268.42,135.858Z" fill="none" stroke="#535353" stroke-linecap="round" stroke-linejoin="round" stroke-width="2.564"/>
    <path id="패스_986" data-name="패스 986" d="M256.633,46.874h0l.061.013-.061-.014" fill="#ffe4dd"/>
    <path id="패스_987" data-name="패스 987" d="M256.633,46.874h0l.061.013Z" fill="none" stroke="#535353" stroke-linecap="round" stroke-linejoin="round" stroke-width="2.564"/>
    <path id="패스_988" data-name="패스 988" d="M71.34,136.843c-2.275-9.1-8.448-16.642-14.46-23.841,6.012,7.2,12.185,14.742,14.46,23.841" fill="#ffe4dd"/>
    <path id="패스_989" data-name="패스 989" d="M71.34,136.843c-2.275-9.1-8.448-16.642-14.46-23.841C62.892,120.2,69.065,127.744,71.34,136.843Z" fill="none" stroke="#535353" stroke-linecap="round" stroke-linejoin="round" stroke-width="2.564"/>
    <path id="패스_990" data-name="패스 990" d="M268.028,134.688c2.287-9.1,8.47-16.631,14.491-23.822-6.021,7.191-12.2,14.726-14.491,23.822" fill="#ffe4dd"/>
    <path id="패스_991" data-name="패스 991" d="M268.028,134.688c2.287-9.1,8.47-16.631,14.491-23.822C276.5,118.057,270.315,125.592,268.028,134.688Z" fill="none" stroke="#535353" stroke-linecap="round" stroke-linejoin="round" stroke-width="2.564"/>
    <path id="패스_992" data-name="패스 992" d="M85.449,379.862s62.614,47.524,84.625,55.753" fill="#ffe4dd"/>
    <path id="패스_993" data-name="패스 993" d="M85.449,379.862s62.614,47.524,84.625,55.753" fill="none" stroke="#535353" stroke-linecap="round" stroke-linejoin="round" stroke-width="2.564"/>
    <path id="패스_994" data-name="패스 994" d="M254.647,379.885s-62.614,47.524-84.626,55.753" fill="#ffe4dd"/>
    <path id="패스_995" data-name="패스 995" d="M254.647,379.885s-62.614,47.524-84.626,55.753" fill="none" stroke="#535353" stroke-linecap="round" stroke-linejoin="round" stroke-width="2.564"/>
    <path id="패스_996" data-name="패스 996" d="M227.166,143.907a6.746,6.746,0,1,0,6.747-6.747,6.747,6.747,0,0,0-6.747,6.747" fill="#fff"/>
    <path id="패스_997" data-name="패스 997" d="M227.166,143.907a6.746,6.746,0,1,0,6.747-6.747A6.747,6.747,0,0,0,227.166,143.907Z" fill="none" stroke="#bfbfbf" stroke-linecap="round" stroke-linejoin="round" stroke-width="2.564"/>
    <path id="패스_998" data-name="패스 998" d="M230.346,143.907a3.566,3.566,0,1,0,3.566-3.566,3.567,3.567,0,0,0-3.566,3.566" fill="#fff"/>
    <circle id="타원_320" data-name="타원 320" cx="3.566" cy="3.566" r="3.566" transform="translate(229.253 141.978) rotate(-22.5)" fill="none" stroke="#bfbfbf" stroke-linecap="round" stroke-linejoin="round" stroke-width="2.564"/>
    <path id="패스_999" data-name="패스 999" d="M268.264,135.216s-11.641,35.561-23.4,40.987" fill="#fff"/>
    <path id="패스_1000" data-name="패스 1000" d="M268.264,135.216s-11.641,35.561-23.4,40.987" fill="none" stroke="#535353" stroke-linecap="round" stroke-linejoin="round" stroke-width="2.564"/>
    <path id="패스_1001" data-name="패스 1001" d="M112.416,143.907a6.747,6.747,0,1,1-6.747-6.747,6.747,6.747,0,0,1,6.747,6.747" fill="#fff"/>
    <path id="패스_1002" data-name="패스 1002" d="M112.416,143.907a6.747,6.747,0,1,1-6.747-6.747A6.747,6.747,0,0,1,112.416,143.907Z" fill="none" stroke="#bfbfbf" stroke-linecap="round" stroke-linejoin="round" stroke-width="2.564"/>
    <path id="패스_1003" data-name="패스 1003" d="M109.235,143.907a3.566,3.566,0,1,1-3.566-3.566,3.567,3.567,0,0,1,3.566,3.566" fill="#fff"/>
    <circle id="타원_321" data-name="타원 321" cx="3.566" cy="3.566" r="3.566" transform="translate(100.626 143.907) rotate(-45)" fill="none" stroke="#bfbfbf" stroke-linecap="round" stroke-linejoin="round" stroke-width="2.564"/>
    <path id="패스_1004" data-name="패스 1004" d="M71.317,135.216s11.641,35.561,23.4,40.987" fill="#fff"/>
    <path id="패스_1005" data-name="패스 1005" d="M71.317,135.216s11.641,35.561,23.4,40.987" fill="none" stroke="#535353" stroke-linecap="round" stroke-linejoin="round" stroke-width="2.564"/>
    <path id="패스_1006" data-name="패스 1006" d="M169.293,290.414s-4.879,16.636-1.084,26.934c0,0,3.591,4.655-.474-16.338" fill="#fff"/>
    <path id="패스_1007" data-name="패스 1007" d="M169.293,290.414s-4.879,16.636-1.084,26.934c0,0,3.591,4.655-.474-16.338" fill="none" stroke="#535353" stroke-linecap="round" stroke-linejoin="round" stroke-width="3.99"/>
    <path id="패스_1008" data-name="패스 1008" d="M134.755,66.15V175.413l29.053,20.842v219.79s-14.527,46.106-9.474,90.948" fill="none" stroke="#dd3a3a" stroke-linecap="round" stroke-linejoin="round" stroke-width="1.424"/>
    <path id="패스_1009" data-name="패스 1009" d="M136.179,66.2a1.424,1.424,0,1,1-1.424-1.424,1.424,1.424,0,0,1,1.424,1.424" fill="#dd3a3a"/>
    <path id="패스_1010" data-name="패스 1010" d="M136.179,174.782a1.424,1.424,0,1,1-1.424-1.424,1.424,1.424,0,0,1,1.424,1.424" fill="#dd3a3a"/>
    <path id="패스_1011" data-name="패스 1011" d="M165.311,196.1a1.424,1.424,0,1,1-1.424-1.424,1.424,1.424,0,0,1,1.424,1.424" fill="#dd3a3a"/>
    <path id="패스_1012" data-name="패스 1012" d="M165.311,255.387a1.424,1.424,0,1,1-1.424-1.424,1.424,1.424,0,0,1,1.424,1.424" fill="#dd3a3a"/>
    <path id="패스_1013" data-name="패스 1013" d="M165.311,240.565a1.424,1.424,0,1,1-1.424-1.424,1.424,1.424,0,0,1,1.424,1.424" fill="#dd3a3a"/>
    <path id="패스_1014" data-name="패스 1014" d="M165.311,225.743a1.424,1.424,0,1,1-1.424-1.424,1.424,1.424,0,0,1,1.424,1.424" fill="#dd3a3a"/>
    <path id="패스_1015" data-name="패스 1015" d="M165.311,210.92a1.424,1.424,0,1,1-1.424-1.424,1.424,1.424,0,0,1,1.424,1.424" fill="#dd3a3a"/>
    <path id="패스_1016" data-name="패스 1016" d="M165.311,311.854a1.424,1.424,0,1,1-1.424-1.424,1.425,1.425,0,0,1,1.424,1.424" fill="#dd3a3a"/>
    <path id="패스_1017" data-name="패스 1017" d="M165.311,394.7a1.424,1.424,0,1,1-1.424-1.424,1.424,1.424,0,0,1,1.424,1.424" fill="#dd3a3a"/>
    <path id="패스_1018" data-name="패스 1018" d="M165.311,415.414a1.424,1.424,0,1,1-1.424-1.424,1.424,1.424,0,0,1,1.424,1.424" fill="#dd3a3a"/>
    <path id="패스_1019" data-name="패스 1019" d="M165.311,373.99a1.424,1.424,0,1,1-1.424-1.424,1.424,1.424,0,0,1,1.424,1.424" fill="#dd3a3a"/>
    <path id="패스_1020" data-name="패스 1020" d="M165.311,353.278a1.424,1.424,0,1,1-1.424-1.424,1.424,1.424,0,0,1,1.424,1.424" fill="#dd3a3a"/>
    <path id="패스_1021" data-name="패스 1021" d="M165.311,332.566a1.424,1.424,0,1,1-1.424-1.424,1.424,1.424,0,0,1,1.424,1.424" fill="#dd3a3a"/>
    <path id="패스_1022" data-name="패스 1022" d="M136.179,147.637a1.424,1.424,0,1,1-1.424-1.424,1.424,1.424,0,0,1,1.424,1.424" fill="#dd3a3a"/>
    <path id="패스_1023" data-name="패스 1023" d="M136.179,93.348a1.424,1.424,0,1,1-1.424-1.424,1.424,1.424,0,0,1,1.424,1.424" fill="#dd3a3a"/>
    <path id="패스_1024" data-name="패스 1024" d="M136.179,120.492a1.424,1.424,0,1,1-1.424-1.424,1.424,1.424,0,0,1,1.424,1.424" fill="#dd3a3a"/>
  </g>
</svg>
