<svg id="Kidney_Meridian_KI-3" data-name="Kidney Meridian, KI-3" xmlns="http://www.w3.org/2000/svg" xmlns:xlink="http://www.w3.org/1999/xlink" width="104.714" height="266.271" viewBox="0 0 104.714 266.271">
  <defs>
    <clipPath id="clip-path">
      <rect id="사각형_2233" data-name="사각형 2233" width="104.714" height="266.271" fill="none"/>
    </clipPath>
  </defs>
  <g id="그룹_818" data-name="그룹 818" clip-path="url(#clip-path)">
    <path id="패스_385" data-name="패스 385" d="M97.166,253.2c-7.774,4.257-19.079,2.414-27.484,1.176-9.849,5.41-20.45,7.338-31.9,8.333q-11.063.982-22.16,1.941c-5.276.461-10.346.934-13.548-4.1-1.358-2.159-.655-4.779.849-6.6,5.859-6.986,16.289-8.151,23.615-13.306,7.448-5.239,14.494-11.134,21.578-16.919,9.9-8.078,13.948-25.726,14.142-39.019.024-1.516,0-2.984-.073-4.367-1.1-20.376-4.439-41.9-7.083-62.379-2.341-18.036-6.4-35.768-8.417-53.67C44.381,43.808,39.226,23.371,36.23,2.921H92.339a184.929,184.929,0,0,0-4.755,26.223,19.681,19.681,0,0,1,.315,5.082c-.351,5.47,1.978,11.122,3.312,16.338a155.193,155.193,0,0,1,4.9,30.928c1.358,25.52-2.365,57.589-5.2,83.12a5.739,5.739,0,0,1,.109,1.31c-.206,6.137-.085,12.262.315,18.363a178.212,178.212,0,0,0,9.485,46.818c2.729,7.8,5.252,17.211-3.651,22.1" fill="#fff"/>
    <path id="패스_386" data-name="패스 386" d="M97.166,253.2c-7.774,4.257-19.079,2.414-27.484,1.176-9.849,5.41-20.45,7.338-31.9,8.333q-11.063.982-22.16,1.941c-5.276.461-10.346.934-13.548-4.1-1.358-2.159-.655-4.779.849-6.6,5.859-6.986,16.289-8.151,23.615-13.306,7.448-5.239,14.494-11.134,21.578-16.919,9.9-8.078,13.948-25.726,14.142-39.019.024-1.516,0-2.984-.073-4.367-1.1-20.376-4.439-41.9-7.083-62.379-2.341-18.036-6.4-35.768-8.417-53.67C44.381,43.808,39.226,23.371,36.23,2.921H92.339a184.929,184.929,0,0,0-4.755,26.223,19.681,19.681,0,0,1,.315,5.082c-.351,5.47,1.978,11.122,3.312,16.338a155.193,155.193,0,0,1,4.9,30.928c1.358,25.52-2.365,57.589-5.2,83.12a5.739,5.739,0,0,1,.109,1.31c-.206,6.137-.085,12.262.315,18.363a178.212,178.212,0,0,0,9.485,46.818C103.546,238.9,106.069,248.314,97.166,253.2Z" fill="none" stroke="#535353" stroke-linecap="round" stroke-linejoin="round" stroke-width="2.7"/>
    <path id="패스_387" data-name="패스 387" d="M85.923,3.013S65.868,30.679,94.467,67.258L77.84,198.279l9.311-1.33L76.51,231.533l15.3,5.986,2.66-11.306S78.5,210.251,53.9,246.165L42.59,262.792" fill="none" stroke="#dd3a3a" stroke-linecap="round" stroke-linejoin="round" stroke-width="1.5"/>
    <path id="패스_388" data-name="패스 388" d="M79.506,198.113a1.5,1.5,0,1,1-1.5-1.5,1.5,1.5,0,0,1,1.5,1.5" fill="#dd3a3a"/>
    <path id="패스_389" data-name="패스 389" d="M83.829,163.778a1.5,1.5,0,1,1-1.5-1.5,1.5,1.5,0,0,1,1.5,1.5" fill="#dd3a3a"/>
    <path id="패스_390" data-name="패스 390" d="M88.526,197.032a1.5,1.5,0,1,1-1.5-1.5,1.5,1.5,0,0,1,1.5,1.5" fill="#dd3a3a"/>
    <path id="패스_391" data-name="패스 391" d="M80.545,223.553a1.5,1.5,0,1,1-1.5-1.5,1.5,1.5,0,0,1,1.5,1.5" fill="#dd3a3a"/>
    <path id="패스_392" data-name="패스 392" d="M95.911,226.324a1.5,1.5,0,1,1-1.5-1.5,1.5,1.5,0,0,1,1.5,1.5" fill="#dd3a3a"/>
    <path id="패스_393" data-name="패스 393" d="M93.307,237.353a1.5,1.5,0,1,1-1.5-1.5,1.5,1.5,0,0,1,1.5,1.5" fill="#dd3a3a"/>
    <path id="패스_394" data-name="패스 394" d="M78.231,231.644a1.5,1.5,0,1,1-1.5-1.5,1.5,1.5,0,0,1,1.5,1.5" fill="#dd3a3a"/>
    <path id="패스_395" data-name="패스 395" d="M56.505,244.613a1.5,1.5,0,1,1-1.5-1.5,1.5,1.5,0,0,1,1.5,1.5" fill="#dd3a3a"/>
  </g>
</svg>
