<svg id="Large_Intestine_Meridian_LI" data-name="Large Intestine Meridian, LI" xmlns="http://www.w3.org/2000/svg" xmlns:xlink="http://www.w3.org/1999/xlink" width="127.59" height="511.564" viewBox="0 0 127.59 511.564">
  <defs>
    <clipPath id="clip-path">
      <rect id="사각형_2239" data-name="사각형 2239" width="127.59" height="511.564" fill="none"/>
    </clipPath>
  </defs>
  <g id="그룹_827" data-name="그룹 827" clip-path="url(#clip-path)">
    <path id="패스_586" data-name="패스 586" d="M2.4,71.181C5.681,91.073,19,112.275,34.483,125.172A17.988,17.988,0,0,1,41,140.79l-5.03,49.3,33.245,3.391c.005,0,1.442-14.129,1.528-14.975q1.1-10.826,2.209-21.651l.975-9.561c.359-3.524.663-6.363,1.363-10.322,6.648,1.264,13.5,2.032,20.172.919s13.211-4.293,17.266-9.711c4.39-5.866,5.4-13.517,6.215-20.8.212-1.9.017-4.809.84-6.56.913-1.943,3.888-2.08,4.151-4.612a3.572,3.572,0,0,0-.895-2.705c-2.935-3.324-3.791-7.542-4.167-11.736-1.517-16.956,3.449-34.266-2.966-50.71C107.124,8.558,80.5.279,58.22,1.378a82.446,82.446,0,0,0-18.512,3C27.514,7.857,15.771,14.6,9.033,25.66c-4.486,7.364-6.8,16.394-7.508,25.5A84.3,84.3,0,0,0,2.4,71.181" fill="#fff"/>
    <path id="패스_587" data-name="패스 587" d="M2.4,71.181C5.681,91.073,19,112.275,34.483,125.172A17.988,17.988,0,0,1,41,140.79l-5.03,49.3,33.245,3.391c.005,0,1.442-14.129,1.528-14.975q1.1-10.826,2.209-21.651l.975-9.561c.359-3.524.663-6.363,1.363-10.322,6.648,1.264,13.5,2.032,20.172.919s13.211-4.293,17.266-9.711c4.39-5.866,5.4-13.517,6.215-20.8.212-1.9.017-4.809.84-6.56.913-1.943,3.888-2.08,4.151-4.612a3.572,3.572,0,0,0-.895-2.705c-2.935-3.324-3.791-7.542-4.167-11.736-1.517-16.956,3.449-34.266-2.966-50.71C107.124,8.558,80.5.279,58.22,1.378a82.446,82.446,0,0,0-18.512,3C27.514,7.857,15.771,14.6,9.033,25.66c-4.486,7.364-6.8,16.394-7.508,25.5A84.3,84.3,0,0,0,2.4,71.181Z" fill="none" stroke="#535353" stroke-linecap="round" stroke-linejoin="round" stroke-width="2.564"/>
    <path id="패스_588" data-name="패스 588" d="M126.285,248.117c-.268,13.719-2.171,26.93-2.975,40.592-.38,6.472-.846,12.746-1.664,19.26-.9,6.993-1.212,13.874-3.158,20.642-1.9,6.64-4.159,13.2-6.387,19.753-1.537,4.554-3.06,9.108-4.441,13.69H12.46c.183-.31.395-.62.592-.916a67.46,67.46,0,0,1,4.526-6.035c1.114-1.325,10.518-18.709,10.688-18.709a61.355,61.355,0,0,0,5.118-12.14,60.192,60.192,0,0,0,2.4-15.763c.169-18.583-6.359-34.177-12.845-50.871C16.21,240.348,10.3,222.555,10.67,203.774c.38-19.612,9.447-38.308,28.551-45.358a37.959,37.959,0,0,1,31.145,2.552c10.209,5.5,18.922,13.621,26.169,22.6,7.882,9.743,12.7,15.425,19.754,25.788,7.218,10.631,10.32,23.137,10,38.759" fill="#fff"/>
    <path id="패스_589" data-name="패스 589" d="M126.285,248.117c-.268,13.719-2.171,26.93-2.975,40.592-.38,6.472-.846,12.746-1.664,19.26-.9,6.993-1.212,13.874-3.158,20.642-1.9,6.64-4.159,13.2-6.387,19.753-1.537,4.554-3.06,9.108-4.441,13.69H12.46c.183-.31.395-.62.592-.916a67.46,67.46,0,0,1,4.526-6.035c1.114-1.325,10.518-18.709,10.688-18.709a61.355,61.355,0,0,0,5.118-12.14,60.192,60.192,0,0,0,2.4-15.763c.169-18.583-6.359-34.177-12.845-50.871C16.21,240.348,10.3,222.555,10.67,203.774c.38-19.612,9.447-38.308,28.551-45.358a37.959,37.959,0,0,1,31.145,2.552c10.209,5.5,18.922,13.621,26.169,22.6,7.882,9.743,12.7,15.425,19.754,25.788C123.507,219.989,126.609,232.495,126.285,248.117Z" fill="none" stroke="#535353" stroke-linecap="round" stroke-linejoin="round" stroke-width="2.564"/>
    <path id="패스_590" data-name="패스 590" d="M65.616,454.448c-.368-2.665-.762-5.372-1.143-7.952" fill="#fff"/>
    <path id="패스_591" data-name="패스 591" d="M65.616,454.448c-.368-2.665-.762-5.372-1.143-7.952" fill="none" stroke="#535353" stroke-linecap="round" stroke-linejoin="round" stroke-width="2.564"/>
    <path id="패스_592" data-name="패스 592" d="M90.134,214.744l-4.06,119.648c1.691,17.046,3.623,34.219,4.158,51.237.452,14.1-6.556,27.113-1.1,39.9,5.583,6.12,10.617,19.6,11.336,21.121.042.085.071.17.113.268l5.555,16.2a2.565,2.565,0,0,1,.127.635l1.043,11.6c.945,5.047.353,7.458-.465,8.586a2.6,2.6,0,0,1-2.383,1c-7.3-.676-9.531-9.855-10.1-13.056a2.726,2.726,0,0,0-.973-1.551,16.33,16.33,0,0,1-2.509-3.214v.07c-.141-.818-1.34-7.458-3.469-10.715l3.469,10.758c.055,4.131-1.269,12.492-1.876,16.017a2.662,2.662,0,0,0,.79,2.4c2.82,2.637,8.135,10.5,9.94,13.226a2.753,2.753,0,0,0,1.762,1.142c9.362,1.974,8.6,6.33,7.233,8.826a2.735,2.735,0,0,1-3.144,1.339l-8.869-2.439a2.966,2.966,0,0,1-.986-.493l-10.067-8.093L70.649,468.491c-.07.86.648,6.881.648,6.881l14.368,23.786c-7.092-3.412-15.82-20.755-17.6-24.392a2.58,2.58,0,0,1-.255-1.213c.043-2.284-.986-10.49-2.2-19.105-.366-2.664-.762-5.371-1.142-7.952l-.042-.3q-1.015-7.761-2.03-15.509c-4.484-34.177-8.954-68.2-14.3-102.432l-1.452-41.34-3.884-46.375s-.7-9.611-6.955-11.174" fill="#fff"/>
    <path id="패스_593" data-name="패스 593" d="M90.134,214.744l-4.06,119.648c1.691,17.046,3.623,34.219,4.158,51.237.452,14.1-6.556,27.113-1.1,39.9,5.583,6.12,10.617,19.6,11.336,21.121.042.085.071.17.113.268l5.555,16.2a2.565,2.565,0,0,1,.127.635l1.043,11.6c.945,5.047.353,7.458-.465,8.586a2.6,2.6,0,0,1-2.383,1c-7.3-.676-9.531-9.855-10.1-13.056a2.726,2.726,0,0,0-.973-1.551,16.33,16.33,0,0,1-2.509-3.214v.07c-.141-.818-1.34-7.458-3.469-10.715l3.469,10.758c.055,4.131-1.269,12.492-1.876,16.017a2.662,2.662,0,0,0,.79,2.4c2.82,2.637,8.135,10.5,9.94,13.226a2.753,2.753,0,0,0,1.762,1.142c9.362,1.974,8.6,6.33,7.233,8.826a2.735,2.735,0,0,1-3.144,1.339l-8.869-2.439a2.966,2.966,0,0,1-.986-.493l-10.067-8.093L70.649,468.491c-.07.86.648,6.881.648,6.881l14.368,23.786c-7.092-3.412-15.82-20.755-17.6-24.392a2.58,2.58,0,0,1-.255-1.213c.043-2.284-.986-10.49-2.2-19.105-.366-2.664-.762-5.371-1.142-7.952l-.042-.3q-1.015-7.761-2.03-15.509c-4.484-34.177-8.954-68.2-14.3-102.432l-1.452-41.34-3.884-46.375s-.7-9.611-6.955-11.174" fill="none" stroke="#535353" stroke-linecap="round" stroke-linejoin="round" stroke-width="2.564"/>
    <path id="패스_594" data-name="패스 594" d="M85.665,499.157,71.3,475.371s-.719-6.02-.649-6.88Z" fill="#fff"/>
    <path id="패스_595" data-name="패스 595" d="M85.665,499.157,71.3,475.371s-.719-6.02-.649-6.88Z" fill="none" stroke="#535353" stroke-linecap="round" stroke-linejoin="round" stroke-width="2.564"/>
    <path id="패스_596" data-name="패스 596" d="M90.882,467.194v.042l-3.469-10.758c2.129,3.257,3.328,9.9,3.469,10.716" fill="#fff"/>
    <path id="패스_597" data-name="패스 597" d="M90.882,467.194v.042l-3.469-10.758C89.542,459.735,90.741,466.376,90.882,467.194Z" fill="none" stroke="#535353" stroke-linecap="round" stroke-linejoin="round" stroke-width="2.564"/>
    <path id="패스_598" data-name="패스 598" d="M90.882,467.194v.042l-3.469-10.758c2.129,3.257,3.328,9.9,3.469,10.716" fill="#fff"/>
    <path id="패스_599" data-name="패스 599" d="M90.882,467.194v.042l-3.469-10.758C89.542,459.735,90.741,466.376,90.882,467.194Z" fill="none" stroke="#535353" stroke-linecap="round" stroke-linejoin="round" stroke-width="2.564"/>
    <path id="패스_600" data-name="패스 600" d="M85.665,499.157,71.3,475.371s-.719-6.02-.649-6.88Z" fill="#fff"/>
    <path id="패스_601" data-name="패스 601" d="M85.665,499.157,71.3,475.371s-.719-6.02-.649-6.88Z" fill="none" stroke="#535353" stroke-linecap="round" stroke-linejoin="round" stroke-width="2.564"/>
    <path id="패스_602" data-name="패스 602" d="M65.479,79.569s-4.1-15.217-11.139-6.137c0,0-5.877,10.248.177,19.589a7.907,7.907,0,0,0,4.55,3.43c2.2.579,3.477.767,3.873-4.378,0,0-4.04-5.578-4.04-7.772,0,0-.808-5.078,3.924-3.347,0,0,2.886,1.616,3.348,4.5" fill="#fff"/>
    <path id="패스_603" data-name="패스 603" d="M65.479,79.569s-4.1-15.217-11.139-6.137c0,0-5.877,10.248.177,19.589a7.907,7.907,0,0,0,4.55,3.43c2.2.579,3.477.767,3.873-4.378,0,0-4.04-5.578-4.04-7.772,0,0-.808-5.078,3.924-3.347,0,0,2.886,1.616,3.348,4.5" fill="none" stroke="#535353" stroke-linecap="round" stroke-linejoin="round" stroke-width="2.564"/>
    <path id="패스_604" data-name="패스 604" d="M65.826,95.882c4.107,5.79-6.721,12.229-10.826,6.443-6.129-8.638-9.33-19.358-5.3-29.22C52.24,66.9,64.555,60.331,68.48,75.8" fill="none" stroke="#535353" stroke-linecap="round" stroke-linejoin="round" stroke-width="2.564"/>
    <path id="패스_605" data-name="패스 605" d="M110.027,63.142a20.278,20.278,0,0,0-13.036,2.166" fill="none" stroke="#535353" stroke-linecap="round" stroke-linejoin="round" stroke-width="2.564"/>
    <path id="패스_606" data-name="패스 606" d="M96.99,80.907a20.278,20.278,0,0,0,13.036-2.166" fill="none" stroke="#535353" stroke-linecap="round" stroke-linejoin="round" stroke-width="2.564"/>
    <path id="패스_607" data-name="패스 607" d="M117.765,114.683a12.357,12.357,0,0,1-6.548-.4,36.8,36.8,0,0,1-6.049-2.712" fill="none" stroke="#535353" stroke-linecap="round" stroke-linejoin="round" stroke-width="2.564"/>
    <path id="패스_608" data-name="패스 608" d="M89.462,237.463A55.884,55.884,0,0,0,117.041,256.2" fill="none" stroke="#535353" stroke-linecap="round" stroke-linejoin="round" stroke-width="2.564"/>
    <path id="패스_609" data-name="패스 609" d="M104.62,110.515s-24.842-.842-43.368,19.368l3.368,12.632L51.146,169.041l10.948,9.685s10.1,6.736,10.1,85.052l.421,30.737-6.737,26.948,9.684,12.631-5.052,21.053-.421,39.579L73.883,410.3l2.947,16.842s3.369,47.579,7.579,58.526c0,0,7.579,17.264,18.948,19.79" fill="none" stroke="#dd3a3a" stroke-linecap="round" stroke-linejoin="round" stroke-width="1.424"/>
    <path id="패스_610" data-name="패스 610" d="M62.538,130.476a1.424,1.424,0,1,1-1.424-1.424,1.424,1.424,0,0,1,1.424,1.424" fill="#dd3a3a"/>
    <path id="패스_611" data-name="패스 611" d="M111.939,101.2a1.425,1.425,0,1,1-1.424-1.424,1.424,1.424,0,0,1,1.424,1.424" fill="#fff"/>
    <path id="패스_612" data-name="패스 612" d="M111.939,101.2a1.425,1.425,0,1,1-1.424-1.424A1.424,1.424,0,0,1,111.939,101.2Z" fill="none" stroke="#dd3a3a" stroke-width="0.475"/>
    <path id="패스_613" data-name="패스 613" d="M112.887,108.305a1.424,1.424,0,1,1-1.424-1.424,1.424,1.424,0,0,1,1.424,1.424" fill="#fff"/>
    <path id="패스_614" data-name="패스 614" d="M112.887,108.305a1.424,1.424,0,1,1-1.424-1.424A1.424,1.424,0,0,1,112.887,108.305Z" fill="none" stroke="#dd3a3a" stroke-width="0.475"/>
    <path id="패스_615" data-name="패스 615" d="M65.834,142.094a1.424,1.424,0,1,1-1.424-1.424,1.424,1.424,0,0,1,1.424,1.424" fill="#dd3a3a"/>
    <path id="패스_616" data-name="패스 616" d="M116.044,98.831a1.424,1.424,0,1,1-1.424-1.424,1.424,1.424,0,0,1,1.424,1.424" fill="#dd3a3a"/>
    <path id="패스_617" data-name="패스 617" d="M105.886,110.318a1.424,1.424,0,1,1-1.424-1.424,1.424,1.424,0,0,1,1.424,1.424" fill="#dd3a3a"/>
    <path id="패스_618" data-name="패스 618" d="M52.728,169.182a1.424,1.424,0,1,1-1.424-1.424,1.424,1.424,0,0,1,1.424,1.424" fill="#dd3a3a"/>
    <path id="패스_619" data-name="패스 619" d="M64.773,179.755a1.425,1.425,0,1,1-1.424-1.424,1.424,1.424,0,0,1,1.424,1.424" fill="#dd3a3a"/>
    <path id="패스_620" data-name="패스 620" d="M73,235.183a1.424,1.424,0,1,1-1.424-1.424A1.424,1.424,0,0,1,73,235.183" fill="#dd3a3a"/>
    <path id="패스_621" data-name="패스 621" d="M73.866,294.036a1.424,1.424,0,1,1-1.424-1.424,1.424,1.424,0,0,1,1.424,1.424" fill="#dd3a3a"/>
    <path id="패스_622" data-name="패스 622" d="M67.343,321.1a1.424,1.424,0,1,1-1.424-1.424,1.424,1.424,0,0,1,1.424,1.424" fill="#dd3a3a"/>
    <path id="패스_623" data-name="패스 623" d="M76.92,334.83a1.424,1.424,0,1,1-1.424-1.424,1.425,1.425,0,0,1,1.424,1.424" fill="#dd3a3a"/>
    <path id="패스_624" data-name="패스 624" d="M74.2,345.726a1.425,1.425,0,1,1-1.424-1.424,1.424,1.424,0,0,1,1.424,1.424" fill="#dd3a3a"/>
    <path id="패스_625" data-name="패스 625" d="M72.183,355.648a1.425,1.425,0,1,1-1.424-1.423,1.424,1.424,0,0,1,1.424,1.423" fill="#dd3a3a"/>
    <path id="패스_626" data-name="패스 626" d="M71.794,366.621A1.424,1.424,0,1,1,70.37,365.2a1.424,1.424,0,0,1,1.424,1.424" fill="#dd3a3a"/>
    <path id="패스_627" data-name="패스 627" d="M71.518,395.989a1.424,1.424,0,1,1-1.424-1.424,1.424,1.424,0,0,1,1.424,1.424" fill="#dd3a3a"/>
    <path id="패스_628" data-name="패스 628" d="M74.852,407.836a1.424,1.424,0,1,1-1.424-1.424,1.424,1.424,0,0,1,1.424,1.424" fill="#dd3a3a"/>
    <path id="패스_629" data-name="패스 629" d="M78.17,427.126a1.424,1.424,0,1,1-1.424-1.424,1.424,1.424,0,0,1,1.424,1.424" fill="#dd3a3a"/>
    <path id="패스_630" data-name="패스 630" d="M81.126,456.93a1.424,1.424,0,1,1-1.424-1.424,1.424,1.424,0,0,1,1.424,1.424" fill="#dd3a3a"/>
    <path id="패스_631" data-name="패스 631" d="M82.027,465.56a1.424,1.424,0,1,1-1.424-1.424,1.424,1.424,0,0,1,1.424,1.424" fill="#dd3a3a"/>
    <path id="패스_632" data-name="패스 632" d="M85.859,486.146a1.424,1.424,0,1,1-1.424-1.424,1.424,1.424,0,0,1,1.424,1.424" fill="#dd3a3a"/>
    <path id="패스_633" data-name="패스 633" d="M104.84,505.287a1.424,1.424,0,1,1-1.424-1.424,1.424,1.424,0,0,1,1.424,1.424" fill="#dd3a3a"/>
  </g>
</svg>
