<svg id="Liver_Meridian_LR" data-name="Liver Meridian, LR" xmlns="http://www.w3.org/2000/svg" xmlns:xlink="http://www.w3.org/1999/xlink" width="161" height="511.564" viewBox="0 0 161 511.564">
  <defs>
    <clipPath id="clip-path">
      <rect id="사각형_2256" data-name="사각형 2256" width="161" height="511.564" fill="none"/>
    </clipPath>
  </defs>
  <g id="그룹_853" data-name="그룹 853" clip-path="url(#clip-path)">
    <path id="패스_1235" data-name="패스 1235" d="M126.089,63.9l-.128-.192a5.257,5.257,0,0,1,.33.9c1.493,9.7.427,17.5-.223,26.69l-2.527,42.359c2.484,5.606,3.305,15.892,7.877,29.12,1,2.921,1.93,5.98,2.729,9.167.139.48.288.981.416,1.514,4.551,17.022,7.632,56.6,4.967,76.606l-5.809,61.62s6.48,47.944-5.895,103.392c-1.013,4.509-1.9,8.56-2.664,12.205-2.313,10.83-3.635,18.035-4.349,22.778,2.238,19.048,16.9,46.484,16.9,46.484-.7,18.483-24.7,15-34.983,8.645s-2.718-24.271-2.718-24.271c-8.911-5.2-6.854-13.867-2.047-28.886,1.845-5.724,2.473-15.2,2.569-24.761C100.688,411.729,99.388,396,99.388,396l.341-.16-4.4-84.185-8.389-61.076L80.319,203.4l-6.673,47.166-7.962,61.066-4.508,84.184.351.16s-1.332,15.722-1.2,31.263c.074,9.561.714,19.048,2.526,24.772,4.786,15.018,6.843,23.695-2.068,28.886,0,0,7.536,17.918-2.76,24.26s-34.28,9.795-34.962-8.687c0,0,14.688-27.415,16.98-46.463-.714-4.743-2.047-11.949-4.339-22.789-.767-3.645-1.641-7.7-2.643-12.205-12.3-55.459-5.766-103.4-5.766-103.4l-6.172-61.076c-2.772-19.837.394-59.968,5.009-77.15.128-.533.278-1.034.416-1.514.8-3.187,1.727-6.235,2.729-9.156,4.583-13.228,5.425-23.5,7.92-29.11L34.73,91.234c-.4-9.721.533-17.279-.309-26.4C30.989,69.958,27.13,81.758,25.18,86.49a14.2,14.2,0,0,1-.832,2.58L1.282,130.054V67.39c.736-1.6,1.493-3.2,2.153-4.84q3.486-8.682,7-17.385c2.43-6.054,4.742-13.174,10.338-17.107,5.479-3.87,13.527-5.149,20.626-5.9h.032q4.444-.975,9.369-1.78c3.518-.565,7.217-1.055,11.086-1.449a7.006,7.006,0,0,0,6.331-6.95V1.741A39.1,39.1,0,0,0,80.138,3.585a38.954,38.954,0,0,0,13.324-2.3v10.8a6.985,6.985,0,0,0,6.289,6.96c3.591.384,7.035.853,10.328,1.386q4.749.766,9.049,1.716c7.259.746,15.658,1.993,21.318,5.99,5.586,3.944,7.888,11.064,10.329,17.129q3.933,9.817,7.867,19.624c.33.831.692,1.684,1.076,2.547V129.51L137.8,91.031a14.623,14.623,0,0,1-1.2-2.771c-.192-.416-.384-.863-.6-1.343-2.665-6.278-6.6-18.163-9.913-23.013" fill="#fff"/>
    <path id="패스_1236" data-name="패스 1236" d="M126.089,63.9l-.128-.192a5.257,5.257,0,0,1,.33.9c1.493,9.7.427,17.5-.223,26.69l-2.527,42.359c2.484,5.606,3.305,15.892,7.877,29.12,1,2.921,1.93,5.98,2.729,9.167.139.48.288.981.416,1.514,4.551,17.022,7.632,56.6,4.967,76.606l-5.809,61.62s6.48,47.944-5.895,103.392c-1.013,4.509-1.9,8.56-2.664,12.205-2.313,10.83-3.635,18.035-4.349,22.778,2.238,19.048,16.9,46.484,16.9,46.484-.7,18.483-24.7,15-34.983,8.645s-2.718-24.271-2.718-24.271c-8.911-5.2-6.854-13.867-2.047-28.886,1.845-5.724,2.473-15.2,2.569-24.761C100.688,411.729,99.388,396,99.388,396l.341-.16-4.4-84.185-8.389-61.076L80.319,203.4l-6.673,47.166-7.962,61.066-4.508,84.184.351.16s-1.332,15.722-1.2,31.263c.074,9.561.714,19.048,2.526,24.772,4.786,15.018,6.843,23.695-2.068,28.886,0,0,7.536,17.918-2.76,24.26s-34.28,9.795-34.962-8.687c0,0,14.688-27.415,16.98-46.463-.714-4.743-2.047-11.949-4.339-22.789-.767-3.645-1.641-7.7-2.643-12.205-12.3-55.459-5.766-103.4-5.766-103.4l-6.172-61.076c-2.772-19.837.394-59.968,5.009-77.15.128-.533.278-1.034.416-1.514.8-3.187,1.727-6.235,2.729-9.156,4.583-13.228,5.425-23.5,7.92-29.11L34.73,91.234c-.4-9.721.533-17.279-.309-26.4C30.989,69.958,27.13,81.758,25.18,86.49a14.2,14.2,0,0,1-.832,2.58L1.282,130.054V67.39c.736-1.6,1.493-3.2,2.153-4.84q3.486-8.682,7-17.385c2.43-6.054,4.742-13.174,10.338-17.107,5.479-3.87,13.527-5.149,20.626-5.9h.032q4.444-.975,9.369-1.78c3.518-.565,7.217-1.055,11.086-1.449a7.006,7.006,0,0,0,6.331-6.95V1.741A39.1,39.1,0,0,0,80.138,3.585a38.954,38.954,0,0,0,13.324-2.3v10.8a6.985,6.985,0,0,0,6.289,6.96c3.591.384,7.035.853,10.328,1.386q4.749.766,9.049,1.716c7.259.746,15.658,1.993,21.318,5.99,5.586,3.944,7.888,11.064,10.329,17.129q3.933,9.817,7.867,19.624c.33.831.692,1.684,1.076,2.547V129.51L137.8,91.031a14.623,14.623,0,0,1-1.2-2.771c-.192-.416-.384-.863-.6-1.343C133.337,80.639,129.4,68.754,126.089,63.9Z" fill="none" stroke="#535353" stroke-linecap="round" stroke-linejoin="round" stroke-width="2.564"/>
    <path id="패스_1237" data-name="패스 1237" d="M120.6,22.5h0l.028.006L120.6,22.5" fill="#ffe4dd"/>
    <path id="패스_1238" data-name="패스 1238" d="M120.6,22.5h0l.028.006Z" fill="none" stroke="#535353" stroke-linecap="round" stroke-linejoin="round" stroke-width="2.564"/>
    <path id="패스_1239" data-name="패스 1239" d="M34.371,64.369c-1.059-4.234-3.931-7.744-6.729-11.094,2.8,3.35,5.67,6.86,6.729,11.094" fill="#ffe4dd"/>
    <path id="패스_1240" data-name="패스 1240" d="M34.371,64.369c-1.059-4.234-3.931-7.744-6.729-11.094C30.44,56.625,33.312,60.135,34.371,64.369Z" fill="none" stroke="#535353" stroke-linecap="round" stroke-linejoin="round" stroke-width="2.564"/>
    <path id="패스_1241" data-name="패스 1241" d="M125.9,63.366c1.064-4.233,3.942-7.739,6.743-11.085-2.8,3.346-5.679,6.852-6.743,11.085" fill="#ffe4dd"/>
    <path id="패스_1242" data-name="패스 1242" d="M125.9,63.366c1.064-4.233,3.942-7.739,6.743-11.085C129.841,55.627,126.963,59.133,125.9,63.366Z" fill="none" stroke="#535353" stroke-linecap="round" stroke-linejoin="round" stroke-width="2.564"/>
    <path id="패스_1243" data-name="패스 1243" d="M45.67,177.328s25.688,19.5,34.719,22.874" fill="#ffe4dd"/>
    <path id="패스_1244" data-name="패스 1244" d="M45.67,177.328s25.688,19.5,34.719,22.874" fill="none" stroke="#535353" stroke-linecap="round" stroke-linejoin="round" stroke-width="2.564"/>
    <path id="패스_1245" data-name="패스 1245" d="M115.086,177.337s-25.688,19.5-34.719,22.875" fill="#ffe4dd"/>
    <path id="패스_1246" data-name="패스 1246" d="M115.086,177.337s-25.688,19.5-34.719,22.875" fill="none" stroke="#535353" stroke-linecap="round" stroke-linejoin="round" stroke-width="2.564"/>
    <path id="패스_1247" data-name="패스 1247" d="M107.333,67.618a3.131,3.131,0,1,0,3.131-3.131,3.131,3.131,0,0,0-3.131,3.131" fill="#fff"/>
    <circle id="타원_326" data-name="타원 326" cx="3.131" cy="3.131" r="3.131" transform="translate(106.373 65.923) rotate(-22.5)" fill="none" stroke="#bfbfbf" stroke-linecap="round" stroke-linejoin="round" stroke-width="2.564"/>
    <path id="패스_1248" data-name="패스 1248" d="M108.81,67.618a1.655,1.655,0,1,0,1.655-1.655,1.654,1.654,0,0,0-1.655,1.655" fill="#fff"/>
    <path id="패스_1249" data-name="패스 1249" d="M108.81,67.618a1.655,1.655,0,1,0,1.655-1.655A1.654,1.654,0,0,0,108.81,67.618Z" fill="none" stroke="#bfbfbf" stroke-linecap="round" stroke-linejoin="round" stroke-width="2.564"/>
    <path id="패스_1250" data-name="패스 1250" d="M126.407,63.584s-5.4,16.5-10.859,19.022" fill="#fff"/>
    <path id="패스_1251" data-name="패스 1251" d="M126.407,63.584s-5.4,16.5-10.859,19.022" fill="none" stroke="#535353" stroke-linecap="round" stroke-linejoin="round" stroke-width="2.564"/>
    <path id="패스_1252" data-name="패스 1252" d="M54.077,67.618a3.131,3.131,0,1,1-3.131-3.131,3.131,3.131,0,0,1,3.131,3.131" fill="#fff"/>
    <circle id="타원_327" data-name="타원 327" cx="3.131" cy="3.131" r="3.131" transform="translate(46.637 68.635) rotate(-58.282)" fill="none" stroke="#bfbfbf" stroke-linecap="round" stroke-linejoin="round" stroke-width="2.564"/>
    <path id="패스_1253" data-name="패스 1253" d="M52.6,67.618a1.655,1.655,0,1,1-1.655-1.655A1.655,1.655,0,0,1,52.6,67.618" fill="#fff"/>
    <path id="패스_1254" data-name="패스 1254" d="M52.6,67.618a1.655,1.655,0,1,1-1.655-1.655A1.655,1.655,0,0,1,52.6,67.618Z" fill="none" stroke="#bfbfbf" stroke-linecap="round" stroke-linejoin="round" stroke-width="2.564"/>
    <path id="패스_1255" data-name="패스 1255" d="M35,63.584s5.4,16.5,10.859,19.022" fill="#fff"/>
    <path id="패스_1256" data-name="패스 1256" d="M35,63.584s5.4,16.5,10.859,19.022" fill="none" stroke="#535353" stroke-linecap="round" stroke-linejoin="round" stroke-width="2.564"/>
    <path id="패스_1257" data-name="패스 1257" d="M80.512,137.466s-3.789,8.842-.842,14.316c0,0,2.789,2.473-.369-8.684" fill="#fff"/>
    <path id="패스_1258" data-name="패스 1258" d="M80.512,137.466s-3.789,8.842-.842,14.316c0,0,2.789,2.473-.369-8.684" fill="none" stroke="#535353" stroke-linecap="round" stroke-linejoin="round" stroke-width="2.564"/>
    <path id="패스_1259" data-name="패스 1259" d="M51.374,491.416s-2.027,5.32-3.927,6.841c0,0-7.6,6.207,3.04,9.247" fill="#fff"/>
    <path id="패스_1260" data-name="패스 1260" d="M51.374,491.416s-2.027,5.32-3.927,6.841c0,0-7.6,6.207,3.04,9.247" fill="none" stroke="#535353" stroke-linecap="round" stroke-linejoin="round" stroke-width="2.564"/>
    <path id="패스_1261" data-name="패스 1261" d="M43.52,493.316s-2.534,6.841-5.574,8.361c0,0-5.827,3.293.507,7.854" fill="#fff"/>
    <path id="패스_1262" data-name="패스 1262" d="M43.52,493.316s-2.534,6.841-5.574,8.361c0,0-5.827,3.293.507,7.854" fill="none" stroke="#535353" stroke-linecap="round" stroke-linejoin="round" stroke-width="2.564"/>
    <path id="패스_1263" data-name="패스 1263" d="M35.412,492.3s-1.9,7.727-4.56,8.234c0,0-6.588,1.647-.254,7.854" fill="#fff"/>
    <path id="패스_1264" data-name="패스 1264" d="M35.412,492.3s-1.9,7.727-4.56,8.234c0,0-6.588,1.647-.254,7.854" fill="none" stroke="#535353" stroke-linecap="round" stroke-linejoin="round" stroke-width="2.564"/>
    <path id="패스_1265" data-name="패스 1265" d="M29.079,490.909s.38,3.8-2.534,5.067c0,0-4.813-.633-3.293,4.18" fill="#fff"/>
    <path id="패스_1266" data-name="패스 1266" d="M29.079,490.909s.38,3.8-2.534,5.067c0,0-4.813-.633-3.293,4.18" fill="none" stroke="#535353" stroke-linecap="round" stroke-linejoin="round" stroke-width="2.564"/>
    <path id="패스_1267" data-name="패스 1267" d="M108.462,491.416s2.027,5.32,3.927,6.841c0,0,7.6,6.207-3.04,9.247" fill="#fff"/>
    <path id="패스_1268" data-name="패스 1268" d="M108.462,491.416s2.027,5.32,3.927,6.841c0,0,7.6,6.207-3.04,9.247" fill="none" stroke="#535353" stroke-linecap="round" stroke-linejoin="round" stroke-width="2.564"/>
    <path id="패스_1269" data-name="패스 1269" d="M116.316,493.316s2.534,6.841,5.574,8.361c0,0,5.827,3.293-.507,7.854" fill="#fff"/>
    <path id="패스_1270" data-name="패스 1270" d="M116.316,493.316s2.534,6.841,5.574,8.361c0,0,5.827,3.293-.507,7.854" fill="none" stroke="#535353" stroke-linecap="round" stroke-linejoin="round" stroke-width="2.564"/>
    <path id="패스_1271" data-name="패스 1271" d="M124.423,491.923s1.9,7.727,4.56,8.234c0,0,6.588,1.647.254,7.854" fill="#fff"/>
    <path id="패스_1272" data-name="패스 1272" d="M124.423,491.923s1.9,7.727,4.56,8.234c0,0,6.588,1.647.254,7.854" fill="none" stroke="#535353" stroke-linecap="round" stroke-linejoin="round" stroke-width="2.564"/>
    <path id="패스_1273" data-name="패스 1273" d="M130.757,490.909s-.38,3.8,2.534,5.067c0,0,4.813-.633,3.293,4.18" fill="#fff"/>
    <path id="패스_1274" data-name="패스 1274" d="M130.757,490.909s-.38,3.8,2.534,5.067c0,0,4.813-.633,3.293,4.18" fill="none" stroke="#535353" stroke-linecap="round" stroke-linejoin="round" stroke-width="2.564"/>
    <path id="패스_1275" data-name="패스 1275" d="M59.46,91.992l-16,28.211,21.9,63.579,4.631,17.684-8,8.421,5.895,76.632s-4.21,34.1-11.789,40.421c0,0,3.368,20.631,7.579,32,0,0,.421,22.737-11.79,32L52.3,408.2l2.105,40s-8.842,13.053-10.526,24c0,0-5.474,6.316-5.9,18.526L35.039,502.1" fill="none" stroke="#dd3a3a" stroke-linecap="round" stroke-linejoin="round" stroke-width="1.424"/>
    <path id="패스_1276" data-name="패스 1276" d="M60.976,91.9a1.425,1.425,0,1,1-1.424-1.424A1.424,1.424,0,0,1,60.976,91.9" fill="#dd3a3a"/>
    <path id="패스_1277" data-name="패스 1277" d="M45.121,120.364A1.424,1.424,0,1,1,43.7,118.94a1.424,1.424,0,0,1,1.424,1.424" fill="#dd3a3a"/>
    <path id="패스_1278" data-name="패스 1278" d="M66.6,182.864a1.425,1.425,0,1,1-1.424-1.424,1.424,1.424,0,0,1,1.424,1.424" fill="#dd3a3a"/>
    <path id="패스_1279" data-name="패스 1279" d="M71.411,201.282a1.425,1.425,0,1,1-1.424-1.424,1.424,1.424,0,0,1,1.424,1.424" fill="#dd3a3a"/>
    <path id="패스_1280" data-name="패스 1280" d="M63.674,209.861a1.424,1.424,0,1,1-1.424-1.424,1.424,1.424,0,0,1,1.424,1.424" fill="#dd3a3a"/>
    <path id="패스_1281" data-name="패스 1281" d="M57.832,326.414a1.424,1.424,0,1,1-1.424-1.424,1.424,1.424,0,0,1,1.424,1.424" fill="#dd3a3a"/>
    <path id="패스_1282" data-name="패스 1282" d="M66.358,304.94a1.425,1.425,0,1,1-1.424-1.424,1.424,1.424,0,0,1,1.424,1.424" fill="#dd3a3a"/>
  </g>
</svg>
