<svg id="Lung_Meridian_LU" data-name="Lung Meridian, LU" xmlns="http://www.w3.org/2000/svg" xmlns:xlink="http://www.w3.org/1999/xlink" width="367.036" height="511.669" viewBox="0 0 367.036 511.669">
  <defs>
    <clipPath id="clip-path">
      <rect id="사각형_2238" data-name="사각형 2238" width="367.036" height="511.669" fill="none"/>
    </clipPath>
  </defs>
  <g id="그룹_826" data-name="그룹 826" clip-path="url(#clip-path)">
    <path id="패스_552" data-name="패스 552" d="M2.191,490.25c3.452,4.445,9.462-2.744,14.429-9.065s12.939-18.08,17.844-23.717S45.342,444.479,47.192,446.6s-6.321,13.374-8.829,17.025c-7.239,10.53-15.547,22.115-20.178,34.086-1.49,3.837-2.956,9.847.446,12.132s8.32-3.937,12.033-9.4,11.151-18.477,19.247-29.467c1.317-1.788,10.083-15.261,12.256-13.647s-2.619,10.692-4.073,13.647c-4.693,9.549-10.38,21.135-13.609,27.492-1.329,2.633-3.862,10.344-.087,11.673s8.717-5.936,11.114-9.624c6.283-9.648,12.218-21.283,17.483-31.5,1.652-3.2,4.744-9.822,8.047-11.362,3.775-1.763,2.285,7.947,1.168,12.691s-5.154,13.671-5.564,17.67c-.285,2.856.621,7.128,4.409,5.637,3.1-1.229,6.407-9.549,8.369-13.783s3.949-9.065,5.811-14.094c2.161-5.811,6.073-15.261,12.567-29.653,4.346-9.648,7.1-27.356,10.418-38.954,1.528-5.352,4.768-12.38,7.811-18.4.261-.521.521-1.03.782-1.539.4-.77,1.863-3.366,4.2-7.476.149-.273.311-.559.472-.844.112-.211.236-.422.36-.633l4.62-8.357,7.984-13.66c.422-.72.844-1.465,1.279-2.21l85.8-146.962c.286-.5.547-1.005.807-1.514q.765-1.547,1.379-3.167c.2-.546.4-1.1.571-1.664.335-.708.658-1.465,1.006-2.26.124-.261.236-.534.36-.807,6.1-14.367,15.125-41.549,22.724-52.638l.3-.447a8.323,8.323,0,0,0-.782,2.049c-1.776,21.656-.4,38.173-.4,60.472l4.68,101.031c.55,15.6-.01,23.295-9.062,44.678H365.7V1.335H333.118V16.484A16.034,16.034,0,0,1,318.7,32.416c-8.22.856-16.093,1.924-23.63,3.141q-10.878,1.77-20.713,3.912C257.744,41.17,238.534,44,225.57,53.153c-12.8,9.015-18.068,25.319-23.656,39.165q-9.033,22.462-18.042,44.9c-3,7.537-7.227,15.782-10.083,24.226a.024.024,0,0,1-.025.025,36.67,36.67,0,0,0-2.36,4.557l-19.532,42.915C122.02,272,86.941,351.956,84.2,356.252a40.334,40.334,0,0,1-15.882,14.579c-5.836,2.93-16.875,10.778-23.928,17.123-8.345,7.476-17.994,15.5-21.011,18.863-2,2.222-4.458,6.01-7.388,9.958-2.62,3.539-5.948,7.252-4.371,9.4,3.328,4.532,9.934,1.365,13.162-.957,4.632-3.315,12.269-10.542,16.292-12.79.584-.323,1.341-.683,2.21-1.068-1.6,6.78-5.513,12.443-7.885,16.714-7.761,14.082-17.049,29.9-26.027,43.276C6.661,475.4-1.261,485.8,2.191,490.25" fill="#fff"/>
    <path id="패스_553" data-name="패스 553" d="M2.191,490.25c3.452,4.445,9.462-2.744,14.429-9.065s12.939-18.08,17.844-23.717S45.342,444.479,47.192,446.6s-6.321,13.374-8.829,17.025c-7.239,10.53-15.547,22.115-20.178,34.086-1.49,3.837-2.956,9.847.446,12.132s8.32-3.937,12.033-9.4,11.151-18.477,19.247-29.467c1.317-1.788,10.083-15.261,12.256-13.647s-2.619,10.692-4.073,13.647c-4.693,9.549-10.38,21.135-13.609,27.492-1.329,2.633-3.862,10.344-.087,11.673s8.717-5.936,11.114-9.624c6.283-9.648,12.218-21.283,17.483-31.5,1.652-3.2,4.744-9.822,8.047-11.362,3.775-1.763,2.285,7.947,1.168,12.691s-5.154,13.671-5.564,17.67c-.285,2.856.621,7.128,4.409,5.637,3.1-1.229,6.407-9.549,8.369-13.783s3.949-9.065,5.811-14.094c2.161-5.811,6.073-15.261,12.567-29.653,4.346-9.648,7.1-27.356,10.418-38.954,1.528-5.352,4.768-12.38,7.811-18.4.261-.521.521-1.03.782-1.539.4-.77,1.863-3.366,4.2-7.476.149-.273.311-.559.472-.844.112-.211.236-.422.36-.633l4.62-8.357,7.984-13.66c.422-.72.844-1.465,1.279-2.21l85.8-146.962c.286-.5.547-1.005.807-1.514q.765-1.547,1.379-3.167c.2-.546.4-1.1.571-1.664.335-.708.658-1.465,1.006-2.26.124-.261.236-.534.36-.807,6.1-14.367,15.125-41.549,22.724-52.638l.3-.447a8.323,8.323,0,0,0-.782,2.049c-1.776,21.656-.4,38.173-.4,60.472l4.68,101.031c.55,15.6-.01,23.295-9.062,44.678H365.7V1.335H333.118V16.484A16.034,16.034,0,0,1,318.7,32.416c-8.22.856-16.093,1.924-23.63,3.141q-10.878,1.77-20.713,3.912C257.744,41.17,238.534,44,225.57,53.153c-12.8,9.015-18.068,25.319-23.656,39.165q-9.033,22.462-18.042,44.9c-3,7.537-7.227,15.782-10.083,24.226a.024.024,0,0,1-.025.025,36.67,36.67,0,0,0-2.36,4.557l-19.532,42.915C122.02,272,86.941,351.956,84.2,356.252a40.334,40.334,0,0,1-15.882,14.579c-5.836,2.93-16.875,10.778-23.928,17.123-8.345,7.476-17.994,15.5-21.011,18.863-2,2.222-4.458,6.01-7.388,9.958-2.62,3.539-5.948,7.252-4.371,9.4,3.328,4.532,9.934,1.365,13.162-.957,4.632-3.315,12.269-10.542,16.292-12.79.584-.323,1.341-.683,2.21-1.068-1.6,6.78-5.513,12.443-7.885,16.714-7.761,14.082-17.049,29.9-26.027,43.276C6.661,475.4-1.261,485.8,2.191,490.25Z" fill="none" stroke="#535353" stroke-linecap="round" stroke-linejoin="round" stroke-width="2.669"/>
    <path id="패스_554" data-name="패스 554" d="M126.031,378.766l4.978-9.015c-2.334,4.11-3.8,6.7-4.2,7.475-.261.509-.522,1.018-.782,1.54" fill="#fff"/>
    <path id="패스_555" data-name="패스 555" d="M126.031,378.766l4.978-9.015c-2.334,4.11-3.8,6.7-4.2,7.475C126.552,377.735,126.291,378.244,126.031,378.766Z" fill="none" stroke="#535353" stroke-linecap="round" stroke-linejoin="round" stroke-width="2.669"/>
    <path id="패스_556" data-name="패스 556" d="M231.53,197.085l2.4-4.321a33.28,33.28,0,0,0,1.727-5.091c-.125.273-.236.546-.361.807-.347.794-.67,1.552-1.005,2.26-.174.558-.373,1.117-.571,1.664q-.615,1.62-1.379,3.166c-.261.509-.521,1.018-.807,1.515" fill="#fff"/>
    <path id="패스_557" data-name="패스 557" d="M231.53,197.085l2.4-4.321a33.28,33.28,0,0,0,1.727-5.091c-.125.273-.236.546-.361.807-.347.794-.67,1.552-1.005,2.26-.174.558-.373,1.117-.571,1.664q-.615,1.62-1.379,3.166C232.076,196.079,231.816,196.588,231.53,197.085Z" fill="none" stroke="#535353" stroke-linecap="round" stroke-linejoin="round" stroke-width="2.669"/>
    <path id="패스_558" data-name="패스 558" d="M131.842,368.273c3.067-5.389,7.376-12.914,12.6-22.016l-7.985,13.659Z" fill="#fff"/>
    <path id="패스_559" data-name="패스 559" d="M131.842,368.273c3.067-5.389,7.376-12.914,12.6-22.016l-7.985,13.659Z" fill="none" stroke="#535353" stroke-linecap="round" stroke-linejoin="round" stroke-width="2.669"/>
    <path id="패스_560" data-name="패스 560" d="M258.636,134.264c-2.429-9.687-8.419-19.251-14.826-26.912,6.407,7.661,12.4,17.225,14.826,26.912" fill="#fff"/>
    <path id="패스_561" data-name="패스 561" d="M258.636,134.264c-2.429-9.687-8.419-19.251-14.826-26.912C250.217,115.013,256.207,124.577,258.636,134.264Z" fill="none" stroke="#535353" stroke-linecap="round" stroke-linejoin="round" stroke-width="2.669"/>
    <path id="패스_562" data-name="패스 562" d="M75.779,441.151C62.944,439,48,427.324,48,427.324" fill="none" stroke="#535353" stroke-linecap="round" stroke-linejoin="round" stroke-width="2.669"/>
    <path id="패스_563" data-name="패스 563" d="M83.569,403.927c-8.863,14.586-31.832,9.421-31.832,9.421" fill="none" stroke="#535353" stroke-linecap="round" stroke-linejoin="round" stroke-width="2.669"/>
    <path id="패스_564" data-name="패스 564" d="M43.278,411.359c3.326-1.906,12.4-8.088,12.4-8.088" fill="none" stroke="#535353" stroke-linecap="round" stroke-linejoin="round" stroke-width="2.669"/>
    <path id="패스_565" data-name="패스 565" d="M165.436,217.342s17.419,15.119,33.853,15.776" fill="#fff"/>
    <path id="패스_566" data-name="패스 566" d="M165.436,217.342s17.419,15.119,33.853,15.776" fill="none" stroke="#535353" stroke-linecap="round" stroke-linejoin="round" stroke-width="2.669"/>
    <path id="패스_567" data-name="패스 567" d="M84.2,356.253s23.175.225,29.311,18.192" fill="#fff"/>
    <path id="패스_568" data-name="패스 568" d="M84.2,356.253s23.175.225,29.311,18.192" fill="none" stroke="#535353" stroke-linecap="round" stroke-linejoin="round" stroke-width="2.669"/>
    <path id="패스_569" data-name="패스 569" d="M310.268,192.583c-1.753-.438-40.6-4.013-51.632-58.318" fill="#fff"/>
    <path id="패스_570" data-name="패스 570" d="M310.268,192.583c-1.753-.438-40.6-4.013-51.632-58.318" fill="none" stroke="#535353" stroke-linecap="round" stroke-linejoin="round" stroke-width="2.669"/>
    <path id="패스_571" data-name="패스 571" d="M320.785,143.94a7.45,7.45,0,1,1-7.45-7.45,7.45,7.45,0,0,1,7.45,7.45" fill="#fff"/>
    <circle id="타원_313" data-name="타원 313" cx="7.45" cy="7.45" r="7.45" transform="translate(303.602 139.908) rotate(-22.5)" fill="none" stroke="#bfbfbf" stroke-linecap="round" stroke-linejoin="round" stroke-width="1.977"/>
    <path id="패스_572" data-name="패스 572" d="M317.273,143.94A3.938,3.938,0,1,1,313.335,140a3.938,3.938,0,0,1,3.938,3.938" fill="#fff"/>
    <path id="패스_573" data-name="패스 573" d="M317.273,143.94A3.938,3.938,0,1,1,313.335,140,3.938,3.938,0,0,1,317.273,143.94Z" fill="none" stroke="#bfbfbf" stroke-linecap="round" stroke-linejoin="round" stroke-width="1.977"/>
    <path id="패스_574" data-name="패스 574" d="M268.637,71.195V51.475s-39.878,11.394-53.025,81.509c0,0-29.361,32.429-35.934,94.656L94.224,335.881l4.383,12.271-7.888,9.64s-9.641,33.744-41.631,33.744L20.6,418.7" fill="none" stroke="#dd3a3a" stroke-linecap="round" stroke-linejoin="round" stroke-width="1.483"/>
    <path id="패스_575" data-name="패스 575" d="M270.12,71.414a1.482,1.482,0,1,1-1.483-1.483,1.483,1.483,0,0,1,1.483,1.483" fill="#dd3a3a"/>
    <path id="패스_576" data-name="패스 576" d="M216.985,133.751a1.482,1.482,0,1,1-1.483-1.483,1.483,1.483,0,0,1,1.483,1.483" fill="#dd3a3a"/>
    <path id="패스_577" data-name="패스 577" d="M208.056,145.693a1.482,1.482,0,1,1-1.483-1.483,1.483,1.483,0,0,1,1.483,1.483" fill="#dd3a3a"/>
    <path id="패스_578" data-name="패스 578" d="M180.866,228.1a1.482,1.482,0,1,1-1.483-1.483,1.483,1.483,0,0,1,1.483,1.483" fill="#dd3a3a"/>
    <path id="패스_579" data-name="패스 579" d="M132.737,289.211a1.482,1.482,0,1,1-1.483-1.483,1.483,1.483,0,0,1,1.483,1.483" fill="#dd3a3a"/>
    <path id="패스_580" data-name="패스 580" d="M95.378,335.662a1.482,1.482,0,1,1-1.483-1.483,1.483,1.483,0,0,1,1.483,1.483" fill="#dd3a3a"/>
    <path id="패스_581" data-name="패스 581" d="M100.045,348.262a1.482,1.482,0,1,1-1.483-1.483,1.483,1.483,0,0,1,1.483,1.483" fill="#dd3a3a"/>
    <path id="패스_582" data-name="패스 582" d="M92.311,357.354a1.482,1.482,0,1,1-1.483-1.483,1.483,1.483,0,0,1,1.483,1.483" fill="#dd3a3a"/>
    <path id="패스_583" data-name="패스 583" d="M22.216,418.792a1.483,1.483,0,1,1-1.483-1.483,1.483,1.483,0,0,1,1.483,1.483" fill="#dd3a3a"/>
    <path id="패스_584" data-name="패스 584" d="M69.195,387.153a1.482,1.482,0,1,1-1.483-1.483,1.483,1.483,0,0,1,1.483,1.483" fill="#dd3a3a"/>
    <path id="패스_585" data-name="패스 585" d="M270.12,51.612a1.482,1.482,0,1,1-1.483-1.483,1.483,1.483,0,0,1,1.483,1.483" fill="#dd3a3a"/>
  </g>
</svg>
