<svg id="Pericardium_Meridian_PC" data-name="Pericardium Meridian, PC" xmlns="http://www.w3.org/2000/svg" xmlns:xlink="http://www.w3.org/1999/xlink" width="367.056" height="511.669" viewBox="0 0 367.056 511.669">
  <defs>
    <clipPath id="clip-path">
      <rect id="사각형_2251" data-name="사각형 2251" width="367.056" height="511.669" fill="none"/>
    </clipPath>
  </defs>
  <g id="그룹_843" data-name="그룹 843" clip-path="url(#clip-path)">
    <path id="패스_1039" data-name="패스 1039" d="M2.191,490.278c3.452,4.446,9.463-2.744,14.43-9.065s12.94-18.081,17.845-23.719,10.878-12.99,12.728-10.866S40.874,460,38.365,463.653c-7.24,10.531-10.8,15.171-14.747,24.045-1.672,3.762-1.266,4.782,2.136,7.067s8.32-3.937,12.033-9.4,4.03-3.369,12.127-14.359C51.23,469.217,60,455.743,62.171,457.357s-2.62,10.692-4.073,13.648C53.4,480.554,47.716,492.141,44.487,498.5c-1.329,2.633-3.862,10.344-.087,11.673s8.718-5.936,11.115-9.624C61.8,490.9,67.734,479.263,73,469.043c1.651-3.2,4.743-9.823,8.047-11.363,3.775-1.763,2.285,7.948,1.167,12.692s-5.154,13.672-5.563,17.671c-.286,2.856.62,7.128,4.408,5.638,3.105-1.23,6.408-9.55,8.37-13.785s3.949-9.065,5.812-14.094c2.161-5.812,6.072-15.262,12.567-29.655,4.346-9.649,7.1-27.357,10.419-38.956,1.527-5.352,4.768-12.381,7.811-18.4.261-.521.521-1.031.782-1.54.4-.77,1.863-3.365,4.2-7.476.149-.273.31-.558.472-.844.111-.211.235-.422.36-.633l4.619-8.358,7.985-13.66c.422-.72.845-1.465,1.279-2.21l85.81-146.97c.286-.5.547-1.006.807-1.515q.765-1.546,1.379-3.167c.2-.546.4-1.1.571-1.664.335-.708.658-1.465,1.006-2.26.124-.261.236-.534.36-.807,6.1-14.368,15.126-41.552,22.725-52.641q.15-.224.3-.447a8.323,8.323,0,0,0-.782,2.049c-1.775,21.657-.4,38.175-.4,60.475l4.68,101.037c.551,15.6-.009,23.3-9.062,44.68h112.6V1.335H333.137v15.15a16.035,16.035,0,0,1-14.418,15.933c-8.221.857-16.094,1.924-23.632,3.141q-10.878,1.77-20.713,3.912c-16.616,1.7-35.827,4.533-48.792,13.685-12.8,9.016-18.068,25.321-23.656,39.167q-9.034,22.466-18.044,44.9c-3.005,7.537-7.227,15.783-10.083,24.228a.024.024,0,0,1-.025.024,36.621,36.621,0,0,0-2.36,4.558L151.88,208.955C122.027,272.015,86.945,351.976,84.2,356.273a40.344,40.344,0,0,1-15.883,14.579c-5.837,2.931-16.876,10.779-23.93,17.125-8.345,7.475-17.994,15.5-21.012,18.863-2,2.223-4.458,6.01-7.389,9.959-2.62,3.539-5.948,7.253-4.371,9.4,3.328,4.533,9.935,1.366,13.164-.956,4.632-3.316,12.269-10.543,16.292-12.791.584-.323,1.342-.683,2.211-1.068-1.6,6.78-5.514,12.443-7.886,16.715-7.761,14.082-17.05,29.9-26.029,43.277-2.707,4.049-10.63,14.455-7.177,18.9" fill="#fff"/>
    <path id="패스_1040" data-name="패스 1040" d="M2.191,490.278c3.452,4.446,9.463-2.744,14.43-9.065s12.94-18.081,17.845-23.719,10.878-12.99,12.728-10.866S40.874,460,38.365,463.653c-7.24,10.531-10.8,15.171-14.747,24.045-1.672,3.762-1.266,4.782,2.136,7.067s8.32-3.937,12.033-9.4,4.03-3.369,12.127-14.359C51.23,469.217,60,455.743,62.171,457.357s-2.62,10.692-4.073,13.648C53.4,480.554,47.716,492.141,44.487,498.5c-1.329,2.633-3.862,10.344-.087,11.673s8.718-5.936,11.115-9.624C61.8,490.9,67.734,479.263,73,469.043c1.651-3.2,4.743-9.823,8.047-11.363,3.775-1.763,2.285,7.948,1.167,12.692s-5.154,13.672-5.563,17.671c-.286,2.856.62,7.128,4.408,5.638,3.105-1.23,6.408-9.55,8.37-13.785s3.949-9.065,5.812-14.094c2.161-5.812,6.072-15.262,12.567-29.655,4.346-9.649,7.1-27.357,10.419-38.956,1.527-5.352,4.768-12.381,7.811-18.4.261-.521.521-1.031.782-1.54.4-.77,1.863-3.365,4.2-7.476.149-.273.31-.558.472-.844.111-.211.235-.422.36-.633l4.619-8.358,7.985-13.66c.422-.72.845-1.465,1.279-2.21l85.81-146.97c.286-.5.547-1.006.807-1.515q.765-1.546,1.379-3.167c.2-.546.4-1.1.571-1.664.335-.708.658-1.465,1.006-2.26.124-.261.236-.534.36-.807,6.1-14.368,15.126-41.552,22.725-52.641q.15-.224.3-.447a8.323,8.323,0,0,0-.782,2.049c-1.775,21.657-.4,38.175-.4,60.475l4.68,101.037c.551,15.6-.009,23.3-9.062,44.68h112.6V1.335H333.137v15.15a16.035,16.035,0,0,1-14.418,15.933c-8.221.857-16.094,1.924-23.632,3.141q-10.878,1.77-20.713,3.912c-16.616,1.7-35.827,4.533-48.792,13.685-12.8,9.016-18.068,25.321-23.656,39.167q-9.034,22.466-18.044,44.9c-3.005,7.537-7.227,15.783-10.083,24.228a.024.024,0,0,1-.025.024,36.621,36.621,0,0,0-2.36,4.558L151.88,208.955C122.027,272.015,86.945,351.976,84.2,356.273a40.344,40.344,0,0,1-15.883,14.579c-5.837,2.931-16.876,10.779-23.93,17.125-8.345,7.475-17.994,15.5-21.012,18.863-2,2.223-4.458,6.01-7.389,9.959-2.62,3.539-5.948,7.253-4.371,9.4,3.328,4.533,9.935,1.366,13.164-.956,4.632-3.316,12.269-10.543,16.292-12.791.584-.323,1.342-.683,2.211-1.068-1.6,6.78-5.514,12.443-7.886,16.715-7.761,14.082-17.05,29.9-26.029,43.277C6.661,475.426-1.262,485.832,2.191,490.278Z" fill="none" stroke="#535353" stroke-linecap="round" stroke-linejoin="round" stroke-width="2.669"/>
    <path id="패스_1041" data-name="패스 1041" d="M126.038,378.787l4.98-9.016c-2.335,4.111-3.8,6.706-4.2,7.476-.26.509-.521,1.018-.782,1.54" fill="#fff"/>
    <path id="패스_1042" data-name="패스 1042" d="M126.038,378.787l4.98-9.016c-2.335,4.111-3.8,6.706-4.2,7.476C126.56,377.756,126.3,378.265,126.038,378.787Z" fill="none" stroke="#535353" stroke-linecap="round" stroke-linejoin="round" stroke-width="2.669"/>
    <path id="패스_1043" data-name="패스 1043" d="M231.543,197.1l2.4-4.322a33.346,33.346,0,0,0,1.726-5.091c-.124.273-.236.546-.36.807-.348.795-.671,1.552-1.006,2.26-.174.559-.373,1.118-.571,1.664q-.615,1.621-1.379,3.167c-.261.509-.521,1.018-.807,1.515" fill="#fff"/>
    <path id="패스_1044" data-name="패스 1044" d="M231.543,197.1l2.4-4.322a33.346,33.346,0,0,0,1.726-5.091c-.124.273-.236.546-.36.807-.348.795-.671,1.552-1.006,2.26-.174.559-.373,1.118-.571,1.664q-.615,1.621-1.379,3.167C232.089,196.09,231.829,196.6,231.543,197.1Z" fill="none" stroke="#535353" stroke-linecap="round" stroke-linejoin="round" stroke-width="2.669"/>
    <path id="패스_1045" data-name="패스 1045" d="M131.85,368.294c3.066-5.39,7.375-12.915,12.6-22.018l-7.984,13.66Z" fill="#fff"/>
    <path id="패스_1046" data-name="패스 1046" d="M131.85,368.294c3.066-5.39,7.375-12.915,12.6-22.018l-7.984,13.66Z" fill="none" stroke="#535353" stroke-linecap="round" stroke-linejoin="round" stroke-width="2.669"/>
    <path id="패스_1047" data-name="패스 1047" d="M258.65,134.272c-2.429-9.688-8.419-19.252-14.826-26.914,6.407,7.662,12.4,17.226,14.826,26.914" fill="#fff"/>
    <path id="패스_1048" data-name="패스 1048" d="M258.65,134.272c-2.429-9.688-8.419-19.252-14.826-26.914C250.231,115.02,256.221,124.584,258.65,134.272Z" fill="none" stroke="#535353" stroke-linecap="round" stroke-linejoin="round" stroke-width="2.669"/>
    <path id="패스_1049" data-name="패스 1049" d="M75.784,441.176C62.948,439.024,48,427.348,48,427.348" fill="none" stroke="#535353" stroke-linecap="round" stroke-linejoin="round" stroke-width="2.669"/>
    <path id="패스_1050" data-name="패스 1050" d="M83.574,403.949c-8.864,14.586-31.834,9.422-31.834,9.422" fill="none" stroke="#535353" stroke-linecap="round" stroke-linejoin="round" stroke-width="2.669"/>
    <path id="패스_1051" data-name="패스 1051" d="M43.281,411.382c3.326-1.906,12.406-8.089,12.406-8.089" fill="none" stroke="#535353" stroke-linecap="round" stroke-linejoin="round" stroke-width="2.669"/>
    <path id="패스_1052" data-name="패스 1052" d="M163.473,211.876s18.845,15.339,35.936,15.339" fill="#fff"/>
    <path id="패스_1053" data-name="패스 1053" d="M163.473,211.876s18.845,15.339,35.936,15.339" fill="none" stroke="#535353" stroke-linecap="round" stroke-linejoin="round" stroke-width="2.669"/>
    <path id="패스_1054" data-name="패스 1054" d="M310.5,193.46c-1.753-.438-40.6-4.014-51.635-58.322" fill="#fff"/>
    <path id="패스_1055" data-name="패스 1055" d="M310.5,193.46c-1.753-.438-40.6-4.014-51.635-58.322" fill="none" stroke="#535353" stroke-linecap="round" stroke-linejoin="round" stroke-width="2.669"/>
    <path id="패스_1056" data-name="패스 1056" d="M321.022,144.815a7.45,7.45,0,1,1-7.45-7.45,7.45,7.45,0,0,1,7.45,7.45" fill="#fff"/>
    <circle id="타원_322" data-name="타원 322" cx="7.45" cy="7.45" r="7.45" transform="translate(303.838 140.783) rotate(-22.5)" fill="none" stroke="#bfbfbf" stroke-linecap="round" stroke-linejoin="round" stroke-width="1.977"/>
    <path id="패스_1057" data-name="패스 1057" d="M317.509,144.815a3.938,3.938,0,1,1-3.938-3.938,3.938,3.938,0,0,1,3.938,3.938" fill="#fff"/>
    <circle id="타원_323" data-name="타원 323" cx="3.938" cy="3.938" r="3.938" transform="matrix(0.23, -0.973, 0.973, 0.23, 308.834, 147.742)" fill="none" stroke="#bfbfbf" stroke-linecap="round" stroke-linejoin="round" stroke-width="1.977"/>
    <path id="패스_1058" data-name="패스 1058" d="M26.411,483.918S44,468.47,50.241,475.537c0,0,6.573,2.629-12.49,17.913,0,0-9.532,6.081-13.969.164,0,0-3.616-4.437,2.629-9.7" fill="#fff"/>
    <path id="패스_1059" data-name="패스 1059" d="M26.411,483.918S44,468.47,50.241,475.537c0,0,6.573,2.629-12.49,17.913,0,0-9.532,6.081-13.969.164C23.782,493.614,20.166,489.177,26.411,483.918Z" fill="none" stroke="#535353" stroke-linecap="round" stroke-linejoin="round" stroke-width="2.669"/>
    <path id="패스_1060" data-name="패스 1060" d="M304.643,129.6s-72.8-126.873-89.567,10.189l-32.54,82.829L98.722,379.4,38.85,474.129" fill="none" stroke="#dd3a3a" stroke-linecap="round" stroke-linejoin="round" stroke-width="1.483"/>
    <line id="선_158" data-name="선 158" y1="11.011" x2="16.927" transform="translate(24.275 482.768)" fill="none" stroke="#dd3a3a" stroke-linecap="round" stroke-linejoin="round" stroke-width="1.483"/>
    <path id="패스_1061" data-name="패스 1061" d="M305.961,129.6a1.482,1.482,0,1,1-1.483-1.483,1.483,1.483,0,0,1,1.483,1.483" fill="#dd3a3a"/>
    <path id="패스_1062" data-name="패스 1062" d="M216.669,139.346a1.483,1.483,0,1,1-1.483-1.483,1.483,1.483,0,0,1,1.483,1.483" fill="#dd3a3a"/>
    <path id="패스_1063" data-name="패스 1063" d="M184.238,222.175a1.483,1.483,0,1,1-1.483-1.483,1.483,1.483,0,0,1,1.483,1.483" fill="#dd3a3a"/>
    <path id="패스_1064" data-name="패스 1064" d="M104.039,372.275a1.483,1.483,0,1,1-1.483-1.483,1.483,1.483,0,0,1,1.483,1.483" fill="#dd3a3a"/>
    <path id="패스_1065" data-name="패스 1065" d="M69.856,427.275a1.483,1.483,0,1,1-1.483-1.483,1.483,1.483,0,0,1,1.483,1.483" fill="#dd3a3a"/>
    <path id="패스_1066" data-name="패스 1066" d="M77.58,431.548a1.483,1.483,0,1,1-1.483-1.483,1.483,1.483,0,0,1,1.483,1.483" fill="#fff"/>
    <path id="패스_1067" data-name="패스 1067" d="M77.58,431.548a1.483,1.483,0,1,1-1.483-1.483A1.483,1.483,0,0,1,77.58,431.548Z" fill="none" stroke="#dd3a3a" stroke-width="0.988"/>
    <path id="패스_1068" data-name="패스 1068" d="M42.164,483.018a1.483,1.483,0,1,1-1.483-1.483,1.483,1.483,0,0,1,1.483,1.483" fill="#dd3a3a"/>
    <path id="패스_1069" data-name="패스 1069" d="M26.552,493.207a1.483,1.483,0,1,1-1.483-1.483,1.483,1.483,0,0,1,1.483,1.483" fill="#fff"/>
    <path id="패스_1070" data-name="패스 1070" d="M26.552,493.207a1.483,1.483,0,1,1-1.483-1.483A1.483,1.483,0,0,1,26.552,493.207Z" fill="none" stroke="#dd3a3a" stroke-width="0.988"/>
    <path id="패스_1071" data-name="패스 1071" d="M112.147,357.155a1.483,1.483,0,1,1-1.483-1.483,1.483,1.483,0,0,1,1.483,1.483" fill="#dd3a3a"/>
    <path id="패스_1072" data-name="패스 1072" d="M116.858,348.668a1.483,1.483,0,1,1-1.483-1.483,1.483,1.483,0,0,1,1.483,1.483" fill="#dd3a3a"/>
    <path id="패스_1073" data-name="패스 1073" d="M128.143,327.464a1.483,1.483,0,1,1-1.483-1.483,1.483,1.483,0,0,1,1.483,1.483" fill="#dd3a3a"/>
  </g>
</svg>
