<svg id="Small_Intestine_Meridian_SI-1" data-name="Small Intestine Meridian, SI-1" xmlns="http://www.w3.org/2000/svg" xmlns:xlink="http://www.w3.org/1999/xlink" width="367.036" height="511.669" viewBox="0 0 367.036 511.669">
  <defs>
    <clipPath id="clip-path">
      <rect id="사각형_2244" data-name="사각형 2244" width="367.036" height="511.669" fill="none"/>
    </clipPath>
  </defs>
  <g id="그룹_832" data-name="그룹 832" clip-path="url(#clip-path)">
    <path id="패스_830" data-name="패스 830" d="M364.845,490.25c-3.452,4.445-9.462-2.744-14.429-9.065s-12.939-18.08-17.844-23.717-10.878-12.989-12.728-10.866,6.32,13.374,8.829,17.025c7.239,10.53,15.547,22.115,20.178,34.086,1.49,3.837,2.956,9.847-.446,12.132s-8.32-3.937-12.033-9.4-11.151-18.477-19.247-29.467c-1.317-1.788-10.083-15.261-12.256-13.647s2.619,10.692,4.073,13.647c4.693,9.549,10.38,21.135,13.609,27.492,1.329,2.633,3.862,10.344.087,11.673s-8.717-5.936-11.114-9.624c-6.283-9.648-12.218-21.283-17.484-31.5-1.651-3.2-4.743-9.822-8.046-11.362-3.775-1.763-2.285,7.947-1.168,12.691s5.154,13.671,5.564,17.67c.285,2.856-.621,7.128-4.409,5.637-3.1-1.229-6.407-9.549-8.369-13.783s-3.949-9.065-5.811-14.094c-2.161-5.811-6.073-15.261-12.567-29.653-4.346-9.648-7.1-27.356-10.418-38.954-1.528-5.352-4.769-12.38-7.811-18.4-.261-.521-.521-1.03-.782-1.539-.4-.77-1.863-3.366-4.2-7.476-.149-.273-.311-.559-.472-.844-.112-.211-.236-.422-.36-.633l-4.62-8.357-7.984-13.66c-.422-.72-.844-1.465-1.279-2.21L135.506,197.084c-.286-.5-.547-1.005-.807-1.514q-.765-1.547-1.379-3.167c-.2-.546-.4-1.1-.571-1.664-.335-.708-.658-1.465-1.006-2.26-.124-.261-.236-.534-.36-.807-6.1-14.367-15.125-41.549-22.724-52.638l-.3-.447a8.323,8.323,0,0,1,.782,2.049c1.776,21.656.4,38.173.4,60.472l-4.68,101.031c-.55,15.6.01,23.295,9.062,44.678H1.334V1.335H33.918V16.484A16.034,16.034,0,0,0,48.335,32.416c8.22.856,16.093,1.924,23.63,3.141q10.878,1.77,20.713,3.912C109.292,41.17,128.5,44,141.466,53.153c12.8,9.015,18.068,25.319,23.656,39.165q9.033,22.462,18.042,44.9c3.005,7.537,7.227,15.782,10.083,24.226a.024.024,0,0,0,.025.025,36.67,36.67,0,0,1,2.36,4.557l19.532,42.915C245.016,272,280.1,351.956,282.84,356.252a40.334,40.334,0,0,0,15.882,14.579c5.836,2.93,16.875,10.778,23.928,17.123,8.345,7.476,17.994,15.5,21.011,18.863,2,2.222,4.458,6.01,7.388,9.958,2.62,3.539,5.948,7.252,4.371,9.4-3.328,4.532-9.934,1.365-13.162-.957-4.632-3.315-12.269-10.542-16.292-12.79-.584-.323-1.341-.683-2.21-1.068,1.6,6.78,5.513,12.443,7.885,16.714,7.761,14.082,17.049,29.9,26.027,43.276,2.707,4.048,10.629,14.454,7.177,18.9" fill="#fff"/>
    <path id="패스_831" data-name="패스 831" d="M364.845,490.25c-3.452,4.445-9.462-2.744-14.429-9.065s-12.939-18.08-17.844-23.717-10.878-12.989-12.728-10.866,6.32,13.374,8.829,17.025c7.239,10.53,15.547,22.115,20.178,34.086,1.49,3.837,2.956,9.847-.446,12.132s-8.32-3.937-12.033-9.4-11.151-18.477-19.247-29.467c-1.317-1.788-10.083-15.261-12.256-13.647s2.619,10.692,4.073,13.647c4.693,9.549,10.38,21.135,13.609,27.492,1.329,2.633,3.862,10.344.087,11.673s-8.717-5.936-11.114-9.624c-6.283-9.648-12.218-21.283-17.484-31.5-1.651-3.2-4.743-9.822-8.046-11.362-3.775-1.763-2.285,7.947-1.168,12.691s5.154,13.671,5.564,17.67c.285,2.856-.621,7.128-4.409,5.637-3.1-1.229-6.407-9.549-8.369-13.783s-3.949-9.065-5.811-14.094c-2.161-5.811-6.073-15.261-12.567-29.653-4.346-9.648-7.1-27.356-10.418-38.954-1.528-5.352-4.769-12.38-7.811-18.4-.261-.521-.521-1.03-.782-1.539-.4-.77-1.863-3.366-4.2-7.476-.149-.273-.311-.559-.472-.844-.112-.211-.236-.422-.36-.633l-4.62-8.357-7.984-13.66c-.422-.72-.844-1.465-1.279-2.21L135.506,197.084c-.286-.5-.547-1.005-.807-1.514q-.765-1.547-1.379-3.167c-.2-.546-.4-1.1-.571-1.664-.335-.708-.658-1.465-1.006-2.26-.124-.261-.236-.534-.36-.807-6.1-14.367-15.125-41.549-22.724-52.638l-.3-.447a8.323,8.323,0,0,1,.782,2.049c1.776,21.656.4,38.173.4,60.472l-4.68,101.031c-.55,15.6.01,23.295,9.062,44.678H1.334V1.335H33.918V16.484A16.034,16.034,0,0,0,48.335,32.416c8.22.856,16.093,1.924,23.63,3.141q10.878,1.77,20.713,3.912C109.292,41.17,128.5,44,141.466,53.153c12.8,9.015,18.068,25.319,23.656,39.165q9.033,22.462,18.042,44.9c3.005,7.537,7.227,15.782,10.083,24.226a.024.024,0,0,0,.025.025,36.67,36.67,0,0,1,2.36,4.557l19.532,42.915C245.016,272,280.1,351.956,282.84,356.252a40.334,40.334,0,0,0,15.882,14.579c5.836,2.93,16.875,10.778,23.928,17.123,8.345,7.476,17.994,15.5,21.011,18.863,2,2.222,4.458,6.01,7.388,9.958,2.62,3.539,5.948,7.252,4.371,9.4-3.328,4.532-9.934,1.365-13.162-.957-4.632-3.315-12.269-10.542-16.292-12.79-.584-.323-1.341-.683-2.21-1.068,1.6,6.78,5.513,12.443,7.885,16.714,7.761,14.082,17.049,29.9,26.027,43.276C360.375,475.4,368.3,485.8,364.845,490.25Z" fill="none" stroke="#535353" stroke-linecap="round" stroke-linejoin="round" stroke-width="2.669"/>
    <path id="패스_832" data-name="패스 832" d="M241.005,378.766l-4.979-9.015c2.334,4.11,3.8,6.7,4.2,7.475.26.509.521,1.018.782,1.54" fill="#fff"/>
    <path id="패스_833" data-name="패스 833" d="M241.005,378.766l-4.979-9.015c2.334,4.11,3.8,6.7,4.2,7.475C240.483,377.735,240.744,378.244,241.005,378.766Z" fill="none" stroke="#535353" stroke-linecap="round" stroke-linejoin="round" stroke-width="2.669"/>
    <path id="패스_834" data-name="패스 834" d="M134.7,195.57q-.764-1.547-1.378-3.166c-.2-.547-.4-1.106-.572-1.664-.335-.708-.658-1.466-1-2.26-.125-.261-.236-.534-.361-.808a33.255,33.255,0,0,0,1.727,5.092l2.4,4.321c-.286-.5-.546-1.006-.807-1.515" fill="#fff"/>
    <path id="패스_835" data-name="패스 835" d="M134.7,195.57q-.764-1.547-1.378-3.166c-.2-.547-.4-1.106-.572-1.664-.335-.708-.658-1.466-1-2.26-.125-.261-.236-.534-.361-.808a33.255,33.255,0,0,0,1.727,5.092l2.4,4.321C135.22,196.588,134.96,196.079,134.7,195.57Z" fill="none" stroke="#535353" stroke-linecap="round" stroke-linejoin="round" stroke-width="2.669"/>
    <path id="패스_836" data-name="패스 836" d="M230.574,359.916l-7.984-13.659c5.227,9.1,9.536,16.627,12.6,22.016Z" fill="#fff"/>
    <path id="패스_837" data-name="패스 837" d="M230.574,359.916l-7.984-13.659c5.227,9.1,9.536,16.627,12.6,22.016Z" fill="none" stroke="#535353" stroke-linecap="round" stroke-linejoin="round" stroke-width="2.669"/>
    <path id="패스_838" data-name="패스 838" d="M108.4,134.264c2.429-9.687,8.419-19.251,14.826-26.912-6.407,7.661-12.4,17.225-14.826,26.912" fill="#fff"/>
    <path id="패스_839" data-name="패스 839" d="M108.4,134.264c2.429-9.687,8.419-19.251,14.826-26.912C116.819,115.013,110.829,124.577,108.4,134.264Z" fill="none" stroke="#535353" stroke-linecap="round" stroke-linejoin="round" stroke-width="2.669"/>
    <path id="패스_840" data-name="패스 840" d="M291.256,441.151c12.835-2.151,27.781-13.827,27.781-13.827" fill="none" stroke="#535353" stroke-linecap="round" stroke-linejoin="round" stroke-width="2.669"/>
    <path id="패스_841" data-name="패스 841" d="M283.466,403.927c8.863,14.586,31.832,9.421,31.832,9.421" fill="none" stroke="#535353" stroke-linecap="round" stroke-linejoin="round" stroke-width="2.669"/>
    <path id="패스_842" data-name="패스 842" d="M323.757,411.359c-3.326-1.906-12.4-8.088-12.4-8.088" fill="none" stroke="#535353" stroke-linecap="round" stroke-linejoin="round" stroke-width="2.669"/>
    <path id="패스_843" data-name="패스 843" d="M173.488,238.377s23.226,0,36.372-14.461" fill="#fff"/>
    <path id="패스_844" data-name="패스 844" d="M173.488,238.377s23.226,0,36.372-14.461" fill="none" stroke="#535353" stroke-linecap="round" stroke-linejoin="round" stroke-width="2.669"/>
    <path id="패스_845" data-name="패스 845" d="M56.5,192.792c1.753-.438,40.6-4.013,51.632-58.318" fill="#fff"/>
    <path id="패스_846" data-name="패스 846" d="M56.5,192.792c1.753-.438,40.6-4.013,51.632-58.318" fill="none" stroke="#535353" stroke-linecap="round" stroke-linejoin="round" stroke-width="2.669"/>
    <path id="패스_847" data-name="패스 847" d="M45.987,144.149a7.45,7.45,0,1,0,7.45-7.45,7.45,7.45,0,0,0-7.45,7.45" fill="#fff"/>
    <circle id="타원_319" data-name="타원 319" cx="7.45" cy="7.45" r="7.45" transform="translate(43.309 141.245) rotate(-28.997)" fill="none" stroke="#bfbfbf" stroke-linecap="round" stroke-linejoin="round" stroke-width="1.977"/>
    <path id="패스_848" data-name="패스 848" d="M49.5,144.149a3.938,3.938,0,1,0,3.938-3.938,3.938,3.938,0,0,0-3.938,3.938" fill="#fff"/>
    <path id="패스_849" data-name="패스 849" d="M49.5,144.149a3.938,3.938,0,1,0,3.938-3.938A3.938,3.938,0,0,0,49.5,144.149Z" fill="none" stroke="#bfbfbf" stroke-linecap="round" stroke-linejoin="round" stroke-width="1.977"/>
    <path id="패스_850" data-name="패스 850" d="M33.695,33.946l-.657,16.433L52.1,53.666,62.618,64.183,90.226,53.666,92.2,77.987l36.81-15.118-.657,18.405s42.069,64.419,39.44,157.76l34.181,57.188,48.643,84.8s6.573,50.615,19.063,69.02L284.8,486.191" fill="none" stroke="#dd3a3a" stroke-linecap="round" stroke-linejoin="round" stroke-width="1.483"/>
    <path id="패스_851" data-name="패스 851" d="M34.739,50.379A1.482,1.482,0,1,1,33.256,48.9a1.483,1.483,0,0,1,1.483,1.483" fill="#dd3a3a"/>
    <path id="패스_852" data-name="패스 852" d="M53.391,53.337a1.483,1.483,0,1,1-1.483-1.483,1.483,1.483,0,0,1,1.483,1.483" fill="#dd3a3a"/>
    <path id="패스_853" data-name="패스 853" d="M63.854,64.1a1.483,1.483,0,1,1-1.484-1.483A1.484,1.484,0,0,1,63.854,64.1" fill="#dd3a3a"/>
    <path id="패스_854" data-name="패스 854" d="M91.692,53.748a1.483,1.483,0,1,1-1.483-1.483,1.483,1.483,0,0,1,1.483,1.483" fill="#dd3a3a"/>
    <path id="패스_855" data-name="패스 855" d="M93.844,77.741a1.483,1.483,0,1,1-1.483-1.483,1.483,1.483,0,0,1,1.483,1.483" fill="#dd3a3a"/>
    <path id="패스_856" data-name="패스 856" d="M130.491,63.06a1.482,1.482,0,1,1-1.483-1.483,1.483,1.483,0,0,1,1.483,1.483" fill="#dd3a3a"/>
    <path id="패스_857" data-name="패스 857" d="M129.861,81.082a1.482,1.482,0,1,1-1.483-1.483,1.483,1.483,0,0,1,1.483,1.483" fill="#dd3a3a"/>
    <path id="패스_858" data-name="패스 858" d="M169.465,239.144a1.482,1.482,0,1,1-1.483-1.483,1.483,1.483,0,0,1,1.483,1.483" fill="#dd3a3a"/>
    <path id="패스_859" data-name="패스 859" d="M211.839,310.683a1.483,1.483,0,1,1-1.483-1.483,1.483,1.483,0,0,1,1.483,1.483" fill="#dd3a3a"/>
    <path id="패스_860" data-name="패스 860" d="M252.073,380.913a1.482,1.482,0,1,1-1.483-1.483,1.483,1.483,0,0,1,1.483,1.483" fill="#dd3a3a"/>
    <path id="패스_861" data-name="패스 861" d="M253.741,391.535a1.482,1.482,0,1,1-1.483-1.483,1.483,1.483,0,0,1,1.483,1.483" fill="#dd3a3a"/>
    <path id="패스_862" data-name="패스 862" d="M256.538,404.682a1.482,1.482,0,1,1-1.483-1.483,1.483,1.483,0,0,1,1.483,1.483" fill="#dd3a3a"/>
    <path id="패스_863" data-name="패스 863" d="M270.664,448.723a1.483,1.483,0,1,1-1.483-1.483,1.483,1.483,0,0,1,1.483,1.483" fill="#dd3a3a"/>
    <path id="패스_864" data-name="패스 864" d="M286.357,486.192a1.482,1.482,0,1,1-1.483-1.483,1.483,1.483,0,0,1,1.483,1.483" fill="#dd3a3a"/>
    <path id="패스_865" data-name="패스 865" d="M265.463,438.316a1.483,1.483,0,1,1-1.483-1.483,1.483,1.483,0,0,1,1.483,1.483" fill="#dd3a3a"/>
  </g>
</svg>
