<svg id="Stomach_Meridian_ST-2" data-name="Stomach Meridian, ST-2" xmlns="http://www.w3.org/2000/svg" xmlns:xlink="http://www.w3.org/1999/xlink" width="165.578" height="264.7" viewBox="0 0 165.578 264.7">
  <defs>
    <clipPath id="clip-path">
      <rect id="사각형_2241" data-name="사각형 2241" width="165.578" height="264.7" fill="none"/>
    </clipPath>
  </defs>
  <g id="그룹_829" data-name="그룹 829" clip-path="url(#clip-path)">
    <path id="패스_727" data-name="패스 727" d="M2.83,94.162c4.36,26.412,22.052,54.564,42.6,71.69a23.88,23.88,0,0,1,8.649,20.738L47.4,252.052l44.143,4.5c.006,0,1.914-18.762,2.028-19.884q1.467-14.375,2.933-28.749.648-6.348,1.295-12.695c.477-4.679.88-8.449,1.81-13.706,8.827,1.679,17.922,2.7,26.785,1.22s17.542-5.7,22.926-12.893c5.829-7.789,7.171-17.948,8.252-27.617.282-2.523.022-6.385,1.115-8.71,1.212-2.58,5.163-2.762,5.512-6.123a4.737,4.737,0,0,0-1.189-3.592c-3.9-4.414-5.033-10.014-5.532-15.584-2.014-22.515,4.579-45.5-3.939-67.333C141.887,11.01,106.534.018,76.952,1.477a109.439,109.439,0,0,0-24.58,3.99C36.18,10.08,20.588,19.033,11.641,33.719,5.684,43.5,2.616,55.486,1.673,67.577A111.888,111.888,0,0,0,2.83,94.162" fill="#fff"/>
    <path id="패스_728" data-name="패스 728" d="M2.83,94.162c4.36,26.412,22.052,54.564,42.6,71.69a23.88,23.88,0,0,1,8.649,20.738L47.4,252.052l44.143,4.5c.006,0,1.914-18.762,2.028-19.884q1.467-14.375,2.933-28.749.648-6.348,1.295-12.695c.477-4.679.88-8.449,1.81-13.706,8.827,1.679,17.922,2.7,26.785,1.22s17.542-5.7,22.926-12.893c5.829-7.789,7.171-17.948,8.252-27.617.282-2.523.022-6.385,1.115-8.71,1.212-2.58,5.163-2.762,5.512-6.123a4.737,4.737,0,0,0-1.189-3.592c-3.9-4.414-5.033-10.014-5.532-15.584-2.014-22.515,4.579-45.5-3.939-67.333C141.887,11.01,106.534.018,76.952,1.477a109.439,109.439,0,0,0-24.58,3.99C36.18,10.08,20.588,19.033,11.641,33.719,5.684,43.5,2.616,55.486,1.673,67.577A111.888,111.888,0,0,0,2.83,94.162Z" fill="none" stroke="#535353" stroke-linecap="round" stroke-linejoin="round" stroke-width="2.7"/>
    <path id="패스_729" data-name="패스 729" d="M146.408,82.094a25.7,25.7,0,0,0-16.522,2.746" fill="#fff"/>
    <path id="패스_730" data-name="패스 730" d="M146.408,82.094a25.7,25.7,0,0,0-16.522,2.746" fill="none" stroke="#535353" stroke-linecap="round" stroke-linejoin="round" stroke-width="2.7"/>
    <path id="패스_731" data-name="패스 731" d="M129.886,104.608a25.7,25.7,0,0,0,16.522-2.746" fill="#fff"/>
    <path id="패스_732" data-name="패스 732" d="M129.886,104.608a25.7,25.7,0,0,0,16.522-2.746" fill="none" stroke="#535353" stroke-linecap="round" stroke-linejoin="round" stroke-width="2.7"/>
    <path id="패스_733" data-name="패스 733" d="M156.215,147.414a15.655,15.655,0,0,1-8.3-.5,46.694,46.694,0,0,1-7.668-3.437" fill="#fff"/>
    <path id="패스_734" data-name="패스 734" d="M156.215,147.414a15.655,15.655,0,0,1-8.3-.5,46.694,46.694,0,0,1-7.668-3.437" fill="none" stroke="#535353" stroke-linecap="round" stroke-linejoin="round" stroke-width="2.7"/>
    <path id="패스_735" data-name="패스 735" d="M89.656,131.868c4.742,6.683-7.756,14.115-12.494,7.437-7.074-9.97-10.768-22.343-6.112-33.726,2.926-7.155,17.141-14.743,21.67,3.109" fill="#fff"/>
    <path id="패스_736" data-name="패스 736" d="M89.656,131.868c4.742,6.683-7.756,14.115-12.494,7.437-7.074-9.97-10.768-22.343-6.112-33.726,2.926-7.155,17.141-14.743,21.67,3.109" fill="none" stroke="#535353" stroke-linecap="round" stroke-linejoin="round" stroke-width="2.7"/>
    <path id="패스_737" data-name="패스 737" d="M13.892,263.35h132.94c-2.209-2.789-4.418-5.616-6.533-8.574-12.825-17.823-27.521-35.159-47.216-45.755-12.749-6.871-27.782-8.406-41.355-3.389-24.544,9.061-36.619,32.594-37.836,57.718" fill="#fff"/>
    <path id="패스_738" data-name="패스 738" d="M13.892,263.35h132.94c-2.209-2.789-4.418-5.616-6.533-8.574-12.825-17.823-27.521-35.159-47.216-45.755-12.749-6.871-27.782-8.406-41.355-3.389C27.184,214.693,15.109,238.226,13.892,263.35Z" fill="none" stroke="#535353" stroke-linecap="round" stroke-linejoin="round" stroke-width="2.7"/>
    <path id="패스_739" data-name="패스 739" d="M89.257,113.04S84.528,95.477,76.4,105.957c0,0-6.783,11.828.205,22.609a9.12,9.12,0,0,0,5.251,3.958c2.544.668,4.012.886,4.469-5.052,0,0-4.663-6.439-4.663-8.97,0,0-.932-5.862,4.53-3.863,0,0,3.33,1.865,3.863,5.195" fill="#fff"/>
    <path id="패스_740" data-name="패스 740" d="M89.257,113.04S84.528,95.477,76.4,105.957c0,0-6.783,11.828.205,22.609a9.12,9.12,0,0,0,5.251,3.958c2.544.668,4.012.886,4.469-5.052,0,0-4.663-6.439-4.663-8.97,0,0-.932-5.862,4.53-3.863,0,0,3.33,1.865,3.863,5.195" fill="none" stroke="#535353" stroke-linecap="round" stroke-linejoin="round" stroke-width="2.7"/>
    <path id="패스_741" data-name="패스 741" d="M121.08,173.727l-14.632-10.641.665-43.231L95.807,52.682" fill="none" stroke="#dd3a3a" stroke-linecap="round" stroke-linejoin="round" stroke-width="1.5"/>
    <path id="패스_742" data-name="패스 742" d="M138.372,111.874v32.589L122.41,174.392l-38.575,6.651v40.57H69.2v25.938" fill="none" stroke="#dd3a3a" stroke-linecap="round" stroke-linejoin="round" stroke-width="1.5"/>
    <path id="패스_743" data-name="패스 743" d="M97.751,53.074a1.5,1.5,0,1,1-1.5-1.5,1.5,1.5,0,0,1,1.5,1.5" fill="#dd3a3a"/>
    <path id="패스_744" data-name="패스 744" d="M108.392,120.025a1.5,1.5,0,1,1-1.5-1.5,1.5,1.5,0,0,1,1.5,1.5" fill="#dd3a3a"/>
    <path id="패스_745" data-name="패스 745" d="M108.143,163.006a1.5,1.5,0,1,1-1.5-1.5,1.5,1.5,0,0,1,1.5,1.5" fill="#dd3a3a"/>
    <path id="패스_746" data-name="패스 746" d="M123.938,174.309a1.5,1.5,0,1,1-1.5-1.5,1.5,1.5,0,0,1,1.5,1.5" fill="#dd3a3a"/>
    <path id="패스_747" data-name="패스 747" d="M85.53,180.877a1.5,1.5,0,1,1-1.5-1.5,1.5,1.5,0,0,1,1.5,1.5" fill="#dd3a3a"/>
    <path id="패스_748" data-name="패스 748" d="M85.53,188.744a1.5,1.5,0,1,1-1.5-1.5,1.5,1.5,0,0,1,1.5,1.5" fill="#dd3a3a"/>
    <path id="패스_749" data-name="패스 749" d="M85.53,221.6a1.5,1.5,0,1,1-1.5-1.5,1.5,1.5,0,0,1,1.5,1.5" fill="#dd3a3a"/>
    <path id="패스_750" data-name="패스 750" d="M70.87,221.6a1.5,1.5,0,1,1-1.5-1.5,1.5,1.5,0,0,1,1.5,1.5" fill="#dd3a3a"/>
    <path id="패스_751" data-name="패스 751" d="M139.872,112.207a1.5,1.5,0,1,1-1.5-1.5,1.5,1.5,0,0,1,1.5,1.5" fill="#dd3a3a"/>
    <path id="패스_752" data-name="패스 752" d="M139.872,120.3a1.5,1.5,0,1,1-1.5-1.5,1.5,1.5,0,0,1,1.5,1.5" fill="#dd3a3a"/>
    <path id="패스_753" data-name="패스 753" d="M139.872,142.912a1.5,1.5,0,1,1-1.5-1.5,1.5,1.5,0,0,1,1.5,1.5" fill="#dd3a3a"/>
    <path id="패스_754" data-name="패스 754" d="M139.872,133.6a1.5,1.5,0,1,1-1.5-1.5,1.5,1.5,0,0,1,1.5,1.5" fill="#dd3a3a"/>
  </g>
</svg>
