<svg id="Stomach_Meridian_ST-1" data-name="Stomach Meridian, ST-1" xmlns="http://www.w3.org/2000/svg" xmlns:xlink="http://www.w3.org/1999/xlink" width="272.397" height="511.273" viewBox="0 0 272.397 511.273">
  <defs>
    <clipPath id="clip-path">
      <rect id="사각형_2240" data-name="사각형 2240" width="272.397" height="511.273" fill="none"/>
    </clipPath>
  </defs>
  <g id="그룹_828" data-name="그룹 828" clip-path="url(#clip-path)">
    <path id="패스_634" data-name="패스 634" d="M270.648,260.9c-1.5.761-3.447-1.314-5.635-3.132s-3.1-2.927-5.43-4.675c-2.587-1.934-7.823-5.4-8.887-4.5-.346.293,2.958,3.211,4.048,4.142,1.922,1.641,5.084,4.613,8.752,7.54s5.713,5.073,4.232,6.2-4.953-1.342-7.93-3.48-13.119-11.3-15.017-9.821,4.133,9.158,6.578,11.9,3.463,4.141,2.1,5.142-5.971-3.594-7.433-5.208c-4.836-5.339-9.741-12.034-15.331-16.6,0,0-.7,4.9-1.281,7.081s-2.5,5.626-4.328,4.375c-1.648-1.135-.884-3.732-.661-5.353a24.979,24.979,0,0,0-.748-9.414,40.339,40.339,0,0,1-1.51-7.073c-.281-4.078,1.094-6.6-.109-10.619-.044-.124-.132-.354-.265-.674-.018-.035-.036-.07-.053-.106l-3.541-6.393-33.527-58.856a12.22,12.22,0,0,1-1-2.305c-.159-.346-.318-.718-.5-1.117-2.212-5.222-5.485-15.1-8.248-19.133l-.106-.159a4.217,4.217,0,0,1,.283.744c1.232,8.067.348,14.552-.192,22.2l-2.1,35.216c2.062,4.664,2.747,13.22,6.551,24.222.832,2.429,1.6,4.964,2.264,7.615.115.4.239.815.345,1.259,3.784,14.157,6.35,47.068,4.132,63.7l.372.452-5.2,50.783s5.389,39.87-4.9,85.979c-.836,3.748-1.574,7.116-2.214,10.147-1.921,9-3.024,14.994-3.62,18.938,1.869,15.84,14.058,38.653,14.058,38.653-.586,15.369-20.535,12.475-29.085,7.187s-2.264-20.175-2.264-20.175c-7.407-4.33-5.692-11.534-1.7-24.02,1.527-4.759,2.056-12.646,2.132-20.6.124-12.922-.958-26-.958-26l.284-.133-3.659-70L142.8,294.037h-.425l-5.505-39.224-5.547,39.216L124.7,344.811l-3.752,70,.293.133s-1.108,13.072-1,25.995c.065,7.951.592,15.839,2.1,20.6,3.981,12.491,5.686,19.7-1.726,24.018,0,0,6.265,14.894-2.291,20.171s-28.51,8.144-29.076-7.225c0,0,12.22-22.8,14.118-38.634-.591-3.945-1.695-9.937-3.6-18.944-.636-3.031-1.361-6.4-2.2-10.149-10.224-46.123-4.791-85.986-4.791-85.986L87.644,294c-2.3-16.487.326-49.864,4.164-64.149.107-.443.231-.86.347-1.258.666-2.65,1.439-5.184,2.274-7.612,3.809-11,4.506-19.547,6.583-24.207l-2.05-35.229c-.339-8.082.447-14.369-.252-21.953-2.856,4.262-6.062,14.071-7.687,18.005a11.836,11.836,0,0,1-.693,2.145L63.745,206.983c-6.9,12.874-12.991,22.974-13.364,24.214-1.208,4.006.164,6.542-.123,10.618a40.4,40.4,0,0,1-1.52,7.072,24.983,24.983,0,0,0-.76,9.413c.221,1.622.982,4.219-.668,5.344-1.818,1.248-3.73-2.192-4.322-4.373s-1.272-7.082-1.272-7.082c-5.6,4.552-10.5,11.249-15.353,16.581-1.464,1.613-6.075,6.2-7.44,5.2s-.335-2.411,2.113-5.148,8.489-10.391,6.593-11.881-12.059,7.676-15.038,9.8-6.447,4.6-7.926,3.469.569-3.279,4.241-6.193,6.837-5.9,8.753-7.528c1.1-.93,4.4-3.844,4.053-4.145-1.063-.9-6.3,2.557-8.893,4.5-2.323,1.736-3.246,2.843-5.436,4.659s-4.142,3.9-5.631,3.134.845-3.43,3.222-6.14a33.8,33.8,0,0,1,8.017-7.2c1.224-.814,5.6-3.515,5.223-4.4s-2.135-.277-2.659-.073a38.87,38.87,0,0,0-8.05,4.533c-2.173,1.461-3.449,1.424-3.741.157s2.937-4.067,6.377-6.254,5.826-3.594,8.894-5.808c3.99-2.878,10.783-8.1,14.233-11.619a50.876,50.876,0,0,0,3.186-6.22h-.009l.586-1.32L67.62,150.013A11.412,11.412,0,0,1,68.729,148c.925-3.562,2.806-6.831,4.208-10.305q2.9-7.23,5.824-14.461c2.024-5.033,3.952-10.952,8.6-14.228,4.558-3.215,11.25-4.274,17.154-4.9h.026q3.7-.809,7.792-1.475,4.387-.716,9.219-1.208a5.827,5.827,0,0,0,5.259-5.785l.006-8.517a32.828,32.828,0,0,0,20.988-.376l0,8.978a5.823,5.823,0,0,0,5.234,5.791c2.987.312,5.849.7,8.588,1.149,2.632.428,5.14.908,7.524,1.423,6.035.625,13.019,1.658,17.723,4.984,4.651,3.283,6.561,9.205,8.588,14.24q3.277,8.166,6.548,16.322c1.088,2.739,2.619,5.736,3.654,8.8a.008.008,0,0,0,.009.008,12.723,12.723,0,0,1,.859,1.659L225.4,193.157l10.363,23.627c.08.186.159.373.239.55q.438,1.011.823,1.888a33.826,33.826,0,0,0,2.345,4.841c3.446,3.521,10.232,8.746,14.218,11.629,3.074,2.218,5.449,3.647,8.886,5.829s6.653,4.977,6.369,6.253-1.57,1.3-3.74-.162a39.885,39.885,0,0,0-8.036-4.543c-.523-.2-2.295-.817-2.668.069s4,3.592,5.226,4.417a33.613,33.613,0,0,1,8.008,7.2c2.364,2.713,4.7,5.374,3.213,6.144" fill="#fff"/>
    <path id="패스_635" data-name="패스 635" d="M270.648,260.9c-1.5.761-3.447-1.314-5.635-3.132s-3.1-2.927-5.43-4.675c-2.587-1.934-7.823-5.4-8.887-4.5-.346.293,2.958,3.211,4.048,4.142,1.922,1.641,5.084,4.613,8.752,7.54s5.713,5.073,4.232,6.2-4.953-1.342-7.93-3.48-13.119-11.3-15.017-9.821,4.133,9.158,6.578,11.9,3.463,4.141,2.1,5.142-5.971-3.594-7.433-5.208c-4.836-5.339-9.741-12.034-15.331-16.6,0,0-.7,4.9-1.281,7.081s-2.5,5.626-4.328,4.375c-1.648-1.135-.884-3.732-.661-5.353a24.979,24.979,0,0,0-.748-9.414,40.339,40.339,0,0,1-1.51-7.073c-.281-4.078,1.094-6.6-.109-10.619-.044-.124-.132-.354-.265-.674-.018-.035-.036-.07-.053-.106l-3.541-6.393-33.527-58.856a12.22,12.22,0,0,1-1-2.305c-.159-.346-.318-.718-.5-1.117-2.212-5.222-5.485-15.1-8.248-19.133l-.106-.159a4.217,4.217,0,0,1,.283.744c1.232,8.067.348,14.552-.192,22.2l-2.1,35.216c2.062,4.664,2.747,13.22,6.551,24.222.832,2.429,1.6,4.964,2.264,7.615.115.4.239.815.345,1.259,3.784,14.157,6.35,47.068,4.132,63.7l.372.452-5.2,50.783s5.389,39.87-4.9,85.979c-.836,3.748-1.574,7.116-2.214,10.147-1.921,9-3.024,14.994-3.62,18.938,1.869,15.84,14.058,38.653,14.058,38.653-.586,15.369-20.535,12.475-29.085,7.187s-2.264-20.175-2.264-20.175c-7.407-4.33-5.692-11.534-1.7-24.02,1.527-4.759,2.056-12.646,2.132-20.6.124-12.922-.958-26-.958-26l.284-.133-3.659-70L142.8,294.037h-.425l-5.505-39.224-5.547,39.216L124.7,344.811l-3.752,70,.293.133s-1.108,13.072-1,25.995c.065,7.951.592,15.839,2.1,20.6,3.981,12.491,5.686,19.7-1.726,24.018,0,0,6.265,14.894-2.291,20.171s-28.51,8.144-29.076-7.225c0,0,12.22-22.8,14.118-38.634-.591-3.945-1.695-9.937-3.6-18.944-.636-3.031-1.361-6.4-2.2-10.149-10.224-46.123-4.791-85.986-4.791-85.986L87.644,294c-2.3-16.487.326-49.864,4.164-64.149.107-.443.231-.86.347-1.258.666-2.65,1.439-5.184,2.274-7.612,3.809-11,4.506-19.547,6.583-24.207l-2.05-35.229c-.339-8.082.447-14.369-.252-21.953-2.856,4.262-6.062,14.071-7.687,18.005a11.836,11.836,0,0,1-.693,2.145L63.745,206.983c-6.9,12.874-12.991,22.974-13.364,24.214-1.208,4.006.164,6.542-.123,10.618a40.4,40.4,0,0,1-1.52,7.072,24.983,24.983,0,0,0-.76,9.413c.221,1.622.982,4.219-.668,5.344-1.818,1.248-3.73-2.192-4.322-4.373s-1.272-7.082-1.272-7.082c-5.6,4.552-10.5,11.249-15.353,16.581-1.464,1.613-6.075,6.2-7.44,5.2s-.335-2.411,2.113-5.148,8.489-10.391,6.593-11.881-12.059,7.676-15.038,9.8-6.447,4.6-7.926,3.469.569-3.279,4.241-6.193,6.837-5.9,8.753-7.528c1.1-.93,4.4-3.844,4.053-4.145-1.063-.9-6.3,2.557-8.893,4.5-2.323,1.736-3.246,2.843-5.436,4.659s-4.142,3.9-5.631,3.134.845-3.43,3.222-6.14a33.8,33.8,0,0,1,8.017-7.2c1.224-.814,5.6-3.515,5.223-4.4s-2.135-.277-2.659-.073a38.87,38.87,0,0,0-8.05,4.533c-2.173,1.461-3.449,1.424-3.741.157s2.937-4.067,6.377-6.254,5.826-3.594,8.894-5.808c3.99-2.878,10.783-8.1,14.233-11.619a50.876,50.876,0,0,0,3.186-6.22h-.009l.586-1.32L67.62,150.013A11.412,11.412,0,0,1,68.729,148c.925-3.562,2.806-6.831,4.208-10.305q2.9-7.23,5.824-14.461c2.024-5.033,3.952-10.952,8.6-14.228,4.558-3.215,11.25-4.274,17.154-4.9h.026q3.7-.809,7.792-1.475,4.387-.716,9.219-1.208a5.827,5.827,0,0,0,5.259-5.785l.006-8.517a32.828,32.828,0,0,0,20.988-.376l0,8.978a5.823,5.823,0,0,0,5.234,5.791c2.987.312,5.849.7,8.588,1.149,2.632.428,5.14.908,7.524,1.423,6.035.625,13.019,1.658,17.723,4.984,4.651,3.283,6.561,9.205,8.588,14.24q3.277,8.166,6.548,16.322c1.088,2.739,2.619,5.736,3.654,8.8a.008.008,0,0,0,.009.008,12.723,12.723,0,0,1,.859,1.659L225.4,193.157l10.363,23.627c.08.186.159.373.239.55q.438,1.011.823,1.888a33.826,33.826,0,0,0,2.345,4.841c3.446,3.521,10.232,8.746,14.218,11.629,3.074,2.218,5.449,3.647,8.886,5.829s6.653,4.977,6.369,6.253-1.57,1.3-3.74-.162a39.885,39.885,0,0,0-8.036-4.543c-.523-.2-2.295-.817-2.668.069s4,3.592,5.226,4.417a33.613,33.613,0,0,1,8.008,7.2C269.8,257.471,272.138,260.132,270.648,260.9Z" fill="none" stroke="#535353" stroke-linecap="round" stroke-linejoin="round" stroke-width="2.563"/>
    <path id="패스_636" data-name="패스 636" d="M152.433,37.046c-1.285.221-2.6.406-3.909.565l-.033,49.332a32.838,32.838,0,0,1-20.988.377l.033-49.7c-1.533-.188-3.058-.41-4.555-.677a238.047,238.047,0,0,0,19.73-14.08c3.418,4.691,7.04,9.134,9.722,14.188" fill="#fff"/>
    <path id="패스_637" data-name="패스 637" d="M152.433,37.046c-1.285.221-2.6.406-3.909.565l-.033,49.332a32.838,32.838,0,0,1-20.988.377l.033-49.7c-1.533-.188-3.058-.41-4.555-.677a238.047,238.047,0,0,0,19.73-14.08C146.129,27.549,149.751,31.992,152.433,37.046Z" fill="none" stroke="#535353" stroke-linecap="round" stroke-linejoin="round" stroke-width="2.563"/>
    <path id="패스_638" data-name="패스 638" d="M170.364,104.391h0l.024.005-.024-.005" fill="#ffe4dd"/>
    <path id="패스_639" data-name="패스 639" d="M170.364,104.391h0l.024.005Z" fill="none" stroke="#535353" stroke-linecap="round" stroke-linejoin="round" stroke-width="2.563"/>
    <path id="패스_640" data-name="패스 640" d="M170.692,47.456l-66.31-.044a8.135,8.135,0,0,0-8.069,6.5,8.029,8.029,0,0,0,7.863,9.514l66.31.043a8.135,8.135,0,0,0,8.07-6.5,8.03,8.03,0,0,0-7.864-9.514" fill="#fff"/>
    <path id="패스_641" data-name="패스 641" d="M170.692,47.456l-66.31-.044a8.135,8.135,0,0,0-8.069,6.5,8.029,8.029,0,0,0,7.863,9.514l66.31.043a8.135,8.135,0,0,0,8.07-6.5A8.03,8.03,0,0,0,170.692,47.456Z" fill="none" stroke="#535353" stroke-linecap="round" stroke-linejoin="round" stroke-width="2.563"/>
    <path id="패스_642" data-name="패스 642" d="M170.507,34.363l-.014,21.458a32.532,32.532,0,0,1-.909,7.648A33.224,33.224,0,0,1,156.657,82.65a32.861,32.861,0,0,1-19.246,6.209,32.885,32.885,0,0,1-19.229-6.235,33.367,33.367,0,0,1-10.654-12.779v-.009a32.945,32.945,0,0,1-2.874-9.733,33.275,33.275,0,0,1-.281-4.326l.014-21.458A33.157,33.157,0,0,1,137.469,1.281a31.878,31.878,0,0,1,4.821.367l.39.053c.213.027.417.063.621.107.133.018.266.045.4.071.656.125,1.3.276,1.941.436a33.172,33.172,0,0,1,15.177,8.7,31.9,31.9,0,0,1,2.8,3.192c.009.009.009.009.009.018a32.8,32.8,0,0,1,6.882,20.142" fill="#fff"/>
    <path id="패스_643" data-name="패스 643" d="M170.507,34.363l-.014,21.458a32.532,32.532,0,0,1-.909,7.648A33.224,33.224,0,0,1,156.657,82.65a32.861,32.861,0,0,1-19.246,6.209,32.885,32.885,0,0,1-19.229-6.235,33.367,33.367,0,0,1-10.654-12.779v-.009a32.945,32.945,0,0,1-2.874-9.733,33.275,33.275,0,0,1-.281-4.326l.014-21.458A33.157,33.157,0,0,1,137.469,1.281a31.878,31.878,0,0,1,4.821.367l.39.053c.213.027.417.063.621.107.133.018.266.045.4.071.656.125,1.3.276,1.941.436a33.172,33.172,0,0,1,15.177,8.7,31.9,31.9,0,0,1,2.8,3.192c.009.009.009.009.009.018A32.8,32.8,0,0,1,170.507,34.363Z" fill="none" stroke="#535353" stroke-linecap="round" stroke-linejoin="round" stroke-width="2.563"/>
    <line id="선_154" data-name="선 154" x1="0.001" y2="1.657" transform="translate(137.427 63.416)" fill="none" stroke="#535353" stroke-linecap="round" stroke-linejoin="round" stroke-width="2.563"/>
    <path id="패스_644" data-name="패스 644" d="M119.707,43.609a10.908,10.908,0,0,1,5.216-1.2,9.708,9.708,0,0,1,4.158,1.1" fill="none" stroke="#535353" stroke-linecap="round" stroke-linejoin="round" stroke-width="2.563"/>
    <path id="패스_645" data-name="패스 645" d="M145.84,43.639a9.731,9.731,0,0,1,5.017-1.205,11.411,11.411,0,0,1,4.406,1.081" fill="none" stroke="#535353" stroke-linecap="round" stroke-linejoin="round" stroke-width="2.563"/>
    <path id="패스_646" data-name="패스 646" d="M155.256,53.493a10.908,10.908,0,0,1-5.216,1.2,9.708,9.708,0,0,1-4.158-1.1" fill="none" stroke="#535353" stroke-linecap="round" stroke-linejoin="round" stroke-width="2.563"/>
    <path id="패스_647" data-name="패스 647" d="M129.124,53.462a9.731,9.731,0,0,1-5.017,1.2,11.411,11.411,0,0,1-4.406-1.081" fill="none" stroke="#535353" stroke-linecap="round" stroke-linejoin="round" stroke-width="2.563"/>
    <path id="패스_648" data-name="패스 648" d="M129.507,71.26a13.1,13.1,0,0,0,15.832.01" fill="none" stroke="#535353" stroke-linecap="round" stroke-linejoin="round" stroke-width="2.563"/>
    <path id="패스_649" data-name="패스 649" d="M98.665,139.2c-.88-3.521-3.269-6.44-5.6-9.225,2.326,2.785,4.715,5.7,5.6,9.225" fill="#ffe4dd"/>
    <path id="패스_650" data-name="패스 650" d="M98.665,139.2c-.88-3.521-3.269-6.44-5.6-9.225C95.4,132.764,97.785,135.683,98.665,139.2Z" fill="none" stroke="#535353" stroke-linecap="round" stroke-linejoin="round" stroke-width="2.563"/>
    <path id="패스_651" data-name="패스 651" d="M174.773,138.37c.885-3.52,3.278-6.435,5.607-9.218-2.329,2.783-4.722,5.7-5.607,9.218" fill="#ffe4dd"/>
    <path id="패스_652" data-name="패스 652" d="M174.773,138.37c.885-3.52,3.278-6.435,5.607-9.218C178.051,131.935,175.658,134.85,174.773,138.37Z" fill="none" stroke="#535353" stroke-linecap="round" stroke-linejoin="round" stroke-width="2.563"/>
    <path id="패스_653" data-name="패스 653" d="M104.124,233.24s24.228,18.389,32.746,21.574" fill="#ffe4dd"/>
    <path id="패스_654" data-name="패스 654" d="M104.124,233.24s24.228,18.389,32.746,21.574" fill="none" stroke="#535353" stroke-linecap="round" stroke-linejoin="round" stroke-width="2.563"/>
    <path id="패스_655" data-name="패스 655" d="M169.6,233.248s-24.228,18.389-32.746,21.574" fill="#ffe4dd"/>
    <path id="패스_656" data-name="패스 656" d="M169.6,233.248s-24.228,18.389-32.746,21.574" fill="none" stroke="#535353" stroke-linecap="round" stroke-linejoin="round" stroke-width="2.563"/>
    <path id="패스_657" data-name="패스 657" d="M158.817,142.264a2.6,2.6,0,1,0,2.6-2.6,2.6,2.6,0,0,0-2.6,2.6" fill="#fff"/>
    <path id="패스_658" data-name="패스 658" d="M158.817,142.264a2.6,2.6,0,1,0,2.6-2.6A2.6,2.6,0,0,0,158.817,142.264Z" fill="none" stroke="#bfbfbf" stroke-linecap="round" stroke-linejoin="round" stroke-width="2.563"/>
    <path id="패스_659" data-name="패스 659" d="M160.043,142.264a1.375,1.375,0,1,0,1.375-1.375,1.376,1.376,0,0,0-1.375,1.375" fill="#fff"/>
    <circle id="타원_314" data-name="타원 314" cx="1.375" cy="1.375" r="1.375" transform="translate(160.043 140.889)" fill="none" stroke="#bfbfbf" stroke-linecap="round" stroke-linejoin="round" stroke-width="2.563"/>
    <path id="패스_660" data-name="패스 660" d="M174.664,138.913s-4.489,13.712-9.022,15.805" fill="#fff"/>
    <path id="패스_661" data-name="패스 661" d="M174.664,138.913s-4.489,13.712-9.022,15.805" fill="none" stroke="#535353" stroke-linecap="round" stroke-linejoin="round" stroke-width="2.563"/>
    <path id="패스_662" data-name="패스 662" d="M114.57,142.264a2.6,2.6,0,1,1-2.6-2.6,2.6,2.6,0,0,1,2.6,2.6" fill="#fff"/>
    <path id="패스_663" data-name="패스 663" d="M114.57,142.264a2.6,2.6,0,1,1-2.6-2.6A2.6,2.6,0,0,1,114.57,142.264Z" fill="none" stroke="#bfbfbf" stroke-linecap="round" stroke-linejoin="round" stroke-width="2.563"/>
    <path id="패스_664" data-name="패스 664" d="M113.343,142.264a1.375,1.375,0,1,1-1.375-1.375,1.376,1.376,0,0,1,1.375,1.375" fill="#fff"/>
    <circle id="타원_315" data-name="타원 315" cx="1.375" cy="1.375" r="1.375" transform="translate(110.593 140.889)" fill="none" stroke="#bfbfbf" stroke-linecap="round" stroke-linejoin="round" stroke-width="2.563"/>
    <path id="패스_665" data-name="패스 665" d="M98.722,138.913s4.489,13.712,9.022,15.805" fill="#fff"/>
    <path id="패스_666" data-name="패스 666" d="M98.722,138.913s4.489,13.712,9.022,15.805" fill="none" stroke="#535353" stroke-linecap="round" stroke-linejoin="round" stroke-width="2.563"/>
    <path id="패스_667" data-name="패스 667" d="M137.718,196.43s-3.787,8.837-.842,14.308c0,0,2.788,2.472-.368-8.68" fill="#fff"/>
    <path id="패스_668" data-name="패스 668" d="M137.718,196.43s-3.787,8.837-.842,14.308c0,0,2.788,2.472-.368-8.68" fill="none" stroke="#535353" stroke-linecap="round" stroke-linejoin="round" stroke-width="2.563"/>
    <path id="패스_669" data-name="패스 669" d="M113.363,494.84s-1.683,4.419-3.261,5.681c0,0-6.313,5.155,2.525,7.68" fill="#fff"/>
    <path id="패스_670" data-name="패스 670" d="M113.363,494.84s-1.683,4.419-3.261,5.681c0,0-6.313,5.155,2.525,7.68" fill="none" stroke="#535353" stroke-linecap="round" stroke-linejoin="round" stroke-width="2.563"/>
    <path id="패스_671" data-name="패스 671" d="M106.84,496.418s-2.1,5.681-4.629,6.943c0,0-4.839,2.736.421,6.523" fill="#fff"/>
    <path id="패스_672" data-name="패스 672" d="M106.84,496.418s-2.1,5.681-4.629,6.943c0,0-4.839,2.736.421,6.523" fill="none" stroke="#535353" stroke-linecap="round" stroke-linejoin="round" stroke-width="2.563"/>
    <path id="패스_673" data-name="패스 673" d="M100.107,495.576s-1.578,6.417-3.787,6.838c0,0-5.471,1.368-.211,6.523" fill="#fff"/>
    <path id="패스_674" data-name="패스 674" d="M100.107,495.576s-1.578,6.417-3.787,6.838c0,0-5.471,1.368-.211,6.523" fill="none" stroke="#535353" stroke-linecap="round" stroke-linejoin="round" stroke-width="2.563"/>
    <path id="패스_675" data-name="패스 675" d="M94.847,494.419s.316,3.156-2.1,4.208c0,0-4-.526-2.735,3.472" fill="#fff"/>
    <path id="패스_676" data-name="패스 676" d="M94.847,494.419s.316,3.156-2.1,4.208c0,0-4-.526-2.735,3.472" fill="none" stroke="#535353" stroke-linecap="round" stroke-linejoin="round" stroke-width="2.563"/>
    <path id="패스_677" data-name="패스 677" d="M160.774,494.84s1.683,4.419,3.261,5.681c0,0,6.313,5.155-2.525,7.68" fill="#fff"/>
    <path id="패스_678" data-name="패스 678" d="M160.774,494.84s1.683,4.419,3.261,5.681c0,0,6.313,5.155-2.525,7.68" fill="none" stroke="#535353" stroke-linecap="round" stroke-linejoin="round" stroke-width="2.563"/>
    <path id="패스_679" data-name="패스 679" d="M167.3,496.418s2.1,5.681,4.629,6.943c0,0,4.839,2.736-.421,6.523" fill="#fff"/>
    <path id="패스_680" data-name="패스 680" d="M167.3,496.418s2.1,5.681,4.629,6.943c0,0,4.839,2.736-.421,6.523" fill="none" stroke="#535353" stroke-linecap="round" stroke-linejoin="round" stroke-width="2.563"/>
    <path id="패스_681" data-name="패스 681" d="M174.029,495.26s1.578,6.417,3.787,6.838c0,0,5.471,1.368.211,6.523" fill="#fff"/>
    <path id="패스_682" data-name="패스 682" d="M174.029,495.26s1.578,6.417,3.787,6.838c0,0,5.471,1.368.211,6.523" fill="none" stroke="#535353" stroke-linecap="round" stroke-linejoin="round" stroke-width="2.563"/>
    <path id="패스_683" data-name="패스 683" d="M179.29,494.419s-.317,3.156,2.1,4.208c0,0,4-.526,2.735,3.472" fill="#fff"/>
    <path id="패스_684" data-name="패스 684" d="M179.29,494.419s-.317,3.156,2.1,4.208c0,0,4-.526,2.735,3.472" fill="none" stroke="#535353" stroke-linecap="round" stroke-linejoin="round" stroke-width="2.563"/>
    <path id="패스_685" data-name="패스 685" d="M110,16.164v33.77l-4.734,4.734" fill="none" stroke="#dd3a3a" stroke-linecap="round" stroke-linejoin="round" stroke-width="1.424"/>
    <line id="선_155" data-name="선 155" y2="14.465" transform="translate(123.883 56.931)" fill="none" stroke="#dd3a3a" stroke-linecap="round" stroke-linejoin="round" stroke-width="1.424"/>
    <path id="패스_686" data-name="패스 686" d="M126.724,88.755s4.419,2.525,3.787,20.515l-15.78-1.578V168.92l11.046,11.046v62.175l-18.621,14.834s-15.78,45.448.316,88.055c0,0-3.788,30.615.315,53.97l.947,7.574-11.046-7.89,15.78,58.072-4.1,12.94-.631,17.674L98.319,509.148" fill="none" stroke="#dd3a3a" stroke-linecap="round" stroke-linejoin="round" stroke-width="1.424"/>
    <path id="패스_687" data-name="패스 687" d="M111.478,15.476a1.424,1.424,0,1,1-1.424-1.424,1.424,1.424,0,0,1,1.424,1.424" fill="#dd3a3a"/>
    <path id="패스_688" data-name="패스 688" d="M125.307,57.115a1.424,1.424,0,1,1-1.424-1.424,1.424,1.424,0,0,1,1.424,1.424" fill="#dd3a3a"/>
    <path id="패스_689" data-name="패스 689" d="M125.281,60.625a1.424,1.424,0,1,1-1.424-1.424,1.424,1.424,0,0,1,1.424,1.424" fill="#dd3a3a"/>
    <path id="패스_690" data-name="패스 690" d="M125.307,70.932a1.424,1.424,0,1,1-1.424-1.424,1.424,1.424,0,0,1,1.424,1.424" fill="#dd3a3a"/>
    <path id="패스_691" data-name="패스 691" d="M125.307,67.223a1.424,1.424,0,1,1-1.424-1.424,1.424,1.424,0,0,1,1.424,1.424" fill="#dd3a3a"/>
    <path id="패스_692" data-name="패스 692" d="M131.83,109.381a1.424,1.424,0,1,1-1.424-1.424,1.424,1.424,0,0,1,1.424,1.424" fill="#dd3a3a"/>
    <path id="패스_693" data-name="패스 693" d="M130.561,92.833a1.424,1.424,0,1,1-1.425-1.424,1.425,1.425,0,0,1,1.425,1.424" fill="#dd3a3a"/>
    <path id="패스_694" data-name="패스 694" d="M131.83,100.643a1.424,1.424,0,1,1-1.424-1.424,1.424,1.424,0,0,1,1.424,1.424" fill="#dd3a3a"/>
    <path id="패스_695" data-name="패스 695" d="M116.26,107.8a1.424,1.424,0,1,1-1.424-1.424,1.424,1.424,0,0,1,1.424,1.424" fill="#dd3a3a"/>
    <path id="패스_696" data-name="패스 696" d="M116.26,112.425A1.424,1.424,0,1,1,114.836,111a1.424,1.424,0,0,1,1.424,1.424" fill="#dd3a3a"/>
    <path id="패스_697" data-name="패스 697" d="M116.26,120.792a1.424,1.424,0,1,1-1.424-1.424,1.424,1.424,0,0,1,1.424,1.424" fill="#dd3a3a"/>
    <path id="패스_698" data-name="패스 698" d="M116.47,131.993a1.424,1.424,0,1,1-1.424-1.424,1.424,1.424,0,0,1,1.424,1.424" fill="#dd3a3a"/>
    <path id="패스_699" data-name="패스 699" d="M116.47,142.408a1.424,1.424,0,1,1-1.424-1.424,1.424,1.424,0,0,1,1.424,1.424" fill="#dd3a3a"/>
    <path id="패스_700" data-name="패스 700" d="M116.47,158.5a1.424,1.424,0,1,1-1.424-1.424,1.424,1.424,0,0,1,1.424,1.424" fill="#dd3a3a"/>
    <path id="패스_701" data-name="패스 701" d="M127.156,180.156a1.424,1.424,0,1,1-1.424-1.424,1.424,1.424,0,0,1,1.424,1.424" fill="#dd3a3a"/>
    <path id="패스_702" data-name="패스 702" d="M127.156,187.383a1.424,1.424,0,1,1-1.424-1.424,1.424,1.424,0,0,1,1.424,1.424" fill="#dd3a3a"/>
    <path id="패스_703" data-name="패스 703" d="M127.156,193.467a1.424,1.424,0,1,1-1.424-1.424,1.424,1.424,0,0,1,1.424,1.424" fill="#dd3a3a"/>
    <path id="패스_704" data-name="패스 704" d="M127.156,199.552a1.424,1.424,0,1,1-1.424-1.424,1.424,1.424,0,0,1,1.424,1.424" fill="#dd3a3a"/>
    <path id="패스_705" data-name="패스 705" d="M127.156,205.637a1.424,1.424,0,1,1-1.424-1.424,1.424,1.424,0,0,1,1.424,1.424" fill="#dd3a3a"/>
    <path id="패스_706" data-name="패스 706" d="M127.156,211.721a1.424,1.424,0,1,1-1.424-1.424,1.424,1.424,0,0,1,1.424,1.424" fill="#dd3a3a"/>
    <path id="패스_707" data-name="패스 707" d="M127.156,217.806a1.424,1.424,0,1,1-1.424-1.424,1.424,1.424,0,0,1,1.424,1.424" fill="#dd3a3a"/>
    <path id="패스_708" data-name="패스 708" d="M127.156,223.891a1.424,1.424,0,1,1-1.424-1.424,1.424,1.424,0,0,1,1.424,1.424" fill="#dd3a3a"/>
    <path id="패스_709" data-name="패스 709" d="M127.156,229.975a1.424,1.424,0,1,1-1.424-1.424,1.424,1.424,0,0,1,1.424,1.424" fill="#dd3a3a"/>
    <path id="패스_710" data-name="패스 710" d="M127.156,236.06a1.424,1.424,0,1,1-1.424-1.424,1.424,1.424,0,0,1,1.424,1.424" fill="#dd3a3a"/>
    <path id="패스_711" data-name="패스 711" d="M127.156,242.144a1.424,1.424,0,1,1-1.424-1.424,1.424,1.424,0,0,1,1.424,1.424" fill="#dd3a3a"/>
    <path id="패스_712" data-name="패스 712" d="M108.64,256.978a1.424,1.424,0,1,1-1.424-1.424,1.424,1.424,0,0,1,1.424,1.424" fill="#dd3a3a"/>
    <path id="패스_713" data-name="패스 713" d="M101.531,300.95a1.424,1.424,0,1,1-1.424-1.424,1.424,1.424,0,0,1,1.424,1.424" fill="#dd3a3a"/>
    <path id="패스_714" data-name="패스 714" d="M102.338,316.627a1.424,1.424,0,1,1-1.424-1.424,1.424,1.424,0,0,1,1.424,1.424" fill="#dd3a3a"/>
    <path id="패스_715" data-name="패스 715" d="M103.214,322.779a1.424,1.424,0,1,1-1.424-1.424,1.424,1.424,0,0,1,1.424,1.424" fill="#dd3a3a"/>
    <path id="패스_716" data-name="패스 716" d="M108.895,345.03a1.424,1.424,0,1,1-1.424-1.424,1.424,1.424,0,0,1,1.424,1.424" fill="#dd3a3a"/>
    <path id="패스_717" data-name="패스 717" d="M108.264,361.442a1.424,1.424,0,1,1-1.424-1.424,1.424,1.424,0,0,1,1.424,1.424" fill="#dd3a3a"/>
    <path id="패스_718" data-name="패스 718" d="M107.791,385.507a1.424,1.424,0,1,1-1.424-1.424,1.424,1.424,0,0,1,1.424,1.424" fill="#dd3a3a"/>
    <path id="패스_719" data-name="패스 719" d="M109.053,398.289a1.424,1.424,0,1,1-1.424-1.424,1.424,1.424,0,0,1,1.424,1.424" fill="#dd3a3a"/>
    <path id="패스_720" data-name="패스 720" d="M110.2,406.466a1.424,1.424,0,1,1-1.424-1.424,1.424,1.424,0,0,1,1.424,1.424" fill="#dd3a3a"/>
    <path id="패스_721" data-name="패스 721" d="M99.322,398.578a1.424,1.424,0,1,1-1.424-1.424,1.424,1.424,0,0,1,1.424,1.424" fill="#dd3a3a"/>
    <path id="패스_722" data-name="패스 722" d="M114.892,456.756a1.424,1.424,0,1,1-1.424-1.424,1.424,1.424,0,0,1,1.424,1.424" fill="#dd3a3a"/>
    <path id="패스_723" data-name="패스 723" d="M113.16,461.49a1.424,1.424,0,1,1-1.425-1.424,1.425,1.425,0,0,1,1.425,1.424" fill="#dd3a3a"/>
    <path id="패스_724" data-name="패스 724" d="M110.158,486.739a1.424,1.424,0,1,1-1.424-1.424,1.424,1.424,0,0,1,1.424,1.424" fill="#dd3a3a"/>
    <path id="패스_725" data-name="패스 725" d="M100.085,508.858a1.424,1.424,0,1,1-1.425-1.424,1.424,1.424,0,0,1,1.425,1.424" fill="#dd3a3a"/>
    <path id="패스_726" data-name="패스 726" d="M110.438,481.152a1.424,1.424,0,1,1-1.424-1.424,1.424,1.424,0,0,1,1.424,1.424" fill="#dd3a3a"/>
  </g>
</svg>
