<svg id="Triple_Energizer_Meridian_TE9-1" data-name="Triple Energizer Meridian, TE9-1" xmlns="http://www.w3.org/2000/svg" xmlns:xlink="http://www.w3.org/1999/xlink" width="367.036" height="511.669" viewBox="0 0 367.036 511.669">
  <defs>
    <clipPath id="clip-path">
      <rect id="사각형_2252" data-name="사각형 2252" width="367.036" height="511.669" fill="none"/>
    </clipPath>
  </defs>
  <g id="그룹_845" data-name="그룹 845" clip-path="url(#clip-path)">
    <path id="패스_1074" data-name="패스 1074" d="M364.845,490.25c-3.452,4.445-9.462-2.744-14.429-9.065s-12.939-18.08-17.844-23.717-10.878-12.989-12.728-10.866,6.32,13.374,8.829,17.025c7.239,10.53,15.547,22.115,20.178,34.086,1.49,3.837,2.956,9.847-.446,12.132s-8.32-3.937-12.033-9.4-11.151-18.477-19.247-29.467c-1.317-1.788-10.083-15.261-12.256-13.647s2.619,10.692,4.073,13.647c4.693,9.549,10.38,21.135,13.609,27.492,1.329,2.633,3.862,10.344.087,11.673s-8.717-5.936-11.114-9.624c-6.283-9.648-12.218-21.283-17.484-31.5-1.651-3.2-4.743-9.822-8.046-11.362-3.775-1.763-2.285,7.947-1.168,12.691s5.154,13.671,5.564,17.67c.285,2.856-.621,7.128-4.409,5.637-3.1-1.229-6.407-9.549-8.369-13.783s-3.949-9.065-5.811-14.094c-2.161-5.811-6.073-15.261-12.567-29.653-4.346-9.648-7.1-27.356-10.418-38.954-1.528-5.352-4.769-12.38-7.811-18.4-.261-.521-.521-1.03-.782-1.539-.4-.77-1.863-3.366-4.2-7.476-.149-.273-.311-.559-.472-.844-.112-.211-.236-.422-.36-.633l-4.62-8.357-7.984-13.66c-.422-.72-.844-1.465-1.279-2.21L135.506,197.084c-.286-.5-.547-1.005-.807-1.514q-.765-1.547-1.379-3.167c-.2-.546-.4-1.1-.571-1.664-.335-.708-.658-1.465-1.006-2.26-.124-.261-.236-.534-.36-.807-6.1-14.367-15.125-41.549-22.724-52.638l-.3-.447a8.323,8.323,0,0,1,.782,2.049c1.776,21.656.4,38.173.4,60.472l-4.68,101.031c-.55,15.6.01,23.295,9.062,44.678H1.334V1.335H33.918V16.484A16.034,16.034,0,0,0,48.335,32.416c8.22.856,16.093,1.924,23.63,3.141q10.878,1.77,20.713,3.912C109.292,41.17,128.5,44,141.466,53.153c12.8,9.015,18.068,25.319,23.656,39.165q9.033,22.462,18.042,44.9c3.005,7.537,7.227,15.782,10.083,24.226a.024.024,0,0,0,.025.025,36.67,36.67,0,0,1,2.36,4.557l19.532,42.915C245.016,272,280.1,351.956,282.84,356.252a40.334,40.334,0,0,0,15.882,14.579c5.836,2.93,16.875,10.778,23.928,17.123,8.345,7.476,17.994,15.5,21.011,18.863,2,2.222,4.458,6.01,7.388,9.958,2.62,3.539,5.948,7.252,4.371,9.4-3.328,4.532-9.934,1.365-13.162-.957-4.632-3.315-12.269-10.542-16.292-12.79-.584-.323-1.341-.683-2.21-1.068,1.6,6.78,5.513,12.443,7.885,16.714,7.761,14.082,17.049,29.9,26.027,43.276,2.707,4.048,10.629,14.454,7.177,18.9" fill="#fff"/>
    <path id="패스_1075" data-name="패스 1075" d="M364.845,490.25c-3.452,4.445-9.462-2.744-14.429-9.065s-12.939-18.08-17.844-23.717-10.878-12.989-12.728-10.866,6.32,13.374,8.829,17.025c7.239,10.53,15.547,22.115,20.178,34.086,1.49,3.837,2.956,9.847-.446,12.132s-8.32-3.937-12.033-9.4-11.151-18.477-19.247-29.467c-1.317-1.788-10.083-15.261-12.256-13.647s2.619,10.692,4.073,13.647c4.693,9.549,10.38,21.135,13.609,27.492,1.329,2.633,3.862,10.344.087,11.673s-8.717-5.936-11.114-9.624c-6.283-9.648-12.218-21.283-17.484-31.5-1.651-3.2-4.743-9.822-8.046-11.362-3.775-1.763-2.285,7.947-1.168,12.691s5.154,13.671,5.564,17.67c.285,2.856-.621,7.128-4.409,5.637-3.1-1.229-6.407-9.549-8.369-13.783s-3.949-9.065-5.811-14.094c-2.161-5.811-6.073-15.261-12.567-29.653-4.346-9.648-7.1-27.356-10.418-38.954-1.528-5.352-4.769-12.38-7.811-18.4-.261-.521-.521-1.03-.782-1.539-.4-.77-1.863-3.366-4.2-7.476-.149-.273-.311-.559-.472-.844-.112-.211-.236-.422-.36-.633l-4.62-8.357-7.984-13.66c-.422-.72-.844-1.465-1.279-2.21L135.506,197.084c-.286-.5-.547-1.005-.807-1.514q-.765-1.547-1.379-3.167c-.2-.546-.4-1.1-.571-1.664-.335-.708-.658-1.465-1.006-2.26-.124-.261-.236-.534-.36-.807-6.1-14.367-15.125-41.549-22.724-52.638l-.3-.447a8.323,8.323,0,0,1,.782,2.049c1.776,21.656.4,38.173.4,60.472l-4.68,101.031c-.55,15.6.01,23.295,9.062,44.678H1.334V1.335H33.918V16.484A16.034,16.034,0,0,0,48.335,32.416c8.22.856,16.093,1.924,23.63,3.141q10.878,1.77,20.713,3.912C109.292,41.17,128.5,44,141.466,53.153c12.8,9.015,18.068,25.319,23.656,39.165q9.033,22.462,18.042,44.9c3.005,7.537,7.227,15.782,10.083,24.226a.024.024,0,0,0,.025.025,36.67,36.67,0,0,1,2.36,4.557l19.532,42.915C245.016,272,280.1,351.956,282.84,356.252a40.334,40.334,0,0,0,15.882,14.579c5.836,2.93,16.875,10.778,23.928,17.123,8.345,7.476,17.994,15.5,21.011,18.863,2,2.222,4.458,6.01,7.388,9.958,2.62,3.539,5.948,7.252,4.371,9.4-3.328,4.532-9.934,1.365-13.162-.957-4.632-3.315-12.269-10.542-16.292-12.79-.584-.323-1.341-.683-2.21-1.068,1.6,6.78,5.513,12.443,7.885,16.714,7.761,14.082,17.049,29.9,26.027,43.276C360.375,475.4,368.3,485.8,364.845,490.25Z" fill="none" stroke="#535353" stroke-linecap="round" stroke-linejoin="round" stroke-width="2.669"/>
    <path id="패스_1076" data-name="패스 1076" d="M241.005,378.766l-4.979-9.015c2.334,4.11,3.8,6.7,4.2,7.475.26.509.521,1.018.782,1.54" fill="#fff"/>
    <path id="패스_1077" data-name="패스 1077" d="M241.005,378.766l-4.979-9.015c2.334,4.11,3.8,6.7,4.2,7.475C240.483,377.735,240.744,378.244,241.005,378.766Z" fill="none" stroke="#535353" stroke-linecap="round" stroke-linejoin="round" stroke-width="2.669"/>
    <path id="패스_1078" data-name="패스 1078" d="M134.7,195.57q-.764-1.547-1.378-3.166c-.2-.547-.4-1.106-.572-1.664-.335-.708-.658-1.466-1-2.26-.125-.261-.236-.534-.361-.808a33.255,33.255,0,0,0,1.727,5.092l2.4,4.321c-.286-.5-.546-1.006-.807-1.515" fill="#fff"/>
    <path id="패스_1079" data-name="패스 1079" d="M134.7,195.57q-.764-1.547-1.378-3.166c-.2-.547-.4-1.106-.572-1.664-.335-.708-.658-1.466-1-2.26-.125-.261-.236-.534-.361-.808a33.255,33.255,0,0,0,1.727,5.092l2.4,4.321C135.22,196.588,134.96,196.079,134.7,195.57Z" fill="none" stroke="#535353" stroke-linecap="round" stroke-linejoin="round" stroke-width="2.669"/>
    <path id="패스_1080" data-name="패스 1080" d="M230.574,359.916l-7.984-13.659c5.227,9.1,9.536,16.627,12.6,22.016Z" fill="#fff"/>
    <path id="패스_1081" data-name="패스 1081" d="M230.574,359.916l-7.984-13.659c5.227,9.1,9.536,16.627,12.6,22.016Z" fill="none" stroke="#535353" stroke-linecap="round" stroke-linejoin="round" stroke-width="2.669"/>
    <path id="패스_1082" data-name="패스 1082" d="M108.4,134.264c2.429-9.687,8.419-19.251,14.826-26.912-6.407,7.661-12.4,17.225-14.826,26.912" fill="#fff"/>
    <path id="패스_1083" data-name="패스 1083" d="M108.4,134.264c2.429-9.687,8.419-19.251,14.826-26.912C116.819,115.013,110.829,124.577,108.4,134.264Z" fill="none" stroke="#535353" stroke-linecap="round" stroke-linejoin="round" stroke-width="2.669"/>
    <path id="패스_1084" data-name="패스 1084" d="M291.256,441.151c12.835-2.151,27.781-13.827,27.781-13.827" fill="none" stroke="#535353" stroke-linecap="round" stroke-linejoin="round" stroke-width="2.669"/>
    <path id="패스_1085" data-name="패스 1085" d="M283.466,403.927c8.863,14.586,31.832,9.421,31.832,9.421" fill="none" stroke="#535353" stroke-linecap="round" stroke-linejoin="round" stroke-width="2.669"/>
    <path id="패스_1086" data-name="패스 1086" d="M323.757,411.359c-3.326-1.906-12.4-8.088-12.4-8.088" fill="none" stroke="#535353" stroke-linecap="round" stroke-linejoin="round" stroke-width="2.669"/>
    <path id="패스_1087" data-name="패스 1087" d="M177.87,240.568s13.585,1.753,30.237-12.708" fill="#fff"/>
    <path id="패스_1088" data-name="패스 1088" d="M177.87,240.568s13.585,1.753,30.237-12.708" fill="none" stroke="#535353" stroke-linecap="round" stroke-linejoin="round" stroke-width="2.669"/>
    <path id="패스_1089" data-name="패스 1089" d="M56.668,192.792c1.753-.438,40.6-4.013,51.632-58.318" fill="#fff"/>
    <path id="패스_1090" data-name="패스 1090" d="M56.668,192.792c1.753-.438,40.6-4.013,51.632-58.318" fill="none" stroke="#535353" stroke-linecap="round" stroke-linejoin="round" stroke-width="2.669"/>
    <path id="패스_1091" data-name="패스 1091" d="M46.151,144.149a7.45,7.45,0,1,0,7.45-7.45,7.45,7.45,0,0,0-7.45,7.45" fill="#fff"/>
    <circle id="타원_324" data-name="타원 324" cx="7.45" cy="7.45" r="7.45" transform="translate(43.474 141.245) rotate(-28.997)" fill="none" stroke="#bfbfbf" stroke-linecap="round" stroke-linejoin="round" stroke-width="1.977"/>
    <path id="패스_1092" data-name="패스 1092" d="M49.663,144.149a3.938,3.938,0,1,0,3.938-3.938,3.938,3.938,0,0,0-3.938,3.938" fill="#fff"/>
    <path id="패스_1093" data-name="패스 1093" d="M49.663,144.149a3.938,3.938,0,1,0,3.938-3.938A3.938,3.938,0,0,0,49.663,144.149Z" fill="none" stroke="#bfbfbf" stroke-linecap="round" stroke-linejoin="round" stroke-width="1.977"/>
    <path id="패스_1094" data-name="패스 1094" d="M46.841,32.3,58.673,50.051,117.833,60.9s25.636,10.846,27.608,56.2l8.874,38.454L182.909,222.6l6.9,12.818,47.328,86.768,10.846,22.678,4.93,26.622,9.86-6.9,3.944,8.874.986,8.874,11.832,54.23,6.9,20.706,31.552,44.37" fill="none" stroke="#dd3a3a" stroke-linecap="round" stroke-linejoin="round" stroke-width="1.483"/>
    <path id="패스_1095" data-name="패스 1095" d="M60.207,50.16a1.483,1.483,0,1,1-1.483-1.483,1.483,1.483,0,0,1,1.483,1.483" fill="#dd3a3a"/>
    <path id="패스_1096" data-name="패스 1096" d="M118.878,61.116a1.482,1.482,0,1,1-1.483-1.483,1.483,1.483,0,0,1,1.483,1.483" fill="#dd3a3a"/>
    <path id="패스_1097" data-name="패스 1097" d="M146.924,117.208a1.482,1.482,0,1,1-1.483-1.483,1.483,1.483,0,0,1,1.483,1.483" fill="#dd3a3a"/>
    <path id="패스_1098" data-name="패스 1098" d="M155.688,155.772a1.482,1.482,0,1,1-1.483-1.483,1.483,1.483,0,0,1,1.483,1.483" fill="#dd3a3a"/>
    <path id="패스_1099" data-name="패스 1099" d="M191.842,235.966a1.482,1.482,0,1,1-1.483-1.482,1.483,1.483,0,0,1,1.483,1.482" fill="#dd3a3a"/>
    <path id="패스_1100" data-name="패스 1100" d="M217.865,283.952a1.483,1.483,0,1,1-1.483-1.483,1.483,1.483,0,0,1,1.483,1.483" fill="#dd3a3a"/>
    <path id="패스_1101" data-name="패스 1101" d="M249.471,344.892a1.482,1.482,0,1,1-1.483-1.483,1.483,1.483,0,0,1,1.483,1.483" fill="#dd3a3a"/>
    <path id="패스_1102" data-name="패스 1102" d="M254.562,371.076a1.482,1.482,0,1,1-1.483-1.483,1.483,1.483,0,0,1,1.483,1.483" fill="#dd3a3a"/>
    <path id="패스_1103" data-name="패스 1103" d="M264.176,364.749a1.482,1.482,0,1,1-1.483-1.483,1.483,1.483,0,0,1,1.483,1.483" fill="#dd3a3a"/>
    <path id="패스_1104" data-name="패스 1104" d="M268.312,374.007a1.483,1.483,0,1,1-1.483-1.483,1.483,1.483,0,0,1,1.483,1.483" fill="#dd3a3a"/>
    <path id="패스_1105" data-name="패스 1105" d="M270.284,387.153a1.482,1.482,0,1,1-1.483-1.483,1.483,1.483,0,0,1,1.483,1.483" fill="#dd3a3a"/>
    <path id="패스_1106" data-name="패스 1106" d="M287.7,456.94a1.482,1.482,0,1,1-1.483-1.483,1.483,1.483,0,0,1,1.483,1.483" fill="#dd3a3a"/>
    <path id="패스_1107" data-name="패스 1107" d="M319.474,501.639a1.482,1.482,0,1,1-1.483-1.483,1.483,1.483,0,0,1,1.483,1.483" fill="#dd3a3a"/>
    <path id="패스_1108" data-name="패스 1108" d="M284.526,447.628a1.482,1.482,0,1,1-1.483-1.483,1.483,1.483,0,0,1,1.483,1.483" fill="#dd3a3a"/>
    <path id="패스_1109" data-name="패스 1109" d="M187.679,229.065a1.482,1.482,0,1,1-1.483-1.483,1.483,1.483,0,0,1,1.483,1.483" fill="#dd3a3a"/>
  </g>
</svg>
