<svg id="Triple_Energizer_Meridian_TE-2" data-name="Triple Energizer Meridian, TE-2" xmlns="http://www.w3.org/2000/svg" xmlns:xlink="http://www.w3.org/1999/xlink" width="165.578" height="264.7" viewBox="0 0 165.578 264.7">
  <defs>
    <clipPath id="clip-path">
      <rect id="사각형_2253" data-name="사각형 2253" width="165.578" height="264.7" fill="none"/>
    </clipPath>
  </defs>
  <g id="그룹_847" data-name="그룹 847" clip-path="url(#clip-path)">
    <path id="패스_1110" data-name="패스 1110" d="M2.83,94.162c4.36,26.412,22.052,54.564,42.6,71.69a23.88,23.88,0,0,1,8.649,20.738L47.4,252.052l44.143,4.5c.006,0,1.914-18.762,2.028-19.884q1.467-14.375,2.933-28.749.648-6.348,1.295-12.695c.477-4.679.88-8.449,1.81-13.706,8.827,1.679,17.922,2.7,26.785,1.22s17.542-5.7,22.926-12.893c5.829-7.789,7.171-17.948,8.252-27.617.282-2.523.022-6.385,1.115-8.71,1.212-2.58,5.163-2.762,5.512-6.123a4.737,4.737,0,0,0-1.189-3.592c-3.9-4.414-5.033-10.014-5.532-15.584-2.014-22.515,4.579-45.5-3.939-67.333C141.887,11.01,106.534.018,76.952,1.477a109.439,109.439,0,0,0-24.58,3.99C36.18,10.08,20.588,19.033,11.641,33.719,5.684,43.5,2.616,55.486,1.673,67.577A111.888,111.888,0,0,0,2.83,94.162" fill="#fff"/>
    <path id="패스_1111" data-name="패스 1111" d="M2.83,94.162c4.36,26.412,22.052,54.564,42.6,71.69a23.88,23.88,0,0,1,8.649,20.738L47.4,252.052l44.143,4.5c.006,0,1.914-18.762,2.028-19.884q1.467-14.375,2.933-28.749.648-6.348,1.295-12.695c.477-4.679.88-8.449,1.81-13.706,8.827,1.679,17.922,2.7,26.785,1.22s17.542-5.7,22.926-12.893c5.829-7.789,7.171-17.948,8.252-27.617.282-2.523.022-6.385,1.115-8.71,1.212-2.58,5.163-2.762,5.512-6.123a4.737,4.737,0,0,0-1.189-3.592c-3.9-4.414-5.033-10.014-5.532-15.584-2.014-22.515,4.579-45.5-3.939-67.333C141.887,11.01,106.534.018,76.952,1.477a109.439,109.439,0,0,0-24.58,3.99C36.18,10.08,20.588,19.033,11.641,33.719,5.684,43.5,2.616,55.486,1.673,67.577A111.888,111.888,0,0,0,2.83,94.162Z" fill="none" stroke="#535353" stroke-linecap="round" stroke-linejoin="round" stroke-width="2.7"/>
    <path id="패스_1112" data-name="패스 1112" d="M146.408,82.094a25.7,25.7,0,0,0-16.522,2.746" fill="#fff"/>
    <path id="패스_1113" data-name="패스 1113" d="M146.408,82.094a25.7,25.7,0,0,0-16.522,2.746" fill="none" stroke="#535353" stroke-linecap="round" stroke-linejoin="round" stroke-width="2.7"/>
    <path id="패스_1114" data-name="패스 1114" d="M129.886,104.608a25.7,25.7,0,0,0,16.522-2.746" fill="#fff"/>
    <path id="패스_1115" data-name="패스 1115" d="M129.886,104.608a25.7,25.7,0,0,0,16.522-2.746" fill="none" stroke="#535353" stroke-linecap="round" stroke-linejoin="round" stroke-width="2.7"/>
    <path id="패스_1116" data-name="패스 1116" d="M156.215,147.414a15.655,15.655,0,0,1-8.3-.5,46.694,46.694,0,0,1-7.668-3.437" fill="#fff"/>
    <path id="패스_1117" data-name="패스 1117" d="M156.215,147.414a15.655,15.655,0,0,1-8.3-.5,46.694,46.694,0,0,1-7.668-3.437" fill="none" stroke="#535353" stroke-linecap="round" stroke-linejoin="round" stroke-width="2.7"/>
    <path id="패스_1118" data-name="패스 1118" d="M89.656,131.868c4.742,6.683-7.756,14.115-12.494,7.437-7.074-9.97-10.768-22.343-6.112-33.726,2.926-7.155,17.141-14.743,21.67,3.109" fill="#fff"/>
    <path id="패스_1119" data-name="패스 1119" d="M89.656,131.868c4.742,6.683-7.756,14.115-12.494,7.437-7.074-9.97-10.768-22.343-6.112-33.726,2.926-7.155,17.141-14.743,21.67,3.109" fill="none" stroke="#535353" stroke-linecap="round" stroke-linejoin="round" stroke-width="2.7"/>
    <path id="패스_1120" data-name="패스 1120" d="M13.892,263.35h132.94c-2.209-2.789-4.418-5.616-6.533-8.574-12.825-17.823-27.521-35.159-47.216-45.755-12.749-6.871-27.782-8.406-41.355-3.389-24.544,9.061-36.619,32.594-37.836,57.718" fill="#fff"/>
    <path id="패스_1121" data-name="패스 1121" d="M13.892,263.35h132.94c-2.209-2.789-4.418-5.616-6.533-8.574-12.825-17.823-27.521-35.159-47.216-45.755-12.749-6.871-27.782-8.406-41.355-3.389C27.184,214.693,15.109,238.226,13.892,263.35Z" fill="none" stroke="#535353" stroke-linecap="round" stroke-linejoin="round" stroke-width="2.7"/>
    <path id="패스_1122" data-name="패스 1122" d="M89.765,113.517s-5.1-18.943-13.866-7.64c0,0-7.317,12.758.22,24.386a9.837,9.837,0,0,0,5.664,4.27c2.745.72,4.328.955,4.821-5.45,0,0-5.029-6.945-5.029-9.675,0,0-1.006-6.322,4.885-4.167,0,0,3.592,2.012,4.167,5.6" fill="#fff"/>
    <path id="패스_1123" data-name="패스 1123" d="M89.765,113.517s-5.1-18.943-13.866-7.64c0,0-7.317,12.758.22,24.386a9.837,9.837,0,0,0,5.664,4.27c2.745.72,4.328.955,4.821-5.45,0,0-5.029-6.945-5.029-9.675,0,0-1.006-6.322,4.885-4.167,0,0,3.592,2.012,4.167,5.6" fill="none" stroke="#535353" stroke-linecap="round" stroke-linejoin="round" stroke-width="2.7"/>
    <path id="패스_1124" data-name="패스 1124" d="M127.11,84.705,98.456,111.142l-4.268,7.482S99.4,90.8,79.446,93.462c0,0-16.849-.887-15.962,22.613,0,0-.887,26.16,17.07,30.15l-7.316,19.953,9.311,65.843" fill="none" stroke="#dd3a3a" stroke-linecap="round" stroke-linejoin="round" stroke-width="1.5"/>
    <path id="패스_1125" data-name="패스 1125" d="M128.939,84.484a1.5,1.5,0,1,1-1.5-1.5,1.5,1.5,0,0,1,1.5,1.5" fill="#dd3a3a"/>
    <path id="패스_1126" data-name="패스 1126" d="M100.119,111.142a1.5,1.5,0,1,1-1.5-1.5,1.5,1.5,0,0,1,1.5,1.5" fill="#dd3a3a"/>
    <path id="패스_1127" data-name="패스 1127" d="M95.741,118.4a1.5,1.5,0,1,1-1.5-1.5,1.5,1.5,0,0,1,1.5,1.5" fill="#dd3a3a"/>
    <path id="패스_1128" data-name="패스 1128" d="M80.946,93.573a1.5,1.5,0,1,1-1.5-1.5,1.5,1.5,0,0,1,1.5,1.5" fill="#dd3a3a"/>
    <path id="패스_1129" data-name="패스 1129" d="M64.929,112.888a1.5,1.5,0,1,1-1.5-1.5,1.5,1.5,0,0,1,1.5,1.5" fill="#dd3a3a"/>
    <path id="패스_1130" data-name="패스 1130" d="M67.09,130.845a1.5,1.5,0,1,1-1.5-1.5,1.5,1.5,0,0,1,1.5,1.5" fill="#dd3a3a"/>
    <path id="패스_1131" data-name="패스 1131" d="M81.944,146a1.5,1.5,0,1,1-1.5-1.5,1.5,1.5,0,0,1,1.5,1.5" fill="#dd3a3a"/>
    <path id="패스_1132" data-name="패스 1132" d="M74.732,166.226a1.5,1.5,0,1,1-1.5-1.5,1.5,1.5,0,0,1,1.5,1.5" fill="#dd3a3a"/>
  </g>
</svg>
